<svg version="1.1" id="Livello_1" xmlns="http://www.w3.org/2000/svg" xmlns:xlink="http://www.w3.org/1999/xlink" x="0px" y="0px"
	 viewBox="0 0 5952.8 1700.8" style="enable-background:new 0 0 5952.8 1700.8;" xml:space="preserve">
<style type="text/css">
	.st0{fill:url(#XMLID_9_);}
	.st1{fill:none;stroke:#000000;stroke-width:10;stroke-miterlimit:10;}
</style>
<g id="XMLID_1_">
	<g id="XMLID_215_">
		<g id="XMLID_4_">
			<radialGradient id="XMLID_9_" cx="2974.4644" cy="850.6122" r="2061.8564" gradientUnits="userSpaceOnUse">
				<stop  offset="9.914436e-008" style="stop-color:#E3D98B"/>
				<stop  offset="0.3269" style="stop-color:#A99357"/>
				<stop  offset="0.788" style="stop-color:#715123"/>
				<stop  offset="1" style="stop-color:#5F3C15"/>
			</radialGradient>
			<path id="XMLID_5_" class="st0" d="M3071.1,576.2l-66.9-38.6l57.4,0.1l28.9-45.3l38.2,16c-40.9-43.1-69.9-21.4-69.9-21.4
				l-48.2,35.9c-19.4,14.4-28,0-28,0l-17-33.9c-33.1-30.7-62.8,0.4-62.8,0.4l-18.2,33c-17.5,18.1-34.5,0.6-34.5,0.6l-45.4-33.9
				c-39.5-29.4-66.2,8.1-66.2,8.1l35.5-13l24.8,48.2l57.1,3l-67.9,38.3c81.6-3.8,91.1,31.8,91.1,31.8l54.5,165.5l51.2-163.9
				C3004.9,563.5,3065.2,574.9,3071.1,576.2z M2819.9,981.5L2671.4,1419c0,0-41.2,59.4-92.2,59.8c0,0-41-33.1-29-110.1l210.2-407.4
				l-210.2,323.4c0,0-22.1,40.9-92.2,38.8c0,0-31.8-34.7-3.3-106.8l250.7-291.1c0,0-70.3-109.1-80.8-221.5l-40.5,317l-74.4,17.8
				l32.3-148.8l-48.5-6.5l-66.3,140.8l-77.5,14.6l186-360.7l-42.2-3.3l-33.9,80.5h-72.7l-71.3,273.7l-98.6,17.8l114.9-291.5
				l-87.4,8.5l45.4-80.9c0,0,1.7-9.1-1.3-13.2c0,0-19.2-29-40.9,9.9c0,0-111.2,251.8-89,323.5l-108.4,43.7c0,0,9.6-62.8,58.3-171.4
				l-55-132.7c0,0-76.7,210.2-77.7,268.5c0,0-44.4,23.3-99.2,24.9l157.4-392.5c0,0-18-19.1-23.8-1.1c0,0-9.6,58.1-80.9,60.4
				l-105.7,3.3l-32.3,74.4l131.6,3.3l-27,58.1h-118.7c0,0-48.8,96.6,2.3,96c0,0,110.3,6.6,127.2-18.4c0,0-12.3,93.9-117.6,99.3
				c0,0-164.4,13.4-95.9-189.8l56-121.9l-30.1-2.1l28-61.4c0,0-38.3-19.4-75.5-16.3c0,0,93.2,128.2-52.8,182.3
				c0,0-58.7,18.5-122.9,7.5c0,0,8.5,142.6,160.7,186.6c0,0-154.9,70.4-220-153.2l-88.6,151.1l-93.8,10.8L1477.6,663
				c0,0,48-51.6-84.5-66.2c0,0,154.8,111.5-116.1,181.6c0,0,116.3,36.9,2.3,158.4c0,0-98,102.3-277.5,96.6c0,0-169.6-1.8-260.6-29.7
				c0,0,290-158.4,380.7-341.9c0,0,5.9-45.3-45.4-18.2c0,0-398.5,296.5-578,167.1L1005,559.6c-14.3,4.5-661.7,212.6-752.4,35.5
				c0,0,517.2-54.7,588.6-123.9c-15,2.7-555.2,101.8-660.6-158.7c0,0,548.3,73.4,609.1,31.3c0,0-625.4-17.8-609.1-326.8
				c0,0,424.2,277.8,1379.9,242.3c0,0,172.3,168.5,694.3,221.5c0,0,288.7-51.8,378.8-8.2c0,0,61.7,59.4,130.7-65.2
				c0,0,168.5-192.5,339.8,0.6c0,0,36.2,121.4,140.9,74.1c0,0,28.4-48,365.4,10.8c0,0,337.1-4.1,657.1-237.9
				c0,0,1352.3-77.7,1501-208.8c0,0,37.3,259.4-828.2,324.1c0,0,668.7-20.8,760.9-77.1c0,0,86.1,169.5-881.6,240.5
				c0,0,454.5,31.5,664.3-21.5c0,0-12.9,131.1-585.4,159.6l-4.4,60.4c0,0,269.1,21.4,315.5,0c0,0-7.4,114-311.1,90.5
				c0,0,24.9,195.4,198.3,133.7c0,0-237.8,354.5-306.3-267.4c0,0-5.8-104.3-38.8-86.3l4.4,83.9c0,0-90.4-52.3-113.4,49.4
				c0,0-42.9,228.7,139.8,224.8c0,0,16.7,69,56.7,99.4c0,0-253.5,39.6-277.3-250.4c0,0-18.1-162.7,99.3-215.7
				c0,0-96.2,4-129.2,116.7c0,0-49.9,211.2,101.9,351c0,0-98.3,29.8-159.1-161.3l-102.4-12.3l-15.4,79.6c0,0-72.3-33.1-66.2-49.5
				c0,0,110.3-238.9,131.8-268.2c0,0-98.5-29-131.8,5.4c0,0,135.8,124.9-63.7,231c0,0,107.8,139.3,281.8,160.6
				c0,0-161.5,48.8-354.9-148.7l-9.5,150.4l-77.8-1.8l40.5-309.8c6.8-90.4-76.1-91-76.1-91s104.3,84.3,3,231.8
				c-74.1,107.9-191,139.1-191,139.1l-103.5,34.1l12-76.5l61.5-17.4l43.4-277l-58.4,15l5.9-54l-115.4,13.2c0,0-19.5,172.9-12,258.3
				L3806,850l-15,89l-178.9,53.6c37.5-256.6,5.9-320,5.9-320c-18-30-43.4-3.1-43.4-3.1c-18,45-1.6,368.1-1.6,368.1l-75-21.1
				c30-94.5,25.5-302,22.5-332c-3-30-13.4-13.4-13.4-13.4l-111,375.4l-80.9-206.7l-54,170.7l-93.1-278l17.3,143l-28.6,53.2
				l216.7,289.6c0,0,34.4,55.3,6.5,106.8c0,0-33.1,18.8-95.3-44.7l-176.4-321l188.6,425.5c0,0,14.4,69.2-18.8,97
				c0,0-63.5,9.1-94.4-65.2l-141.7-434.7l125.6,527.4c0,0,4.7,63.2-28.6,95.5c0,0-64.8-9.9-86.7-70.7l-84.7-532.6l50.1,580.7
				c0,0-13.3,77-84,101.8c0,0-65.2-22.2-80.9-97l33.9-582.4l-75,545.7c0,0-33.4,47.5-83.6,57.7c0,0-37.8-44.3-40.5-82.5
				L2819.9,981.5z M4386.1,834.5l80.8,5.4c-16.1-55,8.1-163.8,8.1-163.8C4439.3,727.3,4386.1,834.5,4386.1,834.5z M4259.9,782.7
				c14.4-77.1-101.3-35.9-101.3-35.9v107.1C4238.9,853.9,4259.9,782.7,4259.9,782.7z M4023.3,775.4
				c15.4-118.7-115.6-100.7-115.6-100.7l-37.3,261C3870.4,935.6,4007.9,894,4023.3,775.4z M3380.1,868l55.9-213l-237.9,3l57,183
				l58-128L3380.1,868z M2553.9,841l17.3-116.4L2508.7,841H2553.9z M2140.9,810.7l57.3-142.3l-126.2-6.5L2140.9,810.7z
				 M1641.7,715.9c11.6-81.2-91.1-63.5-91.1-63.5l-67.5,115.3C1623.4,809,1641.7,715.9,1641.7,715.9z M1352.7,678.7
				c4-80.3-135.9-58.8-135.9-58.8c0.4,12-64.6,117.6-64.6,117.6C1351.4,733.5,1352.7,680.2,1352.7,678.7z M1240.5,865.7
				c43.6-71-122.9-62.5-122.9-62.5C1103.7,828.8,979.4,954,979.4,954C1188.9,970.4,1240.5,865.7,1240.5,865.7z"/>
		</g>
		<g id="XMLID_8_">
			<path id="XMLID_49_" class="st1" d="M2820.2,980.6l-0.3,0.8l-132.4,544.3c2.7,38.2,40.5,82.5,40.5,82.5
				c50.2-10.2,83.6-57.7,83.6-57.7l75-545.7l-33.9,582.4c15.7,74.8,80.9,97,80.9,97c70.7-24.9,84-101.8,84-101.8l-50.1-580.7
				l84.7,532.6c21.9,60.8,86.7,70.7,86.7,70.7c33.2-32.3,28.6-95.5,28.6-95.5l-125.6-527.4l141.7,434.7
				c30.8,74.3,94.4,65.2,94.4,65.2c33.2-27.9,18.8-97,18.8-97l-188.6-425.5l176.4,321c62.2,63.5,95.3,44.7,95.3,44.7
				c27.9-51.5-6.5-106.8-6.5-106.8l-216.7-289.6l28.6-53.2l-17.3-143l93.1,278l54-170.7l80.9,206.7l111-375.4
				c0,0,10.5-16.6,13.4,13.4c3,30,7.5,237.5-22.5,332l75,21.1c0,0-16.4-323.1,1.6-368.1c0,0,25.5-26.9,43.4,3.1
				c0,0,31.5,63.4-5.9,320L3791,939l15-89l-129.4,62.5c-7.5-85.4,12-258.3,12-258.3l115.4-13.2l-5.9,54l58.4-15l-43.4,277
				l-61.5,17.4l-12,76.5l103.5-34.1c0,0,116.8-31.1,191-139.1c101.3-147.5-3-231.8-3-231.8s82.9,0.6,76.1,91l-40.5,309.8l77.8,1.8
				l9.5-150.4c193.4,197.5,354.9,148.7,354.9,148.7c-174-21.2-281.8-160.6-281.8-160.6c199.5-106.1,63.7-231,63.7-231
				c33.4-34.4,131.8-5.4,131.8-5.4c-21.5,29.3-131.8,268.2-131.8,268.2c-6.1,16.4,66.2,49.5,66.2,49.5l15.4-79.6l102.4,12.3
				c60.8,191.1,159.1,161.3,159.1,161.3c-151.8-139.8-101.9-351-101.9-351c33-112.7,129.2-116.7,129.2-116.7
				c-117.4,53-99.3,215.7-99.3,215.7c23.8,290,277.3,250.4,277.3,250.4c-40-30.4-56.7-99.4-56.7-99.4
				c-182.6,4-139.8-224.8-139.8-224.8c23.1-101.7,113.4-49.4,113.4-49.4l-4.4-83.9c33-18,38.8,86.3,38.8,86.3
				c68.5,621.8,306.3,267.4,306.3,267.4c-173.4,61.7-198.3-133.7-198.3-133.7c303.7,23.5,311.1-90.5,311.1-90.5
				c-46.4,21.4-315.5,0-315.5,0l4.4-60.4c572.5-28.4,585.4-159.6,585.4-159.6c-209.8,53-664.3,21.5-664.3,21.5
				c967.7-71,881.6-240.5,881.6-240.5c-92.2,56.3-760.9,77.1-760.9,77.1c865.6-64.6,828.2-324.1,828.2-324.1
				c-148.7,131.1-1501,208.8-1501,208.8c-320,233.8-657.1,237.9-657.1,237.9c-337-58.7-365.4-10.8-365.4-10.8
				c-104.7,47.2-140.9-74.1-140.9-74.1c-171.3-193.1-339.8-0.6-339.8-0.6c-69,124.6-130.7,65.2-130.7,65.2
				c-90.1-43.6-378.8,8.2-378.8,8.2c-522-53-694.3-221.5-694.3-221.5C604.8,294.8,180.6,17,180.6,17
				c-16.3,308.9,609.1,326.8,609.1,326.8c-60.8,42.2-609.1-31.3-609.1-31.3C286,573.1,826.2,473.9,841.2,471.2"/>
			<path id="XMLID_48_" class="st1" d="M2760.3,961.4l-210.2,407.4c-12,77,29,110.1,29,110.1c51.1-0.4,92.2-59.8,92.2-59.8
				l148.5-437.5"/>
			<path id="XMLID_47_" class="st1" d="M1005.3,559.5c0,0-0.1,0-0.3,0.1L498.4,810.7c179.5,129.4,578-167.1,578-167.1
				c51.3-27,45.4,18.2,45.4,18.2c-90.7,183.5-380.7,341.9-380.7,341.9c91,27.9,260.6,29.7,260.6,29.7
				c179.5,5.7,277.5-96.6,277.5-96.6c114-121.5-2.3-158.4-2.3-158.4c270.9-70.2,116.1-181.6,116.1-181.6
				c132.4,14.6,84.5,66.2,84.5,66.2l-223.2,349.4l93.8-10.8l88.6-151.1c65.1,223.6,220,153.2,220,153.2
				c-152.2-44-160.7-186.6-160.7-186.6c64.2,11,122.9-7.5,122.9-7.5c146-54.2,52.8-182.3,52.8-182.3c37.2-3.1,75.5,16.3,75.5,16.3
				l-28,61.4l30.1,2.1l-56,121.9c-68.5,203.3,95.9,189.8,95.9,189.8c105.2-5.4,117.6-99.3,117.6-99.3
				c-16.8,25-127.2,18.4-127.2,18.4c-51.1,0.6-2.3-96-2.3-96H1896l27-58.1l-131.6-3.3l32.3-74.4l105.7-3.3
				c71.3-2.3,80.9-60.4,80.9-60.4c5.8-18,23.8,1.1,23.8,1.1l-157.4,392.5c54.7-1.6,99.2-24.9,99.2-24.9
				c1-58.3,77.7-268.5,77.7-268.5l55,132.7c-48.7,108.6-58.3,171.4-58.3,171.4l108.4-43.7c-22.2-71.7,89-323.5,89-323.5
				c21.6-38.9,40.9-9.9,40.9-9.9c3,4.1,1.3,13.2,1.3,13.2l-45.4,80.9l87.4-8.5L2216.9,1047l98.6-17.8l71.3-273.7h72.7l33.9-80.5
				l42.2,3.3l-186,360.7l77.5-14.6l66.3-140.8l48.5,6.5l-32.3,148.8l74.4-17.8l40.5-317c10.5,112.5,80.8,221.5,80.8,221.5
				l-250.7,291.1c-28.6,72.1,3.3,106.8,3.3,106.8c70.2,2.1,92.2-38.8,92.2-38.8l210.2-323.4v-0.1"/>
			<path id="XMLID_46_" class="st1" d="M841.5,471.1c-0.1,0.1-0.1,0.1-0.3,0.1c-71.4,69.2-588.6,123.9-588.6,123.9
				c90.7,177.1,738.1-31,752.4-35.5"/>
			<path id="XMLID_43_" class="st1" d="M3071.5,576.3c0,0-0.1,0-0.4-0.1"/>
			<path id="XMLID_42_" class="st1" d="M3071.1,576.2c-5.9-1.3-66.2-12.7-86.4,30.8L2933.5,771L2879,605.5c0,0-9.5-35.6-91.1-31.8
				l67.9-38.3l-57.1-3l-24.8-48.2l-35.5,13c0,0,26.7-37.5,66.2-8.1L2850,523c0,0,17,17.5,34.5-0.6l18.2-33c0,0,29.7-31.1,62.8-0.4
				l17,33.9c0,0,8.6,14.4,28,0l48.2-35.9c0,0,29-21.8,69.9,21.4l-38.2-16l-28.9,45.3l-57.4-0.1L3071.1,576.2z"/>
			<path id="XMLID_41_" class="st1" d="M1352.7,678.7c4-80.3-135.9-58.8-135.9-58.8c0.4,12-64.6,117.6-64.6,117.6
				C1351.4,733.5,1352.7,680.2,1352.7,678.7z"/>
			<path id="XMLID_40_" class="st1" d="M1240.5,865.7c43.6-71-122.9-62.5-122.9-62.5C1103.7,828.8,979.4,954,979.4,954
				C1188.9,970.4,1240.5,865.7,1240.5,865.7z"/>
			<path id="XMLID_39_" class="st1" d="M1641.7,715.9c11.6-81.2-91.1-63.5-91.1-63.5l-67.5,115.3
				C1623.4,809,1641.7,715.9,1641.7,715.9z"/>
			<polygon id="XMLID_38_" class="st1" points="2140.9,810.7 2198.2,668.4 2072,661.9 			"/>
			<polygon id="XMLID_37_" class="st1" points="2553.9,841 2571.2,724.6 2508.7,841 			"/>
			<path id="XMLID_36_" class="st1" d="M4259.9,782.7c14.4-77.1-101.3-35.9-101.3-35.9v107.1
				C4238.9,853.9,4259.9,782.7,4259.9,782.7z"/>
			<path id="XMLID_35_" class="st1" d="M4466.9,839.9c-16.1-55,8.1-163.8,8.1-163.8c-35.6,51.2-88.8,158.4-88.8,158.4L4466.9,839.9z
				"/>
			<polygon id="XMLID_25_" class="st1" points="3435.9,655 3380.1,868 3313,713 3255,841 3198,657.9 			"/>
			<path id="XMLID_24_" class="st1" d="M3907.7,674.6l-37.3,261c0,0,137.5-41.6,152.9-160.3S3907.7,674.6,3907.7,674.6z"/>
		</g>
	</g>
</g>
</svg>
