<?xml version="1.0" encoding="UTF-8" standalone="no"?>
<!DOCTYPE svg PUBLIC "-//W3C//DTD SVG 1.1//EN" "http://www.w3.org/Graphics/SVG/1.1/DTD/svg11.dtd">
<svg width="100%" height="100%" viewBox="0 0 1527 558" version="1.1" xmlns="http://www.w3.org/2000/svg" xmlns:xlink="http://www.w3.org/1999/xlink" xml:space="preserve" xmlns:serif="http://www.serif.com/" style="fill-rule:evenodd;clip-rule:evenodd;stroke-linejoin:round;stroke-miterlimit:2;">
    <g transform="matrix(1,0,0,1,-487.76,-159.885)">
        <g transform="matrix(1,0,0,1,375.522,122.518)">
            <text x="207.961px" y="116.237px" style="font-family:'Arial-Black', 'Arial Black', sans-serif;font-weight:900;font-size:108.333px;">Costr<tspan x="530.419px 602.676px " y="116.237px 116.237px ">uz</tspan>ioni Elettric<tspan x="1353.01px 1425.27px " y="116.237px 116.237px ">he</tspan></text>
            <text x="118.586px" y="372.57px" style="font-family:'TimesNewRomanPS-BoldItalicMT', 'Times New Roman', serif;font-weight:700;font-style:italic;font-size:250px;fill:rgb(255,0,0);">Battan Ivan</text>
            <text x="1481.48px" y="372.57px" style="font-family:'Arial-Black', 'Arial Black', sans-serif;font-weight:900;font-size:66.667px;">S.r<tspan x="1576.27px 1598.47px " y="372.57px 372.57px ">.l</tspan>.</text>
            <text x="222.155px" y="509.445px" style="font-family:'Verdana-Italic', 'Verdana', sans-serif;font-style:italic;font-size:37.5px;">Tel. 0461/657014 Fax 0461/657142 –</text>
            <text x="958.527px" y="509.445px" style="font-family:'Verdana-Italic', 'Verdana', sans-serif;font-style:italic;font-size:37.5px;fill:rgb(0,0,255);">info@ibattan.it</text>
            <text x="1262.94px" y="509.445px" style="font-family:'Verdana', sans-serif;font-size:37.5px;">–</text>
            <text x="1299.99px" y="509.445px" style="font-family:'Verdana', sans-serif;font-size:37.5px;fill:rgb(0,0,255);">www<tspan x="1390.77px 1404.41px " y="509.445px 509.445px ">.i</tspan>battan.it</text>
            <text x="357.723px" y="587.195px" style="font-family:'Verdana-Bold', 'Verdana', sans-serif;font-weight:700;font-size:37.5px;">Mezzolombardo</text>
            <g transform="matrix(37.5,0,0,37.5,1400.39,587.195)">
            </g>
            <text x="701.59px" y="587.195px" style="font-family:'Verdana', sans-serif;font-size:37.5px;">Via della R<tspan x="900.915px 924.645px " y="587.195px 587.195px ">up</tspan>e 8/B 38017 TN IT<tspan x="1296.71px 1322.35px 1340.29px 1363.36px " y="587.195px 587.195px 587.195px 587.195px ">ALY </tspan>–</text>
        </g>
    </g>
</svg>
