<?xml version="1.0" encoding="UTF-8" standalone="no"?>
<!DOCTYPE svg PUBLIC "-//W3C//DTD SVG 1.1//EN" "http://www.w3.org/Graphics/SVG/1.1/DTD/svg11.dtd">
<svg width="100%" height="100%" viewBox="0 0 898 394" version="1.1" xmlns="http://www.w3.org/2000/svg" xmlns:xlink="http://www.w3.org/1999/xlink" xml:space="preserve" xmlns:serif="http://www.serif.com/" style="fill-rule:evenodd;clip-rule:evenodd;stroke-linejoin:round;stroke-miterlimit:2;">
    <g id="Layer-1" serif:id="Layer 1" transform="matrix(4.16667,0,0,4.16667,0,0)">
        <g transform="matrix(0.24,0,0,0.24,5.90444,46.6179)">
            <text x="7.769px" y="98.839px" style="font-family:'Roboto-Light', 'Roboto';font-weight:300;font-size:50px;fill:rgb(20,169,186);">P<tspan x="38.719px 72.369px 103.299px 132.332px 166.028px 201.384px 214.934px 227.337px " y="98.839px 98.839px 98.839px 98.839px 98.839px 98.839px 98.839px 98.839px ">ORTONI -</tspan> A<tspan x="284.579px 318.129px 347.087px 380.709px 424.491px 455.798px 485.787px " y="98.839px 98.839px 98.839px 98.839px 98.839px 98.839px 98.839px ">UTOMAZI</tspan>ON<tspan x="568.324px 581.874px 594.276px " y="98.839px 98.839px 98.839px ">I -</tspan> C<tspan x="652.778px " y="98.839px ">A</tspan>NC<tspan x="751.578px 780.378px " y="98.839px 98.839px ">EL</tspan>LI</text>
            <g transform="matrix(50,0,0,50,775.357,165.798)">
            </g>
            <text x="77.779px" y="165.798px" style="font-family:'Roboto-LightItalic', 'Roboto';font-weight:300;font-style:italic;font-size:50px;fill:rgb(127,133,139);">3<tspan x="103.829px 129.879px 155.929px 166.891px 192.941px 219.541px 245.591px 272.191px 298.791px 324.841px 335.803px 349.353px 360.828px 371.678px 397.838px 413.428px 439.578px 482.228px 508.378px 519.228px 545.49px 569.628px 580.478px 604.728px 620.478px 636.228px 652.425px 663.178px 687.477px 712.778px 724.228px 748.478px " y="165.798px 165.798px 165.798px 165.798px 165.798px 165.798px 165.798px 165.798px 165.798px 165.798px 165.798px 165.798px 165.798px 165.798px 165.798px 165.798px 165.798px 165.798px 165.798px 165.798px 165.798px 165.798px 165.798px 165.798px 165.798px 165.798px 165.798px 165.798px 165.798px 165.798px 165.798px 165.798px ">37 509003 - info@bioelettrica.eu</tspan></text>
        </g>
        <g transform="matrix(0.873299,0,0,-0.835077,25.6771,39.4872)">
            <path d="M0,15.928C-0.531,15.053 -1.406,15.131 -1.406,15.131L-7.998,15.131L-7.047,17.6L-0.484,17.6C0.219,17.6 0.531,16.803 0,15.928M-5.641,3.569C-8.391,1.381 -13.953,-0.338 -13.953,-0.338L-8.9,12.787L-4.375,12.787C-4.375,12.787 -0.641,12.975 -0.641,10.256C-0.641,7.537 -3.057,5.624 -5.641,3.569M0.828,13.944C2.391,13.944 4.484,16.444 4.484,18.162C4.484,19.881 1.359,20.089 1.359,20.089L-10.297,20.089C-10.047,19.141 -10.797,16.944 -10.797,16.944C-10.797,16.944 -15.172,5.225 -16.766,1.006C-18.359,-3.213 -19.453,-4.161 -19.453,-4.161C-13.026,-3.786 -7.922,-1.306 -3.266,1.975C1.391,5.256 3.047,8.506 3.047,10.881C3.047,13.256 0.828,13.944 0.828,13.944" style="fill:rgb(0,169,188);fill-rule:nonzero;"/>
        </g>
        <g transform="matrix(0.873299,0,0,-0.835077,33.8779,42.9619)">
            <path d="M0,24.25C0,24.25 0.25,23.354 -0.156,22.292C-0.562,21.229 -7.687,2.261 -7.687,2.261C-7.687,2.261 -8.688,0 -9.25,0L-3.969,0C-3.969,0 -4.437,1.354 -3.938,2.761C-3.438,4.167 3.344,21.761 3.344,21.761C3.344,21.761 4.531,24.25 5.25,24.25L0,24.25Z" style="fill:rgb(0,169,188);fill-rule:nonzero;"/>
        </g>
        <g transform="matrix(0.873299,0,0,-0.835077,51.094,28.5218)">
            <path d="M0,-10.036C-4.412,-14.405 -10.213,-15.7 -12.958,-12.93C-15.703,-10.158 -14.351,-4.371 -9.939,-0C-5.528,4.369 0.273,5.664 3.018,2.893C5.763,0.122 4.411,-5.667 0,-10.036M-11.816,1.895C-17.532,-3.769 -19.102,-11.453 -15.321,-15.27C-11.541,-19.087 -3.841,-17.593 1.876,-11.931C7.593,-6.269 9.163,1.416 5.381,5.234C1.6,9.051 -6.1,7.556 -11.816,1.895" style="fill:rgb(0,169,188);fill-rule:nonzero;"/>
        </g>
        <g transform="matrix(0.873299,0,0,-0.835077,159.9,42.9619)">
            <path d="M0,24.25C0,24.25 0.25,23.354 -0.156,22.292C-0.562,21.229 -7.687,2.261 -7.687,2.261C-7.687,2.261 -8.688,0 -9.25,0L-3.969,0C-3.969,0 -4.437,1.354 -3.938,2.761C-3.438,4.167 3.344,21.761 3.344,21.761C3.344,21.761 4.531,24.25 5.25,24.25L0,24.25Z" style="fill:rgb(126,130,138);fill-rule:nonzero;"/>
        </g>
        <g transform="matrix(0.873299,0,0,-0.835077,67.9809,42.9619)">
            <path d="M9.491,24.25L-5.25,24.25C-5.25,24.25 -5,23.354 -5.406,22.292C-5.812,21.229 -12.938,2.261 -12.938,2.261C-12.938,2.261 -13.938,0 -14.5,0L1.533,0L3.324,4.526C3.324,4.526 1.277,3.479 -0.473,3.479L-8.92,3.479C-8.079,5.713 -5.608,12.143 -3.837,16.745L5.168,16.745L6.512,19.813L-2.657,19.813C-2.455,20.337 -2.285,20.778 -2.159,21.104L5.804,21.104C6.804,21.104 7.387,20.209 7.387,20.209L9.491,24.25Z" style="fill:rgb(126,130,138);fill-rule:nonzero;"/>
        </g>
        <g transform="matrix(0.873299,0,0,-0.835077,100.402,42.9619)">
            <path d="M9.491,24.25L-5.25,24.25C-5.25,24.25 -5,23.354 -5.406,22.292C-5.812,21.229 -12.938,2.261 -12.938,2.261C-12.938,2.261 -13.938,0 -14.5,0L1.533,0L3.324,4.526C3.324,4.526 1.277,3.479 -0.473,3.479L-8.92,3.479C-8.079,5.713 -5.608,12.143 -3.837,16.745L5.168,16.745L6.512,19.813L-2.657,19.813C-2.455,20.337 -2.285,20.778 -2.159,21.104L5.804,21.104C6.804,21.104 7.387,20.209 7.387,20.209L9.491,24.25Z" style="fill:rgb(126,130,138);fill-rule:nonzero;"/>
        </g>
        <g transform="matrix(0.873299,0,0,-0.835077,84.183,25.6161)">
            <path d="M0,-17.292L-8.448,-17.292C-7.084,-13.671 -1.434,0.989 -1.434,0.989C-1.434,0.989 -0.246,3.479 0.473,3.479L-4.777,3.479C-4.777,3.479 -4.527,2.583 -4.934,1.52C-5.34,0.458 -12.465,-18.511 -12.465,-18.511C-12.465,-18.511 -13.465,-20.771 -14.027,-20.771L2.005,-20.771L3.797,-16.245C3.797,-16.245 1.75,-17.292 0,-17.292" style="fill:rgb(126,130,138);fill-rule:nonzero;"/>
        </g>
        <g transform="matrix(0.873299,0,0,-0.835077,150.081,39.4128)">
            <path d="M0,16.021L-9.002,8.516L-9.771,7.875L-6.104,17.833L-0.125,17.833C-0.125,17.833 0.625,17.75 0.625,17.125C0.625,16.5 0,16.021 0,16.021M3.729,20.25L-8.834,20.25C-8.834,20.25 -8.584,19.345 -8.99,18.272C-9.396,17.198 -16.521,-1.966 -16.521,-1.966C-16.521,-1.966 -17.521,-4.25 -18.084,-4.25L-12.803,-4.25C-12.803,-4.25 -13.271,-2.882 -12.771,-1.461C-12.614,-1.013 -11.831,1.063 -10.834,3.692L-6.083,7.354C-6.083,7.354 -5.729,-0.437 -5.896,-2.104C-6.062,-3.77 -7.354,-4.25 -7.354,-4.25L-0.833,-4.25C-1.979,-3.542 -2.062,-1.083 -2.062,-1.083L-2.146,10.917C-2.146,10.917 1.271,13.75 2.501,14.667C3.73,15.584 5.896,17.021 5.896,18.646C5.896,20.271 3.729,20.25 3.729,20.25" style="fill:rgb(126,130,138);fill-rule:nonzero;"/>
        </g>
        <g transform="matrix(0.873299,0,0,-0.835077,172.952,20.7459)">
            <path d="M0,-26.708L1.854,-22.958C1.854,-22.958 -7.084,-21.353 -7.084,-13.312C-7.084,-5.271 2.655,-3.124 5.062,-6.624L6.905,-2.104C6.905,-2.104 -2.125,0 -7.709,-5.979C-13.293,-11.958 -11.355,-18.248 -8.793,-21.207C-6.23,-24.166 -2.416,-26.334 0,-26.708" style="fill:rgb(126,130,138);fill-rule:nonzero;"/>
        </g>
        <g transform="matrix(0.873299,0,0,-0.835077,182.23,30.6796)">
            <path d="M0,-4.374C4.541,4.023 12.626,6.812 12.626,6.812L8.146,-4.374L0,-4.374ZM8.406,-12.853L17.281,9.772C8.031,10.334 -0.531,-0.322 -2.594,-3.447C-4.656,-6.572 -5.297,-9.713 -6.187,-11.728C-7.078,-13.744 -8.292,-14.708 -8.292,-14.708L-3,-14.708C-3.359,-13.703 -3.078,-12.619 -3.078,-12.619L-1.125,-7.228L6.781,-7.228C6.781,-7.228 5.172,-11.963 4.609,-13.041C4.047,-14.119 3.313,-14.708 3.313,-14.708L8.438,-14.708C8.125,-14 8.406,-12.853 8.406,-12.853" style="fill:rgb(126,130,138);fill-rule:nonzero;"/>
        </g>
        <g transform="matrix(0.873299,0,0,-0.835077,106.362,15.7476)">
            <path d="M0,-32.589C0,-32.589 1.594,-30.86 2.094,-29.516C2.594,-28.172 11.469,-4.588 11.469,-4.588L-44.781,-4.588C-44.781,-4.588 -47.406,-4.703 -48.125,-5.641L-45.125,-0.505L52.251,-0.505C52.251,-0.505 55,-0.469 55.703,0C55.703,0 53.859,-4.588 47.281,-4.588L36,-4.588L25.906,-29.875C25.906,-29.875 25.219,-31.6 25.969,-32.589L18.906,-32.589C18.906,-32.589 20.453,-31.094 21.125,-29.438C21.797,-27.781 30.766,-4.588 30.766,-4.588L16.484,-4.588L6.781,-29.844C6.781,-29.844 6.281,-31.662 6.797,-32.589L0,-32.589Z" style="fill:rgb(126,130,138);fill-rule:nonzero;"/>
        </g>
        <g transform="matrix(0.873299,0,0,-0.835077,150.013,46.0934)">
            <path d="M0,-7.208L-142.849,-7.208L-139.531,1.5L-141.136,1.5L-145.026,-8.708L1.016,-8.708L5.053,1.396L3.438,1.396L0,-7.208Z" style="fill:rgb(126,130,138);fill-rule:nonzero;"/>
        </g>
        <g transform="matrix(0.873299,0,0,-0.835077,38.7263,8.44567)">
            <path d="M0,-11.832L-21.628,-11.832L37.207,1.483L95.614,-4.408L95.614,1.501L108.697,1.501L108.697,-5.687L168.841,-11.832L143.599,-11.832L142.399,-14.833L144.015,-14.833L144.614,-13.332L198.281,-13.332L110.197,-4.333L110.197,3.001L94.114,3.001L94.114,-2.749L37.114,3.001L-35.051,-13.332L-2.177,-13.332L-2.749,-14.833L-1.144,-14.833L0,-11.832Z" style="fill:rgb(126,130,138);fill-rule:nonzero;"/>
        </g>
    </g>
</svg>
