<?xml version="1.0" encoding="UTF-8" standalone="no"?>
<!DOCTYPE svg PUBLIC "-//W3C//DTD SVG 1.1//EN" "http://www.w3.org/Graphics/SVG/1.1/DTD/svg11.dtd">
<svg width="100%" height="100%" viewBox="0 0 687 178" version="1.1" xmlns="http://www.w3.org/2000/svg" xmlns:xlink="http://www.w3.org/1999/xlink" xml:space="preserve" xmlns:serif="http://www.serif.com/" style="fill-rule:evenodd;clip-rule:evenodd;stroke-linejoin:round;stroke-miterlimit:2;">
    <g transform="matrix(1,0,0,1,-249.754,-496.721)">
        <g id="Livello-1" serif:id="Livello 1" transform="matrix(4.16667,0,0,4.16667,0,0)">
            <g transform="matrix(1,0,0,1,81.3638,133.804)">
                <path d="M0,0.037C0,-1.271 0.167,-2.542 0.5,-3.778C0.832,-5.017 1.319,-6.168 1.961,-7.238C2.602,-8.317 3.358,-9.296 4.23,-10.178C5.104,-11.056 6.068,-11.804 7.124,-12.42C8.205,-13.048 9.36,-13.531 10.59,-13.87C11.822,-14.209 13.09,-14.378 14.397,-14.378C15.691,-14.378 16.954,-14.209 18.185,-13.87C19.416,-13.531 20.572,-13.048 21.653,-12.42C22.707,-11.804 23.675,-11.054 24.554,-10.168C25.434,-9.282 26.195,-8.305 26.834,-7.238C27.475,-6.155 27.964,-4.998 28.305,-3.761C28.643,-2.522 28.814,-1.251 28.814,0.057C28.814,2.655 28.16,5.074 26.853,7.309C26.237,8.379 25.49,9.346 24.61,10.212C23.73,11.079 22.751,11.828 21.671,12.454C20.578,13.082 19.416,13.567 18.185,13.905C16.954,14.245 15.685,14.415 14.379,14.415C13.06,14.415 11.788,14.248 10.562,13.915C9.337,13.583 8.185,13.095 7.104,12.454C6.036,11.828 5.065,11.076 4.193,10.203C3.32,9.329 2.575,8.359 1.961,7.293C1.332,6.225 0.848,5.074 0.509,3.843C0.169,2.614 0,1.342 0,0.037M5.258,-0C5.258,1.281 5.487,2.486 5.945,3.617C6.404,4.748 7.055,5.739 7.896,6.596C8.737,7.45 9.714,8.115 10.826,8.593C11.938,9.069 13.123,9.307 14.379,9.307C15.635,9.307 16.822,9.069 17.94,8.593C19.058,8.115 20.038,7.45 20.88,6.596C21.709,5.739 22.355,4.745 22.821,3.607C23.286,2.471 23.517,1.269 23.517,-0C23.517,-1.271 23.286,-2.471 22.821,-3.599C22.355,-4.731 21.709,-5.724 20.88,-6.578C20.038,-7.432 19.058,-8.102 17.94,-8.585C16.822,-9.068 15.635,-9.309 14.379,-9.309C13.123,-9.309 11.938,-9.068 10.826,-8.585C9.714,-8.102 8.737,-7.432 7.896,-6.578C7.055,-5.736 6.404,-4.748 5.945,-3.609C5.487,-2.473 5.258,-1.271 5.258,-0" style="fill:rgb(35,31,32);fill-rule:nonzero;"/>
            </g>
            <g transform="matrix(1,0,0,1,169.918,144.919)">
                <path d="M0,0.023C0,-0.886 0.318,-1.66 0.958,-2.298C1.597,-2.937 2.363,-3.257 3.257,-3.257C4.179,-3.257 4.96,-2.937 5.598,-2.298C6.223,-1.674 6.535,-0.9 6.535,0.023C6.535,0.929 6.223,1.697 5.598,2.321C4.96,2.961 4.179,3.28 3.257,3.28C2.363,3.28 1.597,2.961 0.958,2.321C0.318,1.683 0,0.916 0,0.023" style="fill:rgb(35,31,32);fill-rule:nonzero;"/>
            </g>
            <g transform="matrix(1,0,0,1,76.248,143.884)">
                <path d="M0,-20.143C0,-19.673 -0.381,-19.292 -0.85,-19.292L-1.991,-19.292C-7.015,-19.292 -11.087,-15.169 -11.087,-10.083C-11.087,-4.997 -7.015,-0.851 -1.991,-0.851L-0.85,-0.851C-0.381,-0.851 0,-0.471 0,0L-0.002,3.669C0,4.142 -0.384,4.526 -0.858,4.526L-1.883,4.526C-4.461,4.539 -6.89,3.877 -9.166,2.531C-10.294,1.864 -11.304,1.066 -12.197,0.142C-13.09,-0.785 -13.844,-1.799 -14.46,-2.9C-15.062,-3.979 -15.521,-5.126 -15.836,-6.346C-16.152,-7.565 -16.309,-8.807 -16.307,-10.073L-16.307,-10.071C-16.309,-11.338 -16.152,-12.579 -15.836,-13.798C-15.521,-15.017 -15.062,-16.165 -14.46,-17.243C-13.844,-18.345 -13.09,-19.358 -12.197,-20.285C-11.304,-21.209 -10.294,-22.007 -9.166,-22.675C-6.89,-24.02 -4.461,-24.682 -1.883,-24.671L-0.858,-24.671C-0.384,-24.671 0,-24.286 -0.002,-23.812L0,-20.143Z" style="fill:rgb(35,31,32);fill-rule:nonzero;"/>
            </g>
            <g transform="matrix(1,0,0,1,164.744,120.406)">
                <path d="M0,26.811L-10.841,-0.291C-10.997,-0.68 -11.374,-0.936 -11.792,-0.936L-14.772,-0.936C-15.192,-0.936 -15.569,-0.68 -15.724,-0.291L-26.565,26.811C-26.745,27.259 -26.414,27.747 -25.931,27.747L-21.7,27.747C-21.344,27.747 -21.025,27.526 -20.901,27.193L-13.282,6.835L-13.282,6.832L-5.664,27.193C-5.539,27.526 -5.221,27.747 -4.864,27.747L-0.634,27.747C-0.15,27.747 0.18,27.259 0,26.811" style="fill:rgb(35,31,32);fill-rule:nonzero;"/>
            </g>
            <g transform="matrix(1,0,0,1,139.828,147.217)">
                <path d="M0,-26.809L-10.841,0.293C-10.998,0.682 -11.374,0.937 -11.793,0.937L-14.773,0.937C-15.192,0.937 -15.57,0.682 -15.725,0.293L-26.566,-26.809C-26.746,-27.258 -26.416,-27.746 -25.932,-27.746L-21.701,-27.746C-21.345,-27.746 -21.026,-27.525 -20.901,-27.191L-13.283,-6.833L-13.283,-6.83L-5.666,-27.191C-5.54,-27.525 -5.222,-27.746 -4.865,-27.746L-0.634,-27.746C-0.151,-27.746 0.179,-27.258 0,-26.809" style="fill:rgb(35,31,32);fill-rule:nonzero;"/>
            </g>
            <g transform="matrix(1,0,0,1,189.624,143.486)">
                <path d="M0,3.372C-0.657,4.59 -1.707,5.216 -3.022,5.216C-5.028,5.216 -6.656,3.691 -6.656,1.685C-6.656,-0.315 -5.126,-1.844 -3.152,-1.844C-1.479,-1.844 -0.248,-0.926 0.13,0.571L-1.473,0.571C-1.707,-0.112 -2.313,-0.523 -3.107,-0.523C-4.169,-0.523 -5.151,0.363 -5.151,1.685C-5.151,3.019 -4.136,3.893 -2.944,3.893C-2.109,3.893 -1.368,3.483 -0.88,2.773L0,3.372Z" style="fill:rgb(35,31,32);fill-rule:nonzero;"/>
            </g>
            <g transform="matrix(1,0,0,1,190.987,144.532)">
                <path d="M0,1.427L0,-2.735L1.485,-2.735L1.485,1.298C1.485,2.208 2.104,2.847 3.003,2.847C3.94,2.847 4.747,2.058 4.747,0.938L4.747,-2.735L6.24,-2.735L6.24,4.013L4.747,4.013L4.747,3.12C4.292,3.74 3.556,4.162 2.696,4.162C1.074,4.162 0,3.088 0,1.427" style="fill:rgb(35,31,32);fill-rule:nonzero;"/>
            </g>
            <g transform="matrix(1,0,0,1,205.241,143.486)">
                <path d="M0,3.372C-0.657,4.59 -1.707,5.216 -3.022,5.216C-5.028,5.216 -6.656,3.691 -6.656,1.685C-6.656,-0.315 -5.126,-1.844 -3.152,-1.844C-1.479,-1.844 -0.248,-0.926 0.13,0.571L-1.473,0.571C-1.707,-0.112 -2.313,-0.523 -3.107,-0.523C-4.169,-0.523 -5.151,0.363 -5.151,1.685C-5.151,3.019 -4.136,3.893 -2.944,3.893C-2.11,3.893 -1.368,3.483 -0.88,2.773L0,3.372Z" style="fill:rgb(35,31,32);fill-rule:nonzero;"/>
            </g>
            <g transform="matrix(1,0,0,1,207.575,148.545)">
                <path d="M0,-9.496C0.521,-9.496 0.926,-9.099 0.926,-8.585C0.926,-8.077 0.521,-7.679 0,-7.679C-0.521,-7.679 -0.918,-8.077 -0.918,-8.585C-0.918,-9.099 -0.521,-9.496 0,-9.496M-0.742,-6.748L0.743,-6.748L0.743,0L-0.742,0L-0.742,-6.748Z" style="fill:rgb(35,31,32);fill-rule:nonzero;"/>
            </g>
            <g transform="matrix(1,0,0,1,216.473,145.803)">
                <path d="M0,-1.42L0,2.742L-1.485,2.742L-1.485,-1.29C-1.485,-2.201 -2.104,-2.84 -3.003,-2.84C-3.928,-2.84 -4.747,-2.071 -4.747,-0.97L-4.747,2.742L-6.24,2.742L-6.24,-4.006L-4.747,-4.006L-4.747,-3.107C-4.292,-3.733 -3.556,-4.162 -2.696,-4.162C-1.074,-4.162 0,-3.081 0,-1.42" style="fill:rgb(35,31,32);fill-rule:nonzero;"/>
            </g>
            <g transform="matrix(1,0,0,1,221.432,142.867)">
                <path d="M0,4.61C0.944,4.61 1.616,4.27 2.274,3.621L3.067,4.396C2.332,5.242 1.407,5.835 0.02,5.835C-2.227,5.835 -3.731,4.27 -3.731,2.304C-3.731,0.344 -2.182,-1.225 -0.11,-1.225C1.928,-1.225 3.375,0.304 3.375,2.173C3.375,2.363 3.349,2.596 3.31,2.76L-2.221,2.76C-2.077,3.829 -1.191,4.61 0,4.61M-2.176,1.628L1.831,1.628C1.642,0.682 0.886,-0.002 -0.116,-0.002C-1.107,-0.002 -1.935,0.682 -2.176,1.628" style="fill:rgb(35,31,32);fill-rule:nonzero;"/>
            </g>
            <g transform="matrix(1,0,0,1,130.082,156.517)">
                <path d="M0,3.372C-0.658,4.59 -1.708,5.216 -3.022,5.216C-5.028,5.216 -6.656,3.691 -6.656,1.685C-6.656,-0.315 -5.125,-1.844 -3.152,-1.844C-1.479,-1.844 -0.249,-0.926 0.129,0.572L-1.473,0.572C-1.708,-0.112 -2.312,-0.523 -3.107,-0.523C-4.167,-0.523 -5.151,0.364 -5.151,1.685C-5.151,3.02 -4.136,3.893 -2.944,3.893C-2.11,3.893 -1.368,3.483 -0.879,2.773L0,3.372Z" style="fill:rgb(35,31,32);fill-rule:nonzero;"/>
            </g>
            <g transform="matrix(1,0,0,1,137.293,156.228)">
                <path d="M0,1.186L0,5.348L-1.485,5.348L-1.485,1.316C-1.485,0.49 -2.111,-0.234 -3.003,-0.234C-3.928,-0.234 -4.747,0.535 -4.747,1.635L-4.747,5.348L-6.24,5.348L-6.24,-4.162L-4.747,-4.162L-4.747,-0.501C-4.292,-1.127 -3.556,-1.556 -2.697,-1.556C-1.074,-1.556 0,-0.475 0,1.186" style="fill:rgb(35,31,32);fill-rule:nonzero;"/>
            </g>
            <g transform="matrix(1,0,0,1,141.993,155.898)">
                <path d="M0,4.61C0.945,4.61 1.617,4.271 2.274,3.621L3.068,4.396C2.333,5.242 1.408,5.835 0.02,5.835C-2.226,5.835 -3.731,4.271 -3.731,2.303C-3.731,0.345 -2.182,-1.225 -0.109,-1.225C1.928,-1.225 3.375,0.304 3.375,2.174C3.375,2.362 3.348,2.596 3.31,2.761L-2.22,2.761C-2.076,3.829 -1.191,4.61 0,4.61M-2.175,1.628L1.832,1.628C1.642,0.682 0.886,-0.001 -0.116,-0.001C-1.107,-0.001 -1.934,0.682 -2.175,1.628" style="fill:rgb(35,31,32);fill-rule:nonzero;"/>
            </g>
            <g transform="matrix(1,0,0,1,154.1,160.294)">
                <path d="M0,-6.944C-0.17,-6.964 -0.411,-6.976 -0.6,-6.976C-1.453,-6.976 -1.778,-6.598 -1.778,-5.843L-1.778,-5.465L0,-5.465L0,-4.163L-1.778,-4.163L-1.778,1.283L-3.264,1.283L-3.264,-4.163L-4.515,-4.163L-4.515,-5.465L-3.264,-5.465L-3.264,-5.862C-3.264,-7.453 -2.437,-8.227 -0.73,-8.227C-0.47,-8.227 -0.19,-8.194 0,-8.169L0,-6.944Z" style="fill:rgb(35,31,32);fill-rule:nonzero;"/>
            </g>
            <g transform="matrix(1,0,0,1,158.002,161.733)">
                <path d="M0,-7.06C0.983,-7.06 1.803,-6.65 2.37,-5.986L2.37,-6.905L3.849,-6.905L3.849,-0.157L2.37,-0.157L2.37,-1.069C1.803,-0.412 0.983,0 0,0C-1.902,0 -3.296,-1.564 -3.296,-3.532C-3.296,-5.49 -1.902,-7.06 0,-7.06M0.293,-1.323C1.478,-1.323 2.37,-2.299 2.37,-3.532C2.37,-4.756 1.491,-5.739 0.293,-5.739C-0.906,-5.739 -1.79,-4.756 -1.79,-3.532C-1.79,-2.299 -0.892,-1.323 0.293,-1.323" style="fill:rgb(35,31,32);fill-rule:nonzero;"/>
            </g>
            <g transform="matrix(1,0,0,1,169.65,158.834)">
                <path d="M0,-1.42L0,2.742L-1.485,2.742L-1.485,-1.29C-1.485,-2.201 -2.104,-2.84 -3.003,-2.84C-3.928,-2.84 -4.749,-2.071 -4.749,-0.971L-4.749,2.742L-6.24,2.742L-6.24,-4.006L-4.749,-4.006L-4.749,-3.107C-4.292,-3.733 -3.556,-4.162 -2.697,-4.162C-1.074,-4.162 0,-3.081 0,-1.42" style="fill:rgb(35,31,32);fill-rule:nonzero;"/>
            </g>
            <g transform="matrix(1,0,0,1,177.313,158.834)">
                <path d="M0,-1.42L0,2.742L-1.485,2.742L-1.485,-1.29C-1.485,-2.201 -2.104,-2.84 -3.003,-2.84C-3.928,-2.84 -4.749,-2.071 -4.749,-0.971L-4.749,2.742L-6.239,2.742L-6.239,-4.006L-4.749,-4.006L-4.749,-3.107C-4.291,-3.733 -3.556,-4.162 -2.697,-4.162C-1.074,-4.162 0,-3.081 0,-1.42" style="fill:rgb(35,31,32);fill-rule:nonzero;"/>
            </g>
            <g transform="matrix(1,0,0,1,182.24,161.733)">
                <path d="M0,-7.06C2.124,-7.06 3.692,-5.49 3.692,-3.532C3.692,-1.571 2.124,0 0,0C-2.123,0 -3.699,-1.571 -3.699,-3.532C-3.699,-5.49 -2.123,-7.06 0,-7.06M0,-1.323C1.244,-1.323 2.194,-2.299 2.194,-3.532C2.194,-4.756 1.244,-5.739 0,-5.739C-1.243,-5.739 -2.194,-4.756 -2.194,-3.532C-2.194,-2.299 -1.243,-1.323 0,-1.323" style="fill:rgb(35,31,32);fill-rule:nonzero;"/>
            </g>
            <g transform="matrix(1,0,0,1,190.211,156.751)">
                <path d="M0,2.904C0.481,3.425 1.074,3.758 1.79,3.758C2.527,3.758 2.977,3.425 2.977,2.924C2.977,2.434 2.611,2.13 1.646,1.94C0.176,1.647 -0.546,0.925 -0.546,-0.158C-0.546,-1.258 0.364,-2.078 1.805,-2.078C3.217,-2.078 4.123,-1.324 4.312,-0.033L2.873,-0.033C2.814,-0.522 2.462,-0.847 1.89,-0.847C1.329,-0.847 0.925,-0.56 0.925,-0.137C0.925,0.286 1.31,0.632 2.157,0.801C3.713,1.114 4.449,1.81 4.449,2.944C4.449,4.11 3.49,4.982 1.87,4.982C0.807,4.982 -0.007,4.501 -0.651,3.652L0,2.904Z" style="fill:rgb(35,31,32);fill-rule:nonzero;"/>
            </g>
            <g transform="matrix(1,0,0,1,197.88,155.279)">
                <path d="M0,4.05C0,4.8 0.324,5.157 1.172,5.157C1.368,5.157 1.634,5.146 1.798,5.124L1.798,6.22C1.53,6.369 1.113,6.454 0.717,6.454C-0.703,6.454 -1.484,5.692 -1.484,4.115L-1.484,0.853L-2.781,0.853L-2.781,-0.45L-1.484,-0.45L-1.484,-2.065L0,-2.404L0,-0.45L1.719,-0.45L1.719,0.853L0,0.853L0,4.05Z" style="fill:rgb(35,31,32);fill-rule:nonzero;"/>
            </g>
            <g transform="matrix(1,0,0,1,204.173,161.733)">
                <path d="M0,-7.06C2.124,-7.06 3.692,-5.49 3.692,-3.532C3.692,-1.571 2.124,0 0,0C-2.123,0 -3.699,-1.571 -3.699,-3.532C-3.699,-5.49 -2.123,-7.06 0,-7.06M0,-1.323C1.244,-1.323 2.195,-2.299 2.195,-3.532C2.195,-4.756 1.244,-5.739 0,-5.739C-1.242,-5.739 -2.194,-4.756 -2.194,-3.532C-2.194,-2.299 -1.242,-1.323 0,-1.323" style="fill:rgb(35,31,32);fill-rule:nonzero;"/>
            </g>
            <g transform="matrix(1,0,0,1,210.722,158.341)">
                <path d="M0,-0.43L0,3.237L-1.491,3.237L-1.491,-3.511L0,-3.511L0,-2.58C0.431,-3.206 1.135,-3.667 1.993,-3.667C2.209,-3.667 2.418,-3.629 2.586,-3.57L2.477,-2.23C2.261,-2.3 2.014,-2.346 1.772,-2.346C0.828,-2.346 0,-1.545 0,-0.43" style="fill:rgb(35,31,32);fill-rule:nonzero;"/>
            </g>
            <g transform="matrix(1,0,0,1,215.336,161.576)">
                <path d="M0,-9.496C0.521,-9.496 0.926,-9.099 0.926,-8.585C0.926,-8.077 0.521,-7.679 0,-7.679C-0.521,-7.679 -0.918,-8.077 -0.918,-8.585C-0.918,-9.099 -0.521,-9.496 0,-9.496M-0.742,-6.748L0.743,-6.748L0.743,0L-0.742,0L-0.742,-6.748Z" style="fill:rgb(35,31,32);fill-rule:nonzero;"/>
            </g>
            <g transform="matrix(1,0,0,1,220.834,161.733)">
                <path d="M0,-7.06C0.983,-7.06 1.803,-6.65 2.369,-5.986L2.369,-6.905L3.849,-6.905L3.849,-0.157L2.369,-0.157L2.369,-1.069C1.803,-0.412 0.983,0 0,0C-1.902,0 -3.296,-1.564 -3.296,-3.532C-3.296,-5.49 -1.902,-7.06 0,-7.06M0.293,-1.323C1.478,-1.323 2.369,-2.299 2.369,-3.532C2.369,-4.756 1.491,-5.739 0.293,-5.739C-0.906,-5.739 -1.791,-4.756 -1.791,-3.532C-1.791,-2.299 -0.893,-1.323 0.293,-1.323" style="fill:rgb(35,31,32);fill-rule:nonzero;"/>
            </g>
        </g>
    </g>
</svg>
