<?xml version="1.0" encoding="UTF-8" standalone="no"?>
<!DOCTYPE svg PUBLIC "-//W3C//DTD SVG 1.1//EN" "http://www.w3.org/Graphics/SVG/1.1/DTD/svg11.dtd">
<svg width="100%" height="100%" viewBox="0 0 2362 818" version="1.1" xmlns="http://www.w3.org/2000/svg" xmlns:xlink="http://www.w3.org/1999/xlink" xml:space="preserve" xmlns:serif="http://www.serif.com/" style="fill-rule:evenodd;clip-rule:evenodd;stroke-linejoin:round;stroke-miterlimit:2;">
    <g transform="matrix(1,0,0,1,-221.983,-247.203)">
        <g id="Layer-1" serif:id="Layer 1" transform="matrix(4.16667,0,0,4.16667,0,0)">
            <g transform="matrix(1,0,0,1,284.418,99.5034)">
                <path d="M0,49.608C3.396,50.921 7.128,51.579 11.193,51.579C14.862,51.579 18.494,51.021 22.09,49.906C25.684,48.79 28.845,47.142 31.572,44.959L31.572,24.209L22.424,24.209L22.424,40.381C21.368,40.991 20.292,41.498 19.189,41.873C16.783,42.691 14.292,43.1 11.714,43.1C8.937,43.1 6.408,42.654 4.128,41.761C1.847,40.869 -0.137,39.593 -1.822,37.931C-3.508,36.27 -4.81,34.324 -5.727,32.093C-6.645,29.862 -7.102,27.433 -7.102,24.804C-7.102,22.126 -6.645,19.672 -5.727,17.441C-4.81,15.21 -3.508,13.276 -1.822,11.639C-0.137,10.003 1.871,8.739 4.202,7.847C6.532,6.954 9.061,6.508 11.789,6.508C14.615,6.508 17.205,6.991 19.561,7.958C21.915,8.925 24.109,10.425 26.143,12.458L32.242,6.508C29.812,3.731 26.824,1.624 23.28,0.186C19.734,-1.252 15.755,-1.971 11.342,-1.971C7.276,-1.971 3.533,-1.313 0.112,-0C-3.31,1.314 -6.297,3.174 -8.85,5.578C-11.405,7.983 -13.376,10.821 -14.763,14.094C-16.152,17.367 -16.846,20.936 -16.846,24.804C-16.846,28.671 -16.152,32.241 -14.763,35.514C-13.376,38.786 -11.416,41.626 -8.888,44.03C-6.359,46.435 -3.397,48.295 0,49.608" style="fill:rgb(71,87,98);fill-rule:nonzero;"/>
            </g>
            <g transform="matrix(1,0,0,1,363.031,139.48)">
                <path d="M0,-30.345C2.157,-28.56 3.235,-26.006 3.235,-22.684C3.235,-19.412 2.157,-16.857 0,-15.024C-2.157,-13.189 -5.367,-12.272 -9.632,-12.272L-20.937,-12.272L-20.937,-33.022L-9.632,-33.022C-5.367,-33.022 -2.157,-32.13 0,-30.345M2.678,-6.508C5.974,-7.97 8.516,-10.078 10.301,-12.83C12.086,-15.581 12.979,-18.866 12.979,-22.684C12.979,-26.502 12.086,-29.799 10.301,-32.576C8.516,-35.353 5.974,-37.485 2.678,-38.973C-0.621,-40.46 -4.574,-41.204 -9.185,-41.204L-30.605,-41.204L-30.605,10.859L-20.937,10.859L-20.937,-4.314L-9.185,-4.314C-8.491,-4.314 -7.817,-4.336 -7.153,-4.369L3.459,10.859L13.871,10.859L1.917,-6.199C2.172,-6.301 2.43,-6.398 2.678,-6.508" style="fill:rgb(71,87,98);fill-rule:nonzero;"/>
            </g>
            <g transform="matrix(1,0,0,1,412.899,98.2763)">
                <path d="M0,52.806C7.09,52.806 12.655,50.798 16.697,46.782C20.738,42.765 22.758,36.964 22.758,29.378L22.758,0L13.239,0L13.239,29.006C13.239,34.361 12.098,38.254 9.817,40.683C7.536,43.113 4.288,44.327 0.074,44.327C-4.141,44.327 -7.401,43.113 -9.706,40.683C-12.012,38.254 -13.164,34.361 -13.164,29.006L-13.164,0L-22.833,0L-22.833,29.378C-22.833,36.964 -20.814,42.765 -16.772,46.782C-12.731,50.798 -7.14,52.806 0,52.806" style="fill:rgb(71,87,98);fill-rule:nonzero;"/>
            </g>
            <g transform="matrix(1,0,0,1,483.516,124.196)">
                <path d="M0,0.223C-2.157,2.034 -5.368,2.938 -9.632,2.938L-20.937,2.938L-20.937,-17.738L-9.632,-17.738C-5.368,-17.738 -2.157,-16.846 0,-15.061C2.157,-13.276 3.235,-10.722 3.235,-7.4C3.235,-4.128 2.157,-1.586 0,0.223M10.301,2.492C12.086,-0.285 12.979,-3.582 12.979,-7.4C12.979,-11.218 12.086,-14.515 10.301,-17.292C8.516,-20.068 5.974,-22.201 2.678,-23.688C-0.621,-25.176 -4.574,-25.92 -9.185,-25.92L-30.605,-25.92L-30.605,26.143L-20.937,26.143L-20.937,11.119L-9.185,11.119C-4.574,11.119 -0.621,10.375 2.678,8.888C5.974,7.4 8.516,5.269 10.301,2.492" style="fill:rgb(71,87,98);fill-rule:nonzero;"/>
            </g>
            <g transform="matrix(1,0,0,1,540.488,124.196)">
                <path d="M0,0.223C-2.157,2.034 -5.368,2.938 -9.632,2.938L-20.937,2.938L-20.937,-17.738L-9.632,-17.738C-5.368,-17.738 -2.157,-16.846 0,-15.061C2.157,-13.276 3.235,-10.722 3.235,-7.4C3.235,-4.128 2.157,-1.586 0,0.223M2.677,-23.688C-0.621,-25.176 -4.574,-25.92 -9.185,-25.92L-30.605,-25.92L-30.605,26.143L-20.937,26.143L-20.937,11.119L-9.185,11.119C-4.574,11.119 -0.621,10.375 2.677,8.888C5.974,7.4 8.516,5.269 10.301,2.492C12.086,-0.285 12.978,-3.582 12.978,-7.4C12.978,-11.218 12.086,-14.515 10.301,-17.292C8.516,-20.068 5.974,-22.201 2.677,-23.688" style="fill:rgb(71,87,98);fill-rule:nonzero;"/>
            </g>
            <g transform="matrix(1,0,0,1,608.838,116.981)">
                <path d="M0,14.652C-0.918,16.859 -2.194,18.793 -3.83,20.453C-5.467,22.115 -7.4,23.391 -9.632,24.284C-11.863,25.176 -14.293,25.622 -16.92,25.622C-19.549,25.622 -21.978,25.176 -24.209,24.284C-26.44,23.391 -28.374,22.115 -30.01,20.453C-31.647,18.793 -32.924,16.846 -33.841,14.615C-34.759,12.384 -35.216,9.955 -35.216,7.326C-35.216,4.649 -34.759,2.207 -33.841,0C-32.924,-2.205 -31.635,-4.139 -29.973,-5.801C-28.312,-7.462 -26.379,-8.739 -24.172,-9.631C-21.966,-10.524 -19.549,-10.97 -16.92,-10.97C-14.293,-10.97 -11.863,-10.524 -9.632,-9.631C-7.4,-8.739 -5.467,-7.462 -3.83,-5.801C-2.194,-4.139 -0.918,-2.205 0,0C0.917,2.207 1.376,4.649 1.376,7.326C1.376,10.004 0.917,12.447 0,14.652M9.036,-3.347C7.648,-6.593 5.69,-9.42 3.161,-11.825C0.632,-14.23 -2.331,-16.102 -5.727,-17.441C-9.124,-18.779 -12.855,-19.449 -16.92,-19.449C-20.936,-19.449 -24.655,-18.779 -28.076,-17.441C-31.498,-16.102 -34.473,-14.23 -37.002,-11.825C-39.53,-9.42 -41.49,-6.593 -42.877,-3.347C-44.266,-0.099 -44.959,3.459 -44.959,7.326C-44.959,11.194 -44.266,14.752 -42.877,17.999C-41.49,21.247 -39.53,24.073 -37.002,26.478C-34.473,28.883 -31.498,30.754 -28.076,32.093C-24.655,33.432 -20.912,34.101 -16.846,34.101C-12.83,34.101 -9.124,33.432 -5.727,32.093C-2.331,30.754 0.632,28.895 3.161,26.515C5.69,24.135 7.648,21.309 9.036,18.036C10.424,14.764 11.119,11.194 11.119,7.326C11.119,3.459 10.424,-0.099 9.036,-3.347" style="fill:rgb(71,87,98);fill-rule:nonzero;"/>
            </g>
            <g transform="matrix(1,0,0,1,310.375,181.071)">
                <path d="M0,18.742C-1.562,21.419 -3.769,23.502 -6.619,24.989C-9.471,26.477 -12.855,27.221 -16.772,27.221L-29.415,27.221L-29.415,-8.479L-16.772,-8.479C-12.855,-8.479 -9.471,-7.736 -6.619,-6.248C-3.769,-4.76 -1.562,-2.69 0,-0.038C1.562,2.616 2.343,5.752 2.343,9.371C2.343,12.941 1.562,16.065 0,18.742M-1.45,-13.388C-5.715,-15.569 -10.673,-16.66 -16.325,-16.66L-39.084,-16.66L-39.084,35.402L-16.325,35.402C-10.673,35.402 -5.715,34.312 -1.45,32.129C2.813,29.948 6.136,26.912 8.516,23.019C10.896,19.127 12.086,14.577 12.086,9.371C12.086,4.116 10.896,-0.447 8.516,-4.314C6.136,-8.182 2.813,-11.206 -1.45,-13.388" style="fill:rgb(71,87,98);fill-rule:nonzero;"/>
            </g>
            <g transform="matrix(1,0,0,1,342.392,186.872)">
                <path d="M0,7.14L25.139,7.14L25.139,-0.818L0,-0.818L0,-14.354L28.337,-14.354L28.337,-22.461L-9.669,-22.461L-9.669,29.601L29.378,29.601L29.378,21.494L0,21.494L0,7.14Z" style="fill:rgb(71,87,98);fill-rule:nonzero;"/>
            </g>
            <g transform="matrix(1,0,0,1,423.513,176.34)">
                <path d="M0,28.204L-17.309,-11.929L-27.796,-11.929L-5.037,40.133L4.483,40.133L27.168,-11.929L17.499,-11.929L0,28.204Z" style="fill:rgb(71,87,98);fill-rule:nonzero;"/>
            </g>
            <g transform="matrix(1,0,0,1,0,66.134)">
                <rect x="456.184" y="98.277" width="9.669" height="52.062" style="fill:rgb(71,87,98);"/>
            </g>
            <g transform="matrix(1,0,0,1,491.213,203.607)">
                <path d="M0,-26.329C1.685,-27.965 3.693,-29.229 6.024,-30.122C8.354,-31.014 10.883,-31.461 13.611,-31.461C16.437,-31.461 19.027,-30.977 21.383,-30.01C23.737,-29.043 25.931,-27.543 27.965,-25.511L34.064,-31.461C31.634,-34.237 28.646,-36.344 25.102,-37.783C21.556,-39.22 17.577,-39.94 13.164,-39.94C9.098,-39.94 5.355,-39.282 1.934,-37.969C-1.488,-36.654 -4.475,-34.795 -7.028,-32.39C-9.583,-29.985 -11.554,-27.147 -12.941,-23.874C-14.33,-20.602 -15.024,-17.032 -15.024,-13.165C-15.024,-9.297 -14.33,-5.727 -12.941,-2.455C-11.554,0.818 -9.595,3.657 -7.066,6.061C-4.537,8.467 -1.575,10.326 1.822,11.64C5.218,12.953 8.949,13.611 13.015,13.611C16.684,13.611 20.316,13.053 23.911,11.937C27.506,10.821 30.667,9.174 33.394,6.991L33.394,-13.76L24.246,-13.76L24.246,2.412C23.19,3.022 22.114,3.529 21.011,3.904C18.605,4.723 16.114,5.132 13.536,5.132C10.759,5.132 8.23,4.685 5.95,3.793C3.669,2.9 1.685,1.624 0,-0.037C-1.686,-1.698 -2.988,-3.645 -3.905,-5.876C-4.823,-8.107 -5.281,-10.536 -5.281,-13.165C-5.281,-15.842 -4.823,-18.296 -3.905,-20.528C-2.988,-22.759 -1.686,-24.693 0,-26.329" style="fill:rgb(71,87,98);fill-rule:nonzero;"/>
            </g>
            <g transform="matrix(1,0,0,1,0,66.134)">
                <rect x="537.325" y="98.277" width="9.669" height="52.062" style="fill:rgb(71,87,98);"/>
            </g>
            <g transform="matrix(1,0,0,1,570.718,216.473)">
                <path d="M0,-52.062L-9.669,-52.062L-9.669,0L27.221,0L27.221,-8.181L0,-8.181L0,-52.062Z" style="fill:rgb(71,87,98);fill-rule:nonzero;"/>
            </g>
            <g transform="matrix(1,0,0,1,0,66.134)">
                <rect x="605.6" y="98.277" width="9.669" height="52.062" style="fill:rgb(71,87,98);"/>
            </g>
            <g transform="matrix(1,0,0,1,139.356,106.179)">
                <path d="M0,102.393C0,102.452 -0.037,102.504 -0.092,102.524L-62.944,125.397C-63.035,125.43 -63.132,125.363 -63.132,125.266L-63.132,112.147C-63.132,112.087 -63.093,112.034 -63.037,112.015L-14.774,95.673C-14.648,95.63 -14.648,95.451 -14.775,95.409L-63.037,79.162C-63.093,79.143 -63.132,79.09 -63.132,79.03L-63.132,66.201C-63.132,66.104 -63.035,66.037 -62.945,66.07L-0.092,88.846C-0.037,88.866 0,88.919 0,88.978L0,102.393ZM-16.519,-46.85L-81.672,-46.85C-84.107,-46.85 -86.08,-44.876 -86.08,-42.441L-86.08,144.834C-86.08,147.269 -84.107,149.243 -81.672,149.243L-16.519,149.243C52.144,149.243 88.124,109.964 88.124,51.196C88.124,-7.572 52.144,-46.85 -16.519,-46.85" style="fill:rgb(71,87,98);fill-rule:nonzero;"/>
            </g>
        </g>
    </g>
</svg>
