<?xml version="1.0" encoding="UTF-8" standalone="no"?>
<!DOCTYPE svg PUBLIC "-//W3C//DTD SVG 1.1//EN" "http://www.w3.org/Graphics/SVG/1.1/DTD/svg11.dtd">
<svg width="100%" height="100%" viewBox="0 0 20521 1603" version="1.1" xmlns="http://www.w3.org/2000/svg" xmlns:xlink="http://www.w3.org/1999/xlink" xml:space="preserve" xmlns:serif="http://www.serif.com/" style="fill-rule:evenodd;clip-rule:evenodd;stroke-linejoin:round;stroke-miterlimit:2;">
    <g transform="matrix(1,0,0,1,-960.068,-1766.42)">
        <g id="Livello-1" serif:id="Livello 1" transform="matrix(4.16667,0,0,4.16667,0,0)">
            <g transform="matrix(1,0,0,1,1559.09,640.473)">
                <path d="M0,-23.177L0,-129.743L61.173,-129.743L61.173,-18.675C61.173,32.51 88.852,58.266 144.55,58.266C200.248,58.266 227.928,32.51 227.928,-18.675L227.928,-129.743L289.09,-129.743L289.09,-23.177C289.09,66.965 237.905,106.566 144.539,106.566C51.174,106.566 -0.011,66.965 -0.011,-23.177" style="fill-rule:nonzero;"/>
            </g>
            <g transform="matrix(1,0,0,1,1281.03,695.844)">
                <path d="M0,-137.787L0,-92.066L209.264,-92.066L209.264,-46.028L0,-46.028L0,0.01L223.426,0.01L223.426,47.327L-61.173,47.327L-61.173,-185.114L223.426,-185.114L223.426,-137.787L0,-137.787Z" style="fill-rule:nonzero;"/>
            </g>
            <g transform="matrix(1,0,0,1,2079.24,634.671)">
                <path d="M0,-15.441C33.482,-15.441 48.617,-17.703 58.594,-22.522C68.254,-27.352 72.439,-34.75 72.439,-45.383C72.439,-56.649 67.926,-64.375 57.949,-69.205C47.972,-73.718 32.837,-75.641 -1.934,-75.641L-105.594,-75.641L-105.594,-15.441L0,-15.441ZM65.675,108.5L-12.228,32.848L-105.594,32.848L-105.594,108.5L-166.766,108.5L-166.766,-123.941L5.474,-123.941C57.632,-123.941 133.601,-119.756 133.601,-50.54C133.601,-8.688 105.593,18.358 54.725,27.363L141.01,107.2L140.048,108.489L65.675,108.489L65.675,108.5Z" style="fill-rule:nonzero;"/>
            </g>
            <g transform="matrix(1,0,0,1,2556.9,625.666)">
                <path d="M0,0C0,-45.71 -42.497,-73.084 -120.083,-73.084C-197.669,-73.084 -240.167,-45.721 -240.167,0C-240.167,45.721 -197.669,73.084 -120.083,73.084C-42.497,73.084 0,45.721 0,0M-301.329,0C-301.329,-76.624 -234.036,-121.373 -120.073,-121.373C-6.108,-121.373 61.173,-76.624 61.173,0C61.173,76.624 -6.108,121.373 -120.073,121.373C-234.036,121.373 -301.329,76.624 -301.329,0" style="fill-rule:nonzero;"/>
            </g>
            <g transform="matrix(1,0,0,1,2656.6,625.655)">
                <path d="M0,0.011C0,-76.285 66.32,-121.362 178.032,-121.362C230.824,-121.362 274.61,-111.385 316.463,-89.814L316.463,-37.667L314.529,-37.35C269.464,-62.134 227.928,-73.084 180.283,-73.084C105.265,-73.084 61.162,-45.721 61.162,0.645C61.162,47.011 104.621,73.084 179.311,73.084C226.955,73.084 268.163,62.135 314.529,37.34L316.135,37.668L316.135,89.825C272.993,112.03 233.075,121.373 180.928,121.373C66.964,121.373 0,76.625 0,-0" style="fill-rule:nonzero;"/>
            </g>
            <g transform="matrix(1,0,0,1,3237.93,604.729)">
                <path d="M0,44.443L-52.157,-44.737L-107.528,44.443L0,44.443ZM55.053,138.442L27.691,91.76L-136.497,91.76L-165.466,138.442L-231.141,138.442L-83.05,-93.999L-19.954,-93.999L120.739,138.442L55.053,138.442Z" style="fill-rule:nonzero;"/>
            </g>
            <g transform="matrix(1,0,0,1,3563.95,634.671)">
                <path d="M0,-15.441C33.482,-15.441 48.617,-17.703 58.594,-22.522C68.254,-27.352 72.439,-34.75 72.439,-45.383C72.439,-56.649 67.926,-64.375 57.949,-69.205C47.972,-73.718 32.837,-75.641 -1.934,-75.641L-105.594,-75.641L-105.594,-15.441L0,-15.441ZM65.675,108.5L-12.239,32.848L-105.604,32.848L-105.604,108.5L-166.777,108.5L-166.777,-123.941L5.464,-123.941C57.621,-123.941 133.59,-119.756 133.59,-50.54C133.59,-8.688 105.583,18.358 54.715,27.363L140.999,107.2L140.038,108.489L65.664,108.489L65.675,108.5Z" style="fill-rule:nonzero;"/>
            </g>
            <g transform="matrix(1,0,0,1,1026.53,776.664)">
                <path d="M0,-352.033C-93.202,-360.119 -282.839,-296.28 -436.142,-206.904C-495.884,-208.127 -556.193,-207.384 -611.662,-204.347C-787.574,-194.73 -848.288,-165.75 -747.262,-139.622C-704.808,-128.64 -640.532,-119.92 -567.219,-114.205C-637.014,-50.562 -642.838,-2.656 -570.475,3.628C-519.116,8.086 -438.47,-9.322 -350.765,-40.782L-350.765,-45.459C-383.362,-37.537 -412.189,-31.406 -434.044,-33.69C-480.432,-38.542 -484.279,-67.817 -451.944,-107.965L-451.911,-107.965C-448.097,-112.697 -443.792,-117.571 -438.984,-122.586C-516.821,-125.438 -584.539,-129.788 -629.965,-135.328C-745.241,-149.392 -673.37,-165.805 -469.428,-171.99C-402.748,-174.012 -295.974,-173.356 -215.481,-173.356L-111.319,-173.356L-111.319,-176.94C-163.608,-188.502 -245.51,-197.637 -334.122,-202.882C-228.114,-267.508 -99.332,-312.18 -33.482,-305.285C21.374,-299.548 13.9,-259.662 -39.744,-208.029L-34.509,-208.029C63.566,-284.369 81.99,-344.919 0,-352.033" style="fill-rule:nonzero;"/>
            </g>
            <g transform="matrix(1,0,0,1,4016.47,511.812)">
                <path d="M0,228.813L-55.294,228.813L-55.294,203.013L-1.847,203.013C16.774,203.013 32.214,199.461 44.453,192.337C56.692,185.223 65.828,175.006 71.86,161.696C77.892,148.386 80.93,132.475 80.93,113.942C80.93,95.409 77.936,79.881 71.948,66.724C65.948,53.567 57.053,43.459 45.229,36.389C33.395,29.33 18.632,25.8 0.929,25.8L-56.507,25.8L-56.507,0L2.928,0C25.243,0 44.312,4.557 60.124,13.66C75.947,22.773 88.077,35.854 96.513,52.901C104.959,69.948 109.178,90.295 109.178,113.942C109.178,137.59 104.938,158.297 96.437,175.443C87.935,192.588 75.554,205.778 59.271,214.979C43,224.191 23.232,228.802 0,228.802L0,228.813ZM-42.235,228.813L-71.412,228.813L-71.412,0.011L-42.235,0.011L-42.235,228.813Z" style="fill-rule:nonzero;"/>
            </g>
            <g transform="matrix(1,0,0,1,4238.51,591.517)">
                <path d="M0,128.072C11.562,128.072 21.09,125.1 28.565,119.155C36.039,113.221 41.568,105.408 45.153,95.737C48.727,86.066 50.519,75.598 50.519,64.342C50.519,53.087 48.727,42.4 45.153,32.63C41.569,22.861 36.04,14.971 28.565,8.983C21.09,2.995 11.573,-0 0,-0C-11.573,-0 -20.883,2.995 -28.259,8.983C-35.625,14.971 -41.099,22.828 -44.683,32.554C-48.268,42.29 -50.06,52.879 -50.06,64.342C-50.06,75.805 -48.268,86.066 -44.683,95.737C-41.099,105.408 -35.613,113.221 -28.259,119.155C-20.883,125.099 -11.463,128.072 0,128.072ZM0,152.79C-15.561,152.79 -29.199,149.108 -40.913,141.732C-52.638,134.355 -61.774,124.029 -68.331,110.719C-74.887,97.409 -78.154,81.947 -78.154,64.342C-78.154,46.738 -74.887,30.784 -68.331,17.43C-61.774,4.077 -52.638,-6.305 -40.913,-13.659C-29.199,-21.035 -15.55,-24.718 0,-24.718C15.55,-24.718 29.384,-21.035 41.153,-13.659C52.933,-6.294 62.091,4.077 68.636,17.43C75.182,30.784 78.471,46.432 78.471,64.342C78.471,82.253 75.193,97.409 68.636,110.719C62.08,124.029 52.922,134.355 41.153,141.732C29.384,149.108 15.67,152.79 0,152.79" style="fill-rule:nonzero;"/>
            </g>
            <g transform="matrix(1,0,0,1,4357.23,566.483)">
                <path d="M0,174.142L0,2.458L26.718,2.458L26.718,28.871L28.565,28.871C31.734,20.172 37.383,13.178 45.525,7.901C53.666,2.633 62.856,0 73.095,0C75.139,0 77.576,0.055 80.384,0.153C83.192,0.251 85.421,0.36 87.06,0.459L87.06,28.248C86.241,28.04 84.197,27.745 80.919,27.33C77.641,26.926 74.166,26.718 70.472,26.718C62.276,26.718 54.933,28.434 48.431,31.865C41.929,35.285 36.837,39.995 33.143,45.994C29.472,51.983 27.625,58.867 27.625,66.647L27.625,174.131L-0.011,174.131L0,174.142Z" style="fill-rule:nonzero;"/>
            </g>
            <g transform="matrix(1,0,0,1,0,12.478)">
                <path d="M4478.69,556.463L4506.32,556.463L4506.32,728.147L4478.69,728.147L4478.69,556.463ZM4492.65,528.368C4487.44,528.368 4482.93,526.576 4479.15,522.992C4475.36,519.408 4473.47,515.113 4473.47,510.086C4473.47,505.059 4475.36,500.645 4479.15,497.115C4482.94,493.586 4487.44,491.815 4492.65,491.815C4497.87,491.815 4502.54,493.575 4506.32,497.115C4510.11,500.645 4512.01,504.972 4512.01,510.086C4512.01,515.2 4510.11,519.408 4506.32,522.992C4502.53,526.576 4497.98,528.368 4492.65,528.368" style="fill-rule:nonzero;"/>
            </g>
            <g transform="matrix(1,0,0,1,4623.64,661.979)">
                <path d="M0,51.316C10.447,51.316 19.243,48.934 26.412,44.18C33.569,39.416 39,32.564 42.683,23.615C46.366,14.654 48.212,3.923 48.212,-8.567C48.212,-21.057 46.388,-31.471 42.759,-40.738C39.121,-50.005 33.711,-57.282 26.554,-62.538C19.385,-67.816 10.534,-70.45 -0.011,-70.45C-10.556,-70.45 -19.922,-67.663 -27.199,-62.079C-34.466,-56.495 -39.919,-49.043 -43.547,-39.733C-47.186,-30.411 -49.011,-20.019 -49.011,-8.556C-49.011,2.907 -47.164,13.616 -43.481,22.62C-39.798,31.636 -34.313,38.662 -27.046,43.732C-19.779,48.792 -10.774,51.327 -0.022,51.327L0,51.316ZM0.765,146.517C-11.933,146.517 -22.915,144.911 -32.171,141.687C-41.438,138.453 -49.141,134.18 -55.283,128.869C-61.435,123.537 -66.287,117.756 -69.882,111.516L-47.458,97.07C-45,100.348 -41.962,103.987 -38.323,107.976C-34.684,111.964 -29.778,115.374 -23.582,118.182C-17.396,121.001 -9.277,122.4 0.754,122.4C14.468,122.4 25.756,119.122 34.608,112.576C43.459,106.02 47.885,95.682 47.885,81.553L47.885,47.153L45.284,47.153C43.339,50.42 40.596,54.31 37.067,58.823C33.537,63.325 28.467,67.303 21.866,70.723C15.266,74.155 6.437,75.87 -4.633,75.87C-18.347,75.87 -30.685,72.614 -41.645,66.112C-52.605,59.621 -61.249,50.125 -67.598,37.634C-73.947,25.144 -77.116,9.944 -77.116,-7.977C-77.116,-25.899 -74.001,-41.077 -67.751,-54.125C-61.512,-67.183 -52.879,-77.291 -41.886,-84.46C-30.882,-91.617 -18.26,-95.201 -4.021,-95.201C7.026,-95.201 15.855,-93.387 22.467,-89.749C29.067,-86.11 34.16,-81.935 37.755,-77.226C41.329,-72.516 44.093,-68.625 46.049,-65.555L48.649,-65.555L48.649,-93.038L75.532,-93.038L75.532,83.104C75.532,97.846 72.199,109.888 65.543,119.264C58.888,128.639 49.906,135.524 38.596,139.928C27.286,144.321 14.665,146.517 0.743,146.517L0.765,146.517Z" style="fill-rule:nonzero;"/>
            </g>
            <g transform="matrix(1,0,0,1,4817.59,591.517)">
                <path d="M0,128.072C11.562,128.072 21.09,125.1 28.565,119.155C36.039,113.221 41.569,105.408 45.153,95.737C48.727,86.066 50.519,75.598 50.519,64.342C50.519,53.087 48.727,42.4 45.153,32.63C41.569,22.861 36.04,14.971 28.565,8.983C21.091,2.995 11.573,-0 0,-0C-11.573,-0 -20.882,2.995 -28.259,8.983C-35.624,14.971 -41.099,22.828 -44.683,32.554C-48.267,42.29 -50.059,52.879 -50.059,64.342C-50.059,75.805 -48.267,86.066 -44.683,95.737C-41.099,105.408 -35.613,113.221 -28.259,119.155C-20.882,125.099 -11.463,128.072 0,128.072ZM0,152.79C-15.561,152.79 -29.199,149.108 -40.913,141.732C-52.638,134.355 -61.773,124.029 -68.33,110.719C-74.887,97.409 -78.154,81.947 -78.154,64.342C-78.154,46.738 -74.887,30.784 -68.33,17.43C-61.773,4.077 -52.638,-6.305 -40.913,-13.659C-29.198,-21.035 -15.55,-24.718 0,-24.718C15.55,-24.718 29.384,-21.035 41.154,-13.659C52.933,-6.294 62.091,4.077 68.636,17.43C75.193,30.784 78.471,46.432 78.471,64.342C78.471,82.253 75.193,97.409 68.636,110.719C62.08,124.029 52.923,134.355 41.154,141.732C29.384,149.108 15.67,152.79 0,152.79" style="fill-rule:nonzero;"/>
            </g>
            <g transform="matrix(1,0,0,1,4963.94,669.671)">
                <path d="M0,-31.93L0,70.953L-27.636,70.953L-27.636,-100.73L-1.071,-100.73L-0.917,-59.118L-4.753,-59.118C0.459,-74.985 7.912,-86.24 17.594,-92.906C27.265,-99.561 38.597,-102.883 51.601,-102.883C63.163,-102.883 73.303,-100.501 82.001,-95.747C90.7,-90.983 97.486,-83.814 102.349,-74.242C107.212,-64.669 109.637,-52.616 109.637,-38.082L109.637,70.942L82.001,70.942L82.001,-35.777C82.001,-48.988 78.548,-59.326 71.642,-66.8C64.725,-74.274 55.283,-78.012 43.307,-78.012C35.111,-78.012 27.746,-76.22 21.2,-72.635C14.655,-69.051 9.475,-63.839 5.694,-56.976C1.902,-50.114 0.011,-41.776 0.011,-31.941L0,-31.93Z" style="fill-rule:nonzero;"/>
            </g>
            <g transform="matrix(1,0,0,1,0,12.478)">
                <path d="M5122.1,556.463L5149.73,556.463L5149.73,728.147L5122.1,728.147L5122.1,556.463ZM5136.06,528.368C5130.85,528.368 5126.34,526.576 5122.56,522.992C5118.76,519.408 5116.87,515.113 5116.87,510.086C5116.87,505.059 5118.76,500.645 5122.56,497.115C5126.35,493.586 5130.85,491.815 5136.06,491.815C5141.27,491.815 5145.95,493.575 5149.73,497.115C5153.51,500.645 5155.41,504.972 5155.41,510.086C5155.41,515.2 5153.51,519.408 5149.73,522.992C5145.94,526.576 5141.38,528.368 5136.06,528.368" style="fill-rule:nonzero;"/>
            </g>
        </g>
    </g>
</svg>
