<?xml version="1.0" encoding="UTF-8" standalone="no"?>
<!DOCTYPE svg PUBLIC "-//W3C//DTD SVG 1.1//EN" "http://www.w3.org/Graphics/SVG/1.1/DTD/svg11.dtd">
<svg width="100%" height="100%" viewBox="0 0 840 219" version="1.1" xmlns="http://www.w3.org/2000/svg" xmlns:xlink="http://www.w3.org/1999/xlink" xml:space="preserve" xmlns:serif="http://www.serif.com/" style="fill-rule:evenodd;clip-rule:evenodd;stroke-linejoin:round;stroke-miterlimit:2;">
    <g transform="matrix(1,0,0,1,-23.3958,-303.915)">
        <g id="Livello-1" serif:id="Livello 1" transform="matrix(4.16667,0,0,4.16667,0,0)">
            <g transform="matrix(1,0,0,1,159.229,74.7607)">
                <path d="M0,1.599C0,1.542 0.003,-0.112 0.008,-0.167C0.092,-1.049 0.834,-1.738 1.738,-1.738C2.655,-1.738 3.408,-1.027 3.472,-0.125C3.475,-0.084 3.476,1.557 3.476,1.599C3.476,2.558 2.698,3.337 1.738,3.337C0.777,3.337 0,2.558 0,1.599" style="fill:rgb(0,175,219);fill-rule:nonzero;"/>
            </g>
            <g transform="matrix(1,0,0,1,10.4785,102.693)">
                <path d="M0,-16.618L11.206,-16.618C12.819,-16.618 14.199,-15.705 15.345,-13.88C15.685,-13.19 15.854,-12.49 15.854,-11.779L15.854,-11.205C15.854,-9.551 14.878,-8.128 12.926,-6.94C12.226,-6.642 11.164,-6.494 9.742,-6.494L-1.146,-6.494L-1.146,-5.348C-1.146,-4.531 -0.87,-3.979 -0.318,-3.692L0.191,-3.565L13.499,-3.565C13.857,-3.565 14.217,-3.576 14.526,-3.479C15.265,-3.248 15.775,-2.663 15.761,-1.72C15.747,-0.781 14.899,0 13.965,0L0,0C-1.613,0 -2.992,-0.912 -4.139,-2.737C-4.478,-3.427 -4.648,-4.127 -4.648,-4.839L-4.648,-11.779C-4.648,-13.944 -3.417,-15.514 -0.955,-16.491L0,-16.618ZM-1.146,-10.123L11.016,-10.123C11.727,-10.123 12.171,-10.612 12.353,-11.588C12.171,-12.564 11.727,-13.052 11.016,-13.053L0.191,-13.053C-0.583,-13.053 -1.029,-12.5 -1.146,-11.397L-1.146,-10.123Z" style="fill:rgb(0,133,63);fill-rule:nonzero;"/>
            </g>
            <g transform="matrix(1,0,0,1,35.8838,102.693)">
                <path d="M0,-16.618L11.016,-16.618C11.978,-16.505 12.568,-15.626 12.544,-14.955L12.544,-14.798C12.543,-14.013 11.966,-13.254 10.952,-13.084L10.188,-13.053L0,-13.053C-1.401,-13.053 -2.632,-12.309 -3.693,-10.824C-4.202,-9.965 -4.458,-9.137 -4.458,-8.34C-4.458,-6.165 -3.291,-4.617 -0.955,-3.692L0,-3.565L10.188,-3.565C11.661,-3.657 12.617,-2.892 12.559,-1.722C12.515,-0.821 11.768,0 11.016,0L-0.127,0C-2.6,0 -4.807,-1.294 -6.75,-3.884C-7.557,-5.338 -7.959,-6.696 -7.959,-7.958L-7.959,-8.659C-7.959,-11.482 -6.473,-13.838 -3.501,-15.727C-2.218,-16.321 -1.051,-16.618 0,-16.618" style="fill:rgb(0,133,63);fill-rule:nonzero;"/>
            </g>
            <g transform="matrix(1,0,0,1,57.978,102.693)">
                <path d="M0,-16.618L4.585,-16.618C7.407,-16.618 9.763,-15.132 11.652,-12.161C12.246,-10.856 12.543,-9.689 12.544,-8.659L12.544,-7.958C12.544,-5.316 11.228,-3.066 8.595,-1.209C7.227,-0.403 5.932,0 4.712,0L-0.127,0C-2.6,0 -4.807,-1.294 -6.75,-3.884C-7.557,-5.338 -7.959,-6.696 -7.959,-7.958L-7.959,-8.659C-7.959,-11.482 -6.473,-13.838 -3.501,-15.727C-2.218,-16.321 -1.051,-16.618 0,-16.618M-4.457,-8.34C-4.457,-6.165 -3.291,-4.617 -0.955,-3.692L0,-3.565L4.585,-3.565C6.081,-3.565 7.354,-4.371 8.405,-5.984C8.829,-6.812 9.042,-7.576 9.042,-8.277C9.042,-10.071 8.171,-11.492 6.431,-12.543C5.762,-12.883 5.147,-13.052 4.585,-13.053L0,-13.053C-1.401,-13.053 -2.632,-12.309 -3.693,-10.824C-4.202,-9.965 -4.457,-9.137 -4.457,-8.34" style="fill:rgb(0,133,63);fill-rule:nonzero;"/>
            </g>
            <g transform="matrix(1,0,0,1,75.2993,115.349)">
                <path d="M0,-42.367C0.915,-42.363 1.743,-41.552 1.743,-40.799L1.743,-29.21L5.243,-29.21C6.071,-29.21 7.042,-28.591 7.027,-27.428C7.027,-26.653 6.696,-26.102 5.763,-25.731L4.926,-25.645L1.743,-25.645L1.743,-9.228C1.743,-6.755 2.485,-5.121 3.971,-4.325C4.65,-3.817 5.456,-3.561 6.391,-3.561L129.456,-3.561C130.558,-3.561 131.259,-3.2 131.557,-2.479L131.684,-1.969L131.684,-1.524C131.418,-0.505 130.909,0.005 130.156,0.005L6.199,0.005C3.366,0.005 1.01,-1.481 -0.868,-4.452C-1.463,-5.737 -1.76,-6.904 -1.76,-7.954L-1.76,-40.799C-1.625,-41.804 -0.919,-42.372 0,-42.367" style="fill:rgb(0,133,63);fill-rule:nonzero;"/>
            </g>
            <g transform="matrix(1,0,0,1,92.0967,102.875)">
                <path d="M0,-16.8L5.61,-16.8C6.658,-16.677 7.324,-15.939 7.298,-15.034C7.271,-14.117 6.792,-13.482 5.73,-13.248L4.966,-13.235L0,-13.235C-1.497,-13.235 -2.77,-12.427 -3.82,-10.815C-4.246,-10.199 -4.457,-9.116 -4.457,-7.568L-4.457,-1.71C-4.557,-0.873 -5.153,-0.321 -5.984,-0.183C-7.086,0 -7.959,-0.956 -7.959,-1.71L-7.959,-8.841C-7.959,-11.557 -6.558,-13.871 -3.757,-15.781C-2.409,-16.461 -1.157,-16.8 0,-16.8" style="fill:rgb(0,133,63);fill-rule:nonzero;"/>
            </g>
            <g transform="matrix(1,0,0,1,105.659,102.693)">
                <path d="M0,-16.618L11.207,-16.618C12.819,-16.618 14.199,-15.705 15.345,-13.88C15.684,-13.19 15.854,-12.49 15.854,-11.779L15.854,-11.205C15.854,-9.551 14.878,-8.128 12.925,-6.94C12.225,-6.642 11.164,-6.494 9.742,-6.494L-1.146,-6.494L-1.146,-5.348C-1.146,-4.531 -0.87,-3.979 -0.319,-3.692L0.191,-3.565L13.499,-3.565C14.719,-3.565 15.951,-3.27 15.853,-1.527C15.806,-0.685 14.933,0 14.327,0L0,0C-1.613,0 -2.992,-0.912 -4.139,-2.737C-4.478,-3.427 -4.648,-4.127 -4.648,-4.839L-4.648,-11.779C-4.648,-13.944 -3.417,-15.514 -0.955,-16.491L0,-16.618ZM-1.146,-10.123L11.015,-10.123C11.726,-10.123 12.171,-10.612 12.352,-11.588C12.171,-12.564 11.726,-13.052 11.015,-13.053L0.191,-13.053C-0.583,-13.053 -1.029,-12.5 -1.146,-11.397L-1.146,-10.123Z" style="fill:rgb(0,133,63);fill-rule:nonzero;"/>
            </g>
            <g transform="matrix(1,0,0,1,124.633,102.716)">
                <path d="M0,-16.641L11.144,-16.641C13.615,-16.641 15.822,-15.347 17.766,-12.757C18.571,-11.303 18.974,-9.945 18.975,-8.682L18.975,-1.551C18.709,-0.532 18.218,-0.05 17.242,-0.024C16.364,0 15.473,-0.797 15.473,-1.551L15.473,-7.536C15.473,-10.21 14.475,-11.951 12.48,-12.757C11.938,-12.969 11.45,-13.075 11.016,-13.076L1.975,-13.076L1.975,-1.551C1.758,-0.633 1.178,-0.079 0.3,-0.041C-0.624,0 -1.352,-0.642 -1.528,-1.551L-1.528,-15.113C-1.263,-16.132 -0.753,-16.641 0,-16.641" style="fill:rgb(0,133,63);fill-rule:nonzero;"/>
            </g>
            <g transform="matrix(1,0,0,1,160.935,102.815)">
                <path d="M0,-16.77C0.923,-16.787 1.695,-16.08 1.782,-15.212L1.782,-1.65C1.586,-0.61 0.771,0.017 -0.192,-0.123C-1.169,-0.264 -1.719,-1.116 -1.719,-1.65L-1.719,-15.212C-1.566,-16.08 -0.905,-16.753 0,-16.77" style="fill:rgb(0,133,63);fill-rule:nonzero;"/>
            </g>
            <g transform="matrix(1,0,0,1,194.367,102.693)">
                <path d="M0,-16.618L4.585,-16.618C7.406,-16.618 9.763,-15.132 11.651,-12.161C12.246,-10.856 12.543,-9.689 12.544,-8.659L12.544,-7.958C12.544,-5.316 11.227,-3.066 8.595,-1.209C7.227,-0.403 5.932,0 4.712,0L-0.128,0C-2.601,0 -4.808,-1.294 -6.75,-3.884C-7.557,-5.338 -7.959,-6.696 -7.959,-7.958L-7.959,-8.659C-7.959,-11.482 -6.475,-13.838 -3.502,-15.727C-2.219,-16.321 -1.052,-16.618 0,-16.618M-4.458,-8.34C-4.458,-6.165 -3.291,-4.617 -0.955,-3.692L0,-3.565L4.585,-3.565C6.081,-3.565 7.354,-4.371 8.404,-5.984C8.829,-6.812 9.041,-7.576 9.041,-8.277C9.041,-10.071 8.171,-11.492 6.431,-12.543C5.762,-12.883 5.146,-13.052 4.585,-13.053L0,-13.053C-1.401,-13.053 -2.633,-12.309 -3.693,-10.824C-4.202,-9.965 -4.458,-9.137 -4.458,-8.34" style="fill:rgb(0,133,63);fill-rule:nonzero;"/>
            </g>
            <g transform="matrix(1,0,0,1,148.718,115.309)">
                <path d="M0,-42.369C0.915,-42.364 1.743,-41.553 1.743,-40.8L1.743,-29.212L5.243,-29.212C6.071,-29.212 7.042,-28.593 7.027,-27.429C7.027,-26.654 6.696,-26.104 5.763,-25.732L4.927,-25.646L1.743,-25.646L1.743,-9.23C1.743,-6.756 2.59,-4.972 4.076,-4.176C4.824,-3.776 5.456,-3.503 6.391,-3.503L6.199,0.004C3.366,0.004 1.01,-1.483 -0.868,-4.454C-1.463,-5.739 -1.76,-6.906 -1.76,-7.955L-1.76,-40.8C-1.625,-41.805 -0.919,-42.373 0,-42.369" style="fill:rgb(0,133,63);fill-rule:nonzero;"/>
            </g>
            <g transform="matrix(1,0,0,1,165.806,102.716)">
                <path d="M0,-16.641L11.143,-16.641C13.614,-16.641 15.822,-15.347 17.765,-12.757C18.571,-11.303 18.974,-9.945 18.975,-8.682L18.975,-1.551C18.709,-0.532 18.218,-0.05 17.241,-0.024C16.364,0 15.472,-0.797 15.472,-1.551L15.472,-7.536C15.472,-10.21 14.475,-11.951 12.479,-12.757C11.938,-12.969 11.45,-13.075 11.016,-13.076L1.974,-13.076L1.974,-1.551C1.757,-0.633 1.178,-0.079 0.3,-0.041C-0.624,0 -1.353,-0.642 -1.528,-1.551L-1.528,-15.113C-1.264,-16.132 -0.754,-16.641 0,-16.641" style="fill:rgb(0,133,63);fill-rule:nonzero;"/>
            </g>
            <g transform="matrix(1,0,0,1,8.896,121.806)">
                <path d="M0,2.922C0.17,2.922 0.308,2.864 0.416,2.748C0.532,2.633 0.589,2.493 0.589,2.327L0.589,2.194L1.253,2.194L1.253,2.332C1.253,2.502 1.221,2.659 1.155,2.806C1.094,2.953 1.007,3.081 0.896,3.193C0.784,3.305 0.654,3.392 0.508,3.453C0.366,3.515 0.21,3.546 0.041,3.546L-2.067,3.546C-2.237,3.546 -2.395,3.515 -2.541,3.453C-2.688,3.392 -2.814,3.305 -2.923,3.193C-3.034,3.081 -3.123,2.953 -3.188,2.806C-3.25,2.659 -3.281,2.502 -3.281,2.332L-3.281,0.588C-3.281,0.419 -3.25,0.261 -3.188,0.115C-3.123,-0.031 -3.034,-0.16 -2.923,-0.272C-2.814,-0.384 -2.688,-0.471 -2.541,-0.531C-2.395,-0.594 -2.237,-0.624 -2.067,-0.624L0.041,-0.624C0.21,-0.624 0.366,-0.594 0.508,-0.531C0.654,-0.471 0.784,-0.384 0.896,-0.272C1.007,-0.16 1.094,-0.031 1.155,0.115C1.221,0.261 1.253,0.419 1.253,0.588L1.253,0.727L0.589,0.727L0.589,0.594C0.589,0.429 0.532,0.288 0.416,0.173C0.308,0.058 0.17,-0.001 0,-0.001L-2.027,-0.001C-2.193,-0.001 -2.333,0.058 -2.448,0.173C-2.503,0.227 -2.544,0.29 -2.576,0.363C-2.607,0.433 -2.622,0.509 -2.622,0.594L-2.622,2.327C-2.622,2.412 -2.607,2.491 -2.576,2.564C-2.544,2.633 -2.503,2.694 -2.448,2.748C-2.333,2.864 -2.193,2.922 -2.027,2.922L0,2.922Z" style="fill:rgb(0,175,219);fill-rule:nonzero;"/>
            </g>
            <g transform="matrix(1,0,0,1,14.9023,124.994)">
                <path d="M0,-3.454C0.111,-3.343 0.198,-3.214 0.26,-3.067C0.325,-2.925 0.358,-2.768 0.358,-2.599L0.358,-0.854C0.358,-0.685 0.325,-0.527 0.26,-0.381C0.198,-0.235 0.111,-0.107 0,0C-0.107,0.111 -0.235,0.2 -0.381,0.266C-0.528,0.327 -0.686,0.358 -0.855,0.358L-2.963,0.358C-3.132,0.358 -3.291,0.327 -3.437,0.266C-3.579,0.2 -3.706,0.111 -3.817,0C-3.93,-0.107 -4.017,-0.235 -4.083,-0.381C-4.145,-0.527 -4.175,-0.685 -4.175,-0.854L-4.175,-2.599C-4.175,-2.768 -4.145,-2.925 -4.083,-3.067C-4.017,-3.214 -3.93,-3.343 -3.817,-3.454C-3.706,-3.565 -3.579,-3.651 -3.437,-3.714C-3.291,-3.779 -3.132,-3.812 -2.963,-3.812L-0.855,-3.812C-0.686,-3.812 -0.528,-3.779 -0.381,-3.714C-0.235,-3.651 -0.107,-3.565 0,-3.454M-0.301,-2.593C-0.301,-2.674 -0.318,-2.751 -0.353,-2.824C-0.383,-2.897 -0.425,-2.961 -0.479,-3.016C-0.534,-3.069 -0.597,-3.111 -0.67,-3.142C-0.739,-3.173 -0.814,-3.187 -0.895,-3.187L-2.922,-3.187C-3.003,-3.187 -3.08,-3.173 -3.153,-3.142C-3.222,-3.111 -3.285,-3.069 -3.338,-3.016C-3.453,-2.899 -3.512,-2.759 -3.512,-2.593L-3.512,-0.861C-3.512,-0.695 -3.453,-0.555 -3.338,-0.438C-3.285,-0.385 -3.222,-0.343 -3.153,-0.312C-3.08,-0.281 -3.003,-0.266 -2.922,-0.266L-0.895,-0.266C-0.814,-0.266 -0.739,-0.281 -0.67,-0.312C-0.597,-0.343 -0.534,-0.385 -0.479,-0.438C-0.425,-0.492 -0.383,-0.555 -0.353,-0.624C-0.318,-0.697 -0.301,-0.776 -0.301,-0.861L-0.301,-2.593Z" style="fill:rgb(0,175,219);fill-rule:nonzero;"/>
            </g>
            <g transform="matrix(1,0,0,1,19.0664,123.556)">
                <path d="M0,-0.578C0.166,-0.578 0.319,-0.547 0.462,-0.486C0.608,-0.425 0.735,-0.34 0.843,-0.232C0.951,-0.124 1.036,0.003 1.097,0.15C1.159,0.292 1.19,0.445 1.19,0.611C1.19,0.773 1.159,0.928 1.097,1.073C1.036,1.216 0.951,1.341 0.843,1.448C0.735,1.558 0.608,1.641 0.462,1.703C0.319,1.765 0.166,1.796 0,1.796L-3.038,1.796L-3.038,1.172L0,1.172C0.077,1.172 0.15,1.158 0.22,1.131C0.289,1.101 0.349,1.061 0.399,1.011C0.453,0.956 0.493,0.897 0.52,0.831C0.551,0.762 0.565,0.689 0.565,0.611C0.565,0.453 0.51,0.321 0.399,0.213C0.291,0.102 0.157,0.046 0,0.046L-2.131,0.046C-2.3,0.046 -2.459,0.015 -2.605,-0.047C-2.748,-0.108 -2.875,-0.195 -2.986,-0.307C-3.097,-0.419 -3.186,-0.547 -3.252,-0.694C-3.313,-0.841 -3.344,-0.996 -3.344,-1.162C-3.344,-1.331 -3.313,-1.489 -3.252,-1.635C-3.186,-1.781 -3.097,-1.91 -2.986,-2.021C-2.875,-2.13 -2.748,-2.215 -2.605,-2.276C-2.459,-2.342 -2.3,-2.374 -2.131,-2.374L0.883,-2.374L0.883,-1.751L-2.125,-1.751C-2.284,-1.739 -2.415,-1.678 -2.518,-1.565C-2.568,-1.512 -2.609,-1.45 -2.639,-1.382C-2.666,-1.315 -2.68,-1.242 -2.68,-1.162C-2.68,-1.085 -2.666,-1.011 -2.639,-0.942C-2.609,-0.877 -2.568,-0.816 -2.518,-0.763C-2.418,-0.651 -2.287,-0.59 -2.125,-0.578L0,-0.578Z" style="fill:rgb(0,175,219);fill-rule:nonzero;"/>
            </g>
            <g transform="matrix(1,0,0,1,22.4219,121.181)">
                <path d="M0,4.17L0,0.625L-1.935,0.625L-1.935,0L2.599,0L2.599,0.625L0.658,0.625L0.658,4.17L0,4.17Z" style="fill:rgb(0,175,219);fill-rule:nonzero;"/>
            </g>
            <g transform="matrix(1,0,0,1,29.2368,121.181)">
                <path d="M0,4.17L0,3.016C0,2.854 -0.054,2.719 -0.162,2.611C-0.266,2.496 -0.397,2.434 -0.554,2.426L-3.211,2.426L-3.211,4.17L-3.869,4.17L-3.869,1.214C-3.869,1.044 -3.839,0.888 -3.777,0.745C-3.712,0.599 -3.623,0.47 -3.511,0.358C-3.403,0.247 -3.276,0.161 -3.13,0.099C-2.984,0.033 -2.827,0 -2.657,0L-0.549,0C-0.379,0 -0.224,0.033 -0.081,0.099C0.065,0.161 0.194,0.247 0.307,0.358C0.417,0.47 0.504,0.599 0.566,0.745C0.632,0.888 0.664,1.044 0.664,1.214C0.664,1.395 0.628,1.562 0.554,1.716C0.482,1.87 0.383,2.003 0.26,2.114C0.383,2.227 0.482,2.358 0.554,2.513C0.628,2.667 0.664,2.833 0.664,3.01L0.664,4.17L0,4.17ZM-0.589,1.802C-0.508,1.802 -0.433,1.787 -0.364,1.756C-0.291,1.726 -0.227,1.684 -0.173,1.63C-0.058,1.522 0,1.383 0,1.214C0,1.052 -0.058,0.913 -0.173,0.797C-0.227,0.743 -0.291,0.701 -0.364,0.671C-0.433,0.64 -0.508,0.625 -0.589,0.625L-2.616,0.625C-2.697,0.625 -2.774,0.64 -2.847,0.671C-2.917,0.701 -2.979,0.743 -3.032,0.797C-3.144,0.909 -3.204,1.048 -3.211,1.214L-3.211,1.802L-0.589,1.802Z" style="fill:rgb(0,175,219);fill-rule:nonzero;"/>
            </g>
            <g transform="matrix(1,0,0,1,33.5571,121.181)">
                <path d="M0,4.17L-1.894,4.17C-2.064,4.17 -2.222,4.14 -2.369,4.078C-2.511,4.013 -2.637,3.924 -2.75,3.813C-2.861,3.705 -2.949,3.577 -3.015,3.432C-3.077,3.285 -3.107,3.127 -3.107,2.958L-3.107,0L-2.449,0L-2.449,2.951C-2.445,3.121 -2.385,3.262 -2.271,3.374C-2.216,3.428 -2.154,3.47 -2.085,3.5C-2.012,3.531 -1.935,3.546 -1.854,3.546L-0.046,3.546C0.039,3.546 0.115,3.531 0.185,3.5C0.258,3.47 0.321,3.428 0.375,3.374C0.491,3.258 0.548,3.117 0.548,2.951L0.548,0L1.207,0L1.207,2.958C1.207,3.127 1.176,3.285 1.114,3.432C1.053,3.577 0.966,3.705 0.855,3.813C0.743,3.924 0.614,4.013 0.467,4.078C0.321,4.14 0.165,4.17 0,4.17" style="fill:rgb(0,175,219);fill-rule:nonzero;"/>
            </g>
            <g transform="matrix(1,0,0,1,36.1401,123.239)">
                <path d="M0,0.063C0.035,0.047 0.098,0.024 0.19,-0.006C0.287,-0.041 0.398,-0.08 0.525,-0.122C0.652,-0.168 0.788,-0.216 0.93,-0.266C1.076,-0.316 1.216,-0.364 1.351,-0.411C1.486,-0.457 1.61,-0.499 1.727,-0.538C1.841,-0.58 1.934,-0.613 2.002,-0.635C2.188,-0.702 2.309,-0.769 2.367,-0.838C2.424,-0.911 2.453,-0.985 2.453,-1.057C2.453,-1.154 2.426,-1.233 2.372,-1.294C2.318,-1.356 2.224,-1.387 2.089,-1.387L-0.617,-1.387L-0.617,-2.051L2.095,-2.051C2.276,-2.051 2.433,-2.024 2.563,-1.969C2.697,-1.916 2.807,-1.843 2.892,-1.751C2.98,-1.663 3.044,-1.56 3.082,-1.445C3.125,-1.329 3.146,-1.211 3.146,-1.092C3.146,-0.826 3.065,-0.605 2.903,-0.428C2.742,-0.254 2.505,-0.113 2.193,-0C2.117,0.026 2.021,0.061 1.905,0.103C1.79,0.142 1.666,0.184 1.536,0.231C1.405,0.273 1.27,0.318 1.131,0.364C0.997,0.41 0.87,0.455 0.75,0.496C0.631,0.539 0.525,0.577 0.433,0.612C0.34,0.643 0.273,0.666 0.231,0.681C0.124,0.719 0.039,0.761 -0.022,0.808C-0.081,0.85 -0.125,0.894 -0.155,0.941C-0.183,0.987 -0.198,1.035 -0.202,1.084C-0.202,1.131 -0.196,1.175 -0.185,1.218C-0.165,1.284 -0.127,1.339 -0.069,1.385C-0.007,1.428 0.067,1.449 0.156,1.449L3.054,1.449L3.054,2.114L0.156,2.114C-0.005,2.114 -0.15,2.09 -0.277,2.043C-0.404,1.994 -0.514,1.927 -0.606,1.842C-0.695,1.757 -0.765,1.657 -0.819,1.542C-0.869,1.422 -0.898,1.293 -0.906,1.155C-0.917,0.889 -0.848,0.669 -0.698,0.496C-0.545,0.32 -0.312,0.174 0,0.063" style="fill:rgb(0,175,219);fill-rule:nonzero;"/>
            </g>
            <g transform="matrix(1,0,0,1,0,48.109)">
                <rect x="39.748" y="73.073" width="0.658" height="4.17" style="fill:rgb(0,175,219);"/>
            </g>
            <g transform="matrix(1,0,0,1,45.1597,124.994)">
                <path d="M0,-3.454C0.111,-3.343 0.198,-3.214 0.26,-3.067C0.325,-2.925 0.358,-2.768 0.358,-2.599L0.358,-0.854C0.358,-0.685 0.325,-0.527 0.26,-0.381C0.198,-0.235 0.111,-0.107 0,0C-0.107,0.111 -0.235,0.2 -0.381,0.266C-0.528,0.327 -0.686,0.358 -0.855,0.358L-2.963,0.358C-3.132,0.358 -3.291,0.327 -3.437,0.266C-3.579,0.2 -3.706,0.111 -3.817,0C-3.93,-0.107 -4.019,-0.235 -4.083,-0.381C-4.145,-0.527 -4.176,-0.685 -4.176,-0.854L-4.176,-2.599C-4.176,-2.768 -4.145,-2.925 -4.083,-3.067C-4.019,-3.214 -3.93,-3.343 -3.817,-3.454C-3.706,-3.565 -3.579,-3.651 -3.437,-3.714C-3.291,-3.779 -3.132,-3.812 -2.963,-3.812L-0.855,-3.812C-0.686,-3.812 -0.528,-3.779 -0.381,-3.714C-0.235,-3.651 -0.107,-3.565 0,-3.454M-0.301,-2.593C-0.301,-2.674 -0.318,-2.751 -0.353,-2.824C-0.383,-2.897 -0.425,-2.961 -0.479,-3.016C-0.534,-3.069 -0.597,-3.111 -0.67,-3.142C-0.739,-3.173 -0.815,-3.187 -0.895,-3.187L-2.923,-3.187C-3.003,-3.187 -3.08,-3.173 -3.154,-3.142C-3.223,-3.111 -3.285,-3.069 -3.338,-3.016C-3.454,-2.899 -3.512,-2.759 -3.512,-2.593L-3.512,-0.861C-3.512,-0.695 -3.454,-0.555 -3.338,-0.438C-3.285,-0.385 -3.223,-0.343 -3.154,-0.312C-3.08,-0.281 -3.003,-0.266 -2.923,-0.266L-0.895,-0.266C-0.815,-0.266 -0.739,-0.281 -0.67,-0.312C-0.597,-0.343 -0.534,-0.385 -0.479,-0.438C-0.425,-0.492 -0.383,-0.555 -0.353,-0.624C-0.318,-0.697 -0.301,-0.776 -0.301,-0.861L-0.301,-2.593Z" style="fill:rgb(0,175,219);fill-rule:nonzero;"/>
            </g>
            <g transform="matrix(1,0,0,1,49.9648,125.352)">
                <path d="M0,-4.17L0.665,-4.17L0.665,-0.977C0.665,-0.842 0.639,-0.715 0.589,-0.596C0.543,-0.481 0.475,-0.378 0.386,-0.289C0.303,-0.201 0.2,-0.13 0.081,-0.076C-0.035,-0.025 -0.16,0 -0.294,0C-0.36,0 -0.421,-0.004 -0.479,-0.012C-0.538,-0.024 -0.593,-0.039 -0.647,-0.058C-0.754,-0.093 -0.845,-0.139 -0.918,-0.196C-1,-0.259 -1.066,-0.324 -1.12,-0.394C-1.171,-0.462 -1.214,-0.53 -1.253,-0.596C-1.28,-0.642 -1.303,-0.684 -1.323,-0.723C-1.342,-0.765 -1.36,-0.802 -1.375,-0.832C-1.394,-0.867 -1.423,-0.921 -1.461,-0.994C-1.497,-1.066 -1.539,-1.153 -1.589,-1.253C-1.639,-1.355 -1.692,-1.464 -1.75,-1.583C-1.804,-1.702 -1.862,-1.824 -1.923,-1.947C-1.985,-2.069 -2.047,-2.191 -2.108,-2.312C-2.166,-2.434 -2.221,-2.548 -2.276,-2.651C-2.326,-2.759 -2.37,-2.854 -2.408,-2.935C-2.447,-3.016 -2.478,-3.078 -2.501,-3.125C-2.52,-3.167 -2.541,-3.208 -2.564,-3.246C-2.583,-3.285 -2.603,-3.32 -2.622,-3.35C-2.642,-3.381 -2.672,-3.42 -2.714,-3.466C-2.757,-3.516 -2.811,-3.541 -2.876,-3.541C-2.923,-3.541 -2.969,-3.531 -3.015,-3.513C-3.058,-3.492 -3.092,-3.47 -3.119,-3.442C-3.176,-3.378 -3.206,-3.295 -3.206,-3.194L-3.206,0L-3.869,0L-3.869,-3.194C-3.869,-3.468 -3.783,-3.697 -3.61,-3.882C-3.525,-3.971 -3.425,-4.039 -3.31,-4.089C-3.189,-4.143 -3.06,-4.17 -2.917,-4.17C-2.775,-4.17 -2.647,-4.151 -2.535,-4.113C-2.417,-4.074 -2.31,-4.005 -2.218,-3.904C-2.16,-3.847 -2.101,-3.772 -2.039,-3.679C-2.001,-3.622 -1.962,-3.559 -1.923,-3.488C-1.885,-3.42 -1.844,-3.343 -1.802,-3.258C-1.752,-3.154 -1.681,-3.01 -1.589,-2.825C-1.497,-2.641 -1.399,-2.445 -1.299,-2.241C-1.199,-2.041 -1.105,-1.847 -1.017,-1.658C-0.924,-1.473 -0.852,-1.329 -0.797,-1.225C-0.778,-1.194 -0.765,-1.168 -0.756,-1.144C-0.749,-1.125 -0.741,-1.111 -0.733,-1.104C-0.703,-1.05 -0.678,-1.002 -0.658,-0.959C-0.636,-0.917 -0.614,-0.878 -0.595,-0.844C-0.583,-0.828 -0.569,-0.808 -0.555,-0.78C-0.54,-0.758 -0.521,-0.733 -0.502,-0.711C-0.479,-0.688 -0.455,-0.669 -0.427,-0.652C-0.397,-0.638 -0.364,-0.63 -0.329,-0.63C-0.279,-0.63 -0.231,-0.64 -0.185,-0.659C-0.143,-0.678 -0.109,-0.701 -0.087,-0.729C-0.029,-0.794 0,-0.876 0,-0.977L0,-4.17Z" style="fill:rgb(0,175,219);fill-rule:nonzero;"/>
            </g>
            <g transform="matrix(1,0,0,1,52.4194,121.181)">
                <path d="M0,4.17C-0.17,4.17 -0.327,4.14 -0.474,4.078C-0.621,4.017 -0.749,3.93 -0.861,3.817C-0.972,3.707 -1.059,3.577 -1.12,3.432C-1.183,3.285 -1.212,3.127 -1.212,2.958L-1.212,1.214C-1.212,1.044 -1.183,0.886 -1.12,0.739C-1.059,0.594 -0.972,0.466 -0.861,0.358C-0.749,0.247 -0.621,0.161 -0.474,0.099C-0.327,0.033 -0.17,0 0,0L2.749,0L2.749,0.625L0.041,0.625C-0.044,0.625 -0.124,0.64 -0.196,0.671C-0.266,0.701 -0.327,0.743 -0.381,0.797C-0.435,0.852 -0.477,0.915 -0.508,0.988C-0.54,1.058 -0.555,1.135 -0.555,1.22L-0.555,1.669L2.749,1.669L2.749,2.293L-0.555,2.293L-0.555,2.951C-0.555,3.036 -0.54,3.115 -0.508,3.189C-0.477,3.258 -0.435,3.319 -0.381,3.374C-0.266,3.488 -0.125,3.546 0.041,3.546L2.922,3.546L2.922,4.17L0,4.17Z" style="fill:rgb(0,175,219);fill-rule:nonzero;"/>
            </g>
            <g transform="matrix(1,0,0,1,60.9321,121.806)">
                <path d="M0,2.922C0.17,2.922 0.308,2.864 0.416,2.748C0.532,2.633 0.589,2.493 0.589,2.327L0.589,2.194L1.253,2.194L1.253,2.332C1.253,2.502 1.221,2.659 1.155,2.806C1.094,2.953 1.007,3.081 0.896,3.193C0.784,3.305 0.654,3.392 0.508,3.453C0.366,3.515 0.21,3.546 0.041,3.546L-2.067,3.546C-2.237,3.546 -2.395,3.515 -2.541,3.453C-2.688,3.392 -2.814,3.305 -2.923,3.193C-3.034,3.081 -3.123,2.953 -3.188,2.806C-3.25,2.659 -3.28,2.502 -3.28,2.332L-3.28,0.588C-3.28,0.419 -3.25,0.261 -3.188,0.115C-3.123,-0.031 -3.034,-0.16 -2.923,-0.272C-2.814,-0.384 -2.688,-0.471 -2.541,-0.531C-2.395,-0.594 -2.237,-0.624 -2.067,-0.624L0.041,-0.624C0.21,-0.624 0.366,-0.594 0.508,-0.531C0.654,-0.471 0.784,-0.384 0.896,-0.272C1.007,-0.16 1.094,-0.031 1.155,0.115C1.221,0.261 1.253,0.419 1.253,0.588L1.253,0.727L0.589,0.727L0.589,0.594C0.589,0.429 0.532,0.288 0.416,0.173C0.308,0.058 0.17,-0.001 0,-0.001L-2.027,-0.001C-2.193,-0.001 -2.333,0.058 -2.448,0.173C-2.503,0.227 -2.544,0.29 -2.576,0.363C-2.607,0.433 -2.622,0.509 -2.622,0.594L-2.622,2.327C-2.622,2.412 -2.607,2.491 -2.576,2.564C-2.544,2.633 -2.503,2.694 -2.448,2.748C-2.333,2.864 -2.193,2.922 -2.027,2.922L0,2.922Z" style="fill:rgb(0,175,219);fill-rule:nonzero;"/>
            </g>
            <g transform="matrix(1,0,0,1,66.9385,124.994)">
                <path d="M0,-3.454C0.111,-3.343 0.198,-3.214 0.26,-3.067C0.325,-2.925 0.358,-2.768 0.358,-2.599L0.358,-0.854C0.358,-0.685 0.325,-0.527 0.26,-0.381C0.198,-0.235 0.111,-0.107 0,0C-0.107,0.111 -0.235,0.2 -0.381,0.266C-0.527,0.327 -0.686,0.358 -0.855,0.358L-2.963,0.358C-3.132,0.358 -3.291,0.327 -3.437,0.266C-3.579,0.2 -3.706,0.111 -3.817,0C-3.93,-0.107 -4.018,-0.235 -4.083,-0.381C-4.145,-0.527 -4.176,-0.685 -4.176,-0.854L-4.176,-2.599C-4.176,-2.768 -4.145,-2.925 -4.083,-3.067C-4.018,-3.214 -3.93,-3.343 -3.817,-3.454C-3.706,-3.565 -3.579,-3.651 -3.437,-3.714C-3.291,-3.779 -3.132,-3.812 -2.963,-3.812L-0.855,-3.812C-0.686,-3.812 -0.527,-3.779 -0.381,-3.714C-0.235,-3.651 -0.107,-3.565 0,-3.454M-0.301,-2.593C-0.301,-2.674 -0.318,-2.751 -0.353,-2.824C-0.383,-2.897 -0.425,-2.961 -0.479,-3.016C-0.534,-3.069 -0.597,-3.111 -0.67,-3.142C-0.739,-3.173 -0.814,-3.187 -0.895,-3.187L-2.923,-3.187C-3.003,-3.187 -3.08,-3.173 -3.154,-3.142C-3.223,-3.111 -3.285,-3.069 -3.338,-3.016C-3.454,-2.899 -3.512,-2.759 -3.512,-2.593L-3.512,-0.861C-3.512,-0.695 -3.454,-0.555 -3.338,-0.438C-3.285,-0.385 -3.223,-0.343 -3.154,-0.312C-3.08,-0.281 -3.003,-0.266 -2.923,-0.266L-0.895,-0.266C-0.814,-0.266 -0.739,-0.281 -0.67,-0.312C-0.597,-0.343 -0.534,-0.385 -0.479,-0.438C-0.425,-0.492 -0.383,-0.555 -0.353,-0.624C-0.318,-0.697 -0.301,-0.776 -0.301,-0.861L-0.301,-2.593Z" style="fill:rgb(0,175,219);fill-rule:nonzero;"/>
            </g>
            <g transform="matrix(1,0,0,1,72.0322,125.352)">
                <path d="M0,-4.17C0.17,-4.17 0.327,-4.14 0.474,-4.078C0.621,-4.017 0.749,-3.93 0.861,-3.817C0.972,-3.706 1.059,-3.577 1.12,-3.432C1.183,-3.285 1.213,-3.127 1.213,-2.958L1.213,0L0.555,0L0.555,-2.952C0.555,-3.036 0.54,-3.113 0.508,-3.184C0.477,-3.256 0.436,-3.32 0.381,-3.374C0.266,-3.488 0.125,-3.547 -0.041,-3.547L-0.548,-3.547C-0.714,-3.547 -0.855,-3.488 -0.97,-3.374C-1.024,-3.32 -1.066,-3.256 -1.097,-3.184C-1.128,-3.113 -1.144,-3.036 -1.144,-2.952L-1.144,0L-1.801,0L-1.801,-2.952C-1.801,-3.117 -1.859,-3.258 -1.975,-3.374C-2.091,-3.488 -2.231,-3.547 -2.396,-3.547L-2.905,-3.547C-3.07,-3.547 -3.211,-3.488 -3.327,-3.374C-3.381,-3.32 -3.423,-3.256 -3.453,-3.184C-3.484,-3.113 -3.5,-3.036 -3.5,-2.952L-3.5,0L-4.159,0L-4.159,-2.958C-4.159,-3.127 -4.127,-3.285 -4.066,-3.432C-4,-3.577 -3.912,-3.706 -3.8,-3.817C-3.692,-3.93 -3.565,-4.017 -3.418,-4.078C-3.272,-4.14 -3.115,-4.17 -2.945,-4.17L-2.35,-4.17C-2.177,-4.17 -2.016,-4.136 -1.866,-4.066C-1.715,-4.001 -1.584,-3.908 -1.473,-3.789C-1.361,-3.908 -1.23,-4.001 -1.08,-4.066C-0.926,-4.136 -0.763,-4.17 -0.589,-4.17L0,-4.17Z" style="fill:rgb(0,175,219);fill-rule:nonzero;"/>
            </g>
            <g transform="matrix(1,0,0,1,77.9985,124.994)">
                <path d="M0,-3.454C0.111,-3.343 0.198,-3.214 0.26,-3.067C0.325,-2.925 0.358,-2.768 0.358,-2.599L0.358,-1.744C0.358,-1.575 0.325,-1.417 0.26,-1.27C0.198,-1.128 0.111,-1.002 0,-0.89C-0.107,-0.778 -0.235,-0.689 -0.381,-0.624C-0.528,-0.562 -0.686,-0.531 -0.855,-0.531L-2.963,-0.531C-3.163,-0.531 -3.346,-0.575 -3.512,-0.664L-3.512,0.358L-4.176,0.358L-4.176,-2.599C-4.176,-2.768 -4.145,-2.925 -4.083,-3.067C-4.017,-3.214 -3.93,-3.343 -3.817,-3.454C-3.706,-3.565 -3.579,-3.651 -3.437,-3.714C-3.291,-3.779 -3.132,-3.812 -2.963,-3.812L-0.855,-3.812C-0.686,-3.812 -0.528,-3.779 -0.381,-3.714C-0.235,-3.651 -0.107,-3.565 0,-3.454M-0.301,-2.593C-0.301,-2.674 -0.316,-2.751 -0.347,-2.824C-0.377,-2.897 -0.419,-2.961 -0.473,-3.016C-0.589,-3.127 -0.73,-3.184 -0.895,-3.187L-2.923,-3.187C-3.003,-3.187 -3.08,-3.173 -3.154,-3.142C-3.223,-3.111 -3.285,-3.069 -3.338,-3.016C-3.454,-2.899 -3.512,-2.759 -3.512,-2.593L-3.512,-1.75C-3.512,-1.584 -3.454,-1.443 -3.338,-1.329C-3.285,-1.274 -3.223,-1.232 -3.154,-1.201C-3.08,-1.17 -3.003,-1.155 -2.923,-1.155L-0.895,-1.155C-0.814,-1.155 -0.737,-1.17 -0.665,-1.201C-0.591,-1.232 -0.528,-1.274 -0.473,-1.329C-0.419,-1.383 -0.377,-1.443 -0.347,-1.514C-0.316,-1.586 -0.301,-1.665 -0.301,-1.75L-0.301,-2.593Z" style="fill:rgb(0,175,219);fill-rule:nonzero;"/>
            </g>
            <g transform="matrix(1,0,0,1,82.9941,124.994)">
                <path d="M0,-3.454C0.111,-3.343 0.198,-3.214 0.26,-3.067C0.325,-2.925 0.358,-2.768 0.358,-2.599L0.358,-0.854C0.358,-0.685 0.325,-0.527 0.26,-0.381C0.198,-0.235 0.111,-0.107 0,0C-0.107,0.111 -0.235,0.2 -0.381,0.266C-0.528,0.327 -0.686,0.358 -0.855,0.358L-2.963,0.358C-3.132,0.358 -3.291,0.327 -3.437,0.266C-3.579,0.2 -3.706,0.111 -3.817,0C-3.93,-0.107 -4.018,-0.235 -4.083,-0.381C-4.145,-0.527 -4.176,-0.685 -4.176,-0.854L-4.176,-2.599C-4.176,-2.768 -4.145,-2.925 -4.083,-3.067C-4.018,-3.214 -3.93,-3.343 -3.817,-3.454C-3.706,-3.565 -3.579,-3.651 -3.437,-3.714C-3.291,-3.779 -3.132,-3.812 -2.963,-3.812L-0.855,-3.812C-0.686,-3.812 -0.528,-3.779 -0.381,-3.714C-0.235,-3.651 -0.107,-3.565 0,-3.454M-0.301,-2.593C-0.301,-2.674 -0.318,-2.751 -0.353,-2.824C-0.383,-2.897 -0.425,-2.961 -0.48,-3.016C-0.534,-3.069 -0.597,-3.111 -0.67,-3.142C-0.739,-3.173 -0.814,-3.187 -0.896,-3.187L-2.923,-3.187C-3.004,-3.187 -3.08,-3.173 -3.154,-3.142C-3.223,-3.111 -3.285,-3.069 -3.338,-3.016C-3.454,-2.899 -3.512,-2.759 -3.512,-2.593L-3.512,-0.861C-3.512,-0.695 -3.454,-0.555 -3.338,-0.438C-3.285,-0.385 -3.223,-0.343 -3.154,-0.312C-3.08,-0.281 -3.004,-0.266 -2.923,-0.266L-0.896,-0.266C-0.814,-0.266 -0.739,-0.281 -0.67,-0.312C-0.597,-0.343 -0.534,-0.385 -0.48,-0.438C-0.425,-0.492 -0.383,-0.555 -0.353,-0.624C-0.318,-0.697 -0.301,-0.776 -0.301,-0.861L-0.301,-2.593Z" style="fill:rgb(0,175,219);fill-rule:nonzero;"/>
            </g>
            <g transform="matrix(1,0,0,1,87.7993,125.352)">
                <path d="M0,-4.17L0.665,-4.17L0.665,-0.977C0.665,-0.842 0.639,-0.715 0.589,-0.596C0.543,-0.481 0.475,-0.378 0.387,-0.289C0.303,-0.201 0.2,-0.13 0.081,-0.076C-0.035,-0.025 -0.159,0 -0.294,0C-0.36,0 -0.421,-0.004 -0.479,-0.012C-0.537,-0.024 -0.593,-0.039 -0.647,-0.058C-0.754,-0.093 -0.845,-0.139 -0.918,-0.196C-1,-0.259 -1.066,-0.324 -1.12,-0.394C-1.171,-0.462 -1.214,-0.53 -1.253,-0.596C-1.28,-0.642 -1.303,-0.684 -1.323,-0.723C-1.342,-0.765 -1.359,-0.802 -1.375,-0.832C-1.394,-0.867 -1.423,-0.921 -1.461,-0.994C-1.496,-1.066 -1.538,-1.153 -1.588,-1.253C-1.639,-1.355 -1.692,-1.464 -1.75,-1.583C-1.804,-1.702 -1.862,-1.824 -1.923,-1.947C-1.984,-2.069 -2.047,-2.191 -2.108,-2.312C-2.166,-2.434 -2.221,-2.548 -2.276,-2.651C-2.326,-2.759 -2.37,-2.854 -2.408,-2.935C-2.446,-3.016 -2.478,-3.078 -2.501,-3.125C-2.52,-3.167 -2.541,-3.208 -2.564,-3.246C-2.583,-3.285 -2.603,-3.32 -2.622,-3.35C-2.641,-3.381 -2.672,-3.42 -2.714,-3.466C-2.757,-3.516 -2.811,-3.541 -2.876,-3.541C-2.923,-3.541 -2.969,-3.531 -3.015,-3.513C-3.058,-3.492 -3.091,-3.47 -3.119,-3.442C-3.176,-3.378 -3.206,-3.295 -3.206,-3.194L-3.206,0L-3.869,0L-3.869,-3.194C-3.869,-3.468 -3.782,-3.697 -3.61,-3.882C-3.525,-3.971 -3.425,-4.039 -3.309,-4.089C-3.189,-4.143 -3.06,-4.17 -2.917,-4.17C-2.773,-4.17 -2.647,-4.151 -2.535,-4.113C-2.417,-4.074 -2.31,-4.005 -2.217,-3.904C-2.16,-3.847 -2.101,-3.772 -2.038,-3.679C-2,-3.622 -1.962,-3.559 -1.923,-3.488C-1.885,-3.42 -1.844,-3.343 -1.802,-3.258C-1.751,-3.154 -1.681,-3.01 -1.588,-2.825C-1.496,-2.641 -1.399,-2.445 -1.299,-2.241C-1.199,-2.041 -1.105,-1.847 -1.016,-1.658C-0.924,-1.473 -0.851,-1.329 -0.797,-1.225C-0.778,-1.194 -0.765,-1.168 -0.756,-1.144C-0.749,-1.125 -0.741,-1.111 -0.733,-1.104C-0.702,-1.05 -0.678,-1.002 -0.658,-0.959C-0.635,-0.917 -0.614,-0.878 -0.595,-0.844C-0.583,-0.828 -0.569,-0.808 -0.554,-0.78C-0.539,-0.758 -0.521,-0.733 -0.502,-0.711C-0.479,-0.688 -0.455,-0.669 -0.427,-0.652C-0.397,-0.638 -0.364,-0.63 -0.329,-0.63C-0.279,-0.63 -0.231,-0.64 -0.185,-0.659C-0.142,-0.678 -0.109,-0.701 -0.087,-0.729C-0.029,-0.794 0,-0.876 0,-0.977L0,-4.17Z" style="fill:rgb(0,175,219);fill-rule:nonzero;"/>
            </g>
            <g transform="matrix(1,0,0,1,90.2539,121.181)">
                <path d="M0,4.17C-0.17,4.17 -0.327,4.14 -0.473,4.078C-0.62,4.017 -0.749,3.93 -0.861,3.817C-0.972,3.707 -1.059,3.577 -1.12,3.432C-1.182,3.285 -1.212,3.127 -1.212,2.958L-1.212,1.214C-1.212,1.044 -1.182,0.886 -1.12,0.739C-1.059,0.594 -0.972,0.466 -0.861,0.358C-0.749,0.247 -0.62,0.161 -0.473,0.099C-0.327,0.033 -0.17,0 0,0L2.749,0L2.749,0.625L0.041,0.625C-0.044,0.625 -0.124,0.64 -0.196,0.671C-0.266,0.701 -0.327,0.743 -0.381,0.797C-0.435,0.852 -0.477,0.915 -0.508,0.988C-0.54,1.058 -0.555,1.135 -0.555,1.22L-0.555,1.669L2.749,1.669L2.749,2.293L-0.555,2.293L-0.555,2.951C-0.555,3.036 -0.54,3.115 -0.508,3.189C-0.477,3.258 -0.435,3.319 -0.381,3.374C-0.266,3.488 -0.125,3.546 0.041,3.546L2.922,3.546L2.922,4.17L0,4.17Z" style="fill:rgb(0,175,219);fill-rule:nonzero;"/>
            </g>
            <g transform="matrix(1,0,0,1,97.6235,125.352)">
                <path d="M0,-4.17L0.664,-4.17L0.664,-0.977C0.664,-0.842 0.639,-0.715 0.589,-0.596C0.543,-0.481 0.475,-0.378 0.386,-0.289C0.302,-0.201 0.2,-0.13 0.081,-0.076C-0.035,-0.025 -0.16,0 -0.294,0C-0.36,0 -0.421,-0.004 -0.479,-0.012C-0.538,-0.024 -0.593,-0.039 -0.647,-0.058C-0.754,-0.093 -0.845,-0.139 -0.918,-0.196C-1,-0.259 -1.066,-0.324 -1.12,-0.394C-1.171,-0.462 -1.214,-0.53 -1.253,-0.596C-1.28,-0.642 -1.303,-0.684 -1.323,-0.723C-1.342,-0.765 -1.36,-0.802 -1.375,-0.832C-1.394,-0.867 -1.423,-0.921 -1.461,-0.994C-1.497,-1.066 -1.539,-1.153 -1.589,-1.253C-1.639,-1.355 -1.692,-1.464 -1.75,-1.583C-1.804,-1.702 -1.862,-1.824 -1.923,-1.947C-1.985,-2.069 -2.047,-2.191 -2.108,-2.312C-2.166,-2.434 -2.221,-2.548 -2.276,-2.651C-2.326,-2.759 -2.371,-2.854 -2.409,-2.935C-2.447,-3.016 -2.478,-3.078 -2.501,-3.125C-2.521,-3.167 -2.541,-3.208 -2.564,-3.246C-2.583,-3.285 -2.603,-3.32 -2.622,-3.35C-2.642,-3.381 -2.672,-3.42 -2.714,-3.466C-2.757,-3.516 -2.811,-3.541 -2.876,-3.541C-2.923,-3.541 -2.969,-3.531 -3.015,-3.513C-3.058,-3.492 -3.092,-3.47 -3.119,-3.442C-3.176,-3.378 -3.206,-3.295 -3.206,-3.194L-3.206,0L-3.869,0L-3.869,-3.194C-3.869,-3.468 -3.783,-3.697 -3.61,-3.882C-3.525,-3.971 -3.425,-4.039 -3.31,-4.089C-3.19,-4.143 -3.06,-4.17 -2.917,-4.17C-2.775,-4.17 -2.647,-4.151 -2.535,-4.113C-2.417,-4.074 -2.31,-4.005 -2.218,-3.904C-2.16,-3.847 -2.101,-3.772 -2.039,-3.679C-2.001,-3.622 -1.962,-3.559 -1.923,-3.488C-1.885,-3.42 -1.844,-3.343 -1.802,-3.258C-1.752,-3.154 -1.681,-3.01 -1.589,-2.825C-1.497,-2.641 -1.399,-2.445 -1.299,-2.241C-1.199,-2.041 -1.105,-1.847 -1.017,-1.658C-0.924,-1.473 -0.852,-1.329 -0.797,-1.225C-0.778,-1.194 -0.765,-1.168 -0.757,-1.144C-0.749,-1.125 -0.741,-1.111 -0.734,-1.104C-0.703,-1.05 -0.678,-1.002 -0.658,-0.959C-0.636,-0.917 -0.614,-0.878 -0.595,-0.844C-0.584,-0.828 -0.57,-0.808 -0.555,-0.78C-0.54,-0.758 -0.521,-0.733 -0.502,-0.711C-0.479,-0.688 -0.455,-0.669 -0.427,-0.652C-0.397,-0.638 -0.364,-0.63 -0.329,-0.63C-0.279,-0.63 -0.231,-0.64 -0.185,-0.659C-0.143,-0.678 -0.109,-0.701 -0.087,-0.729C-0.029,-0.794 0,-0.876 0,-0.977L0,-4.17Z" style="fill:rgb(0,175,219);fill-rule:nonzero;"/>
            </g>
            <g transform="matrix(1,0,0,1,100.569,121.181)">
                <path d="M0,4.17L0,0.625L-1.935,0.625L-1.935,0L2.599,0L2.599,0.625L0.658,0.625L0.658,4.17L0,4.17Z" style="fill:rgb(0,175,219);fill-rule:nonzero;"/>
            </g>
            <g transform="matrix(1,0,0,1,0,48.109)">
                <rect x="103.514" y="73.073" width="0.658" height="4.17" style="fill:rgb(0,175,219);"/>
            </g>
            <g transform="matrix(1,0,0,1,110.658,124.994)">
                <path d="M0,-3.454C0.111,-3.343 0.198,-3.214 0.261,-3.067C0.325,-2.925 0.358,-2.768 0.358,-2.599L0.358,-1.744C0.358,-1.575 0.325,-1.417 0.261,-1.27C0.198,-1.128 0.111,-1.002 0,-0.89C-0.107,-0.778 -0.234,-0.689 -0.381,-0.624C-0.528,-0.562 -0.686,-0.531 -0.855,-0.531L-2.963,-0.531C-3.163,-0.531 -3.346,-0.575 -3.512,-0.664L-3.512,0.358L-4.175,0.358L-4.175,-2.599C-4.175,-2.768 -4.145,-2.925 -4.083,-3.067C-4.018,-3.214 -3.93,-3.343 -3.817,-3.454C-3.706,-3.565 -3.579,-3.651 -3.437,-3.714C-3.29,-3.779 -3.132,-3.812 -2.963,-3.812L-0.855,-3.812C-0.686,-3.812 -0.528,-3.779 -0.381,-3.714C-0.234,-3.651 -0.107,-3.565 0,-3.454M-0.301,-2.593C-0.301,-2.674 -0.315,-2.751 -0.347,-2.824C-0.377,-2.897 -0.419,-2.961 -0.474,-3.016C-0.589,-3.127 -0.729,-3.184 -0.896,-3.187L-2.923,-3.187C-3.004,-3.187 -3.08,-3.173 -3.153,-3.142C-3.223,-3.111 -3.284,-3.069 -3.338,-3.016C-3.453,-2.899 -3.512,-2.759 -3.512,-2.593L-3.512,-1.75C-3.512,-1.584 -3.453,-1.443 -3.338,-1.329C-3.284,-1.274 -3.223,-1.232 -3.153,-1.201C-3.08,-1.17 -3.004,-1.155 -2.923,-1.155L-0.896,-1.155C-0.814,-1.155 -0.737,-1.17 -0.664,-1.201C-0.591,-1.232 -0.528,-1.274 -0.474,-1.329C-0.419,-1.383 -0.377,-1.443 -0.347,-1.514C-0.315,-1.586 -0.301,-1.665 -0.301,-1.75L-0.301,-2.593Z" style="fill:rgb(0,175,219);fill-rule:nonzero;"/>
            </g>
            <g transform="matrix(1,0,0,1,112.691,121.181)">
                <path d="M0,4.17C-0.17,4.17 -0.327,4.14 -0.474,4.078C-0.62,4.017 -0.749,3.93 -0.861,3.817C-0.973,3.707 -1.059,3.577 -1.12,3.432C-1.183,3.285 -1.213,3.127 -1.213,2.958L-1.213,1.214C-1.213,1.044 -1.183,0.886 -1.12,0.739C-1.059,0.594 -0.973,0.466 -0.861,0.358C-0.749,0.247 -0.62,0.161 -0.474,0.099C-0.327,0.033 -0.17,0 0,0L2.749,0L2.749,0.625L0.04,0.625C-0.045,0.625 -0.124,0.64 -0.196,0.671C-0.267,0.701 -0.327,0.743 -0.381,0.797C-0.435,0.852 -0.478,0.915 -0.509,0.988C-0.539,1.058 -0.555,1.135 -0.555,1.22L-0.555,1.669L2.749,1.669L2.749,2.293L-0.555,2.293L-0.555,2.951C-0.555,3.036 -0.539,3.115 -0.509,3.189C-0.478,3.258 -0.435,3.319 -0.381,3.374C-0.267,3.488 -0.126,3.546 0.04,3.546L2.923,3.546L2.923,4.17L0,4.17Z" style="fill:rgb(0,175,219);fill-rule:nonzero;"/>
            </g>
            <g transform="matrix(1,0,0,1,120.061,121.181)">
                <path d="M0,4.17L0,3.016C0,2.854 -0.054,2.719 -0.162,2.611C-0.266,2.496 -0.396,2.434 -0.555,2.426L-3.211,2.426L-3.211,4.17L-3.869,4.17L-3.869,1.214C-3.869,1.044 -3.839,0.888 -3.776,0.745C-3.712,0.599 -3.623,0.47 -3.511,0.358C-3.403,0.247 -3.276,0.161 -3.13,0.099C-2.984,0.033 -2.826,0 -2.657,0L-0.549,0C-0.379,0 -0.224,0.033 -0.081,0.099C0.065,0.161 0.194,0.247 0.307,0.358C0.418,0.47 0.505,0.599 0.565,0.745C0.632,0.888 0.664,1.044 0.664,1.214C0.664,1.395 0.628,1.562 0.555,1.716C0.48,1.87 0.383,2.003 0.26,2.114C0.383,2.227 0.48,2.358 0.555,2.513C0.628,2.667 0.664,2.833 0.664,3.01L0.664,4.17L0,4.17ZM-0.589,1.802C-0.508,1.802 -0.433,1.787 -0.364,1.756C-0.29,1.726 -0.228,1.684 -0.174,1.63C-0.058,1.522 0,1.383 0,1.214C0,1.052 -0.058,0.913 -0.174,0.797C-0.228,0.743 -0.29,0.701 -0.364,0.671C-0.433,0.64 -0.508,0.625 -0.589,0.625L-2.616,0.625C-2.697,0.625 -2.774,0.64 -2.848,0.671C-2.917,0.701 -2.979,0.743 -3.032,0.797C-3.145,0.909 -3.203,1.048 -3.211,1.214L-3.211,1.802L-0.589,1.802Z" style="fill:rgb(0,175,219);fill-rule:nonzero;"/>
            </g>
            <g transform="matrix(1,0,0,1,124.26,121.806)">
                <path d="M0,2.922L1.801,2.922L1.801,3.546L-0.041,3.546C-0.211,3.546 -0.368,3.515 -0.515,3.453C-0.66,3.388 -0.79,3.301 -0.901,3.193C-1.013,3.081 -1.1,2.953 -1.161,2.806C-1.224,2.659 -1.254,2.502 -1.254,2.332L-1.254,-0.624L-0.596,-0.624L-0.596,2.327C-0.596,2.412 -0.58,2.491 -0.549,2.564C-0.519,2.633 -0.476,2.694 -0.422,2.748C-0.368,2.802 -0.307,2.845 -0.237,2.876C-0.164,2.906 -0.085,2.922 0,2.922" style="fill:rgb(0,175,219);fill-rule:nonzero;"/>
            </g>
            <g transform="matrix(1,0,0,1,127.736,121.181)">
                <path d="M0,4.17C-0.17,4.17 -0.327,4.14 -0.474,4.078C-0.621,4.017 -0.749,3.93 -0.861,3.817C-0.973,3.707 -1.06,3.577 -1.12,3.432C-1.183,3.285 -1.213,3.127 -1.213,2.958L-1.213,1.214C-1.213,1.044 -1.183,0.886 -1.12,0.739C-1.06,0.594 -0.973,0.466 -0.861,0.358C-0.749,0.247 -0.621,0.161 -0.474,0.099C-0.327,0.033 -0.17,0 0,0L2.749,0L2.749,0.625L0.04,0.625C-0.045,0.625 -0.124,0.64 -0.196,0.671C-0.267,0.701 -0.327,0.743 -0.381,0.797C-0.436,0.852 -0.478,0.915 -0.509,0.988C-0.54,1.058 -0.555,1.135 -0.555,1.22L-0.555,1.669L2.749,1.669L2.749,2.293L-0.555,2.293L-0.555,2.951C-0.555,3.036 -0.54,3.115 -0.509,3.189C-0.478,3.258 -0.436,3.319 -0.381,3.374C-0.267,3.488 -0.126,3.546 0.04,3.546L2.922,3.546L2.922,4.17L0,4.17Z" style="fill:rgb(0,175,219);fill-rule:nonzero;"/>
            </g>
            <g transform="matrix(1,0,0,1,132.737,125.485)">
                <path d="M0,-4.303L0.733,-4.303L2.322,-0.896L3.916,-4.303L4.649,-4.303L2.657,0L1.992,0L0,-4.303Z" style="fill:rgb(0,175,219);fill-rule:nonzero;"/>
            </g>
            <g transform="matrix(1,0,0,1,141.909,124.994)">
                <path d="M0,-3.454C0.111,-3.343 0.197,-3.214 0.26,-3.067C0.325,-2.925 0.358,-2.768 0.358,-2.599L0.358,-0.854C0.358,-0.685 0.325,-0.527 0.26,-0.381C0.197,-0.235 0.111,-0.107 0,0C-0.107,0.111 -0.235,0.2 -0.381,0.266C-0.528,0.327 -0.686,0.358 -0.855,0.358L-2.964,0.358C-3.132,0.358 -3.291,0.327 -3.437,0.266C-3.579,0.2 -3.706,0.111 -3.817,0C-3.93,-0.107 -4.019,-0.235 -4.084,-0.381C-4.145,-0.527 -4.176,-0.685 -4.176,-0.854L-4.176,-2.599C-4.176,-2.768 -4.145,-2.925 -4.084,-3.067C-4.019,-3.214 -3.93,-3.343 -3.817,-3.454C-3.706,-3.565 -3.579,-3.651 -3.437,-3.714C-3.291,-3.779 -3.132,-3.812 -2.964,-3.812L-0.855,-3.812C-0.686,-3.812 -0.528,-3.779 -0.381,-3.714C-0.235,-3.651 -0.107,-3.565 0,-3.454M-0.301,-2.593C-0.301,-2.674 -0.318,-2.751 -0.353,-2.824C-0.383,-2.897 -0.426,-2.961 -0.479,-3.016C-0.534,-3.069 -0.597,-3.111 -0.671,-3.142C-0.739,-3.173 -0.814,-3.187 -0.896,-3.187L-2.923,-3.187C-3.004,-3.187 -3.08,-3.173 -3.154,-3.142C-3.223,-3.111 -3.285,-3.069 -3.339,-3.016C-3.454,-2.899 -3.513,-2.759 -3.513,-2.593L-3.513,-0.861C-3.513,-0.695 -3.454,-0.555 -3.339,-0.438C-3.285,-0.385 -3.223,-0.343 -3.154,-0.312C-3.08,-0.281 -3.004,-0.266 -2.923,-0.266L-0.896,-0.266C-0.814,-0.266 -0.739,-0.281 -0.671,-0.312C-0.597,-0.343 -0.534,-0.385 -0.479,-0.438C-0.426,-0.492 -0.383,-0.555 -0.353,-0.624C-0.318,-0.697 -0.301,-0.776 -0.301,-0.861L-0.301,-2.593Z" style="fill:rgb(0,175,219);fill-rule:nonzero;"/>
            </g>
            <g transform="matrix(1,0,0,1,146.073,123.556)">
                <path d="M0,-0.578C0.166,-0.578 0.319,-0.547 0.462,-0.486C0.607,-0.425 0.735,-0.34 0.843,-0.232C0.951,-0.124 1.036,0.003 1.097,0.15C1.158,0.292 1.189,0.445 1.189,0.611C1.189,0.773 1.158,0.928 1.097,1.073C1.036,1.216 0.951,1.341 0.843,1.448C0.735,1.558 0.607,1.641 0.462,1.703C0.319,1.765 0.166,1.796 0,1.796L-3.038,1.796L-3.038,1.172L0,1.172C0.077,1.172 0.149,1.158 0.22,1.131C0.288,1.101 0.349,1.061 0.398,1.011C0.452,0.956 0.493,0.897 0.52,0.831C0.55,0.762 0.565,0.689 0.565,0.611C0.565,0.453 0.51,0.321 0.398,0.213C0.29,0.102 0.157,0.046 0,0.046L-2.131,0.046C-2.301,0.046 -2.459,0.015 -2.605,-0.047C-2.748,-0.108 -2.875,-0.195 -2.986,-0.307C-3.099,-0.419 -3.186,-0.547 -3.252,-0.694C-3.313,-0.841 -3.345,-0.996 -3.345,-1.162C-3.345,-1.331 -3.313,-1.489 -3.252,-1.635C-3.186,-1.781 -3.099,-1.91 -2.986,-2.021C-2.875,-2.13 -2.748,-2.215 -2.605,-2.276C-2.459,-2.342 -2.301,-2.374 -2.131,-2.374L0.883,-2.374L0.883,-1.751L-2.125,-1.751C-2.284,-1.739 -2.415,-1.678 -2.519,-1.565C-2.568,-1.512 -2.609,-1.45 -2.641,-1.382C-2.667,-1.315 -2.68,-1.242 -2.68,-1.162C-2.68,-1.085 -2.667,-1.011 -2.641,-0.942C-2.609,-0.877 -2.568,-0.816 -2.519,-0.763C-2.419,-0.651 -2.287,-0.59 -2.125,-0.578L0,-0.578Z" style="fill:rgb(0,175,219);fill-rule:nonzero;"/>
            </g>
            <g transform="matrix(1,0,0,1,149.429,121.181)">
                <path d="M0,4.17L0,0.625L-1.935,0.625L-1.935,0L2.599,0L2.599,0.625L0.658,0.625L0.658,4.17L0,4.17Z" style="fill:rgb(0,175,219);fill-rule:nonzero;"/>
            </g>
            <g transform="matrix(1,0,0,1,156.243,121.181)">
                <path d="M0,4.17L0,3.016C0,2.854 -0.054,2.719 -0.162,2.611C-0.266,2.496 -0.396,2.434 -0.555,2.426L-3.211,2.426L-3.211,4.17L-3.869,4.17L-3.869,1.214C-3.869,1.044 -3.839,0.888 -3.776,0.745C-3.712,0.599 -3.623,0.47 -3.511,0.358C-3.403,0.247 -3.276,0.161 -3.13,0.099C-2.983,0.033 -2.826,0 -2.656,0L-0.549,0C-0.379,0 -0.224,0.033 -0.081,0.099C0.065,0.161 0.194,0.247 0.307,0.358C0.418,0.47 0.505,0.599 0.565,0.745C0.632,0.888 0.664,1.044 0.664,1.214C0.664,1.395 0.628,1.562 0.555,1.716C0.48,1.87 0.383,2.003 0.261,2.114C0.383,2.227 0.48,2.358 0.555,2.513C0.628,2.667 0.664,2.833 0.664,3.01L0.664,4.17L0,4.17ZM-0.589,1.802C-0.508,1.802 -0.433,1.787 -0.364,1.756C-0.29,1.726 -0.228,1.684 -0.174,1.63C-0.058,1.522 0,1.383 0,1.214C0,1.052 -0.058,0.913 -0.174,0.797C-0.228,0.743 -0.29,0.701 -0.364,0.671C-0.433,0.64 -0.508,0.625 -0.589,0.625L-2.616,0.625C-2.697,0.625 -2.773,0.64 -2.847,0.671C-2.917,0.701 -2.979,0.743 -3.032,0.797C-3.145,0.909 -3.203,1.048 -3.211,1.214L-3.211,1.802L-0.589,1.802Z" style="fill:rgb(0,175,219);fill-rule:nonzero;"/>
            </g>
            <g transform="matrix(1,0,0,1,158.669,121.181)">
                <path d="M0,4.17C-0.17,4.17 -0.327,4.14 -0.474,4.078C-0.619,4.017 -0.748,3.93 -0.86,3.817C-0.972,3.707 -1.059,3.577 -1.12,3.432C-1.183,3.285 -1.212,3.127 -1.212,2.958L-1.212,1.214C-1.212,1.044 -1.183,0.886 -1.12,0.739C-1.059,0.594 -0.972,0.466 -0.86,0.358C-0.748,0.247 -0.619,0.161 -0.474,0.099C-0.327,0.033 -0.17,0 0,0L2.749,0L2.749,0.625L0.041,0.625C-0.044,0.625 -0.123,0.64 -0.196,0.671C-0.266,0.701 -0.327,0.743 -0.381,0.797C-0.435,0.852 -0.477,0.915 -0.508,0.988C-0.539,1.058 -0.555,1.135 -0.555,1.22L-0.555,1.669L2.749,1.669L2.749,2.293L-0.555,2.293L-0.555,2.951C-0.555,3.036 -0.539,3.115 -0.508,3.189C-0.477,3.258 -0.435,3.319 -0.381,3.374C-0.266,3.488 -0.125,3.546 0.041,3.546L2.923,3.546L2.923,4.17L0,4.17Z" style="fill:rgb(0,175,219);fill-rule:nonzero;"/>
            </g>
            <g transform="matrix(1,0,0,1,168.077,124.998)">
                <path d="M0,-3.464C0.111,-3.353 0.198,-3.224 0.26,-3.077C0.325,-2.93 0.358,-2.773 0.358,-2.603L0.358,0.353L-0.307,0.353L-0.307,-1.529L-3.518,-1.529L-3.518,0.353L-4.176,0.353L-4.176,-2.603C-4.176,-2.773 -4.145,-2.93 -4.083,-3.077C-4.019,-3.224 -3.93,-3.353 -3.817,-3.464C-3.71,-3.575 -3.583,-3.661 -3.437,-3.724C-3.29,-3.785 -3.132,-3.817 -2.963,-3.817L-0.855,-3.817C-0.686,-3.817 -0.53,-3.785 -0.387,-3.724C-0.24,-3.661 -0.111,-3.575 0,-3.464M-0.307,-2.598C-0.307,-2.763 -0.364,-2.903 -0.479,-3.019C-0.588,-3.135 -0.726,-3.193 -0.895,-3.193L-2.923,-3.193C-3.088,-3.193 -3.229,-3.135 -3.344,-3.019C-3.397,-2.965 -3.44,-2.902 -3.472,-2.828C-3.502,-2.76 -3.518,-2.682 -3.518,-2.598L-3.518,-2.152L-0.307,-2.152L-0.307,-2.598Z" style="fill:rgb(0,175,219);fill-rule:nonzero;"/>
            </g>
            <g transform="matrix(1,0,0,1,172.241,123.556)">
                <path d="M0,-0.578C0.166,-0.578 0.319,-0.547 0.462,-0.486C0.608,-0.425 0.735,-0.34 0.843,-0.232C0.951,-0.124 1.036,0.003 1.098,0.15C1.158,0.292 1.189,0.445 1.189,0.611C1.189,0.773 1.158,0.928 1.098,1.073C1.036,1.216 0.951,1.341 0.843,1.448C0.735,1.558 0.608,1.641 0.462,1.703C0.319,1.765 0.166,1.796 0,1.796L-3.038,1.796L-3.038,1.172L0,1.172C0.077,1.172 0.15,1.158 0.22,1.131C0.288,1.101 0.349,1.061 0.398,1.011C0.452,0.956 0.493,0.897 0.52,0.831C0.551,0.762 0.565,0.689 0.565,0.611C0.565,0.453 0.51,0.321 0.398,0.213C0.29,0.102 0.157,0.046 0,0.046L-2.131,0.046C-2.301,0.046 -2.459,0.015 -2.604,-0.047C-2.747,-0.108 -2.875,-0.195 -2.986,-0.307C-3.098,-0.419 -3.186,-0.547 -3.252,-0.694C-3.313,-0.841 -3.344,-0.996 -3.344,-1.162C-3.344,-1.331 -3.313,-1.489 -3.252,-1.635C-3.186,-1.781 -3.098,-1.91 -2.986,-2.021C-2.875,-2.13 -2.747,-2.215 -2.604,-2.276C-2.459,-2.342 -2.301,-2.374 -2.131,-2.374L0.884,-2.374L0.884,-1.751L-2.125,-1.751C-2.283,-1.739 -2.414,-1.678 -2.519,-1.565C-2.568,-1.512 -2.608,-1.45 -2.64,-1.382C-2.666,-1.315 -2.68,-1.242 -2.68,-1.162C-2.68,-1.085 -2.666,-1.011 -2.64,-0.942C-2.608,-0.877 -2.568,-0.816 -2.519,-0.763C-2.418,-0.651 -2.287,-0.59 -2.125,-0.578L0,-0.578Z" style="fill:rgb(0,175,219);fill-rule:nonzero;"/>
            </g>
            <g transform="matrix(1,0,0,1,178.068,124.994)">
                <path d="M0,-3.454C0.111,-3.343 0.198,-3.214 0.261,-3.067C0.325,-2.925 0.358,-2.768 0.358,-2.599L0.358,-1.744C0.358,-1.575 0.325,-1.417 0.261,-1.27C0.198,-1.128 0.111,-1.002 0,-0.89C-0.107,-0.778 -0.234,-0.689 -0.381,-0.624C-0.527,-0.562 -0.686,-0.531 -0.854,-0.531L-2.963,-0.531C-3.163,-0.531 -3.346,-0.575 -3.512,-0.664L-3.512,0.358L-4.176,0.358L-4.176,-2.599C-4.176,-2.768 -4.145,-2.925 -4.083,-3.067C-4.018,-3.214 -3.93,-3.343 -3.817,-3.454C-3.706,-3.565 -3.579,-3.651 -3.437,-3.714C-3.29,-3.779 -3.132,-3.812 -2.963,-3.812L-0.854,-3.812C-0.686,-3.812 -0.527,-3.779 -0.381,-3.714C-0.234,-3.651 -0.107,-3.565 0,-3.454M-0.301,-2.593C-0.301,-2.674 -0.315,-2.751 -0.347,-2.824C-0.377,-2.897 -0.419,-2.961 -0.473,-3.016C-0.589,-3.127 -0.729,-3.184 -0.895,-3.187L-2.923,-3.187C-3.003,-3.187 -3.08,-3.173 -3.153,-3.142C-3.223,-3.111 -3.284,-3.069 -3.338,-3.016C-3.453,-2.899 -3.512,-2.759 -3.512,-2.593L-3.512,-1.75C-3.512,-1.584 -3.453,-1.443 -3.338,-1.329C-3.284,-1.274 -3.223,-1.232 -3.153,-1.201C-3.08,-1.17 -3.003,-1.155 -2.923,-1.155L-0.895,-1.155C-0.814,-1.155 -0.737,-1.17 -0.663,-1.201C-0.591,-1.232 -0.527,-1.274 -0.473,-1.329C-0.419,-1.383 -0.377,-1.443 -0.347,-1.514C-0.315,-1.586 -0.301,-1.665 -0.301,-1.75L-0.301,-2.593Z" style="fill:rgb(0,175,219);fill-rule:nonzero;"/>
            </g>
            <g transform="matrix(1,0,0,1,0,48.109)">
                <rect x="178.889" y="73.073" width="0.658" height="4.17" style="fill:rgb(0,175,219);"/>
            </g>
            <g transform="matrix(1,0,0,1,183.994,121.181)">
                <path d="M0,4.17L0,3.016C0,2.854 -0.054,2.719 -0.162,2.611C-0.267,2.496 -0.397,2.434 -0.555,2.426L-3.211,2.426L-3.211,4.17L-3.869,4.17L-3.869,1.214C-3.869,1.044 -3.839,0.888 -3.777,0.745C-3.712,0.599 -3.623,0.47 -3.512,0.358C-3.403,0.247 -3.276,0.161 -3.13,0.099C-2.984,0.033 -2.827,0 -2.657,0L-0.549,0C-0.379,0 -0.224,0.033 -0.081,0.099C0.065,0.161 0.194,0.247 0.306,0.358C0.417,0.47 0.504,0.599 0.565,0.745C0.632,0.888 0.664,1.044 0.664,1.214C0.664,1.395 0.628,1.562 0.554,1.716C0.481,1.87 0.383,2.003 0.26,2.114C0.383,2.227 0.481,2.358 0.554,2.513C0.628,2.667 0.664,2.833 0.664,3.01L0.664,4.17L0,4.17ZM-0.59,1.802C-0.509,1.802 -0.433,1.787 -0.364,1.756C-0.291,1.726 -0.228,1.684 -0.174,1.63C-0.058,1.522 0,1.383 0,1.214C0,1.052 -0.058,0.913 -0.174,0.797C-0.228,0.743 -0.291,0.701 -0.364,0.671C-0.433,0.64 -0.509,0.625 -0.59,0.625L-2.616,0.625C-2.697,0.625 -2.774,0.64 -2.848,0.671C-2.917,0.701 -2.979,0.743 -3.032,0.797C-3.144,0.909 -3.204,1.048 -3.211,1.214L-3.211,1.802L-0.59,1.802Z" style="fill:rgb(0,175,219);fill-rule:nonzero;"/>
            </g>
            <g transform="matrix(1,0,0,1,189.383,124.998)">
                <path d="M0,-3.464C0.111,-3.353 0.197,-3.224 0.26,-3.077C0.325,-2.93 0.357,-2.773 0.357,-2.603L0.357,0.353L-0.307,0.353L-0.307,-1.529L-3.518,-1.529L-3.518,0.353L-4.176,0.353L-4.176,-2.603C-4.176,-2.773 -4.145,-2.93 -4.084,-3.077C-4.019,-3.224 -3.93,-3.353 -3.817,-3.464C-3.71,-3.575 -3.583,-3.661 -3.437,-3.724C-3.291,-3.785 -3.133,-3.817 -2.964,-3.817L-0.855,-3.817C-0.686,-3.817 -0.53,-3.785 -0.388,-3.724C-0.241,-3.661 -0.112,-3.575 0,-3.464M-0.307,-2.598C-0.307,-2.763 -0.364,-2.903 -0.48,-3.019C-0.588,-3.135 -0.727,-3.193 -0.896,-3.193L-2.923,-3.193C-3.088,-3.193 -3.229,-3.135 -3.345,-3.019C-3.398,-2.965 -3.44,-2.902 -3.472,-2.828C-3.502,-2.76 -3.518,-2.682 -3.518,-2.598L-3.518,-2.152L-0.307,-2.152L-0.307,-2.598Z" style="fill:rgb(0,175,219);fill-rule:nonzero;"/>
            </g>
            <g transform="matrix(1,0,0,1,191.115,123.239)">
                <path d="M0,0.063C0.034,0.047 0.098,0.024 0.19,-0.006C0.286,-0.041 0.398,-0.08 0.524,-0.122C0.652,-0.168 0.787,-0.216 0.93,-0.266C1.076,-0.316 1.217,-0.364 1.352,-0.411C1.485,-0.457 1.611,-0.499 1.727,-0.538C1.842,-0.58 1.935,-0.613 2.004,-0.635C2.188,-0.702 2.31,-0.769 2.368,-0.838C2.426,-0.911 2.455,-0.985 2.455,-1.057C2.455,-1.154 2.428,-1.233 2.374,-1.294C2.32,-1.356 2.226,-1.387 2.091,-1.387L-0.618,-1.387L-0.618,-2.051L2.097,-2.051C2.277,-2.051 2.433,-2.024 2.564,-1.969C2.699,-1.916 2.809,-1.843 2.894,-1.751C2.981,-1.663 3.046,-1.56 3.084,-1.445C3.126,-1.329 3.147,-1.211 3.147,-1.092C3.147,-0.826 3.066,-0.605 2.904,-0.428C2.743,-0.254 2.507,-0.113 2.194,-0C2.117,0.026 2.021,0.061 1.906,0.103C1.79,0.142 1.666,0.184 1.536,0.231C1.405,0.273 1.271,0.318 1.132,0.364C0.997,0.41 0.87,0.455 0.75,0.496C0.632,0.539 0.524,0.577 0.433,0.612C0.34,0.643 0.273,0.666 0.23,0.681C0.123,0.719 0.038,0.761 -0.023,0.808C-0.081,0.85 -0.126,0.894 -0.156,0.941C-0.184,0.987 -0.198,1.035 -0.202,1.084C-0.202,1.131 -0.196,1.175 -0.186,1.218C-0.165,1.284 -0.128,1.339 -0.069,1.385C-0.008,1.428 0.067,1.449 0.155,1.449L3.056,1.449L3.056,2.114L0.155,2.114C-0.006,2.114 -0.15,2.09 -0.277,2.043C-0.404,1.994 -0.515,1.927 -0.606,1.842C-0.695,1.757 -0.767,1.657 -0.82,1.542C-0.87,1.422 -0.899,1.293 -0.907,1.155C-0.919,0.889 -0.85,0.669 -0.699,0.496C-0.545,0.32 -0.312,0.174 0,0.063" style="fill:rgb(0,175,219);fill-rule:nonzero;"/>
            </g>
            <g transform="matrix(1,0,0,1,0,48.109)">
                <rect x="194.725" y="73.073" width="0.658" height="4.17" style="fill:rgb(0,175,219);"/>
            </g>
            <g transform="matrix(1,0,0,1,200.136,124.994)">
                <path d="M0,-3.454C0.111,-3.343 0.198,-3.214 0.261,-3.067C0.325,-2.925 0.358,-2.768 0.358,-2.599L0.358,-0.854C0.358,-0.685 0.325,-0.527 0.261,-0.381C0.198,-0.235 0.111,-0.107 0,0C-0.107,0.111 -0.234,0.2 -0.381,0.266C-0.527,0.327 -0.685,0.358 -0.854,0.358L-2.963,0.358C-3.132,0.358 -3.29,0.327 -3.437,0.266C-3.578,0.2 -3.706,0.111 -3.817,0C-3.929,-0.107 -4.018,-0.235 -4.083,-0.381C-4.145,-0.527 -4.175,-0.685 -4.175,-0.854L-4.175,-2.599C-4.175,-2.768 -4.145,-2.925 -4.083,-3.067C-4.018,-3.214 -3.929,-3.343 -3.817,-3.454C-3.706,-3.565 -3.578,-3.651 -3.437,-3.714C-3.29,-3.779 -3.132,-3.812 -2.963,-3.812L-0.854,-3.812C-0.685,-3.812 -0.527,-3.779 -0.381,-3.714C-0.234,-3.651 -0.107,-3.565 0,-3.454M-0.301,-2.593C-0.301,-2.674 -0.317,-2.751 -0.353,-2.824C-0.383,-2.897 -0.425,-2.961 -0.479,-3.016C-0.533,-3.069 -0.597,-3.111 -0.67,-3.142C-0.739,-3.173 -0.814,-3.187 -0.896,-3.187L-2.922,-3.187C-3.002,-3.187 -3.08,-3.173 -3.153,-3.142C-3.222,-3.111 -3.284,-3.069 -3.338,-3.016C-3.453,-2.899 -3.512,-2.759 -3.512,-2.593L-3.512,-0.861C-3.512,-0.695 -3.453,-0.555 -3.338,-0.438C-3.284,-0.385 -3.222,-0.343 -3.153,-0.312C-3.08,-0.281 -3.002,-0.266 -2.922,-0.266L-0.896,-0.266C-0.814,-0.266 -0.739,-0.281 -0.67,-0.312C-0.597,-0.343 -0.533,-0.385 -0.479,-0.438C-0.425,-0.492 -0.383,-0.555 -0.353,-0.624C-0.317,-0.697 -0.301,-0.776 -0.301,-0.861L-0.301,-2.593Z" style="fill:rgb(0,175,219);fill-rule:nonzero;"/>
            </g>
            <g transform="matrix(1,0,0,1,204.941,125.352)">
                <path d="M0,-4.17L0.664,-4.17L0.664,-0.977C0.664,-0.842 0.639,-0.715 0.589,-0.596C0.543,-0.481 0.475,-0.378 0.387,-0.289C0.303,-0.201 0.199,-0.13 0.081,-0.076C-0.035,-0.025 -0.159,0 -0.294,0C-0.36,0 -0.422,-0.004 -0.479,-0.012C-0.537,-0.024 -0.593,-0.039 -0.646,-0.058C-0.755,-0.093 -0.845,-0.139 -0.919,-0.196C-1,-0.259 -1.066,-0.324 -1.12,-0.394C-1.171,-0.462 -1.215,-0.53 -1.253,-0.596C-1.28,-0.642 -1.303,-0.684 -1.323,-0.723C-1.342,-0.765 -1.358,-0.802 -1.375,-0.832C-1.394,-0.867 -1.423,-0.921 -1.462,-0.994C-1.496,-1.066 -1.538,-1.153 -1.589,-1.253C-1.639,-1.355 -1.692,-1.464 -1.75,-1.583C-1.804,-1.702 -1.861,-1.824 -1.924,-1.947C-1.984,-2.069 -2.047,-2.191 -2.108,-2.312C-2.166,-2.434 -2.222,-2.548 -2.276,-2.651C-2.326,-2.759 -2.37,-2.854 -2.408,-2.935C-2.446,-3.016 -2.478,-3.078 -2.501,-3.125C-2.521,-3.167 -2.541,-3.208 -2.564,-3.246C-2.583,-3.285 -2.604,-3.32 -2.622,-3.35C-2.641,-3.381 -2.672,-3.42 -2.715,-3.466C-2.757,-3.516 -2.811,-3.541 -2.877,-3.541C-2.923,-3.541 -2.969,-3.531 -3.016,-3.513C-3.058,-3.492 -3.092,-3.47 -3.119,-3.442C-3.177,-3.378 -3.206,-3.295 -3.206,-3.194L-3.206,0L-3.869,0L-3.869,-3.194C-3.869,-3.468 -3.782,-3.697 -3.61,-3.882C-3.525,-3.971 -3.426,-4.039 -3.31,-4.089C-3.189,-4.143 -3.06,-4.17 -2.916,-4.17C-2.773,-4.17 -2.647,-4.151 -2.535,-4.113C-2.417,-4.074 -2.31,-4.005 -2.218,-3.904C-2.16,-3.847 -2.101,-3.772 -2.038,-3.679C-2.001,-3.622 -1.962,-3.559 -1.924,-3.488C-1.885,-3.42 -1.845,-3.343 -1.802,-3.258C-1.752,-3.154 -1.682,-3.01 -1.589,-2.825C-1.496,-2.641 -1.399,-2.445 -1.3,-2.241C-1.199,-2.041 -1.105,-1.847 -1.017,-1.658C-0.924,-1.473 -0.851,-1.329 -0.797,-1.225C-0.778,-1.194 -0.765,-1.168 -0.756,-1.144C-0.749,-1.125 -0.741,-1.111 -0.733,-1.104C-0.702,-1.05 -0.678,-1.002 -0.658,-0.959C-0.636,-0.917 -0.614,-0.878 -0.595,-0.844C-0.584,-0.828 -0.569,-0.808 -0.555,-0.78C-0.539,-0.758 -0.521,-0.733 -0.503,-0.711C-0.479,-0.688 -0.455,-0.669 -0.428,-0.652C-0.397,-0.638 -0.364,-0.63 -0.329,-0.63C-0.279,-0.63 -0.231,-0.64 -0.185,-0.659C-0.143,-0.678 -0.109,-0.701 -0.087,-0.729C-0.029,-0.794 0,-0.876 0,-0.977L0,-4.17Z" style="fill:rgb(0,175,219);fill-rule:nonzero;"/>
            </g>
            <g transform="matrix(1,0,0,1,0,48.109)">
                <rect x="206.184" y="73.073" width="0.658" height="4.17" style="fill:rgb(0,175,219);"/>
            </g>
        </g>
    </g>
</svg>
