<?xml version="1.0" encoding="UTF-8" standalone="no"?>
<!DOCTYPE svg PUBLIC "-//W3C//DTD SVG 1.1//EN" "http://www.w3.org/Graphics/SVG/1.1/DTD/svg11.dtd">
<svg width="100%" height="100%" viewBox="0 0 608 536" version="1.1" xmlns="http://www.w3.org/2000/svg" xmlns:xlink="http://www.w3.org/1999/xlink" xml:space="preserve" xmlns:serif="http://www.serif.com/" style="fill-rule:evenodd;clip-rule:evenodd;stroke-linejoin:round;stroke-miterlimit:2;">
    <g transform="matrix(1,0,0,1,-194.078,-60.425)">
        <g transform="matrix(1,0,0,1,173.893,251.269)">
            <g transform="matrix(46.875,0,0,46.875,54.9137,114.129)">
                <path d="M0.213,-0.378L0.562,-0.378L0.562,-0.268L0.213,-0.268L0.213,-0.378ZM0.224,-0L0.094,-0L0.094,-0.7L0.605,-0.7L0.605,-0.591L0.224,-0.591L0.224,-0Z" style="fill:rgb(35,31,32);fill-rule:nonzero;"/>
            </g>
            <g transform="matrix(46.875,0,0,46.875,93.3728,114.129)">
                <path d="M0.094,-0L0.094,-0.7L0.382,-0.7C0.444,-0.7 0.497,-0.69 0.541,-0.67C0.586,-0.65 0.62,-0.622 0.644,-0.584C0.668,-0.547 0.68,-0.502 0.68,-0.451C0.68,-0.4 0.668,-0.356 0.644,-0.319C0.62,-0.282 0.586,-0.253 0.541,-0.234C0.497,-0.214 0.444,-0.204 0.382,-0.204L0.166,-0.204L0.224,-0.263L0.224,-0L0.094,-0ZM0.552,-0L0.375,-0.254L0.514,-0.254L0.692,-0L0.552,-0ZM0.224,-0.249L0.166,-0.311L0.376,-0.311C0.433,-0.311 0.476,-0.324 0.505,-0.348C0.535,-0.373 0.549,-0.407 0.549,-0.451C0.549,-0.495 0.535,-0.53 0.505,-0.554C0.476,-0.578 0.433,-0.59 0.376,-0.59L0.166,-0.59L0.224,-0.654L0.224,-0.249Z" style="fill:rgb(35,31,32);fill-rule:nonzero;"/>
            </g>
            <g transform="matrix(46.875,0,0,46.875,136.24,114.129)">
                <path d="M-0.005,-0L0.31,-0.7L0.438,-0.7L0.754,-0L0.618,-0L0.347,-0.631L0.399,-0.631L0.129,-0L-0.005,-0ZM0.14,-0.162L0.175,-0.264L0.553,-0.264L0.588,-0.162L0.14,-0.162Z" style="fill:rgb(35,31,32);fill-rule:nonzero;"/>
            </g>
            <g transform="matrix(46.875,0,0,46.875,179.925,114.129)">
                <path d="M0.094,-0L0.094,-0.7L0.201,-0.7L0.64,-0.161L0.587,-0.161L0.587,-0.7L0.716,-0.7L0.716,-0L0.609,-0L0.17,-0.539L0.223,-0.539L0.223,-0L0.094,-0Z" style="fill:rgb(35,31,32);fill-rule:nonzero;"/>
            </g>
            <g transform="matrix(46.875,0,0,46.875,226.497,114.129)">
                <path d="M0.041,-0L0.041,-0.087L0.493,-0.639L0.508,-0.59L0.048,-0.59L0.048,-0.7L0.625,-0.7L0.625,-0.613L0.173,-0.061L0.157,-0.11L0.638,-0.11L0.638,-0L0.041,-0Z" style="fill:rgb(35,31,32);fill-rule:nonzero;"/>
            </g>
            <g transform="matrix(46.875,0,0,46.875,265.821,114.129)">
                <path d="M0.422,0.01C0.367,0.01 0.317,0.001 0.271,-0.017C0.225,-0.035 0.185,-0.06 0.151,-0.093C0.117,-0.125 0.091,-0.163 0.072,-0.207C0.053,-0.25 0.044,-0.298 0.044,-0.35C0.044,-0.402 0.053,-0.45 0.072,-0.493C0.091,-0.537 0.117,-0.575 0.151,-0.607C0.185,-0.64 0.225,-0.665 0.271,-0.683C0.317,-0.701 0.367,-0.71 0.421,-0.71C0.476,-0.71 0.526,-0.701 0.572,-0.683C0.617,-0.665 0.657,-0.64 0.691,-0.608C0.725,-0.576 0.751,-0.538 0.77,-0.494C0.789,-0.45 0.798,-0.402 0.798,-0.35C0.798,-0.298 0.789,-0.25 0.77,-0.206C0.751,-0.162 0.725,-0.124 0.691,-0.092C0.657,-0.06 0.617,-0.035 0.572,-0.017C0.526,0.001 0.476,0.01 0.422,0.01ZM0.421,-0.104C0.457,-0.104 0.489,-0.11 0.519,-0.122C0.549,-0.134 0.575,-0.151 0.597,-0.173C0.619,-0.195 0.636,-0.222 0.649,-0.252C0.661,-0.281 0.667,-0.314 0.667,-0.35C0.667,-0.386 0.661,-0.419 0.649,-0.449C0.636,-0.478 0.619,-0.504 0.597,-0.527C0.575,-0.549 0.549,-0.566 0.519,-0.578C0.489,-0.59 0.457,-0.596 0.421,-0.596C0.386,-0.596 0.353,-0.59 0.323,-0.578C0.293,-0.566 0.267,-0.549 0.245,-0.526C0.223,-0.504 0.206,-0.478 0.193,-0.448C0.181,-0.419 0.175,-0.386 0.175,-0.35C0.175,-0.315 0.181,-0.282 0.193,-0.252C0.205,-0.222 0.223,-0.196 0.245,-0.173C0.267,-0.151 0.293,-0.134 0.323,-0.122C0.353,-0.11 0.386,-0.104 0.421,-0.104Z" style="fill:rgb(35,31,32);fill-rule:nonzero;"/>
            </g>
            <g transform="matrix(46.875,0,0,46.875,313.883,114.129)">
                <rect x="0.094" y="-0.7" width="0.13" height="0.7" style="fill:rgb(35,31,32);fill-rule:nonzero;"/>
            </g>
            <g transform="matrix(46.875,0,0,46.875,337.418,114.129)">
            </g>
            <g transform="matrix(46.875,0,0,46.875,365.174,114.129)">
                <path d="M0.094,-0L0.094,-0.7L0.201,-0.7L0.64,-0.161L0.587,-0.161L0.587,-0.7L0.716,-0.7L0.716,-0L0.609,-0L0.17,-0.539L0.223,-0.539L0.223,-0L0.094,-0Z" style="fill:rgb(35,31,32);fill-rule:nonzero;"/>
            </g>
            <g transform="matrix(46.875,0,0,46.875,411.745,114.129)">
                <rect x="0.094" y="-0.7" width="0.13" height="0.7" style="fill:rgb(35,31,32);fill-rule:nonzero;"/>
            </g>
            <g transform="matrix(46.875,0,0,46.875,435.28,114.129)">
                <path d="M0.418,0.01C0.364,0.01 0.315,0.001 0.269,-0.017C0.224,-0.034 0.184,-0.059 0.15,-0.092C0.117,-0.124 0.091,-0.162 0.072,-0.206C0.053,-0.25 0.044,-0.298 0.044,-0.35C0.044,-0.402 0.053,-0.45 0.072,-0.494C0.091,-0.538 0.117,-0.576 0.151,-0.608C0.185,-0.641 0.224,-0.666 0.27,-0.683C0.316,-0.701 0.365,-0.71 0.419,-0.71C0.476,-0.71 0.528,-0.7 0.576,-0.68C0.623,-0.661 0.663,-0.632 0.696,-0.593L0.612,-0.514C0.587,-0.541 0.558,-0.562 0.527,-0.576C0.495,-0.59 0.461,-0.596 0.425,-0.596C0.389,-0.596 0.355,-0.59 0.325,-0.578C0.294,-0.566 0.268,-0.549 0.245,-0.527C0.223,-0.505 0.206,-0.479 0.193,-0.449C0.181,-0.419 0.175,-0.386 0.175,-0.35C0.175,-0.314 0.181,-0.281 0.193,-0.251C0.206,-0.221 0.223,-0.195 0.245,-0.173C0.268,-0.151 0.294,-0.134 0.325,-0.122C0.355,-0.11 0.389,-0.104 0.425,-0.104C0.461,-0.104 0.495,-0.11 0.527,-0.124C0.558,-0.138 0.587,-0.159 0.612,-0.187L0.696,-0.107C0.663,-0.069 0.623,-0.04 0.576,-0.02C0.528,-0 0.476,0.01 0.418,0.01Z" style="fill:rgb(35,31,32);fill-rule:nonzero;"/>
            </g>
            <g transform="matrix(46.875,0,0,46.875,477.275,114.129)">
                <path d="M0.422,0.01C0.367,0.01 0.317,0.001 0.271,-0.017C0.225,-0.035 0.185,-0.06 0.151,-0.093C0.117,-0.125 0.091,-0.163 0.072,-0.207C0.053,-0.25 0.044,-0.298 0.044,-0.35C0.044,-0.402 0.053,-0.45 0.072,-0.493C0.091,-0.537 0.117,-0.575 0.151,-0.607C0.185,-0.64 0.225,-0.665 0.271,-0.683C0.317,-0.701 0.367,-0.71 0.421,-0.71C0.476,-0.71 0.526,-0.701 0.572,-0.683C0.617,-0.665 0.657,-0.64 0.691,-0.608C0.725,-0.576 0.751,-0.538 0.77,-0.494C0.789,-0.45 0.798,-0.402 0.798,-0.35C0.798,-0.298 0.789,-0.25 0.77,-0.206C0.751,-0.162 0.725,-0.124 0.691,-0.092C0.657,-0.06 0.617,-0.035 0.572,-0.017C0.526,0.001 0.476,0.01 0.422,0.01ZM0.421,-0.104C0.457,-0.104 0.489,-0.11 0.519,-0.122C0.549,-0.134 0.575,-0.151 0.597,-0.173C0.619,-0.195 0.636,-0.222 0.649,-0.252C0.661,-0.281 0.667,-0.314 0.667,-0.35C0.667,-0.386 0.661,-0.419 0.649,-0.449C0.636,-0.478 0.619,-0.504 0.597,-0.527C0.575,-0.549 0.549,-0.566 0.519,-0.578C0.489,-0.59 0.457,-0.596 0.421,-0.596C0.386,-0.596 0.353,-0.59 0.323,-0.578C0.293,-0.566 0.267,-0.549 0.245,-0.526C0.223,-0.504 0.206,-0.478 0.193,-0.448C0.181,-0.419 0.175,-0.386 0.175,-0.35C0.175,-0.315 0.181,-0.282 0.193,-0.252C0.205,-0.222 0.223,-0.196 0.245,-0.173C0.267,-0.151 0.293,-0.134 0.323,-0.122C0.353,-0.11 0.386,-0.104 0.421,-0.104Z" style="fill:rgb(35,31,32);fill-rule:nonzero;"/>
            </g>
            <g transform="matrix(46.875,0,0,46.875,525.337,114.129)">
                <path d="M0.094,-0L0.094,-0.7L0.224,-0.7L0.224,-0.11L0.59,-0.11L0.59,-0L0.094,-0Z" style="fill:rgb(35,31,32);fill-rule:nonzero;"/>
            </g>
            <g transform="matrix(46.875,0,0,46.875,562.047,114.129)">
                <path d="M-0.005,-0L0.31,-0.7L0.438,-0.7L0.754,-0L0.618,-0L0.347,-0.631L0.399,-0.631L0.129,-0L-0.005,-0ZM0.14,-0.162L0.175,-0.264L0.553,-0.264L0.588,-0.162L0.14,-0.162Z" style="fill:rgb(35,31,32);fill-rule:nonzero;"/>
            </g>
            <g transform="matrix(46.875,0,0,46.875,597.135,114.129)">
            </g>
            <g transform="matrix(23.4375,0,0,23.4375,108.902,153.442)">
                <rect x="0.122" y="-0.7" width="0.051" height="0.7" style="fill:rgb(0,106,169);fill-rule:nonzero;"/>
            </g>
            <g transform="matrix(23.4375,0,0,23.4375,120.509,153.442)">
                <path d="M0.122,-0L0.122,-0.7L0.165,-0.7L0.49,-0.139L0.467,-0.139L0.791,-0.7L0.833,-0.7L0.834,-0L0.784,-0L0.783,-0.623L0.797,-0.623L0.49,-0.093L0.465,-0.093L0.157,-0.623L0.172,-0.623L0.172,-0L0.122,-0Z" style="fill:rgb(0,106,169);fill-rule:nonzero;"/>
            </g>
            <g transform="matrix(23.4375,0,0,23.4375,147.592,153.442)">
                <path d="M0.122,-0L0.122,-0.7L0.373,-0.7C0.432,-0.7 0.482,-0.691 0.524,-0.672C0.566,-0.653 0.599,-0.626 0.621,-0.591C0.644,-0.556 0.655,-0.514 0.655,-0.464C0.655,-0.415 0.644,-0.373 0.621,-0.338C0.599,-0.303 0.566,-0.276 0.524,-0.257C0.482,-0.238 0.432,-0.229 0.373,-0.229L0.15,-0.229L0.173,-0.253L0.173,-0L0.122,-0ZM0.173,-0.25L0.15,-0.275L0.373,-0.275C0.448,-0.275 0.505,-0.291 0.545,-0.325C0.584,-0.358 0.603,-0.404 0.603,-0.464C0.603,-0.525 0.584,-0.572 0.545,-0.605C0.505,-0.638 0.448,-0.654 0.373,-0.654L0.15,-0.654L0.173,-0.679L0.173,-0.25Z" style="fill:rgb(0,106,169);fill-rule:nonzero;"/>
            </g>
            <g transform="matrix(23.4375,0,0,23.4375,168.793,153.442)">
                <rect x="0.122" y="-0.7" width="0.051" height="0.7" style="fill:rgb(0,106,169);fill-rule:nonzero;"/>
            </g>
            <g transform="matrix(23.4375,0,0,23.4375,180.401,153.442)">
                <path d="M0.005,-0L0.327,-0.7L0.378,-0.7L0.7,-0L0.645,-0L0.341,-0.668L0.363,-0.668L0.06,-0L0.005,-0ZM0.123,-0.197L0.14,-0.24L0.559,-0.24L0.576,-0.197L0.123,-0.197Z" style="fill:rgb(0,106,169);fill-rule:nonzero;"/>
            </g>
            <g transform="matrix(23.4375,0,0,23.4375,201.617,153.442)">
                <path d="M0.122,-0L0.122,-0.7L0.165,-0.7L0.664,-0.063L0.641,-0.063L0.641,-0.7L0.692,-0.7L0.692,-0L0.65,-0L0.15,-0.637L0.173,-0.637L0.173,-0L0.122,-0Z" style="fill:rgb(0,106,169);fill-rule:nonzero;"/>
            </g>
            <g transform="matrix(23.4375,0,0,23.4375,225.388,153.442)">
                <path d="M0.256,-0L0.256,-0.654L0.004,-0.654L0.004,-0.7L0.559,-0.7L0.559,-0.654L0.307,-0.654L0.307,-0L0.256,-0Z" style="fill:rgb(0,106,169);fill-rule:nonzero;"/>
            </g>
            <g transform="matrix(23.4375,0,0,23.4375,243.277,153.442)">
                <rect x="0.122" y="-0.7" width="0.051" height="0.7" style="fill:rgb(0,106,169);fill-rule:nonzero;"/>
            </g>
            <g transform="matrix(23.4375,0,0,23.4375,254.884,153.442)">
            </g>
            <g transform="matrix(23.4375,0,0,23.4375,276.289,153.442)">
                <path d="M0.256,-0L0.256,-0.654L0.004,-0.654L0.004,-0.7L0.559,-0.7L0.559,-0.654L0.307,-0.654L0.307,-0L0.256,-0Z" style="fill:rgb(0,106,169);fill-rule:nonzero;"/>
            </g>
            <g transform="matrix(23.4375,0,0,23.4375,294.177,153.442)">
                <path d="M0.167,-0.378L0.546,-0.378L0.546,-0.333L0.167,-0.333L0.167,-0.378ZM0.173,-0.046L0.605,-0.046L0.605,-0L0.122,-0L0.122,-0.7L0.59,-0.7L0.59,-0.654L0.173,-0.654L0.173,-0.046Z" style="fill:rgb(0,106,169);fill-rule:nonzero;"/>
            </g>
            <g transform="matrix(23.4375,0,0,23.4375,314.534,153.442)">
                <path d="M0.122,-0L0.122,-0.7L0.373,-0.7C0.432,-0.7 0.482,-0.691 0.524,-0.672C0.566,-0.653 0.599,-0.626 0.621,-0.591C0.644,-0.556 0.655,-0.514 0.655,-0.464C0.655,-0.415 0.644,-0.373 0.621,-0.338C0.599,-0.303 0.566,-0.276 0.524,-0.258C0.482,-0.239 0.432,-0.229 0.373,-0.229L0.15,-0.229L0.173,-0.253L0.173,-0L0.122,-0ZM0.608,-0L0.426,-0.254L0.484,-0.254L0.666,-0L0.608,-0ZM0.173,-0.25L0.15,-0.274L0.373,-0.274C0.448,-0.274 0.505,-0.291 0.545,-0.324C0.584,-0.358 0.603,-0.404 0.603,-0.464C0.603,-0.525 0.584,-0.572 0.545,-0.605C0.505,-0.638 0.448,-0.654 0.373,-0.654L0.15,-0.654L0.173,-0.679L0.173,-0.25Z" style="fill:rgb(0,106,169);fill-rule:nonzero;"/>
            </g>
            <g transform="matrix(23.4375,0,0,23.4375,336.102,153.442)">
                <path d="M0.122,-0L0.122,-0.7L0.165,-0.7L0.49,-0.139L0.467,-0.139L0.791,-0.7L0.833,-0.7L0.834,-0L0.784,-0L0.783,-0.623L0.797,-0.623L0.49,-0.093L0.465,-0.093L0.157,-0.623L0.172,-0.623L0.172,-0L0.122,-0Z" style="fill:rgb(0,106,169);fill-rule:nonzero;"/>
            </g>
            <g transform="matrix(23.4375,0,0,23.4375,363.186,153.442)">
                <path d="M0.419,0.005C0.367,0.005 0.319,-0.004 0.274,-0.022C0.23,-0.039 0.191,-0.064 0.159,-0.097C0.126,-0.129 0.1,-0.166 0.082,-0.209C0.064,-0.252 0.055,-0.299 0.055,-0.35C0.055,-0.401 0.064,-0.448 0.082,-0.491C0.1,-0.534 0.126,-0.571 0.159,-0.604C0.191,-0.636 0.23,-0.661 0.274,-0.678C0.319,-0.696 0.367,-0.705 0.419,-0.705C0.471,-0.705 0.519,-0.696 0.564,-0.678C0.608,-0.661 0.646,-0.636 0.679,-0.604C0.712,-0.572 0.737,-0.534 0.756,-0.491C0.774,-0.448 0.783,-0.401 0.783,-0.35C0.783,-0.299 0.774,-0.252 0.756,-0.209C0.737,-0.166 0.712,-0.128 0.679,-0.096C0.646,-0.064 0.608,-0.039 0.564,-0.022C0.519,-0.004 0.471,0.005 0.419,0.005ZM0.419,-0.042C0.463,-0.042 0.505,-0.049 0.543,-0.065C0.581,-0.08 0.614,-0.102 0.642,-0.13C0.67,-0.158 0.692,-0.19 0.708,-0.228C0.723,-0.265 0.731,-0.306 0.731,-0.35C0.731,-0.394 0.724,-0.435 0.708,-0.472C0.692,-0.51 0.67,-0.542 0.642,-0.57C0.614,-0.598 0.581,-0.62 0.543,-0.635C0.505,-0.651 0.463,-0.658 0.419,-0.658C0.375,-0.658 0.333,-0.651 0.295,-0.635C0.257,-0.62 0.224,-0.598 0.196,-0.57C0.167,-0.542 0.145,-0.51 0.13,-0.472C0.114,-0.435 0.106,-0.394 0.106,-0.35C0.106,-0.306 0.114,-0.265 0.13,-0.228C0.145,-0.19 0.167,-0.158 0.196,-0.13C0.224,-0.102 0.257,-0.08 0.295,-0.065C0.333,-0.049 0.375,-0.042 0.419,-0.042Z" style="fill:rgb(0,106,169);fill-rule:nonzero;"/>
            </g>
            <g transform="matrix(23.4375,0,0,23.4375,387.504,153.442)">
                <rect x="0.122" y="-0.7" width="0.051" height="0.7" style="fill:rgb(0,106,169);fill-rule:nonzero;"/>
            </g>
            <g transform="matrix(23.4375,0,0,23.4375,399.111,153.442)">
                <path d="M0.122,-0L0.122,-0.7L0.399,-0.7C0.473,-0.7 0.538,-0.685 0.594,-0.655C0.65,-0.625 0.694,-0.584 0.725,-0.531C0.756,-0.479 0.771,-0.418 0.771,-0.35C0.771,-0.282 0.756,-0.221 0.725,-0.169C0.694,-0.116 0.65,-0.075 0.594,-0.045C0.538,-0.015 0.473,-0 0.399,-0L0.122,-0ZM0.173,-0.046L0.395,-0.046C0.461,-0.046 0.519,-0.059 0.567,-0.085C0.616,-0.111 0.653,-0.147 0.68,-0.193C0.706,-0.238 0.72,-0.291 0.72,-0.35C0.72,-0.41 0.706,-0.462 0.68,-0.508C0.653,-0.553 0.616,-0.589 0.567,-0.615C0.519,-0.641 0.461,-0.654 0.395,-0.654L0.173,-0.654L0.173,-0.046Z" style="fill:rgb(0,106,169);fill-rule:nonzero;"/>
            </g>
            <g transform="matrix(23.4375,0,0,23.4375,423.156,153.442)">
                <path d="M0.122,-0L0.122,-0.7L0.373,-0.7C0.432,-0.7 0.482,-0.691 0.524,-0.672C0.566,-0.653 0.599,-0.626 0.621,-0.591C0.644,-0.556 0.655,-0.514 0.655,-0.464C0.655,-0.415 0.644,-0.373 0.621,-0.338C0.599,-0.303 0.566,-0.276 0.524,-0.258C0.482,-0.239 0.432,-0.229 0.373,-0.229L0.15,-0.229L0.173,-0.253L0.173,-0L0.122,-0ZM0.608,-0L0.426,-0.254L0.484,-0.254L0.666,-0L0.608,-0ZM0.173,-0.25L0.15,-0.274L0.373,-0.274C0.448,-0.274 0.505,-0.291 0.545,-0.324C0.584,-0.358 0.603,-0.404 0.603,-0.464C0.603,-0.525 0.584,-0.572 0.545,-0.605C0.505,-0.638 0.448,-0.654 0.373,-0.654L0.15,-0.654L0.173,-0.679L0.173,-0.25Z" style="fill:rgb(0,106,169);fill-rule:nonzero;"/>
            </g>
            <g transform="matrix(23.4375,0,0,23.4375,444.724,153.442)">
                <path d="M0.005,-0L0.327,-0.7L0.378,-0.7L0.7,-0L0.645,-0L0.341,-0.668L0.363,-0.668L0.06,-0L0.005,-0ZM0.123,-0.197L0.14,-0.24L0.559,-0.24L0.576,-0.197L0.123,-0.197Z" style="fill:rgb(0,106,169);fill-rule:nonzero;"/>
            </g>
            <g transform="matrix(23.4375,0,0,23.4375,465.589,153.442)">
                <path d="M0.396,0.005C0.309,0.005 0.241,-0.02 0.191,-0.071C0.141,-0.122 0.116,-0.197 0.116,-0.297L0.116,-0.7L0.167,-0.7L0.167,-0.299C0.167,-0.212 0.187,-0.147 0.227,-0.105C0.267,-0.063 0.324,-0.042 0.397,-0.042C0.47,-0.042 0.526,-0.063 0.566,-0.105C0.606,-0.147 0.626,-0.212 0.626,-0.299L0.626,-0.7L0.677,-0.7L0.677,-0.297C0.677,-0.197 0.652,-0.122 0.602,-0.071C0.552,-0.02 0.483,0.005 0.396,0.005Z" style="fill:rgb(0,106,169);fill-rule:nonzero;"/>
            </g>
            <g transform="matrix(23.4375,0,0,23.4375,488.852,153.442)">
                <path d="M0.122,-0L0.122,-0.7L0.173,-0.7L0.173,-0.046L0.576,-0.046L0.576,-0L0.122,-0Z" style="fill:rgb(0,106,169);fill-rule:nonzero;"/>
            </g>
            <g transform="matrix(23.4375,0,0,23.4375,507.256,153.442)">
                <rect x="0.122" y="-0.7" width="0.051" height="0.7" style="fill:rgb(0,106,169);fill-rule:nonzero;"/>
            </g>
            <g transform="matrix(23.4375,0,0,23.4375,518.863,153.442)">
                <path d="M0.418,0.005C0.366,0.005 0.318,-0.004 0.274,-0.022C0.229,-0.039 0.191,-0.064 0.158,-0.096C0.126,-0.128 0.1,-0.166 0.082,-0.209C0.064,-0.252 0.055,-0.299 0.055,-0.35C0.055,-0.401 0.064,-0.448 0.082,-0.491C0.1,-0.534 0.126,-0.572 0.159,-0.604C0.191,-0.636 0.23,-0.661 0.274,-0.679C0.318,-0.696 0.366,-0.705 0.418,-0.705C0.467,-0.705 0.514,-0.697 0.557,-0.681C0.6,-0.665 0.637,-0.64 0.667,-0.608L0.635,-0.575C0.605,-0.604 0.572,-0.626 0.536,-0.639C0.499,-0.652 0.461,-0.658 0.42,-0.658C0.375,-0.658 0.334,-0.651 0.296,-0.635C0.257,-0.619 0.224,-0.598 0.196,-0.57C0.167,-0.542 0.145,-0.509 0.13,-0.472C0.114,-0.435 0.106,-0.394 0.106,-0.35C0.106,-0.306 0.114,-0.265 0.13,-0.228C0.145,-0.191 0.167,-0.158 0.196,-0.13C0.224,-0.102 0.257,-0.081 0.296,-0.065C0.334,-0.049 0.375,-0.042 0.42,-0.042C0.461,-0.042 0.499,-0.048 0.536,-0.062C0.572,-0.075 0.605,-0.096 0.635,-0.126L0.667,-0.093C0.637,-0.061 0.6,-0.036 0.557,-0.02C0.514,-0.003 0.467,0.005 0.418,0.005Z" style="fill:rgb(0,106,169);fill-rule:nonzero;"/>
            </g>
            <g transform="matrix(23.4375,0,0,23.4375,540.322,153.442)">
                <rect x="0.122" y="-0.7" width="0.051" height="0.7" style="fill:rgb(0,106,169);fill-rule:nonzero;"/>
            </g>
            <g transform="matrix(23.4375,0,0,23.4375,547.244,153.442)">
            </g>
            <g transform="matrix(23.4375,0,0,23.4375,238.017,181.588)">
                <path d="M0.306,0.005C0.254,0.005 0.205,-0.004 0.159,-0.022C0.112,-0.039 0.076,-0.062 0.051,-0.09L0.074,-0.128C0.098,-0.103 0.131,-0.083 0.172,-0.066C0.214,-0.049 0.258,-0.04 0.305,-0.04C0.352,-0.04 0.39,-0.046 0.42,-0.058C0.449,-0.071 0.471,-0.087 0.485,-0.108C0.5,-0.129 0.507,-0.152 0.507,-0.177C0.507,-0.207 0.499,-0.231 0.483,-0.249C0.467,-0.267 0.446,-0.281 0.42,-0.292C0.394,-0.302 0.366,-0.311 0.335,-0.319C0.304,-0.326 0.273,-0.334 0.242,-0.342C0.211,-0.351 0.182,-0.361 0.156,-0.375C0.13,-0.388 0.109,-0.407 0.094,-0.43C0.078,-0.452 0.07,-0.482 0.07,-0.519C0.07,-0.552 0.079,-0.583 0.096,-0.611C0.114,-0.639 0.141,-0.662 0.177,-0.679C0.213,-0.696 0.26,-0.705 0.318,-0.705C0.356,-0.705 0.395,-0.699 0.432,-0.688C0.47,-0.677 0.502,-0.661 0.529,-0.642L0.51,-0.601C0.481,-0.621 0.449,-0.636 0.416,-0.646C0.382,-0.655 0.349,-0.66 0.318,-0.66C0.273,-0.66 0.236,-0.654 0.207,-0.641C0.177,-0.628 0.156,-0.612 0.142,-0.591C0.128,-0.57 0.121,-0.546 0.121,-0.52C0.121,-0.49 0.129,-0.466 0.145,-0.448C0.16,-0.43 0.181,-0.415 0.207,-0.405C0.233,-0.395 0.262,-0.386 0.293,-0.378C0.324,-0.371 0.355,-0.363 0.386,-0.354C0.417,-0.346 0.445,-0.335 0.471,-0.322C0.497,-0.308 0.518,-0.29 0.534,-0.268C0.55,-0.245 0.558,-0.216 0.558,-0.18C0.558,-0.147 0.549,-0.117 0.531,-0.089C0.513,-0.06 0.486,-0.038 0.449,-0.021C0.411,-0.004 0.364,0.005 0.306,0.005Z" style="fill:rgb(0,106,169);fill-rule:nonzero;"/>
            </g>
            <g transform="matrix(23.4375,0,0,23.4375,256.458,181.588)">
                <path d="M0.368,0.004C0.322,0.004 0.281,-0.007 0.244,-0.028C0.207,-0.05 0.177,-0.08 0.156,-0.12C0.134,-0.159 0.123,-0.206 0.123,-0.261C0.123,-0.316 0.134,-0.363 0.156,-0.402C0.177,-0.442 0.206,-0.472 0.243,-0.494C0.28,-0.515 0.322,-0.526 0.368,-0.526C0.417,-0.526 0.461,-0.515 0.5,-0.492C0.539,-0.47 0.57,-0.439 0.592,-0.399C0.615,-0.359 0.626,-0.313 0.626,-0.261C0.626,-0.209 0.615,-0.163 0.592,-0.123C0.57,-0.083 0.539,-0.052 0.5,-0.03C0.461,-0.007 0.417,0.004 0.368,0.004ZM0.106,0.194L0.106,-0.522L0.154,-0.522L0.154,-0.351L0.146,-0.26L0.156,-0.169L0.156,0.194L0.106,0.194ZM0.365,-0.041C0.405,-0.041 0.441,-0.05 0.473,-0.068C0.505,-0.087 0.53,-0.112 0.548,-0.146C0.567,-0.179 0.576,-0.217 0.576,-0.261C0.576,-0.305 0.567,-0.343 0.548,-0.376C0.53,-0.409 0.505,-0.435 0.473,-0.454C0.441,-0.472 0.405,-0.481 0.365,-0.481C0.325,-0.481 0.289,-0.472 0.258,-0.454C0.226,-0.435 0.201,-0.409 0.183,-0.376C0.164,-0.343 0.155,-0.305 0.155,-0.261C0.155,-0.217 0.164,-0.179 0.183,-0.146C0.201,-0.112 0.226,-0.087 0.258,-0.068C0.289,-0.05 0.325,-0.041 0.365,-0.041Z" style="fill:rgb(0,106,169);fill-rule:nonzero;"/>
            </g>
            <g transform="matrix(23.4375,0,0,23.4375,276.454,181.588)">
                <path d="M0.31,0.004C0.26,0.004 0.216,-0.007 0.176,-0.03C0.137,-0.053 0.106,-0.084 0.084,-0.124C0.061,-0.164 0.049,-0.21 0.049,-0.261C0.049,-0.313 0.061,-0.359 0.084,-0.399C0.106,-0.438 0.137,-0.469 0.176,-0.492C0.215,-0.515 0.26,-0.526 0.31,-0.526C0.36,-0.526 0.405,-0.515 0.444,-0.492C0.484,-0.469 0.514,-0.438 0.537,-0.399C0.559,-0.359 0.571,-0.313 0.571,-0.261C0.571,-0.21 0.559,-0.164 0.537,-0.124C0.515,-0.084 0.484,-0.053 0.444,-0.03C0.405,-0.007 0.36,0.004 0.31,0.004ZM0.31,-0.041C0.35,-0.041 0.386,-0.05 0.418,-0.069C0.45,-0.087 0.475,-0.113 0.493,-0.146C0.511,-0.18 0.52,-0.218 0.52,-0.261C0.52,-0.305 0.511,-0.344 0.493,-0.377C0.475,-0.41 0.45,-0.435 0.418,-0.454C0.386,-0.472 0.35,-0.481 0.31,-0.481C0.27,-0.481 0.234,-0.472 0.203,-0.454C0.171,-0.435 0.146,-0.41 0.128,-0.377C0.109,-0.344 0.1,-0.305 0.1,-0.261C0.1,-0.218 0.109,-0.18 0.128,-0.146C0.146,-0.113 0.171,-0.087 0.203,-0.069C0.234,-0.05 0.27,-0.041 0.31,-0.041Z" style="fill:rgb(0,106,169);fill-rule:nonzero;"/>
            </g>
            <g transform="matrix(23.4375,0,0,23.4375,295.153,181.588)">
                <path d="M0.106,-0L0.106,-0.522L0.154,-0.522L0.154,-0.379L0.149,-0.395C0.163,-0.437 0.188,-0.469 0.223,-0.492C0.258,-0.515 0.301,-0.526 0.353,-0.526L0.353,-0.477C0.351,-0.477 0.349,-0.477 0.347,-0.478C0.345,-0.478 0.343,-0.478 0.341,-0.478C0.283,-0.478 0.238,-0.46 0.205,-0.424C0.172,-0.387 0.156,-0.337 0.156,-0.272L0.156,-0L0.106,-0Z" style="fill:rgb(0,106,169);fill-rule:nonzero;"/>
            </g>
            <g transform="matrix(23.4375,0,0,23.4375,308.336,181.588)">
                <path d="M0.756,-0.526C0.798,-0.526 0.835,-0.518 0.866,-0.501C0.897,-0.485 0.921,-0.46 0.938,-0.428C0.955,-0.395 0.964,-0.354 0.964,-0.305L0.964,-0L0.914,-0L0.914,-0.301C0.914,-0.36 0.899,-0.405 0.871,-0.435C0.842,-0.465 0.802,-0.481 0.751,-0.481C0.712,-0.481 0.678,-0.472 0.649,-0.456C0.62,-0.44 0.598,-0.416 0.583,-0.386C0.567,-0.356 0.56,-0.32 0.56,-0.278L0.56,-0L0.51,-0L0.51,-0.301C0.51,-0.36 0.495,-0.405 0.467,-0.435C0.438,-0.465 0.398,-0.481 0.347,-0.481C0.308,-0.481 0.274,-0.472 0.245,-0.456C0.216,-0.44 0.194,-0.416 0.179,-0.386C0.163,-0.356 0.156,-0.32 0.156,-0.278L0.156,-0L0.106,-0L0.106,-0.522L0.154,-0.522L0.154,-0.378L0.147,-0.394C0.162,-0.435 0.188,-0.467 0.224,-0.491C0.26,-0.514 0.303,-0.526 0.354,-0.526C0.406,-0.526 0.45,-0.513 0.486,-0.487C0.521,-0.46 0.544,-0.421 0.553,-0.369L0.536,-0.376C0.55,-0.42 0.576,-0.457 0.615,-0.484C0.653,-0.512 0.701,-0.526 0.756,-0.526Z" style="fill:rgb(0,106,169);fill-rule:nonzero;"/>
            </g>
            <g transform="matrix(23.4375,0,0,23.4375,337.433,181.588)">
                <path d="M0.106,-0L0.106,-0.522L0.156,-0.522L0.156,-0L0.106,-0ZM0.131,-0.649C0.12,-0.649 0.11,-0.653 0.102,-0.661C0.094,-0.669 0.09,-0.678 0.09,-0.689C0.09,-0.7 0.094,-0.71 0.102,-0.718C0.11,-0.726 0.12,-0.73 0.131,-0.73C0.143,-0.73 0.153,-0.726 0.161,-0.719C0.168,-0.711 0.172,-0.701 0.172,-0.69C0.172,-0.679 0.168,-0.669 0.161,-0.661C0.153,-0.653 0.143,-0.649 0.131,-0.649Z" style="fill:rgb(0,106,169);fill-rule:nonzero;"/>
            </g>
            <g transform="matrix(23.4375,0,0,23.4375,347.726,181.588)">
                <path d="M0.361,-0.526C0.404,-0.526 0.441,-0.518 0.472,-0.501C0.504,-0.485 0.529,-0.46 0.546,-0.428C0.564,-0.395 0.573,-0.354 0.573,-0.305L0.573,-0L0.523,-0L0.523,-0.301C0.523,-0.36 0.508,-0.405 0.479,-0.435C0.449,-0.465 0.407,-0.481 0.354,-0.481C0.313,-0.481 0.278,-0.472 0.248,-0.456C0.218,-0.44 0.195,-0.416 0.18,-0.386C0.164,-0.356 0.156,-0.32 0.156,-0.278L0.156,-0L0.106,-0L0.106,-0.522L0.154,-0.522L0.154,-0.377L0.147,-0.393C0.163,-0.435 0.189,-0.467 0.226,-0.491C0.263,-0.514 0.308,-0.526 0.361,-0.526Z" style="fill:rgb(0,106,169);fill-rule:nonzero;"/>
            </g>
            <g transform="matrix(23.4375,0,0,23.4375,367.667,181.588)">
                <path d="M0.31,0.004C0.26,0.004 0.216,-0.007 0.176,-0.03C0.137,-0.053 0.106,-0.084 0.084,-0.124C0.061,-0.164 0.049,-0.21 0.049,-0.261C0.049,-0.313 0.061,-0.359 0.084,-0.399C0.106,-0.438 0.137,-0.469 0.176,-0.492C0.215,-0.515 0.26,-0.526 0.31,-0.526C0.36,-0.526 0.405,-0.515 0.444,-0.492C0.484,-0.469 0.514,-0.438 0.537,-0.399C0.559,-0.359 0.571,-0.313 0.571,-0.261C0.571,-0.21 0.559,-0.164 0.537,-0.124C0.515,-0.084 0.484,-0.053 0.444,-0.03C0.405,-0.007 0.36,0.004 0.31,0.004ZM0.31,-0.041C0.35,-0.041 0.386,-0.05 0.418,-0.069C0.45,-0.087 0.475,-0.113 0.493,-0.146C0.511,-0.18 0.52,-0.218 0.52,-0.261C0.52,-0.305 0.511,-0.344 0.493,-0.377C0.475,-0.41 0.45,-0.435 0.418,-0.454C0.386,-0.472 0.35,-0.481 0.31,-0.481C0.27,-0.481 0.234,-0.472 0.203,-0.454C0.171,-0.435 0.146,-0.41 0.128,-0.377C0.109,-0.344 0.1,-0.305 0.1,-0.261C0.1,-0.218 0.109,-0.18 0.128,-0.146C0.146,-0.113 0.171,-0.087 0.203,-0.069C0.234,-0.05 0.27,-0.041 0.31,-0.041Z" style="fill:rgb(0,106,169);fill-rule:nonzero;"/>
            </g>
            <g transform="matrix(23.4375,0,0,23.4375,386.366,181.588)">
                <path d="M0.106,-0L0.106,-0.522L0.154,-0.522L0.154,-0.379L0.149,-0.395C0.163,-0.437 0.188,-0.469 0.223,-0.492C0.258,-0.515 0.301,-0.526 0.353,-0.526L0.353,-0.477C0.351,-0.477 0.349,-0.477 0.347,-0.478C0.345,-0.478 0.343,-0.478 0.341,-0.478C0.283,-0.478 0.238,-0.46 0.205,-0.424C0.172,-0.387 0.156,-0.337 0.156,-0.272L0.156,-0L0.106,-0Z" style="fill:rgb(0,106,169);fill-rule:nonzero;"/>
            </g>
            <g transform="matrix(23.4375,0,0,23.4375,399.432,181.588)">
                <path d="M0.318,0.004C0.265,0.004 0.219,-0.007 0.179,-0.03C0.138,-0.053 0.107,-0.084 0.084,-0.124C0.061,-0.164 0.049,-0.21 0.049,-0.261C0.049,-0.313 0.06,-0.359 0.082,-0.399C0.103,-0.438 0.133,-0.469 0.171,-0.492C0.209,-0.515 0.251,-0.526 0.299,-0.526C0.347,-0.526 0.389,-0.515 0.427,-0.493C0.464,-0.471 0.494,-0.44 0.515,-0.4C0.537,-0.361 0.548,-0.315 0.548,-0.263C0.548,-0.261 0.548,-0.259 0.548,-0.257C0.547,-0.254 0.547,-0.251 0.547,-0.249L0.086,-0.249L0.086,-0.288L0.52,-0.288L0.5,-0.269C0.501,-0.31 0.492,-0.346 0.474,-0.379C0.457,-0.411 0.433,-0.436 0.403,-0.455C0.373,-0.473 0.338,-0.482 0.299,-0.482C0.26,-0.482 0.226,-0.473 0.195,-0.455C0.165,-0.436 0.141,-0.411 0.124,-0.379C0.107,-0.346 0.098,-0.309 0.098,-0.268L0.098,-0.259C0.098,-0.217 0.107,-0.179 0.126,-0.146C0.145,-0.113 0.171,-0.087 0.205,-0.069C0.238,-0.05 0.276,-0.041 0.319,-0.041C0.352,-0.041 0.384,-0.047 0.413,-0.059C0.442,-0.071 0.466,-0.09 0.486,-0.114L0.515,-0.081C0.492,-0.053 0.464,-0.032 0.429,-0.018C0.395,-0.003 0.358,0.004 0.318,0.004Z" style="fill:rgb(0,106,169);fill-rule:nonzero;"/>
            </g>
            <g transform="matrix(23.4375,0,0,23.4375,413.424,181.588)">
            </g>
        </g>
        <g transform="matrix(1,0,0,1,184.845,426.22)">
            <g transform="matrix(37.5,0,0,37.5,58.3721,162.421)">
                <path d="M0.374,-0.535C0.417,-0.535 0.455,-0.527 0.488,-0.51C0.521,-0.494 0.547,-0.468 0.566,-0.434C0.585,-0.4 0.594,-0.357 0.594,-0.305L0.594,-0L0.498,-0L0.498,-0.294C0.498,-0.346 0.486,-0.384 0.461,-0.41C0.436,-0.436 0.4,-0.449 0.355,-0.449C0.321,-0.449 0.292,-0.443 0.266,-0.429C0.241,-0.416 0.222,-0.396 0.208,-0.37C0.194,-0.344 0.187,-0.312 0.187,-0.273L0.187,-0L0.091,-0L0.091,-0.53L0.183,-0.53L0.183,-0.387L0.168,-0.425C0.185,-0.46 0.212,-0.487 0.248,-0.506C0.284,-0.526 0.326,-0.535 0.374,-0.535Z" style="fill:rgb(35,31,32);fill-rule:nonzero;"/>
            </g>
            <g transform="matrix(37.5,0,0,37.5,87.5606,162.421)">
                <path d="M0.091,-0L0.091,-0.53L0.187,-0.53L0.187,-0L0.091,-0ZM0.139,-0.632C0.12,-0.632 0.105,-0.638 0.093,-0.65C0.08,-0.662 0.074,-0.677 0.074,-0.694C0.074,-0.712 0.08,-0.727 0.093,-0.739C0.105,-0.751 0.12,-0.757 0.139,-0.757C0.158,-0.757 0.173,-0.751 0.186,-0.74C0.198,-0.728 0.204,-0.713 0.204,-0.696C0.204,-0.678 0.198,-0.663 0.186,-0.651C0.174,-0.638 0.158,-0.632 0.139,-0.632Z" style="fill:rgb(35,31,32);fill-rule:nonzero;"/>
            </g>
            <g transform="matrix(37.5,0,0,37.5,101.676,162.421)">
                <path d="M0.322,0.006C0.268,0.006 0.22,-0.006 0.178,-0.029C0.135,-0.052 0.102,-0.084 0.078,-0.125C0.054,-0.166 0.042,-0.212 0.042,-0.265C0.042,-0.318 0.054,-0.365 0.078,-0.405C0.102,-0.446 0.135,-0.477 0.178,-0.501C0.22,-0.524 0.268,-0.535 0.322,-0.535C0.37,-0.535 0.412,-0.526 0.45,-0.507C0.488,-0.488 0.517,-0.459 0.538,-0.422L0.465,-0.375C0.448,-0.401 0.427,-0.42 0.402,-0.433C0.377,-0.445 0.35,-0.451 0.321,-0.451C0.286,-0.451 0.255,-0.444 0.228,-0.428C0.2,-0.413 0.179,-0.391 0.163,-0.364C0.147,-0.336 0.139,-0.303 0.139,-0.265C0.139,-0.227 0.147,-0.194 0.163,-0.166C0.179,-0.138 0.2,-0.117 0.228,-0.101C0.255,-0.086 0.286,-0.079 0.321,-0.079C0.35,-0.079 0.377,-0.085 0.402,-0.097C0.427,-0.109 0.448,-0.128 0.465,-0.154L0.538,-0.108C0.517,-0.071 0.488,-0.043 0.45,-0.023C0.412,-0.004 0.37,0.006 0.322,0.006Z" style="fill:rgb(35,31,32);fill-rule:nonzero;"/>
            </g>
            <g transform="matrix(37.5,0,0,37.5,126.458,162.421)">
                <path d="M0.318,0.006C0.265,0.006 0.218,-0.006 0.176,-0.029C0.135,-0.052 0.102,-0.084 0.078,-0.125C0.054,-0.166 0.042,-0.213 0.042,-0.265C0.042,-0.318 0.054,-0.365 0.078,-0.405C0.102,-0.446 0.135,-0.477 0.176,-0.5C0.217,-0.524 0.265,-0.535 0.318,-0.535C0.371,-0.535 0.418,-0.524 0.46,-0.501C0.501,-0.477 0.534,-0.446 0.558,-0.405C0.581,-0.365 0.593,-0.318 0.593,-0.265C0.593,-0.213 0.581,-0.166 0.558,-0.125C0.534,-0.084 0.501,-0.052 0.46,-0.029C0.418,-0.006 0.37,0.006 0.318,0.006ZM0.318,-0.079C0.352,-0.079 0.383,-0.086 0.41,-0.101C0.436,-0.117 0.458,-0.139 0.473,-0.167C0.489,-0.195 0.496,-0.228 0.496,-0.265C0.496,-0.303 0.489,-0.336 0.473,-0.364C0.458,-0.391 0.436,-0.413 0.41,-0.428C0.383,-0.444 0.352,-0.451 0.318,-0.451C0.284,-0.451 0.253,-0.444 0.227,-0.428C0.2,-0.413 0.179,-0.391 0.163,-0.364C0.147,-0.336 0.139,-0.303 0.139,-0.265C0.139,-0.228 0.147,-0.195 0.163,-0.167C0.179,-0.139 0.2,-0.117 0.227,-0.101C0.253,-0.086 0.284,-0.079 0.318,-0.079Z" style="fill:rgb(35,31,32);fill-rule:nonzero;"/>
            </g>
            <g transform="matrix(37.5,0,0,37.5,153.947,162.421)">
                <rect x="0.091" y="-0.742" width="0.096" height="0.742" style="fill:rgb(35,31,32);fill-rule:nonzero;"/>
            </g>
            <g transform="matrix(37.5,0,0,37.5,168.062,162.421)">
                <path d="M0.42,-0L0.42,-0.112L0.415,-0.133L0.415,-0.324C0.415,-0.365 0.404,-0.396 0.38,-0.419C0.356,-0.441 0.321,-0.452 0.273,-0.452C0.241,-0.452 0.211,-0.447 0.181,-0.437C0.151,-0.426 0.126,-0.413 0.105,-0.395L0.065,-0.467C0.092,-0.489 0.125,-0.506 0.164,-0.518C0.202,-0.529 0.242,-0.535 0.284,-0.535C0.357,-0.535 0.413,-0.517 0.452,-0.482C0.492,-0.447 0.511,-0.392 0.511,-0.32L0.511,-0L0.42,-0ZM0.246,0.006C0.207,0.006 0.172,-0.001 0.142,-0.014C0.113,-0.027 0.09,-0.046 0.074,-0.069C0.058,-0.093 0.05,-0.12 0.05,-0.15C0.05,-0.179 0.057,-0.205 0.07,-0.228C0.084,-0.251 0.106,-0.27 0.137,-0.284C0.169,-0.298 0.21,-0.305 0.263,-0.305L0.431,-0.305L0.431,-0.236L0.267,-0.236C0.219,-0.236 0.187,-0.228 0.17,-0.212C0.153,-0.196 0.145,-0.177 0.145,-0.154C0.145,-0.128 0.155,-0.107 0.176,-0.091C0.197,-0.076 0.226,-0.068 0.262,-0.068C0.298,-0.068 0.33,-0.076 0.357,-0.092C0.384,-0.108 0.403,-0.132 0.415,-0.162L0.434,-0.096C0.421,-0.064 0.399,-0.04 0.367,-0.021C0.335,-0.003 0.295,0.006 0.246,0.006Z" style="fill:rgb(35,31,32);fill-rule:nonzero;"/>
            </g>
            <g transform="matrix(37.5,0,0,37.5,194.137,162.421)">
                <path d="M0.114,0.006C0.095,0.006 0.079,-0.001 0.066,-0.014C0.053,-0.027 0.046,-0.043 0.046,-0.063C0.046,-0.083 0.053,-0.099 0.066,-0.112C0.079,-0.125 0.095,-0.131 0.114,-0.131C0.132,-0.131 0.147,-0.125 0.161,-0.112C0.174,-0.099 0.18,-0.083 0.18,-0.063C0.18,-0.043 0.174,-0.027 0.161,-0.014C0.147,-0.001 0.132,0.006 0.114,0.006Z" style="fill:rgb(35,31,32);fill-rule:nonzero;"/>
            </g>
            <g transform="matrix(37.5,0,0,37.5,206.304,162.421)">
                <path d="M0.105,-0L0.105,-0.577C0.105,-0.629 0.12,-0.67 0.15,-0.701C0.181,-0.732 0.224,-0.748 0.28,-0.748C0.301,-0.748 0.321,-0.745 0.34,-0.74C0.359,-0.735 0.375,-0.728 0.388,-0.717L0.359,-0.644C0.349,-0.652 0.338,-0.658 0.325,-0.662C0.312,-0.666 0.299,-0.669 0.285,-0.669C0.257,-0.669 0.235,-0.661 0.221,-0.645C0.206,-0.629 0.199,-0.606 0.199,-0.576L0.199,-0.505L0.201,-0.461L0.201,-0L0.105,-0ZM0.015,-0.451L0.015,-0.53L0.353,-0.53L0.353,-0.451L0.015,-0.451Z" style="fill:rgb(35,31,32);fill-rule:nonzero;"/>
            </g>
            <g transform="matrix(37.5,0,0,37.5,223.214,162.421)">
                <path d="M0.091,-0L0.091,-0.53L0.183,-0.53L0.183,-0.386L0.174,-0.422C0.189,-0.459 0.213,-0.487 0.248,-0.506C0.282,-0.526 0.325,-0.535 0.376,-0.535L0.376,-0.442C0.372,-0.442 0.368,-0.443 0.365,-0.443C0.361,-0.443 0.358,-0.443 0.354,-0.443C0.303,-0.443 0.262,-0.428 0.232,-0.397C0.202,-0.367 0.187,-0.322 0.187,-0.264L0.187,-0L0.091,-0Z" style="fill:rgb(35,31,32);fill-rule:nonzero;"/>
            </g>
            <g transform="matrix(37.5,0,0,37.5,240.528,162.421)">
                <path d="M0.42,-0L0.42,-0.112L0.415,-0.133L0.415,-0.324C0.415,-0.365 0.404,-0.396 0.38,-0.419C0.356,-0.441 0.321,-0.452 0.273,-0.452C0.241,-0.452 0.211,-0.447 0.181,-0.437C0.151,-0.426 0.126,-0.413 0.105,-0.395L0.065,-0.467C0.092,-0.489 0.125,-0.506 0.164,-0.518C0.202,-0.529 0.242,-0.535 0.284,-0.535C0.357,-0.535 0.413,-0.517 0.452,-0.482C0.492,-0.447 0.511,-0.392 0.511,-0.32L0.511,-0L0.42,-0ZM0.246,0.006C0.207,0.006 0.172,-0.001 0.142,-0.014C0.113,-0.027 0.09,-0.046 0.074,-0.069C0.058,-0.093 0.05,-0.12 0.05,-0.15C0.05,-0.179 0.057,-0.205 0.07,-0.228C0.084,-0.251 0.106,-0.27 0.137,-0.284C0.169,-0.298 0.21,-0.305 0.263,-0.305L0.431,-0.305L0.431,-0.236L0.267,-0.236C0.219,-0.236 0.187,-0.228 0.17,-0.212C0.153,-0.196 0.145,-0.177 0.145,-0.154C0.145,-0.128 0.155,-0.107 0.176,-0.091C0.197,-0.076 0.226,-0.068 0.262,-0.068C0.298,-0.068 0.33,-0.076 0.357,-0.092C0.384,-0.108 0.403,-0.132 0.415,-0.162L0.434,-0.096C0.421,-0.064 0.399,-0.04 0.367,-0.021C0.335,-0.003 0.295,0.006 0.246,0.006Z" style="fill:rgb(35,31,32);fill-rule:nonzero;"/>
            </g>
            <g transform="matrix(37.5,0,0,37.5,266.603,162.421)">
                <path d="M0.374,-0.535C0.417,-0.535 0.455,-0.527 0.488,-0.51C0.521,-0.494 0.547,-0.468 0.566,-0.434C0.585,-0.4 0.594,-0.357 0.594,-0.305L0.594,-0L0.498,-0L0.498,-0.294C0.498,-0.346 0.486,-0.384 0.461,-0.41C0.436,-0.436 0.4,-0.449 0.355,-0.449C0.321,-0.449 0.292,-0.443 0.266,-0.429C0.241,-0.416 0.222,-0.396 0.208,-0.37C0.194,-0.344 0.187,-0.312 0.187,-0.273L0.187,-0L0.091,-0L0.091,-0.53L0.183,-0.53L0.183,-0.387L0.168,-0.425C0.185,-0.46 0.212,-0.487 0.248,-0.506C0.284,-0.526 0.326,-0.535 0.374,-0.535Z" style="fill:rgb(35,31,32);fill-rule:nonzero;"/>
            </g>
            <g transform="matrix(37.5,0,0,37.5,295.792,162.421)">
                <path d="M0.04,-0L0.04,-0.062L0.38,-0.484L0.399,-0.451L0.046,-0.451L0.046,-0.53L0.476,-0.53L0.476,-0.467L0.136,-0.046L0.114,-0.079L0.484,-0.079L0.484,-0L0.04,-0Z" style="fill:rgb(35,31,32);fill-rule:nonzero;"/>
            </g>
            <g transform="matrix(37.5,0,0,37.5,318.676,162.421)">
                <path d="M0.318,0.006C0.265,0.006 0.218,-0.006 0.176,-0.029C0.135,-0.052 0.102,-0.084 0.078,-0.125C0.054,-0.166 0.042,-0.213 0.042,-0.265C0.042,-0.318 0.054,-0.365 0.078,-0.405C0.102,-0.446 0.135,-0.477 0.176,-0.5C0.217,-0.524 0.265,-0.535 0.318,-0.535C0.371,-0.535 0.418,-0.524 0.46,-0.501C0.501,-0.477 0.534,-0.446 0.558,-0.405C0.581,-0.365 0.593,-0.318 0.593,-0.265C0.593,-0.213 0.581,-0.166 0.558,-0.125C0.534,-0.084 0.501,-0.052 0.46,-0.029C0.418,-0.006 0.37,0.006 0.318,0.006ZM0.318,-0.079C0.352,-0.079 0.383,-0.086 0.41,-0.101C0.436,-0.117 0.458,-0.139 0.473,-0.167C0.489,-0.195 0.496,-0.228 0.496,-0.265C0.496,-0.303 0.489,-0.336 0.473,-0.364C0.458,-0.391 0.436,-0.413 0.41,-0.428C0.383,-0.444 0.352,-0.451 0.318,-0.451C0.284,-0.451 0.253,-0.444 0.227,-0.428C0.2,-0.413 0.179,-0.391 0.163,-0.364C0.147,-0.336 0.139,-0.303 0.139,-0.265C0.139,-0.228 0.147,-0.195 0.163,-0.167C0.179,-0.139 0.2,-0.117 0.227,-0.101C0.253,-0.086 0.284,-0.079 0.318,-0.079Z" style="fill:rgb(35,31,32);fill-rule:nonzero;"/>
            </g>
            <g transform="matrix(37.5,0,0,37.5,346.165,162.421)">
                <path d="M0.091,-0L0.091,-0.53L0.187,-0.53L0.187,-0L0.091,-0ZM0.139,-0.632C0.12,-0.632 0.105,-0.638 0.093,-0.65C0.08,-0.662 0.074,-0.677 0.074,-0.694C0.074,-0.712 0.08,-0.727 0.093,-0.739C0.105,-0.751 0.12,-0.757 0.139,-0.757C0.158,-0.757 0.173,-0.751 0.186,-0.74C0.198,-0.728 0.204,-0.713 0.204,-0.696C0.204,-0.678 0.198,-0.663 0.186,-0.651C0.174,-0.638 0.158,-0.632 0.139,-0.632Z" style="fill:rgb(35,31,32);fill-rule:nonzero;"/>
            </g>
            <g transform="matrix(37.5,0,0,37.5,360.28,162.421)">
                <path d="M0.516,0.202C0.447,0.202 0.384,0.191 0.326,0.168C0.269,0.146 0.219,0.114 0.178,0.073C0.136,0.032 0.104,-0.016 0.082,-0.072C0.059,-0.127 0.048,-0.188 0.048,-0.254C0.048,-0.32 0.059,-0.381 0.082,-0.436C0.105,-0.492 0.137,-0.539 0.179,-0.58C0.22,-0.62 0.27,-0.652 0.328,-0.674C0.386,-0.696 0.45,-0.707 0.52,-0.707C0.589,-0.707 0.651,-0.697 0.708,-0.675C0.765,-0.654 0.814,-0.624 0.855,-0.585C0.897,-0.546 0.929,-0.499 0.952,-0.446C0.974,-0.392 0.986,-0.333 0.986,-0.268C0.986,-0.212 0.979,-0.163 0.965,-0.122C0.951,-0.081 0.931,-0.05 0.904,-0.028C0.878,-0.005 0.846,0.006 0.808,0.006C0.77,0.006 0.74,-0.006 0.718,-0.028C0.696,-0.051 0.685,-0.083 0.685,-0.125L0.685,-0.193L0.69,-0.254L0.681,-0.369L0.681,-0.502L0.768,-0.502L0.768,-0.142C0.768,-0.115 0.773,-0.097 0.785,-0.086C0.796,-0.075 0.809,-0.07 0.825,-0.07C0.845,-0.07 0.862,-0.078 0.876,-0.093C0.89,-0.108 0.9,-0.131 0.908,-0.16C0.915,-0.19 0.918,-0.225 0.918,-0.267C0.918,-0.323 0.909,-0.374 0.89,-0.419C0.871,-0.465 0.843,-0.505 0.808,-0.538C0.772,-0.571 0.73,-0.597 0.682,-0.614C0.633,-0.632 0.579,-0.641 0.52,-0.641C0.461,-0.641 0.407,-0.631 0.357,-0.612C0.308,-0.593 0.266,-0.567 0.231,-0.532C0.196,-0.498 0.169,-0.457 0.15,-0.41C0.131,-0.363 0.121,-0.311 0.121,-0.254C0.121,-0.197 0.131,-0.144 0.149,-0.097C0.168,-0.049 0.195,-0.008 0.23,0.026C0.264,0.06 0.306,0.087 0.354,0.106C0.403,0.125 0.457,0.135 0.516,0.135C0.547,0.135 0.579,0.131 0.613,0.124C0.647,0.117 0.679,0.106 0.709,0.091L0.731,0.155C0.701,0.171 0.666,0.182 0.627,0.19C0.588,0.198 0.551,0.202 0.516,0.202ZM0.498,0.006C0.451,0.006 0.409,-0.005 0.372,-0.028C0.335,-0.05 0.306,-0.08 0.285,-0.119C0.264,-0.158 0.253,-0.202 0.253,-0.251C0.253,-0.301 0.264,-0.345 0.285,-0.384C0.306,-0.422 0.335,-0.452 0.372,-0.474C0.409,-0.496 0.451,-0.506 0.498,-0.506C0.544,-0.506 0.584,-0.497 0.619,-0.477C0.654,-0.457 0.681,-0.428 0.701,-0.39C0.72,-0.352 0.73,-0.306 0.73,-0.251C0.73,-0.197 0.721,-0.15 0.701,-0.112C0.682,-0.074 0.655,-0.045 0.62,-0.025C0.586,-0.005 0.545,0.006 0.498,0.006ZM0.512,-0.072C0.545,-0.072 0.574,-0.079 0.6,-0.093C0.625,-0.108 0.646,-0.129 0.66,-0.156C0.675,-0.183 0.683,-0.215 0.683,-0.251C0.683,-0.289 0.675,-0.321 0.66,-0.347C0.646,-0.374 0.625,-0.394 0.6,-0.408C0.574,-0.422 0.545,-0.429 0.512,-0.429C0.479,-0.429 0.449,-0.422 0.423,-0.408C0.398,-0.393 0.378,-0.373 0.363,-0.346C0.349,-0.319 0.342,-0.288 0.342,-0.251C0.342,-0.215 0.349,-0.184 0.363,-0.157C0.378,-0.13 0.398,-0.109 0.423,-0.094C0.449,-0.079 0.479,-0.072 0.512,-0.072Z" style="fill:rgb(35,31,32);fill-rule:nonzero;"/>
            </g>
            <g transform="matrix(37.5,0,0,37.5,402.706,162.421)">
                <path d="M0.374,-0.535C0.417,-0.535 0.455,-0.527 0.488,-0.51C0.521,-0.494 0.547,-0.468 0.566,-0.434C0.585,-0.4 0.594,-0.357 0.594,-0.305L0.594,-0L0.498,-0L0.498,-0.294C0.498,-0.346 0.486,-0.384 0.461,-0.41C0.436,-0.436 0.4,-0.449 0.355,-0.449C0.321,-0.449 0.292,-0.443 0.266,-0.429C0.241,-0.416 0.222,-0.396 0.208,-0.37C0.194,-0.344 0.187,-0.312 0.187,-0.273L0.187,-0L0.091,-0L0.091,-0.742L0.187,-0.742L0.187,-0.387L0.168,-0.425C0.185,-0.46 0.212,-0.487 0.248,-0.506C0.284,-0.526 0.326,-0.535 0.374,-0.535Z" style="fill:rgb(35,31,32);fill-rule:nonzero;"/>
            </g>
            <g transform="matrix(37.5,0,0,37.5,431.895,162.421)">
                <path d="M0.318,0.006C0.265,0.006 0.218,-0.006 0.176,-0.029C0.135,-0.052 0.102,-0.084 0.078,-0.125C0.054,-0.166 0.042,-0.213 0.042,-0.265C0.042,-0.318 0.054,-0.365 0.078,-0.405C0.102,-0.446 0.135,-0.477 0.176,-0.5C0.217,-0.524 0.265,-0.535 0.318,-0.535C0.371,-0.535 0.418,-0.524 0.46,-0.501C0.501,-0.477 0.534,-0.446 0.558,-0.405C0.581,-0.365 0.593,-0.318 0.593,-0.265C0.593,-0.213 0.581,-0.166 0.558,-0.125C0.534,-0.084 0.501,-0.052 0.46,-0.029C0.418,-0.006 0.37,0.006 0.318,0.006ZM0.318,-0.079C0.352,-0.079 0.383,-0.086 0.41,-0.101C0.436,-0.117 0.458,-0.139 0.473,-0.167C0.489,-0.195 0.496,-0.228 0.496,-0.265C0.496,-0.303 0.489,-0.336 0.473,-0.364C0.458,-0.391 0.436,-0.413 0.41,-0.428C0.383,-0.444 0.352,-0.451 0.318,-0.451C0.284,-0.451 0.253,-0.444 0.227,-0.428C0.2,-0.413 0.179,-0.391 0.163,-0.364C0.147,-0.336 0.139,-0.303 0.139,-0.265C0.139,-0.228 0.147,-0.195 0.163,-0.167C0.179,-0.139 0.2,-0.117 0.227,-0.101C0.253,-0.086 0.284,-0.079 0.318,-0.079Z" style="fill:rgb(35,31,32);fill-rule:nonzero;"/>
            </g>
            <g transform="matrix(37.5,0,0,37.5,459.383,162.421)">
                <path d="M0.273,0.006C0.22,0.006 0.178,-0.009 0.149,-0.037C0.12,-0.065 0.105,-0.107 0.105,-0.16L0.105,-0.646L0.201,-0.646L0.201,-0.164C0.201,-0.135 0.208,-0.114 0.223,-0.098C0.237,-0.083 0.258,-0.075 0.284,-0.075C0.314,-0.075 0.339,-0.083 0.359,-0.1L0.389,-0.031C0.374,-0.019 0.357,-0.009 0.336,-0.003C0.316,0.003 0.295,0.006 0.273,0.006ZM0.015,-0.451L0.015,-0.53L0.353,-0.53L0.353,-0.451L0.015,-0.451Z" style="fill:rgb(35,31,32);fill-rule:nonzero;"/>
            </g>
            <g transform="matrix(37.5,0,0,37.5,478.579,162.421)">
                <path d="M0.754,-0.535C0.797,-0.535 0.835,-0.527 0.867,-0.51C0.9,-0.494 0.925,-0.468 0.943,-0.434C0.962,-0.4 0.971,-0.357 0.971,-0.305L0.971,-0L0.875,-0L0.875,-0.294C0.875,-0.346 0.863,-0.384 0.839,-0.41C0.815,-0.436 0.782,-0.449 0.738,-0.449C0.706,-0.449 0.678,-0.443 0.654,-0.429C0.63,-0.416 0.612,-0.396 0.599,-0.37C0.586,-0.344 0.579,-0.312 0.579,-0.273L0.579,-0L0.483,-0L0.483,-0.294C0.483,-0.346 0.471,-0.384 0.447,-0.41C0.424,-0.436 0.39,-0.449 0.346,-0.449C0.315,-0.449 0.287,-0.443 0.263,-0.429C0.239,-0.416 0.22,-0.396 0.207,-0.37C0.194,-0.344 0.187,-0.312 0.187,-0.273L0.187,-0L0.091,-0L0.091,-0.53L0.183,-0.53L0.183,-0.389L0.168,-0.425C0.185,-0.46 0.21,-0.487 0.245,-0.506C0.28,-0.526 0.32,-0.535 0.366,-0.535C0.417,-0.535 0.46,-0.523 0.497,-0.498C0.534,-0.473 0.558,-0.435 0.569,-0.384L0.53,-0.4C0.546,-0.44 0.574,-0.473 0.614,-0.498C0.654,-0.523 0.7,-0.535 0.754,-0.535Z" style="fill:rgb(35,31,32);fill-rule:nonzero;"/>
            </g>
            <g transform="matrix(37.5,0,0,37.5,521.88,162.421)">
                <path d="M0.42,-0L0.42,-0.112L0.415,-0.133L0.415,-0.324C0.415,-0.365 0.404,-0.396 0.38,-0.419C0.356,-0.441 0.321,-0.452 0.273,-0.452C0.241,-0.452 0.211,-0.447 0.181,-0.437C0.151,-0.426 0.126,-0.413 0.105,-0.395L0.065,-0.467C0.092,-0.489 0.125,-0.506 0.164,-0.518C0.202,-0.529 0.242,-0.535 0.284,-0.535C0.357,-0.535 0.413,-0.517 0.452,-0.482C0.492,-0.447 0.511,-0.392 0.511,-0.32L0.511,-0L0.42,-0ZM0.246,0.006C0.207,0.006 0.172,-0.001 0.142,-0.014C0.113,-0.027 0.09,-0.046 0.074,-0.069C0.058,-0.093 0.05,-0.12 0.05,-0.15C0.05,-0.179 0.057,-0.205 0.07,-0.228C0.084,-0.251 0.106,-0.27 0.137,-0.284C0.169,-0.298 0.21,-0.305 0.263,-0.305L0.431,-0.305L0.431,-0.236L0.267,-0.236C0.219,-0.236 0.187,-0.228 0.17,-0.212C0.153,-0.196 0.145,-0.177 0.145,-0.154C0.145,-0.128 0.155,-0.107 0.176,-0.091C0.197,-0.076 0.226,-0.068 0.262,-0.068C0.298,-0.068 0.33,-0.076 0.357,-0.092C0.384,-0.108 0.403,-0.132 0.415,-0.162L0.434,-0.096C0.421,-0.064 0.399,-0.04 0.367,-0.021C0.335,-0.003 0.295,0.006 0.246,0.006Z" style="fill:rgb(35,31,32);fill-rule:nonzero;"/>
            </g>
            <g transform="matrix(37.5,0,0,37.5,547.956,162.421)">
                <path d="M0.091,-0L0.091,-0.53L0.187,-0.53L0.187,-0L0.091,-0ZM0.139,-0.632C0.12,-0.632 0.105,-0.638 0.093,-0.65C0.08,-0.662 0.074,-0.677 0.074,-0.694C0.074,-0.712 0.08,-0.727 0.093,-0.739C0.105,-0.751 0.12,-0.757 0.139,-0.757C0.158,-0.757 0.173,-0.751 0.186,-0.74C0.198,-0.728 0.204,-0.713 0.204,-0.696C0.204,-0.678 0.198,-0.663 0.186,-0.651C0.174,-0.638 0.158,-0.632 0.139,-0.632Z" style="fill:rgb(35,31,32);fill-rule:nonzero;"/>
            </g>
            <g transform="matrix(37.5,0,0,37.5,562.071,162.421)">
                <rect x="0.091" y="-0.742" width="0.096" height="0.742" style="fill:rgb(35,31,32);fill-rule:nonzero;"/>
            </g>
            <g transform="matrix(37.5,0,0,37.5,576.186,162.421)">
                <path d="M0.114,0.006C0.095,0.006 0.079,-0.001 0.066,-0.014C0.053,-0.027 0.046,-0.043 0.046,-0.063C0.046,-0.083 0.053,-0.099 0.066,-0.112C0.079,-0.125 0.095,-0.131 0.114,-0.131C0.132,-0.131 0.147,-0.125 0.161,-0.112C0.174,-0.099 0.18,-0.083 0.18,-0.063C0.18,-0.043 0.174,-0.027 0.161,-0.014C0.147,-0.001 0.132,0.006 0.114,0.006Z" style="fill:rgb(35,31,32);fill-rule:nonzero;"/>
            </g>
            <g transform="matrix(37.5,0,0,37.5,588.353,162.421)">
                <path d="M0.091,-0L0.091,-0.53L0.187,-0.53L0.187,-0L0.091,-0ZM0.139,-0.632C0.12,-0.632 0.105,-0.638 0.093,-0.65C0.08,-0.662 0.074,-0.677 0.074,-0.694C0.074,-0.712 0.08,-0.727 0.093,-0.739C0.105,-0.751 0.12,-0.757 0.139,-0.757C0.158,-0.757 0.173,-0.751 0.186,-0.74C0.198,-0.728 0.204,-0.713 0.204,-0.696C0.204,-0.678 0.198,-0.663 0.186,-0.651C0.174,-0.638 0.158,-0.632 0.139,-0.632Z" style="fill:rgb(35,31,32);fill-rule:nonzero;"/>
            </g>
            <g transform="matrix(37.5,0,0,37.5,602.468,162.421)">
                <path d="M0.273,0.006C0.22,0.006 0.178,-0.009 0.149,-0.037C0.12,-0.065 0.105,-0.107 0.105,-0.16L0.105,-0.646L0.201,-0.646L0.201,-0.164C0.201,-0.135 0.208,-0.114 0.223,-0.098C0.237,-0.083 0.258,-0.075 0.284,-0.075C0.314,-0.075 0.339,-0.083 0.359,-0.1L0.389,-0.031C0.374,-0.019 0.357,-0.009 0.336,-0.003C0.316,0.003 0.295,0.006 0.273,0.006ZM0.015,-0.451L0.015,-0.53L0.353,-0.53L0.353,-0.451L0.015,-0.451Z" style="fill:rgb(35,31,32);fill-rule:nonzero;"/>
            </g>
            <g transform="matrix(37.5,0,0,37.5,618,162.421)">
            </g>
        </g>
        <g transform="matrix(1,0,0,1,292.935,380.224)">
            <g transform="matrix(37.5,0,0,37.5,92.5059,147.896)">
                <path d="M0.262,0.008C0.213,0.008 0.165,0 0.118,-0.015C0.072,-0.03 0.034,-0.051 0.005,-0.077L0.051,-0.156C0.074,-0.134 0.105,-0.116 0.142,-0.102C0.179,-0.088 0.219,-0.081 0.262,-0.081C0.314,-0.081 0.355,-0.092 0.384,-0.115C0.412,-0.137 0.427,-0.167 0.427,-0.205C0.427,-0.242 0.413,-0.271 0.386,-0.293C0.358,-0.316 0.314,-0.327 0.254,-0.327L0.198,-0.327L0.198,-0.397L0.406,-0.653L0.42,-0.613L0.037,-0.613L0.037,-0.7L0.499,-0.7L0.499,-0.632L0.292,-0.377L0.24,-0.408L0.273,-0.408C0.358,-0.408 0.421,-0.389 0.464,-0.351C0.506,-0.313 0.527,-0.265 0.527,-0.206C0.527,-0.166 0.517,-0.13 0.498,-0.098C0.479,-0.066 0.45,-0.04 0.41,-0.021C0.371,-0.002 0.322,0.008 0.262,0.008Z" style="fill:rgb(35,31,32);fill-rule:nonzero;"/>
            </g>
            <g transform="matrix(37.5,0,0,37.5,117.713,147.896)">
                <path d="M0.038,-0.172L0.038,-0.242L0.396,-0.7L0.504,-0.7L0.149,-0.242L0.098,-0.258L0.657,-0.258L0.657,-0.172L0.038,-0.172ZM0.427,-0L0.427,-0.172L0.43,-0.258L0.43,-0.41L0.524,-0.41L0.524,-0L0.427,-0Z" style="fill:rgb(35,31,32);fill-rule:nonzero;"/>
            </g>
            <g transform="matrix(37.5,0,0,37.5,144.79,147.896)">
                <path d="M0.169,-0L0.466,-0.658L0.492,-0.613L0.076,-0.613L0.126,-0.662L0.126,-0.488L0.03,-0.488L0.03,-0.7L0.558,-0.7L0.558,-0.632L0.275,-0L0.169,-0Z" style="fill:rgb(35,31,32);fill-rule:nonzero;"/>
            </g>
            <g transform="matrix(37.5,0,0,37.5,170.948,147.896)">
            </g>
            <g transform="matrix(37.5,0,0,37.5,184.798,147.896)">
                <path d="M0.262,0.008C0.213,0.008 0.165,0 0.118,-0.015C0.072,-0.03 0.034,-0.051 0.005,-0.077L0.051,-0.156C0.074,-0.134 0.105,-0.116 0.142,-0.102C0.179,-0.088 0.219,-0.081 0.262,-0.081C0.314,-0.081 0.355,-0.092 0.384,-0.115C0.412,-0.137 0.427,-0.167 0.427,-0.205C0.427,-0.242 0.413,-0.271 0.386,-0.293C0.358,-0.316 0.314,-0.327 0.254,-0.327L0.198,-0.327L0.198,-0.397L0.406,-0.653L0.42,-0.613L0.037,-0.613L0.037,-0.7L0.499,-0.7L0.499,-0.632L0.292,-0.377L0.24,-0.408L0.273,-0.408C0.358,-0.408 0.421,-0.389 0.464,-0.351C0.506,-0.313 0.527,-0.265 0.527,-0.206C0.527,-0.166 0.517,-0.13 0.498,-0.098C0.479,-0.066 0.45,-0.04 0.41,-0.021C0.371,-0.002 0.322,0.008 0.262,0.008Z" style="fill:rgb(35,31,32);fill-rule:nonzero;"/>
            </g>
            <g transform="matrix(37.5,0,0,37.5,210.005,147.896)">
                <path d="M0.334,0.008C0.279,0.008 0.23,-0.006 0.187,-0.034C0.144,-0.062 0.11,-0.103 0.085,-0.156C0.06,-0.21 0.048,-0.274 0.048,-0.35C0.048,-0.426 0.06,-0.49 0.085,-0.544C0.11,-0.597 0.144,-0.638 0.187,-0.666C0.23,-0.694 0.279,-0.708 0.334,-0.708C0.388,-0.708 0.437,-0.694 0.48,-0.666C0.523,-0.638 0.557,-0.597 0.582,-0.544C0.607,-0.49 0.619,-0.426 0.619,-0.35C0.619,-0.274 0.607,-0.21 0.582,-0.156C0.557,-0.103 0.523,-0.062 0.48,-0.034C0.437,-0.006 0.388,0.008 0.334,0.008ZM0.334,-0.081C0.371,-0.081 0.403,-0.091 0.431,-0.111C0.458,-0.131 0.48,-0.161 0.496,-0.201C0.511,-0.241 0.519,-0.29 0.519,-0.35C0.519,-0.41 0.511,-0.459 0.496,-0.499C0.48,-0.539 0.458,-0.569 0.431,-0.589C0.403,-0.609 0.371,-0.619 0.334,-0.619C0.297,-0.619 0.265,-0.609 0.237,-0.589C0.209,-0.569 0.187,-0.539 0.172,-0.499C0.156,-0.459 0.148,-0.41 0.148,-0.35C0.148,-0.29 0.156,-0.241 0.172,-0.201C0.187,-0.161 0.209,-0.131 0.237,-0.111C0.265,-0.091 0.297,-0.081 0.334,-0.081Z" style="fill:rgb(35,31,32);fill-rule:nonzero;"/>
            </g>
            <g transform="matrix(37.5,0,0,37.5,238.389,147.896)">
                <path d="M0.262,0.008C0.213,0.008 0.165,0 0.118,-0.015C0.072,-0.03 0.034,-0.051 0.005,-0.077L0.051,-0.156C0.074,-0.134 0.105,-0.116 0.142,-0.102C0.179,-0.088 0.219,-0.081 0.262,-0.081C0.314,-0.081 0.355,-0.092 0.384,-0.115C0.412,-0.137 0.427,-0.167 0.427,-0.205C0.427,-0.242 0.413,-0.271 0.386,-0.293C0.358,-0.316 0.314,-0.327 0.254,-0.327L0.198,-0.327L0.198,-0.397L0.406,-0.653L0.42,-0.613L0.037,-0.613L0.037,-0.7L0.499,-0.7L0.499,-0.632L0.292,-0.377L0.24,-0.408L0.273,-0.408C0.358,-0.408 0.421,-0.389 0.464,-0.351C0.506,-0.313 0.527,-0.265 0.527,-0.206C0.527,-0.166 0.517,-0.13 0.498,-0.098C0.479,-0.066 0.45,-0.04 0.41,-0.021C0.371,-0.002 0.322,0.008 0.262,0.008Z" style="fill:rgb(35,31,32);fill-rule:nonzero;"/>
            </g>
            <g transform="matrix(37.5,0,0,37.5,263.596,147.896)">
                <path d="M0.321,0.008C0.264,0.008 0.215,-0 0.174,-0.017C0.132,-0.034 0.1,-0.058 0.078,-0.089C0.055,-0.119 0.044,-0.156 0.044,-0.198C0.044,-0.24 0.055,-0.275 0.077,-0.303C0.098,-0.332 0.13,-0.354 0.171,-0.369C0.213,-0.385 0.263,-0.392 0.321,-0.392C0.38,-0.392 0.43,-0.385 0.471,-0.369C0.513,-0.354 0.545,-0.332 0.567,-0.303C0.589,-0.274 0.6,-0.239 0.6,-0.198C0.6,-0.156 0.589,-0.119 0.566,-0.089C0.543,-0.058 0.511,-0.034 0.469,-0.017C0.427,-0 0.378,0.008 0.321,0.008ZM0.321,-0.073C0.377,-0.073 0.42,-0.085 0.452,-0.108C0.484,-0.13 0.5,-0.161 0.5,-0.201C0.5,-0.239 0.484,-0.27 0.452,-0.293C0.42,-0.315 0.377,-0.326 0.321,-0.326C0.266,-0.326 0.222,-0.315 0.191,-0.293C0.16,-0.27 0.144,-0.239 0.144,-0.201C0.144,-0.161 0.16,-0.13 0.191,-0.108C0.222,-0.085 0.266,-0.073 0.321,-0.073ZM0.321,-0.338C0.268,-0.338 0.223,-0.345 0.185,-0.359C0.148,-0.373 0.119,-0.394 0.099,-0.421C0.079,-0.448 0.069,-0.48 0.069,-0.518C0.069,-0.557 0.08,-0.591 0.1,-0.619C0.121,-0.648 0.151,-0.67 0.189,-0.685C0.227,-0.7 0.271,-0.708 0.321,-0.708C0.372,-0.708 0.416,-0.7 0.454,-0.685C0.492,-0.67 0.522,-0.648 0.543,-0.619C0.565,-0.591 0.575,-0.557 0.575,-0.518C0.575,-0.48 0.565,-0.448 0.545,-0.421C0.525,-0.394 0.496,-0.373 0.458,-0.359C0.42,-0.345 0.374,-0.338 0.321,-0.338ZM0.321,-0.402C0.37,-0.402 0.408,-0.412 0.435,-0.432C0.463,-0.452 0.477,-0.479 0.477,-0.514C0.477,-0.549 0.462,-0.577 0.434,-0.597C0.406,-0.617 0.368,-0.627 0.321,-0.627C0.274,-0.627 0.237,-0.617 0.209,-0.597C0.181,-0.577 0.168,-0.549 0.168,-0.514C0.168,-0.48 0.181,-0.452 0.208,-0.432C0.235,-0.412 0.273,-0.402 0.321,-0.402Z" style="fill:rgb(35,31,32);fill-rule:nonzero;"/>
            </g>
            <g transform="matrix(37.5,0,0,37.5,291.495,147.896)">
                <path d="M0.038,-0.172L0.038,-0.242L0.396,-0.7L0.504,-0.7L0.149,-0.242L0.098,-0.258L0.657,-0.258L0.657,-0.172L0.038,-0.172ZM0.427,-0L0.427,-0.172L0.43,-0.258L0.43,-0.41L0.524,-0.41L0.524,-0L0.427,-0Z" style="fill:rgb(35,31,32);fill-rule:nonzero;"/>
            </g>
            <g transform="matrix(37.5,0,0,37.5,320.334,147.896)">
                <path d="M0.334,0.008C0.279,0.008 0.23,-0.006 0.187,-0.034C0.144,-0.062 0.11,-0.103 0.085,-0.156C0.06,-0.21 0.048,-0.274 0.048,-0.35C0.048,-0.426 0.06,-0.49 0.085,-0.544C0.11,-0.597 0.144,-0.638 0.187,-0.666C0.23,-0.694 0.279,-0.708 0.334,-0.708C0.388,-0.708 0.437,-0.694 0.48,-0.666C0.523,-0.638 0.557,-0.597 0.582,-0.544C0.607,-0.49 0.619,-0.426 0.619,-0.35C0.619,-0.274 0.607,-0.21 0.582,-0.156C0.557,-0.103 0.523,-0.062 0.48,-0.034C0.437,-0.006 0.388,0.008 0.334,0.008ZM0.334,-0.081C0.371,-0.081 0.403,-0.091 0.431,-0.111C0.458,-0.131 0.48,-0.161 0.496,-0.201C0.511,-0.241 0.519,-0.29 0.519,-0.35C0.519,-0.41 0.511,-0.459 0.496,-0.499C0.48,-0.539 0.458,-0.569 0.431,-0.589C0.403,-0.609 0.371,-0.619 0.334,-0.619C0.297,-0.619 0.265,-0.609 0.237,-0.589C0.209,-0.569 0.187,-0.539 0.172,-0.499C0.156,-0.459 0.148,-0.41 0.148,-0.35C0.148,-0.29 0.156,-0.241 0.172,-0.201C0.187,-0.161 0.209,-0.131 0.237,-0.111C0.265,-0.091 0.297,-0.081 0.334,-0.081Z" style="fill:rgb(35,31,32);fill-rule:nonzero;"/>
            </g>
            <g transform="matrix(37.5,0,0,37.5,349.093,147.896)">
                <path d="M0.342,0.008C0.28,0.008 0.227,-0.006 0.183,-0.033C0.139,-0.06 0.105,-0.1 0.082,-0.152C0.059,-0.203 0.048,-0.266 0.048,-0.341C0.048,-0.421 0.062,-0.488 0.09,-0.542C0.118,-0.597 0.157,-0.638 0.207,-0.666C0.257,-0.694 0.314,-0.708 0.379,-0.708C0.412,-0.708 0.444,-0.705 0.474,-0.698C0.505,-0.691 0.531,-0.681 0.553,-0.667L0.515,-0.589C0.497,-0.601 0.476,-0.61 0.453,-0.615C0.431,-0.62 0.406,-0.622 0.381,-0.622C0.31,-0.622 0.253,-0.6 0.211,-0.556C0.169,-0.511 0.148,-0.445 0.148,-0.358C0.148,-0.344 0.149,-0.327 0.15,-0.308C0.151,-0.289 0.154,-0.27 0.16,-0.251L0.126,-0.285C0.136,-0.316 0.152,-0.342 0.173,-0.363C0.195,-0.384 0.221,-0.399 0.251,-0.41C0.282,-0.42 0.315,-0.425 0.35,-0.425C0.397,-0.425 0.438,-0.417 0.474,-0.399C0.51,-0.382 0.538,-0.357 0.559,-0.325C0.579,-0.293 0.59,-0.256 0.59,-0.213C0.59,-0.168 0.579,-0.129 0.557,-0.096C0.535,-0.063 0.506,-0.037 0.468,-0.019C0.431,-0.001 0.389,0.008 0.342,0.008ZM0.338,-0.073C0.368,-0.073 0.395,-0.079 0.419,-0.09C0.442,-0.101 0.46,-0.117 0.473,-0.137C0.486,-0.158 0.493,-0.182 0.493,-0.209C0.493,-0.25 0.478,-0.283 0.45,-0.307C0.421,-0.332 0.382,-0.344 0.333,-0.344C0.301,-0.344 0.273,-0.338 0.249,-0.326C0.225,-0.314 0.206,-0.298 0.192,-0.278C0.179,-0.257 0.172,-0.234 0.172,-0.208C0.172,-0.184 0.178,-0.162 0.191,-0.141C0.203,-0.121 0.222,-0.104 0.247,-0.092C0.272,-0.08 0.302,-0.073 0.338,-0.073Z" style="fill:rgb(35,31,32);fill-rule:nonzero;"/>
            </g>
            <g transform="matrix(37.5,0,0,37.5,372.243,147.896)">
            </g>
        </g>
        <g transform="matrix(-1212.94,719.949,1163.99,1961.05,-1764.13,-6388.19)">
            <path d="M1.036,2.964C1.046,2.967 1.055,2.972 1.061,2.979C1.069,2.987 1.072,2.997 1.069,3.006C1.051,3.026 1.018,3.023 1.004,3.013L1.04,3L1.02,2.979L0.987,2.975C0.987,2.975 0.953,2.97 0.948,2.99C0.948,2.99 0.948,2.991 0.948,2.992C0.949,2.978 0.952,2.939 0.952,2.939C0.952,2.939 1.035,2.964 1.036,2.964Z" style="fill:url(#_Linear1);fill-rule:nonzero;"/>
        </g>
        <g transform="matrix(-1212.94,719.949,1163.99,1961.05,-1764.1,-6388.13)">
            <path d="M0.952,2.939C0.955,2.94 1.035,2.964 1.036,2.964C1.046,2.967 1.055,2.972 1.061,2.979C1.069,2.987 1.072,2.997 1.069,3.006C1.051,3.026 1.018,3.023 1.004,3.013L1.04,3L1.02,2.979L0.987,2.975C0.987,2.975 0.953,2.97 0.948,2.99C0.948,2.99 0.948,2.991 0.948,2.992C0.949,2.979 0.952,2.941 0.952,2.939L0.952,2.939Z" style="fill:url(#_Linear2);fill-rule:nonzero;"/>
        </g>
        <g transform="matrix(-1212.94,719.949,1163.99,1961.05,-1700.09,-6280.3)">
            <path d="M0.985,2.925L0.976,2.94L0.996,2.961C1.007,2.972 1.053,2.977 1.069,2.951C1.065,2.961 1.055,2.97 1.04,2.975C1.011,2.986 0.973,2.98 0.956,2.962C0.95,2.956 0.947,2.948 0.948,2.941C0.948,2.941 0.948,2.94 0.948,2.937C0.948,2.937 0.948,2.937 0.948,2.937C0.948,2.936 0.948,2.935 0.948,2.935C0.952,2.931 0.956,2.929 0.96,2.927C0.969,2.924 0.978,2.924 0.985,2.925Z" style="fill:url(#_Linear3);fill-rule:nonzero;"/>
        </g>
        <g transform="matrix(-92.8071,-1944.24,-1760.27,84.0254,-1990.95,6382.18)">
            <path d="M3.135,-1.604C3.136,-1.596 3.132,-1.59 3.13,-1.586L3.117,-1.601L3.088,-1.599C3.074,-1.599 3.053,-1.569 3.074,-1.542C3.065,-1.551 3.059,-1.563 3.058,-1.577C3.057,-1.604 3.076,-1.627 3.1,-1.629C3.109,-1.629 3.118,-1.627 3.125,-1.622C3.125,-1.622 3.127,-1.621 3.129,-1.619C3.13,-1.619 3.13,-1.619 3.13,-1.619C3.13,-1.618 3.131,-1.618 3.132,-1.617C3.134,-1.613 3.135,-1.608 3.135,-1.604C3.135,-1.604 3.135,-1.604 3.135,-1.604Z" style="fill:url(#_Linear4);fill-rule:nonzero;"/>
        </g>
        <g transform="matrix(-1212.94,719.949,1163.99,1961.05,-1680.01,-6246.46)">
            <path d="M1.004,2.941C1.018,2.951 1.051,2.954 1.069,2.933C1.053,2.959 1.007,2.954 0.996,2.944L1.004,2.941Z" style="fill:url(#_Linear5);fill-rule:nonzero;"/>
        </g>
        <g transform="matrix(2121.34,0,0,-828.924,2941.84,-4704.29)">
            <path d="M-1.139,-5.969C-1.142,-6.004 -1.159,-6.04 -1.18,-6.007C-1.157,-6.055 -1.133,-6.003 -1.133,-5.969L-1.139,-5.969Z" style="fill:url(#_Linear6);fill-rule:nonzero;"/>
        </g>
        <g transform="matrix(1608.03,1359.94,490.263,-1585.75,-2486.71,3570.26)">
            <path d="M0.953,2.97L0.958,2.97C0.962,2.978 0.97,2.992 0.984,2.997C0.978,2.999 0.972,2.996 0.968,2.992C0.958,2.984 0.953,2.97 0.953,2.97Z" style="fill:url(#_Linear7);fill-rule:nonzero;"/>
        </g>
        <g transform="matrix(-908.792,-14.2591,-7.96771,507.817,5322.52,-3934.35)">
            <path d="M5.195,8.172C5.215,8.172 5.232,8.204 5.232,8.204L5.223,8.217C5.213,8.2 5.192,8.177 5.163,8.202C5.173,8.179 5.184,8.171 5.195,8.172C5.195,8.172 5.195,8.172 5.195,8.172Z" style="fill:url(#_Linear8);fill-rule:nonzero;"/>
        </g>
        <g transform="matrix(4.16667,0,0,4.16667,221.149,588.642)">
            <path d="M0,-5.337L-5.569,-5.337C-6.081,-5.337 -6.497,-4.921 -6.497,-4.409L-6.497,-0.928C-6.497,-0.417 -6.081,0 -5.569,0L0,0C0.512,0 0.928,-0.417 0.928,-0.928L0.928,-4.409C0.928,-4.921 0.512,-5.337 0,-5.337M0.464,-0.928C0.464,-0.672 0.256,-0.464 0,-0.464L-5.569,-0.464C-5.825,-0.464 -6.033,-0.672 -6.033,-0.928L-6.033,-4.409C-6.033,-4.665 -5.825,-4.873 -5.569,-4.873L0,-4.873C0.256,-4.873 0.464,-4.665 0.464,-4.409L0.464,-0.928Z" style="fill:rgb(0,106,169);fill-rule:nonzero;"/>
        </g>
        <g transform="matrix(4.16667,0,0,4.16667,220.93,581.397)">
            <path d="M0,-2.353C-0.081,-2.452 -0.227,-2.467 -0.327,-2.386L-2.732,-0.418L-5.137,-2.386C-5.237,-2.467 -5.383,-2.452 -5.464,-2.353C-5.545,-2.254 -5.53,-2.108 -5.431,-2.026L-2.879,0.062C-2.836,0.097 -2.784,0.114 -2.732,0.114C-2.68,0.114 -2.628,0.097 -2.585,0.062L-0.033,-2.026C0.067,-2.108 0.081,-2.254 0,-2.353" style="fill:rgb(0,106,169);fill-rule:nonzero;"/>
        </g>
        <g transform="matrix(4.16667,0,0,4.16667,216.999,584.393)">
            <path d="M0,-1.233C-0.091,-1.324 -0.237,-1.324 -0.328,-1.233C-0.419,-1.142 -0.419,-0.996 -0.328,-0.905L0.6,0.023C0.645,0.069 0.705,0.091 0.764,0.091C0.823,0.091 0.883,0.069 0.928,0.023C1.019,-0.067 1.019,-0.214 0.928,-0.305L0,-1.233Z" style="fill:rgb(0,106,169);fill-rule:nonzero;"/>
        </g>
        <g transform="matrix(4.16667,0,0,4.16667,202.097,584.393)">
            <path d="M0,-1.233L-0.928,-0.305C-1.019,-0.214 -1.019,-0.067 -0.928,0.023C-0.883,0.069 -0.823,0.091 -0.764,0.091C-0.705,0.091 -0.645,0.069 -0.6,0.023L0.328,-0.905C0.419,-0.996 0.419,-1.142 0.328,-1.233C0.237,-1.324 0.091,-1.324 0,-1.233" style="fill:rgb(0,106,169);fill-rule:nonzero;"/>
        </g>
        <g transform="matrix(4.16667,0,0,4.16667,356.189,528.663)">
            <path d="M0,-7.425L-3.248,-7.425C-3.76,-7.425 -4.177,-7.009 -4.177,-6.497L-4.177,-0.928C-4.177,-0.416 -3.76,0 -3.248,0L0,0C0.512,0 0.928,-0.416 0.928,-0.928L0.928,-6.497C0.928,-7.009 0.512,-7.425 0,-7.425M0.464,-0.928C0.464,-0.672 0.256,-0.464 0,-0.464L-3.248,-0.464C-3.504,-0.464 -3.712,-0.672 -3.712,-0.928L-3.712,-6.497C-3.712,-6.753 -3.504,-6.961 -3.248,-6.961L0,-6.961C0.256,-6.961 0.464,-6.753 0.464,-6.497L0.464,-0.928Z" style="fill:rgb(0,106,169);fill-rule:nonzero;"/>
        </g>
        <g transform="matrix(4.16667,0,0,4.16667,356.189,505.46)">
            <path d="M0,-0.464L-3.248,-0.464C-3.377,-0.464 -3.48,-0.36 -3.48,-0.232C-3.48,-0.104 -3.377,0 -3.248,0L0,0C0.128,0 0.232,-0.104 0.232,-0.232C0.232,-0.36 0.128,-0.464 0,-0.464" style="fill:rgb(0,106,169);fill-rule:nonzero;"/>
        </g>
        <g transform="matrix(4.16667,0,0,4.16667,356.189,521.895)">
            <path d="M0,-0.464L-3.248,-0.464C-3.377,-0.464 -3.48,-0.36 -3.48,-0.232C-3.48,-0.104 -3.377,0 -3.248,0L0,0C0.128,0 0.232,-0.104 0.232,-0.232C0.232,-0.36 0.128,-0.464 0,-0.464" style="fill:rgb(0,106,169);fill-rule:nonzero;"/>
        </g>
        <g transform="matrix(4.16667,0,0,4.16667,347.488,500.626)">
            <path d="M0,0.464L0.928,0.464C1.056,0.464 1.16,0.36 1.16,0.232C1.16,0.104 1.056,0 0.928,0L0,0C-0.128,0 -0.232,0.104 -0.232,0.232C-0.232,0.36 -0.128,0.464 0,0.464" style="fill:rgb(0,106,169);fill-rule:nonzero;"/>
        </g>
        <g transform="matrix(-4.16667,0,0,4.16667,349.421,525.763)">
            <path d="M0,-0.696C0.192,-0.696 0.348,-0.54 0.348,-0.348C0.348,-0.156 0.192,0 0,0C-0.192,0 -0.348,-0.156 -0.348,-0.348C-0.348,-0.54 -0.192,-0.696 0,-0.696" style="fill:rgb(0,106,169);fill-rule:nonzero;"/>
        </g>
    </g>
    <defs>
        <linearGradient id="_Linear1" x1="0" y1="0" x2="1" y2="0" gradientUnits="userSpaceOnUse" gradientTransform="matrix(1,0,0,-1,0,5.96496)"><stop offset="0" style="stop-color:white;stop-opacity:1"/><stop offset="1" style="stop-color:white;stop-opacity:1"/></linearGradient>
        <linearGradient id="_Linear2" x1="0" y1="0" x2="1" y2="0" gradientUnits="userSpaceOnUse" gradientTransform="matrix(1,0,0,-1,0,5.96493)"><stop offset="0" style="stop-color:white;stop-opacity:1"/><stop offset="1" style="stop-color:white;stop-opacity:1"/></linearGradient>
        <linearGradient id="_Linear3" x1="0" y1="0" x2="1" y2="0" gradientUnits="userSpaceOnUse" gradientTransform="matrix(1,0,0,-1,0,5.90994)"><stop offset="0" style="stop-color:white;stop-opacity:1"/><stop offset="1" style="stop-color:white;stop-opacity:1"/></linearGradient>
        <linearGradient id="_Linear4" x1="0" y1="0" x2="1" y2="0" gradientUnits="userSpaceOnUse" gradientTransform="matrix(1,0,0,-1,0,-3.17117)"><stop offset="0" style="stop-color:white;stop-opacity:1"/><stop offset="1" style="stop-color:white;stop-opacity:1"/></linearGradient>
        <linearGradient id="_Linear5" x1="0" y1="0" x2="1" y2="0" gradientUnits="userSpaceOnUse" gradientTransform="matrix(1,0,0,-1,0,5.89269)"><stop offset="0" style="stop-color:white;stop-opacity:1"/><stop offset="1" style="stop-color:white;stop-opacity:1"/></linearGradient>
        <linearGradient id="_Linear6" x1="0" y1="0" x2="1" y2="0" gradientUnits="userSpaceOnUse" gradientTransform="matrix(1,0,0,-1,0,-12.0241)"><stop offset="0" style="stop-color:white;stop-opacity:1"/><stop offset="1" style="stop-color:white;stop-opacity:1"/></linearGradient>
        <linearGradient id="_Linear7" x1="0" y1="0" x2="1" y2="0" gradientUnits="userSpaceOnUse" gradientTransform="matrix(-0.488227,-0.872717,-0.872717,0.488227,4.04413,2.37153)"><stop offset="0" style="stop-color:white;stop-opacity:1"/><stop offset="1" style="stop-color:white;stop-opacity:1"/></linearGradient>
        <linearGradient id="_Linear8" x1="0" y1="0" x2="1" y2="0" gradientUnits="userSpaceOnUse" gradientTransform="matrix(1,3.46945e-18,0,-1,0,16.3889)"><stop offset="0" style="stop-color:white;stop-opacity:1"/><stop offset="1" style="stop-color:white;stop-opacity:1"/></linearGradient>
    </defs>
</svg>
