<?xml version="1.0" encoding="UTF-8" standalone="no"?>
<!DOCTYPE svg PUBLIC "-//W3C//DTD SVG 1.1//EN" "http://www.w3.org/Graphics/SVG/1.1/DTD/svg11.dtd">
<svg width="100%" height="100%" viewBox="0 0 47245 11812" version="1.1" xmlns="http://www.w3.org/2000/svg" xmlns:xlink="http://www.w3.org/1999/xlink" xml:space="preserve" xmlns:serif="http://www.serif.com/" style="fill-rule:evenodd;clip-rule:evenodd;">
    <g transform="matrix(4.16667,0,0,4.16667,0,0.0166667)">
        <rect x="0" y="0" width="11338.6" height="2834.65" style="fill:rgb(165,28,32);"/>
    </g>
    <g transform="matrix(4.16667,0,0,4.16667,35945.8,9834.18)">
        <path d="M0,-39.445L0,-237.46C123.857,-237.46 169.614,-243.771 191.703,-91.513L205.115,-91.513L205.115,-261.127L-133.324,-261.127L-133.324,-237.46L-74.946,-237.46L-74.946,198.804L-139.636,198.804L-139.636,221.682L209.059,221.682L209.059,43.39L191.703,43.39C174.348,178.292 140.425,198.804 44.179,198.804L0,198.804L0,-13.411L26.033,-13.411C69.423,-12.622 93.091,12.622 102.558,86.78L118.336,86.78L118.336,-132.535L102.558,-132.535C102.558,-131.747 99.402,-38.656 24.456,-39.445L0,-39.445Z" style="fill:white;fill-rule:nonzero;"/>
    </g>
    <g transform="matrix(4.16667,0,0,4.16667,35370.6,9791.45)">
        <path d="M0,-20.512L-190.914,-20.512L-190.914,0.789L-125.436,0.789L-125.436,157.78C-136.48,197.226 -194.858,214.582 -213.004,214.582C-334.495,214.582 -325.817,36.29 -325.817,-11.045C-325.817,-54.435 -330.55,-237.46 -213.004,-237.46C-130.169,-237.46 -86.779,-154.626 -69.423,-81.257L-56.012,-81.257C-56.012,-112.025 -55.223,-257.183 -56.012,-256.394L-112.813,-216.16C-111.235,-216.16 -138.847,-254.816 -213.004,-254.816C-356.584,-254.816 -409.441,-111.236 -409.441,-11.045C-408.652,80.467 -366.84,236.671 -213.004,236.671C-164.881,236.671 -130.958,212.214 -112.813,184.603L-52.067,232.726L-52.067,2.366L-0.789,2.366L0,-20.512Z" style="fill:white;fill-rule:nonzero;"/>
    </g>
    <g transform="matrix(4.16667,0,0,4.16667,42316.2,9416.71)">
        <path d="M0,148.315L69.424,-59.956L143.58,148.315L0,148.315ZM-270.595,64.691L-348.695,64.691L-348.695,-137.268L-248.505,-137.268C-190.126,-128.59 -186.97,-60.745 -186.97,-38.655C-186.97,13.413 -209.06,64.691 -270.595,64.691M562.488,143.581C545.132,278.484 511.21,298.207 414.963,298.207L409.44,298.207L409.44,-138.057L470.187,-138.057L470.187,-161.724L269.805,-161.724L269.805,-138.057L330.551,-138.057L330.551,298.207L282.427,298.207L104.135,-174.347L78.102,-174.347L-70.212,255.606C-70.212,254.028 -81.258,292.684 -105.714,297.418C-128.592,298.207 -126.225,286.373 -126.225,282.429L-126.225,200.383C-126.225,178.294 -127.803,129.381 -150.681,106.503C-175.926,81.258 -219.315,78.892 -217.737,78.103C-217.737,78.103 -108.08,55.224 -108.08,-48.911C-108.08,-121.49 -158.569,-157.78 -243.771,-160.935L-484.387,-160.935L-484.387,-137.268L-422.853,-137.268L-422.853,298.995L-484.387,298.995L-484.387,321.873L-287.161,321.873L-287.161,298.995L-348.695,298.995L-348.695,89.147L-266.649,89.147C-123.858,100.98 -291.105,321.873 -104.136,321.873L13.411,321.873L13.411,298.995C7.1,298.995 -36.29,300.573 -38.656,270.595C-40.234,248.505 -10.256,171.193 -10.256,171.193L149.892,171.193L200.381,299.784L144.369,299.784L144.369,322.662L580.633,322.662L580.633,144.37L562.488,143.581Z" style="fill:white;fill-rule:nonzero;"/>
    </g>
    <g transform="matrix(4.16667,0,0,4.16667,39308.5,10659.2)">
        <path d="M0,-435.475C123.857,-435.475 170.402,-441.786 191.703,-288.739L205.114,-288.739L205.114,-458.353L-287.95,-458.353L-287.95,-435.475L-275.328,-435.475C-257.972,-435.475 -216.948,-433.897 -214.582,-397.608L-214.582,-119.914L-444.941,-459.142L-570.377,-459.142L-570.377,-436.264L-549.866,-436.264C-525.41,-436.264 -490.698,-435.475 -489.12,-398.397L-489.12,-41.812C-489.12,-7.1 -541.188,6.311 -563.277,6.311L-563.277,23.667L-393.663,23.667L-393.663,6.311C-415.752,6.311 -467.82,-7.1 -467.82,-41.812L-467.031,-355.796C-375.519,-225.627 -203.537,23.667 -201.959,22.878L-193.281,22.878L-193.281,-397.608C-190.914,-433.897 -149.892,-435.475 -132.536,-435.475L-75.735,-435.475L-75.735,0.788L-140.425,0.788L-140.425,23.666L208.271,23.666L208.271,-154.626L190.915,-154.626C173.559,-19.723 139.636,0.788 43.39,0.788L-0.789,0.788L-0.789,-211.427L25.245,-211.427C68.635,-210.638 92.302,-185.393 101.769,-111.236L117.547,-111.236L117.547,-330.551L101.769,-330.551C101.769,-329.762 98.613,-236.671 23.667,-237.461L0,-237.461L0,-435.475Z" style="fill:white;fill-rule:nonzero;"/>
    </g>
    <g transform="matrix(4.16667,0,0,4.16667,45646,10659.2)">
        <path d="M0,-435.474L0,-459.141L-196.437,-459.141L-196.437,-435.474L-134.902,-435.474L-134.902,0.001L-196.437,0.001L-196.437,23.667L0,23.667L0,0.001L-61.535,0.001L-61.535,-435.474L0,-435.474Z" style="fill:white;fill-rule:nonzero;"/>
    </g>
    <g transform="matrix(4.16667,0,0,4.16667,42723.8,2050.34)">
        <path d="M0,1206.23C5.522,1191.24 17.355,1181.78 33.134,1178.62L192.492,1143.12L178.292,1001.12L177.503,997.961C173.559,979.028 161.725,923.016 87.567,916.705C-197.227,893.826 -262.705,851.226 -332.129,807.047L-332.129,806.258L-332.917,806.258L-337.651,803.102C-411.808,754.979 -485.177,754.979 -492.276,754.979C-572.744,754.979 -674.513,787.325 -683.19,789.691C-707.646,796.791 -730.524,803.892 -753.403,811.78C-842.55,840.181 -919.862,865.425 -1048.45,861.481L-1072.12,860.692L-1078.43,883.571C-1083.16,900.927 -1119.45,1043.72 -1084.74,1136.02C-1116.3,1160.48 -1116.3,1188.88 -1115.51,1192.82C-1113.93,1224.38 -1121.82,1232.27 -1124.19,1234.63C-1139.18,1250.41 -1188.88,1251.99 -1230.69,1251.99L-1246.47,1251.99L-1255.15,1264.61C-1281.18,1300.11 -1336.4,1308 -1371.9,1299.32C-1387.68,1251.99 -1387.68,1215.7 -1372.69,1193.61C-1354.55,1168.37 -1317.47,1165.21 -1301.69,1165.21L-1293.01,1165.21C-1255.15,1165.21 -1224.38,1134.44 -1224.38,1096.57L-1224.38,840.181C-1212.55,822.036 -1203.87,802.314 -1195.19,778.646C-1132.87,768.391 -1084.74,715.534 -1084.74,651.633C-1084.74,627.177 -1091.84,603.51 -1105.26,583.787C-1047.66,556.175 -997.964,499.375 -997.964,424.429C-997.964,350.272 -1035.04,315.56 -1071.33,293.471C-1061.08,265.07 -1044.51,214.58 -1033.46,164.09L-983.763,-14.99C-961.674,-85.203 -903.295,-130.171 -834.66,-130.171L44.967,-130.171C7.889,-78.103 -44.968,-52.858 -118.336,-52.858L-650.846,-52.858L-678.458,6.309L-201.171,6.309C-239.038,66.266 -293.473,93.878 -371.574,93.878L-717.902,93.878L-745.515,153.046L-437.053,153.046C-474.131,210.636 -528.565,237.459 -605.09,237.459L-793.638,237.459L-821.249,296.626L-623.233,296.626C-621.656,298.993 -616.134,308.46 -616.134,332.127C-616.134,369.994 -648.479,401.55 -687.925,401.55C-701.336,401.55 -713.169,398.395 -733.681,390.506C-742.358,386.561 -751.037,383.406 -759.715,379.461L-805.471,420.484C-796.793,424.429 -788.115,427.585 -779.437,431.529C-739.991,448.885 -717.902,457.563 -687.925,457.563C-651.635,457.563 -618.501,442.574 -595.623,418.117C-561.7,420.484 -507.266,424.429 -454.409,429.162C-391.297,434.685 -331.34,439.418 -300.572,440.995C-284.794,441.784 -270.595,442.574 -256.394,443.362C-230.36,444.94 -205.904,445.729 -182.237,447.307C-62.324,642.166 -0.789,668.199 231.937,695.811C248.505,725.79 263.493,757.346 278.482,789.691L278.482,1173.89C280.061,1191.24 280.061,1197.55 277.694,1200.71C269.805,1210.96 233.516,1225.95 220.893,1231.48L25.245,1305.63C-0.789,1270.13 -10.256,1233.06 0,1206.23M-41.812,1309.58L-429.164,1309.58L-262.705,1134.44C-229.571,1099.73 -218.526,1057.92 -232.727,1016.89C-240.616,993.228 -262.705,948.261 -285.583,901.715C-219.315,932.482 -119.913,960.094 83.623,976.661C108.079,979.028 114.391,986.917 119.124,1009.01L127.802,1096.58L21.3,1120.24C-14.2,1127.34 -42.601,1151.01 -55.224,1184.93C-70.213,1222.01 -64.69,1266.19 -41.812,1309.58M-740.78,1309.58C-751.825,1267.77 -747.093,1233.84 -728.158,1211.76C-710.014,1190.45 -681.613,1184.14 -661.891,1187.3L-548.288,1208.6L-545.133,1209.39L-529.354,1209.39L-449.675,1123.4L-448.887,1122.61C-435.476,1106.83 -393.663,1058.71 -436.264,997.173L-543.555,820.458C-525.41,818.092 -508.055,816.514 -491.487,816.514L-490.698,816.514C-489.909,816.514 -436.264,815.725 -378.674,848.859C-370.785,865.426 -359.74,887.515 -347.906,911.972C-325.817,957.728 -297.417,1014.53 -289.528,1037.41C-287.161,1044.51 -279.272,1066.6 -306.095,1094.21L-511.21,1310.37L-740.78,1310.37L-740.78,1309.58ZM-773.126,1173.1C-794.427,1197.55 -815.727,1240.94 -802.315,1310.37L-1167.58,1310.37C-1128.13,1306.42 -1099.73,1296.96 -1080.01,1277.23C-1056.34,1252.78 -1053.98,1218.07 -1054.77,1194.4C-1053.98,1192.03 -1050.03,1184.14 -1031.89,1176.25L-1000.33,1162.05L-1019.26,1132.86C-1050.82,1084.74 -1036.62,980.606 -1024.79,923.016L-1021.63,923.016C-897.772,923.016 -818.094,896.982 -733.681,870.159C-711.591,863.059 -688.713,855.959 -665.046,848.859L-664.257,848.859C-663.468,848.859 -639.012,840.97 -605.878,833.081L-486.754,1028.73L-485.965,1030.31C-474.131,1046.87 -472.554,1058.71 -493.854,1083.16L-553.811,1147.85L-651.635,1129.71L-652.424,1129.71C-696.603,1121.82 -743.937,1139.17 -773.126,1173.1M-1420.82,1159.69C-1446.06,1195.98 -1449.22,1246.47 -1430.28,1309.58L-1491.82,1309.58L-1491.82,828.347C-1469.73,825.192 -1446.06,818.881 -1423.97,808.625C-1425.55,829.925 -1427.92,846.492 -1431.86,868.581C-1432.65,874.104 -1433.44,878.837 -1435.02,885.148L-1441.33,919.86L-1405.83,919.86C-1352.97,919.86 -1313.53,911.971 -1283.55,896.193L-1283.55,1097.36C-1283.55,1102.89 -1287.49,1106.83 -1292.23,1106.83L-1300.9,1106.83C-1352.97,1106.04 -1396.36,1125.76 -1420.82,1159.69M-1550.99,1257.51L-1831.84,1184.14L-2112.68,1257.51L-2112.68,754.979L-1831.84,682.4L-1550.99,754.979L-1550.99,1257.51ZM-2077.18,1309.58L-1832.62,1245.68L-1588.06,1309.58L-2077.18,1309.58ZM-1979.36,569.587C-1967.53,551.442 -1940.7,536.453 -1907.57,541.975L-1882.32,546.709L-1874.44,522.253C-1872.07,515.942 -1869.7,511.208 -1865.76,507.264C-1858.66,500.164 -1847.61,497.008 -1834.2,497.797C-1797.91,498.585 -1752.94,523.83 -1716.65,563.275C-1703.24,577.476 -1691.41,594.043 -1681.15,610.61C-1678.79,613.765 -1676.42,617.71 -1674.84,620.865C-1671.69,625.599 -1669.32,629.544 -1668.53,630.332C-1666.95,632.699 -1648.81,659.522 -1650.39,661.889C-1637.77,644.533 -1625.93,627.177 -1613.31,609.821C-1613.31,609.032 -1613.31,607.454 -1614.89,605.087C-1617.25,598.776 -1624.35,588.521 -1628.3,582.998L-1631.45,578.264L-1631.45,577.476C-1632.24,576.687 -1633.82,574.32 -1635.4,571.165C-1639.34,564.854 -1645.65,555.386 -1648.02,550.653L-1569.92,426.006C-1550.2,429.951 -1533.63,430.74 -1525.74,430.74L-1524.16,430.74C-1414.51,430.74 -1300.9,367.628 -1300.9,261.914L-1300.9,259.548C-1302.48,230.359 -1308,203.536 -1311.95,181.446C-1315.1,167.246 -1317.47,153.046 -1317.47,145.946C-1317.47,134.112 -1300.9,121.49 -1278.02,121.49L-1242.52,121.49L-1258.3,29.977C-1208.6,-7.101 -1177.83,-66.269 -1179.41,-123.859C-1125.77,-82.837 -1087.9,-11.046 -1080.8,64.689C-1078.43,86.778 -1083.16,117.545 -1090.27,149.89L-1094.21,163.302L-1093.42,163.302C-1106.04,216.158 -1124.98,270.593 -1134.44,296.626L-1143.91,320.294L-1121.82,332.916C-1081.59,355.794 -1057.13,372.361 -1057.13,424.429C-1057.13,485.175 -1111.57,530.931 -1164.42,541.186L-1236.21,554.598L-1175.47,594.832C-1155.74,607.455 -1144.7,628.755 -1144.7,651.633C-1144.7,689.501 -1177.05,720.268 -1216.49,720.268L-1238.58,720.268L-1244.89,741.568C-1266.98,814.147 -1291.44,849.649 -1369.54,857.537C-1366.38,835.448 -1363.23,814.147 -1363.23,784.169C-1363.23,777.069 -1364.02,757.347 -1364.02,751.035L-1367.17,683.19L-1414.51,731.313C-1430.28,747.88 -1459.47,760.503 -1491.03,766.813L-1491.03,707.646L-1831.84,619.288L-1953.33,650.845C-1980.94,624.81 -1985.67,580.631 -1979.36,569.587M-1611.73,351.06C-1610.94,347.116 -1607.79,343.96 -1603.84,343.96L-1552.56,345.539C-1490.24,343.172 -1426.34,317.927 -1419.24,252.448C-1419.24,208.269 -1450.79,165.669 -1494.97,165.669C-1518.64,165.669 -1545.46,182.235 -1574.65,201.958C-1594.38,214.58 -1609.36,224.836 -1621.2,224.836C-1629.09,224.836 -1635.4,219.314 -1635.4,215.369L-1634.61,213.003L-1601.48,168.824L-1629.88,149.89C-1636.19,145.946 -1645.65,138.846 -1646.44,133.324C-1647.23,130.957 -1643.29,126.223 -1641.71,124.645C-1629.88,111.234 -1616.47,93.878 -1603.05,73.367C-1594.38,61.533 -1589.64,55.222 -1575.44,55.222C-1561.24,55.222 -1550.2,66.266 -1550.2,79.678C-1550.2,88.356 -1539.94,95.456 -1528.11,95.456C-1515.48,95.456 -1509.96,86.778 -1502.86,79.678C-1502.86,79.678 -1473.67,52.855 -1489.45,40.233C-1506.81,26.033 -1577.81,55.222 -1558.09,-9.468L-1553.35,-18.935C-1545.46,-29.191 -1512.33,-53.647 -1442.12,-53.647C-1428.7,-53.647 -1414.51,-52.858 -1400.3,-51.28L-1390.05,-49.702L-1241.73,-141.215C-1240.16,-138.06 -1240.16,-135.693 -1240.16,-135.693L-1240.16,-134.904C-1232.27,-89.936 -1260.67,-36.291 -1306.42,-10.257L-1324.57,-0.001L-1312.74,67.055C-1350.6,78.889 -1377.43,109.656 -1377.43,145.946C-1377.43,158.569 -1374.27,173.558 -1371.12,192.491C-1367.17,213.792 -1362.44,237.459 -1360.86,261.914C-1360.86,331.338 -1457.11,377.884 -1538.36,374.728L-1540.73,374.728C-1543.88,374.728 -1595.95,370.783 -1608.58,360.528C-1610.15,358.161 -1611.73,354.216 -1611.73,351.06M-1488.66,-113.604C-1479.19,-125.437 -1464.21,-138.848 -1446.06,-150.682C-1431.86,-160.149 -1412.93,-168.827 -1394.78,-173.56C-1366.38,-181.449 -1333.25,-182.238 -1298.54,-175.927L-1403.46,-111.237C-1416.87,-112.815 -1429.49,-113.604 -1442.12,-113.604C-1460.26,-113.604 -1476.04,-112.026 -1491.82,-109.659L-1488.66,-113.604ZM115.969,-129.382L512.787,-129.382C475.708,-77.314 422.853,-52.069 349.483,-52.069L56.801,-52.069C79.679,-72.581 99.401,-98.615 115.969,-129.382M96.245,95.456L-197.227,95.456C-171.192,72.577 -149.893,43.388 -132.536,7.888L265.86,7.888C228.782,67.055 173.559,95.456 96.245,95.456M-137.27,239.036L-429.952,239.036C-404.708,216.947 -384.196,188.546 -366.84,154.624L31.556,154.624C-6.312,212.214 -60.746,239.036 -137.27,239.036M-70.213,463.085C22.878,478.074 98.612,519.886 155.413,586.943C167.247,601.143 179.081,616.921 190.914,632.699C34.712,612.188 -19.723,589.31 -107.291,456.774C-94.669,459.14 -82.835,460.718 -70.213,463.085M553.021,1106.04C558.544,1115.51 563.276,1124.19 568.011,1132.08C573.532,1142.33 579.844,1152.59 586.155,1162.84C541.187,1159.69 506.476,1135.23 474.919,1087.9C504.898,1077.64 540.398,1084.74 553.021,1106.04M182.236,1309.58L242.982,1286.7L243.771,1286.7C330.55,1251.2 342.384,1228.32 338.439,1170.73L338.439,938.005C403.919,1105.25 466.241,1222.8 594.044,1222.8C611.399,1222.8 630.333,1220.43 650.056,1216.49L699.757,1205.44L665.835,1167.58C643.745,1143.12 633.489,1124.98 620.866,1102.89C616.134,1094.21 610.611,1084.74 604.3,1074.49C574.321,1026.36 503.32,1009.8 445.73,1035.04C419.696,982.972 393.663,915.916 362.106,832.292L355.006,816.514C349.483,803.892 343.962,791.269 338.439,778.646L338.439,777.069L337.65,777.069C317.929,732.89 297.416,688.711 272.171,647.688C249.293,609.821 226.415,577.476 201.959,548.286C135.691,470.185 47.334,421.273 -59.957,403.917C-134.114,392.084 -186.182,388.928 -253.238,385.773C-266.649,384.984 -281.639,384.194 -296.628,383.406C-326.606,381.828 -388.93,377.095 -448.887,371.572C-489.12,368.417 -530.933,365.261 -563.277,362.105C-560.911,352.639 -560.122,343.172 -560.122,333.705C-560.122,320.294 -561.699,308.46 -563.277,298.204L-137.27,298.204C-27.612,298.204 52.067,249.292 99.401,153.835C208.271,153.046 287.949,103.345 334.495,6.31L349.483,6.31C463.086,6.31 544.343,-45.758 590.889,-147.527L609.822,-189.338L-833.871,-189.338C-928.54,-189.338 -1009.8,-127.015 -1039.78,-31.557L-1040.56,-28.402C-1065.02,-97.037 -1109.99,-154.626 -1167.58,-189.338C-1247.26,-236.673 -1338.77,-253.239 -1411.35,-231.939C-1435.02,-224.839 -1459.47,-213.794 -1478.41,-201.172C-1494.97,-190.127 -1518.64,-172.771 -1535.21,-150.682C-1553.35,-127.015 -1571.5,-98.614 -1584.91,-71.791C-1593.59,-64.692 -1599.9,-57.591 -1603.84,-51.28L-1621.2,-18.935L-1621.99,-17.357C-1642.5,29.188 -1667.74,61.533 -1687.47,84.411C-1707.19,107.289 -1707.98,128.59 -1705.61,142.79C-1702.45,157.78 -1694.57,170.402 -1685.89,179.869L-1686.68,180.658C-1692.2,190.914 -1695.35,201.958 -1695.35,213.792C-1695.35,251.659 -1662.22,280.849 -1621.2,280.849C-1591.22,280.849 -1567.55,266.649 -1541.52,250.081C-1531.26,242.982 -1503.65,224.836 -1494.18,224.048C-1483.14,224.048 -1472.1,234.303 -1472.1,246.137C-1472.1,277.693 -1512.33,294.26 -1541.52,295.838L-1599.9,302.149C-1641.71,306.094 -1662.22,328.183 -1662.22,348.694C-1662.22,368.417 -1652.75,380.251 -1645.65,386.561L-1640.92,391.295L-1625.93,404.706L-1688.25,504.897C-1732.43,463.874 -1784.5,438.63 -1830.26,437.841C-1860.23,437.051 -1885.48,445.73 -1904.41,463.874C-1909.94,469.396 -1914.67,474.919 -1918.61,481.23L-1919.4,481.23C-1968.31,481.23 -2007.76,507.264 -2027.48,537.242C-2048.78,569.587 -2040.89,625.6 -2014.07,668.201L-2171.06,709.223L-2171.06,1459.47L707.646,1459.47L707.646,1309.58L182.236,1309.58Z" style="fill:white;fill-rule:nonzero;"/>
    </g>
    <g transform="matrix(-4.0321,-1.05038,-1.05038,4.0321,35225.4,5471.35)">
        <path d="M-183.136,-36.084L10.889,-36.084L-4.623,23.462L-198.648,23.462L-183.136,-36.084Z" style="fill:white;fill-rule:nonzero;"/>
    </g>
    <g transform="matrix(4.0321,-1.05038,-1.05038,-4.0321,34248,5865.79)">
        <path d="M-10.889,25.45L183.136,25.45L198.648,84.996L4.623,84.996L-10.889,25.45Z" style="fill:white;fill-rule:nonzero;"/>
    </g>
    <g transform="matrix(4.0321,-1.05038,-1.05038,-4.0321,34248,6381.87)">
        <path d="M-10.889,25.45L183.136,25.45L198.648,84.996L4.623,84.997L-10.889,25.45Z" style="fill:white;fill-rule:nonzero;"/>
    </g>
    <g transform="matrix(-4.0321,-1.05038,-1.05038,4.0321,35225.4,5987.43)">
        <path d="M-183.136,-36.085L10.889,-36.085L-4.623,23.461L-198.648,23.462L-183.136,-36.085Z" style="fill:white;fill-rule:nonzero;"/>
    </g>
    <g transform="matrix(-4.0362,-1.03449,-1.03449,4.0362,35224.7,6504.97)">
        <path d="M-183.155,-36.51L10.673,-36.51L-4.604,23.097L-198.432,23.098L-183.155,-36.51Z" style="fill:white;fill-rule:nonzero;"/>
    </g>
    <g transform="matrix(4.0362,-1.03449,-1.03449,-4.0362,34246.3,6893.44)">
        <path d="M-10.673,25.025L183.155,25.025L198.432,84.633L4.604,84.633L-10.673,25.025Z" style="fill:white;fill-rule:nonzero;"/>
    </g>
    <g transform="matrix(4.16667,0,0,4.16667,-32639.5,10759.6)">
        <path d="M0,-1720.5C-93.932,-1720.5 -170.079,-1644.35 -170.079,-1550.42L-170.079,-170.078C-170.079,-76.148 -93.932,0 0,0L12489.4,0C12583.4,0 12725.2,-38.578 12806.1,-86.164L15440.9,-1634.34C15521.9,-1681.92 15511.4,-1720.5 15417.5,-1720.5L0,-1720.5Z" style="fill:none;fill-rule:nonzero;stroke:white;stroke-width:8.64px;"/>
    </g>
    <g transform="matrix(4.16667,0,0,4.16667,-27300.7,10212.4)">
        <path d="M0,-2890.34C-365.621,-2890.34 -662.016,-2593.95 -662.016,-2228.32L-662.016,-662.016C-662.016,-296.399 -365.621,0 0,0L12009.3,0C12374.9,0 12886.2,-204.125 13151.3,-455.922L15234.3,-2434.42C15499.4,-2686.22 15417.9,-2890.34 15052.3,-2890.34L0,-2890.34Z" style="fill:rgb(129,22,24);fill-rule:nonzero;"/>
    </g>
    <g transform="matrix(1,0,0,1,1211.81,1207.65)">
        <text x="382.677px" y="1576.84px" style="font-family:'Helvetica';font-size:1666.67px;fill:white;">G<tspan x="1777.56px 2987.71px 4289.82px 5499.97px 6802.07px 8012.22px 9037.64px 9599.19px 10017.7px 10579.2px 11572.9px 12783.1px 13808.5px 14370px 15489px 16176px 17386.2px 17947.7px 18973.1px 19534.7px 20744.8px " y="1576.84px 1576.84px 1576.84px 1576.84px 1576.84px 1576.84px 1576.84px 1576.84px 1576.84px 1576.84px 1576.84px 1576.84px 1576.84px 1576.84px 1576.84px 1576.84px 1576.84px 1576.84px 1576.84px 1576.84px 1576.84px ">ENERALI ITALIA S.p.A.</tspan></text>
        <text x="382.677px" y="3576.84px" style="font-family:'Helvetica';font-size:1666.67px;fill:white;">A<tspan x="1586.62px 2975.29px 4179.23px 5475.13px 6585.48px 7140.82px 8253.62px 8897.68px 10286.4px 11490.3px 12786.2px 13990.1px 15286px 16490px 17509.2px 18713.1px 19149.3px 20445.2px 21000.6px 21589.3px 22885.2px 23904.5px 25108.4px " y="3576.84px 3576.84px 3576.84px 3576.84px 3576.84px 3576.84px 3576.84px 3576.84px 3576.84px 3576.84px 3576.84px 3576.84px 3576.84px 3576.84px 3576.84px 3576.84px 3576.84px 3576.84px 3576.84px 3576.84px 3576.84px 3576.84px 3576.84px ">GENZIA GENERALE DI CLES</tspan></text>
        <text x="382.677px" y="7126.84px" style="font-family:'Helvetica';font-size:1291.67px;fill:white;">A<tspan x="1274.85px 2023.85px 2772.86px 3521.86px 3911.37px 4228.98px 4570.26px 5533.7px 6282.71px 7389.32px 8138.32px 8446.55px 9409.99px 10159px 10476.6px 10794.2px 11543.2px 12219.7px 12537.3px 12826.6px 13309.4px 13831.5px 14723.7px 15472.7px 15933.5px 16682.5px 17000.1px 17749.1px 18043.6px 18935.8px 19684.8px 20433.8px 20894.6px 21643.6px 22392.6px 22782.1px 23171.6px " y="7126.84px 7126.84px 7126.84px 7126.84px 7126.84px 7126.84px 7126.84px 7126.84px 7126.84px 7126.84px 7126.84px 7126.84px 7126.84px 7126.84px 7126.84px 7126.84px 7126.84px 7126.84px 7126.84px 7126.84px 7126.84px 7126.84px 7126.84px 7126.84px 7126.84px 7126.84px 7126.84px 7126.84px 7126.84px 7126.84px 7126.84px 7126.84px 7126.84px 7126.84px 7126.84px 7126.84px 7126.84px ">genti Remo Callovi • Sergio Andreotti</tspan></text>
        <g transform="matrix(441.667,0,0,441.667,931.965,8917.17)">
        </g>
        <g transform="matrix(441.667,0,0,441.667,1054.74,8917.17)">
        </g>
        <g transform="matrix(441.667,0,0,441.667,10833.3,8917.17)">
        </g>
        <text x="490.014px" y="8917.17px" style="font-family:'ArialMT', 'Arial', sans-serif;font-size:441.667px;fill:white;">U<tspan x="809.113px 931.965px 1152.94px 1373.91px 1472.18px 1595.03px 1724.8px 2043.9px 2142.17px 2387.94px 2608.92px 2731.77px 2854.63px 3173.73px 3419.5px 3665.28px 3911.06px 4156.83px 4279.68px 4400.42px 4670.35px 4916.12px 5161.9px 5407.68px 5653.45px 5776.3px 5899.16px 6267.21px 6512.99px 6611.26px 6857.03px 6979.88px 7102.74px 7421.84px 7667.62px 7888.59px 8134.37px 8232.64px 8330.9px 8576.68px 8699.53px 8818.85px 9113.58px 9359.36px 9457.62px 9555.89px 9654.16px 9875.13px 10096.1px 10341.9px 10587.7px " y="8917.17px 8917.17px 8917.17px 8917.17px 8917.17px 8917.17px 8917.17px 8917.17px 8917.17px 8917.17px 8917.17px 8917.17px 8917.17px 8917.17px 8917.17px 8917.17px 8917.17px 8917.17px 8917.17px 8917.17px 8917.17px 8917.17px 8917.17px 8917.17px 8917.17px 8917.17px 8917.17px 8917.17px 8917.17px 8917.17px 8917.17px 8917.17px 8917.17px 8917.17px 8917.17px 8917.17px 8917.17px 8917.17px 8917.17px 8917.17px 8917.17px 8917.17px 8917.17px 8917.17px 8917.17px 8917.17px 8917.17px 8917.17px 8917.17px 8917.17px 8917.17px ">fﬁci: Cles, Denno, Fondo, Malè, Novella, Pellizzano</tspan></text>
    </g>
</svg>
