<?xml version="1.0" encoding="UTF-8" standalone="no"?>
<!DOCTYPE svg PUBLIC "-//W3C//DTD SVG 1.1//EN" "http://www.w3.org/Graphics/SVG/1.1/DTD/svg11.dtd">
<svg width="100%" height="100%" viewBox="0 0 2811 1618" version="1.1" xmlns="http://www.w3.org/2000/svg" xmlns:xlink="http://www.w3.org/1999/xlink" xml:space="preserve" xmlns:serif="http://www.serif.com/" style="fill-rule:evenodd;clip-rule:evenodd;stroke-linejoin:round;stroke-miterlimit:2;">
    <g transform="matrix(1,0,0,1,-328.291,-170.35)">
        <g id="Livello-1" serif:id="Livello 1" transform="matrix(4.16667,0,0,4.16667,0,0)">
            <g transform="matrix(0.24,0,0,0.24,53.0665,34.08)">
                <text x="713.035px" y="462.138px" style="font-family:'Helvetica';font-size:581.772px;fill:rgb(35,31,32);">N</text>
                <text x="1336.43px" y="441.195px" style="font-family:'Helvetica';font-size:349.063px;fill:rgb(35,31,32);">O<tspan x="1729.9px 2045.99px " y="441.195px 441.195px ">LO</tspan></text>
                <text x="69.824px" y="840.288px" style="font-family:'Helvetica';font-size:581.772px;fill:rgb(35,31,32);">P</text>
                <g transform="matrix(349.063,0,0,349.063,2905.2,819.345)">
                </g>
                <text x="639.97px" y="819.345px" style="font-family:'Helvetica';font-size:349.063px;fill:rgb(35,31,32);">O<tspan x="1020.75px 1382.09px 1704.58px 2046.67px 2427.45px 2808.22px " y="819.345px 819.345px 819.345px 819.345px 819.345px 819.345px ">NTEGGI</tspan></text>
            </g>
            <g transform="matrix(0.24,0,0,0.24,50.8128,31.0719)">
                <text x="710.066px" y="458.18px" style="font-family:'Helvetica';font-size:581.772px;fill:rgb(234,7,42);">N</text>
                <text x="1333.46px" y="437.237px" style="font-family:'Helvetica';font-size:349.063px;fill:rgb(234,7,42);">O<tspan x="1726.93px 2043.02px " y="437.237px 437.237px ">LO</tspan></text>
                <text x="66.859px" y="836.33px" style="font-family:'Helvetica';font-size:581.772px;fill:rgb(128,130,133);">P</text>
                <g transform="matrix(349.063,0,0,349.063,2768.61,815.387)">
                </g>
                <text x="641.068px" y="815.387px" style="font-family:'Helvetica';font-size:349.063px;fill:rgb(128,130,133);">O<tspan x="998.896px 1337.29px 1636.83px 1955.97px 2313.8px 2671.62px " y="815.387px 815.387px 815.387px 815.387px 815.387px 815.387px ">NTEGGI</tspan></text>
            </g>
            <g transform="matrix(0.24,0,0,0.24,72.3524,192.088)">
                <text x="2532.08px" y="346.639px" style="font-family:'Helvetica';font-size:130.899px;fill:rgb(35,31,32);">S<tspan x="2610.14px 2637.27px 2722.56px 2749.69px 2813.25px " y="346.639px 346.639px 346.639px 346.639px 346.639px ">.R.L.</tspan></text>
                <g transform="matrix(0.96,0,0,1,13.7047,0)">
                    <text x="342.614px" y="565.648px" style="font-family:'Helvetica';font-size:132.301px;fill:rgb(35,31,32);">3<tspan x="419.991px 497.368px 574.746px 652.123px 729.5px 844.69px 936.732px 1036.07px 1128.11px 1227.46px 1319.5px 1360.05px 1444.86px 1453.14px 1501px 1585.61px 1684.95px 1732.81px 1761.54px 1809.39px 1841.71px 1926.32px 1974.18px 2051.55px 2121.5px 2162.06px 2199.58px 2313.59px 2390.97px 2424.16px 2457.35px 2534.72px 2582.58px " y="565.648px 565.648px 565.648px 565.648px 565.648px 565.648px 565.648px 565.648px 565.648px 565.648px 565.648px 565.648px 565.648px 565.648px 565.648px 565.648px 565.648px 565.648px 565.648px 565.648px 565.648px 565.648px 565.648px 565.648px 565.648px 565.648px 565.648px 565.648px 565.648px 565.648px 565.648px 565.648px 565.648px ">8012 PREDAIA (TN) - Fraz. Mollaro</tspan></text>
                </g>
                <g transform="matrix(0.96,0,0,1,3.80806,0)">
                    <g transform="matrix(132.301,0,0,132.301,2871.63,762.115)">
                    </g>
                    <text x="95.201px" y="762.115px" style="font-family:'Helvetica';font-size:132.301px;fill:rgb(35,31,32);">V<tspan x="189.369px 227.013px 308.843px 329.505px 426px 463.643px 545.473px 627.303px 643.058px 724.888px 806.718px 844.362px 867.705px 964.199px 1046.03px 1127.86px 1172.87px 1217.88px 1242.78px 1324.61px 1406.44px 1451.45px 1525.85px 1639.42px 1691.72px 1719.59px 1793.99px 1875.82px 1913.47px 1958.47px 1978.11px 2059.94px 2141.77px 2223.6px 2305.43px 2388.9px 2470.73px 2552.56px 2634.39px 2716.22px 2798.05px " y="762.115px 762.115px 762.115px 762.115px 762.115px 762.115px 762.115px 762.115px 762.115px 762.115px 762.115px 762.115px 762.115px 762.115px 762.115px 762.115px 762.115px 762.115px 762.115px 762.115px 762.115px 762.115px 762.115px 762.115px 762.115px 762.115px 762.115px 762.115px 762.115px 762.115px 762.115px 762.115px 762.115px 762.115px 762.115px 762.115px 762.115px 762.115px 762.115px 762.115px 762.115px ">ia Plan del Sant, 22/c - Tel. 0463 468696</tspan></text>
                </g>
            </g>
            <g transform="matrix(0.24,0,0,0.24,189.76,303.525)">
                <g transform="matrix(0.96,0,0,1,9.98745,0)">
                    <g transform="matrix(132.301,0,0,132.301,1715.71,494.272)">
                    </g>
                    <text x="249.684px" y="494.272px" style="font-family:'Helvetica';font-size:132.301px;fill:rgb(237,28,36);">w<tspan x="354.251px 458.818px 556.149px 601.93px 684.533px 767.136px 805.553px 888.155px 970.758px 1053.36px 1135.96px 1181.75px 1264.35px 1346.95px 1429.55px 1467.97px 1513.75px 1596.35px 1678.96px " y="494.272px 494.272px 494.272px 494.272px 494.272px 494.272px 494.272px 494.272px 494.272px 494.272px 494.272px 494.272px 494.272px 494.272px 494.272px 494.272px 494.272px 494.272px 494.272px ">ww.noloponteggi.net</tspan></text>
                </g>
            </g>
        </g>
    </g>
</svg>
