<?xml version="1.0" encoding="UTF-8" standalone="no"?>
<!DOCTYPE svg PUBLIC "-//W3C//DTD SVG 1.1//EN" "http://www.w3.org/Graphics/SVG/1.1/DTD/svg11.dtd">
<svg width="100%" height="100%" viewBox="0 0 2150 543" version="1.1" xmlns="http://www.w3.org/2000/svg" xmlns:xlink="http://www.w3.org/1999/xlink" xml:space="preserve" xmlns:serif="http://www.serif.com/" style="fill-rule:evenodd;clip-rule:evenodd;stroke-linejoin:round;stroke-miterlimit:2;">
    <g transform="matrix(1,0,0,1,-150.952,-1339.49)">
        <g transform="matrix(4.16667,0,0,4.16667,0,0)">
            <g transform="matrix(1,0,0,1,102.906,321.478)">
                <path d="M0,130.274C-4.129,130.274 -6.933,130.232 -8.333,130.148C-12.322,129.907 -13.219,125.352 -13.219,123.774C-13.147,122.154 -5.762,98.044 -5.762,98.044C-5.762,98.044 -13.45,107.377 -21.265,107.919C-28.641,108.431 -42.735,107.769 -42.735,107.769C-54.795,107.606 -67.166,96.182 -66.663,82.834C-66.4,75.88 -66.263,68.657 -66.004,65.795C-65.746,62.93 -62.604,60.968 -60.874,60.949L-49.925,59.736C-49.925,59.736 -58.836,49.924 -54.369,33.301C-50.443,14.986 -29.191,0.833 -13.267,1.024C-8.868,0.852 -2.223,0.813 1.46,1.475C13.558,3.648 20.299,9.377 20.299,9.377L198.85,9.437C202.727,9.488 218.876,0 223.408,0C224.851,0.023 227.339,0.114 246.445,0.114C271.747,0.114 268.975,0.089 328.077,0.07C332.819,0.125 337.767,4.36 336.673,8.336C336.631,8.483 330.303,25.849 330.303,25.849C330.303,25.849 338.973,21.426 351.085,21.423C356.157,21.421 360.819,22.071 364.939,23.35C375.816,26.727 379.975,36.937 380.014,37.041L380.997,39.516C380.997,39.516 390.115,20.975 419.232,21.302C435.961,21.49 448.346,32.452 449.117,46.866C450.054,64.374 444.962,78.996 437.25,89.485C428.766,101.019 418.477,107.038 412.383,107.296C406.289,107.555 395.364,107.712 387.243,107.712C377.496,107.712 371.348,92.568 371.348,92.568C371.348,92.568 359.053,107.863 346.607,107.766L320.759,107.766C311.982,107.766 305.23,95.146 305.165,95.019L303.447,91.762L302.312,95.263C301.187,98.742 297.002,107.766 291.24,107.766L184.836,107.766C165.809,107.597 167.268,95.183 167.268,95.183C167.268,95.183 159.87,107.766 150.462,107.766L124.364,107.838C119.327,107.745 119.326,101.013 119.326,101.013C119.326,101.013 113.711,107.655 106.695,107.766L81.319,107.766C69.289,107.965 66.474,93.739 66.474,93.739C66.474,93.739 56.509,107.767 45.911,107.767L45.696,107.766C42.962,107.721 40.39,107.707 38.176,107.707C33.745,107.707 30.747,107.766 30.747,107.766L29.606,107.788L29.288,108.884C29.142,109.388 25.699,121.237 25.108,124.187C24.609,126.686 22.299,130.144 19.262,130.144C18.225,130.144 16.248,130.165 13.794,130.187C9.794,130.225 4.522,130.274 0,130.274" style="fill-rule:nonzero;"/>
            </g>
            <g transform="matrix(1,0,0,1,146.617,425.172)">
                <path d="M0,-54.246C2.604,-54.246 4.256,-53.59 5.052,-52.243C5.949,-50.723 6.273,-48.394 6.022,-45.381C5.725,-41.872 5.106,-38.573 4.185,-35.569C3.271,-32.603 2.165,-30.995 0.751,-28.795C-0.633,-26.623 -2.37,-24.866 -4.415,-23.548C-6.44,-22.25 -8.343,-22.202 -10.838,-22.202C-12.081,-22.202 -13.593,-21.747 -14.751,-21.998C-15.465,-22.156 -16.116,-22.351 -16.697,-22.589L-8.698,-51.038C-7.133,-51.968 -5.635,-52.743 -4.237,-53.337C-2.827,-53.94 -1.402,-54.246 0,-54.246M-20.25,-9.17C-18.827,-8.265 -17.271,-7.523 -15.591,-6.949C-13.244,-6.156 -10.91,-5.164 -8.082,-5.164C-3.582,-5.164 0.647,-6.382 4.484,-8.779C8.242,-11.13 11.384,-12.853 14.544,-17.033C17.553,-20.973 20.386,-26.311 22.393,-31.74C24.393,-37.16 25.656,-42.834 26.145,-48.616C26.736,-55.619 25.739,-61.172 23.165,-65.209C20.5,-69.393 16.319,-71.518 10.737,-71.518C7.376,-71.518 4.194,-70.744 1.293,-69.22C-0.58,-68.236 -2.6,-66.978 -4.746,-65.467L-3.554,-69.814L-22.692,-69.814L-46.569,17.272L-27.427,17.272L-20.25,-9.17Z" style="fill:white;fill-rule:nonzero;"/>
            </g>
            <g transform="matrix(1,0,0,1,209.893,404.342)">
                <path d="M0,-35.11C2.448,-35.11 4.093,-34.35 5.019,-32.787C5.823,-31.438 6.227,-29.555 6.227,-27.185C6.227,-26.51 6.196,-25.802 6.133,-25.052C5.768,-20.904 5.119,-17.352 4.19,-14.496C3.269,-11.647 2.024,-8.986 0.489,-6.587C-0.864,-4.486 -2.44,-2.839 -4.184,-1.685C-5.884,-0.555 -7.536,-0.01 -9.224,-0.01C-11.475,-0.01 -13.114,-0.706 -14.231,-2.148C-15.138,-3.308 -15.601,-5.2 -15.601,-7.788C-15.601,-8.499 -15.561,-9.26 -15.494,-10.063C-15.192,-13.469 -14.553,-16.834 -13.594,-20.059C-12.634,-23.261 -11.46,-25.973 -10.107,-28.114C-8.668,-30.391 -7.083,-32.163 -5.395,-33.381C-3.77,-34.545 -2.009,-35.11 0,-35.11M-23.443,-38.747C-26.799,-34.957 -29.497,-30.528 -31.463,-25.579C-33.42,-20.659 -34.659,-15.386 -35.131,-9.909C-35.236,-8.714 -35.286,-7.562 -35.286,-6.442C-35.286,-0.142 -33.615,5.009 -30.326,8.868C-26.419,13.467 -20.414,15.798 -12.483,15.798C-7.01,15.798 -2.05,14.747 2.262,12.677C6.544,10.621 10.455,7.654 13.878,3.855C17.164,0.203 19.875,-4.206 21.938,-9.254C23.999,-14.284 25.296,-19.76 25.803,-25.523C26.473,-33.36 24.856,-39.574 20.992,-44.073C17.093,-48.609 11.082,-50.908 3.124,-50.908C-2.231,-50.908 -7.234,-49.806 -11.747,-47.63C-16.236,-45.468 -20.177,-42.478 -23.443,-38.747" style="fill:white;fill-rule:nonzero;"/>
            </g>
            <g transform="matrix(0.26446,-0.964397,-0.964397,-0.26446,381.13,389.678)">
                <path d="M-41.016,34.887L50.922,34.887L45.743,53.772L-46.197,53.778L-41.016,34.887Z" style="fill:white;fill-rule:nonzero;"/>
            </g>
            <g transform="matrix(-0.26417,0.964476,0.964476,0.26417,384.592,335.329)">
                <path d="M1.056,-18.943L19.862,-18.943L14.452,0.806L-4.354,0.805L1.056,-18.943Z" style="fill:white;fill-rule:nonzero;"/>
            </g>
            <g transform="matrix(-0.263995,0.964524,0.964524,0.263995,391.839,395.444)">
                <path d="M-29.584,-41.472L36.819,-41.472L31.648,-22.578L-34.756,-22.575L-29.584,-41.472Z" style="fill:white;fill-rule:nonzero;"/>
            </g>
            <g transform="matrix(1,0,0,1,248.067,418.876)">
                <path d="M0,-62.876L-17.99,1.132L3.856,1.132L9.887,-21.065C12.748,-31.321 15.633,-37.344 18.929,-41.13C21.229,-43.807 23.809,-45.18 26.666,-45.238C28.157,-45.261 31.638,-45.887 34.301,-45.347L39.111,-62.971C37.509,-63.48 37.296,-64.008 34.1,-63.956C31.026,-63.883 28.423,-63.373 25.861,-61.631C23.294,-59.878 20.398,-56.714 17.175,-52.134L20.155,-62.971L0,-62.876Z" style="fill:white;fill-rule:nonzero;"/>
            </g>
            <g transform="matrix(1,0,0,1,303.783,408.744)">
                <path d="M0,-66.145L-4.178,-52.735L-11.474,-52.703L-16.284,-35.171L-9.911,-35.184L-16.836,-12.864C-18.848,-6.501 -19.819,-2.079 -19.832,1.009C-19.835,1.253 -19.829,1.484 -19.817,1.709C-19.686,4.78 -18.665,7.133 -16.794,8.698C-14.946,10.26 -11.639,11.105 -6.673,11.264C-2.412,11.38 2.148,10.913 7.377,9.741L12.658,-6.854C12.629,-6.843 12.595,-6.836 12.564,-6.827L12.614,-6.987C9.79,-6.081 6.002,-5.155 4.558,-5.215C3.003,-5.245 2.152,-5.87 1.949,-7.134C1.809,-7.943 1.589,-7.927 2.403,-10.475L10.06,-35.084L20.884,-35.089L25.7,-52.686L15.797,-52.735L20.513,-68.129L23.452,-77.4L23.333,-77.346L23.39,-77.525L0,-66.145Z" style="fill:white;fill-rule:nonzero;"/>
            </g>
            <g transform="matrix(1,0,0,1,411.173,394.742)">
                <path d="M0,-38.802L9.294,-38.826L4.486,-21.271L-4.805,-21.249L-17.959,25.265L-37.539,25.278L-24.376,-21.2L-31.663,-21.178L-26.845,-38.733L-19.562,-38.75L-18.792,-41.579C-18.096,-44.131 -17.096,-46.935 -15.814,-50.005C-14.532,-53.069 -13.019,-55.577 -11.246,-57.529C-9.495,-59.469 -7.325,-61.041 -4.769,-62.248C-2.209,-63.448 1.197,-64.056 5.481,-64.08C8.893,-64.076 13.734,-63.6 19.995,-62.636L13.871,-48.149C11.65,-48.598 9.831,-48.83 8.407,-48.839C6.636,-48.822 5.276,-48.453 4.311,-47.737C3.346,-46.999 2.484,-45.849 1.736,-44.293C1.33,-43.411 0.754,-41.586 0,-38.802" style="fill:white;fill-rule:nonzero;"/>
            </g>
            <g transform="matrix(1,0,0,1,45.9351,361.42)">
                <path d="M0,29.629C-1.703,37.954 -1.071,44.902 1.878,50.32C4.82,55.737 12.261,58.482 23.983,58.482C30.712,58.482 36.675,57.288 41.723,54.941C46.771,52.617 51.226,49.126 54.964,44.571C58.68,40.042 61.339,35.004 62.871,29.579C64.14,25.028 64.388,20.857 63.6,17.168C62.799,13.538 60.73,10.443 57.443,7.97C54.097,5.472 47.99,2.952 39.294,0.49C35.594,-0.49 33.415,-1.575 32.634,-2.821C31.821,-3.983 31.61,-5.338 32.036,-6.831C32.568,-8.74 33.703,-10.405 35.416,-11.771C37.137,-13.132 39.331,-13.818 41.935,-13.818C45.131,-13.818 47.432,-12.887 48.768,-11.039C50.022,-9.276 50.419,-6.548 49.993,-2.868L70.019,-4.266C71.481,-12.746 70.486,-19.029 67.07,-22.924C63.564,-26.861 57.332,-28.853 48.546,-28.853C41.34,-28.853 35.271,-27.743 30.503,-25.542C25.753,-23.359 21.76,-20.306 18.636,-16.473C15.493,-12.634 13.294,-8.513 12.104,-4.215C10.267,2.308 10.761,7.731 13.569,11.912C16.355,16.116 22.156,19.536 30.812,22.082C36.345,23.687 39.607,25.367 40.782,27.207C41.949,29.058 42.212,31.179 41.573,33.482C40.886,35.881 39.414,38.011 37.195,39.809C34.951,41.639 32.194,42.564 29.01,42.564C24.678,42.564 21.807,40.727 20.481,37.113C19.709,35.017 19.632,32.013 20.25,28.112L0,29.629Z" style="fill:white;fill-rule:nonzero;"/>
            </g>
            <g transform="matrix(1,0,0,1,474.124,380.638)">
                <path d="M0,12.094L-39.108,12.094C-39.834,16.029 -39.776,18.919 -38.953,20.841C-37.82,23.598 -35.74,24.968 -32.692,24.968C-30.787,24.968 -28.797,24.371 -26.738,23.178C-25.481,22.427 -23.992,21.088 -22.243,19.154L-3.625,21.381C-8.321,27.773 -13.112,32.371 -18.009,35.132C-22.925,37.894 -29.252,39.276 -37.015,39.294C-43.771,39.276 -48.754,38.095 -51.966,35.733C-55.192,33.369 -57.367,29.594 -58.499,24.419C-59.64,19.254 -59.262,13.165 -57.349,6.163C-54.657,-3.771 -49.921,-11.82 -43.132,-17.968C-36.371,-24.108 -28.496,-27.188 -19.507,-27.2C-12.236,-27.188 -6.85,-25.811 -3.375,-23.063C0.09,-20.301 2.214,-16.297 2.99,-11.081C3.775,-5.842 3.033,0.951 0.759,9.337L0,12.094ZM-16.66,0.418C-15.771,-4.281 -15.873,-7.653 -16.963,-9.702C-18.052,-11.727 -19.943,-12.755 -22.626,-12.755C-25.725,-12.755 -28.621,-11.217 -31.309,-8.141C-33.012,-6.216 -34.549,-3.372 -35.892,0.418L-16.66,0.418ZM65.586,12.094L26.472,12.094C25.752,16.029 25.814,18.919 26.636,20.841C27.763,23.598 29.847,24.968 32.894,24.968C34.793,24.968 36.788,24.371 38.846,23.178C40.103,22.427 41.592,21.088 43.337,19.154L61.961,21.381C57.269,27.773 52.473,32.371 47.575,35.132C42.665,37.894 36.328,39.276 28.566,39.294C21.816,39.276 16.831,38.095 13.618,35.733C10.394,33.369 8.205,29.594 7.091,24.419C5.94,19.254 6.319,13.165 8.236,6.163C10.923,-3.771 15.664,-11.82 22.445,-17.968C29.212,-24.108 37.088,-27.188 46.073,-27.2C53.355,-27.188 58.731,-25.811 62.205,-23.063C65.675,-20.301 67.802,-16.297 68.574,-11.081C69.36,-5.842 68.614,0.951 66.34,9.337L65.586,12.094ZM48.918,0.418C49.81,-4.281 49.711,-7.653 48.621,-9.702C47.535,-11.727 45.647,-12.755 42.961,-12.755C39.855,-12.755 36.969,-11.217 34.271,-8.141C32.576,-6.216 31.04,-3.372 29.689,0.418L48.918,0.418Z" style="fill:rgb(238,52,44);fill-rule:nonzero;"/>
            </g>
            <g transform="matrix(1,0,0,1,130.49,342.283)">
                <path d="M0,-0.75L0.937,-0.75C1.896,-0.75 2.646,-0.942 3.169,-1.322C3.679,-1.693 3.927,-2.209 3.927,-2.899C3.927,-3.328 3.778,-3.633 3.473,-3.835C3.146,-4.051 2.641,-4.16 1.971,-4.16L0.792,-4.16L0,-0.75ZM-1.612,6.187L-5.345,6.187L-2.294,-6.937L2.472,-6.937C3.317,-6.937 4.067,-6.878 4.7,-6.762C5.344,-6.644 5.911,-6.437 6.383,-6.146C6.861,-5.848 7.229,-5.456 7.48,-4.979C7.73,-4.505 7.857,-3.912 7.857,-3.216C7.857,-1.64 7.19,-0.352 5.876,0.611C4.582,1.561 2.756,2.043 0.449,2.043L-0.649,2.043L-1.612,6.187Z" style="fill:white;fill-rule:nonzero;"/>
            </g>
            <g transform="matrix(1,0,0,1,144.945,342.972)">
                <path d="M0,0.993C-0.456,1.034 -0.883,1.08 -1.274,1.131C-1.744,1.191 -2.147,1.28 -2.471,1.394C-2.785,1.506 -3.026,1.663 -3.187,1.861C-3.341,2.052 -3.419,2.314 -3.419,2.641C-3.419,2.979 -3.269,3.1 -3.156,3.162C-2.941,3.279 -2.614,3.338 -2.183,3.338C-1.903,3.338 -1.598,3.273 -1.274,3.144C-0.966,3.021 -0.67,2.864 -0.395,2.677L0,0.993ZM-4.116,5.764C-4.967,5.764 -5.674,5.521 -6.218,5.042C-6.769,4.557 -7.048,3.918 -7.048,3.142C-7.048,2.346 -6.854,1.659 -6.471,1.1C-6.09,0.544 -5.521,0.096 -4.778,-0.233C-4.101,-0.535 -3.282,-0.756 -2.348,-0.889C-1.466,-1.014 -0.507,-1.11 0.507,-1.172C0.509,-1.18 0.511,-1.188 0.513,-1.196C0.528,-1.258 0.535,-1.33 0.535,-1.409C0.535,-1.733 0.394,-1.945 0.088,-2.076C-0.264,-2.227 -0.808,-2.303 -1.528,-2.303C-2.017,-2.303 -2.568,-2.219 -3.166,-2.053C-3.775,-1.885 -4.237,-1.743 -4.541,-1.632L-4.609,-1.619L-5.138,-1.619L-4.608,-4.255L-4.486,-4.286C-4.12,-4.379 -3.549,-4.483 -2.788,-4.597C-2.027,-4.712 -1.255,-4.771 -0.494,-4.771C1.07,-4.771 2.193,-4.569 2.939,-4.156C3.712,-3.727 4.105,-3.053 4.105,-2.153C4.105,-2.033 4.095,-1.878 4.074,-1.686C4.052,-1.489 4.023,-1.324 3.987,-1.18L2.437,5.499L-1.058,5.499L-0.875,4.72L-1.165,4.907C-1.448,5.089 -1.716,5.236 -1.96,5.343C-2.293,5.479 -2.606,5.583 -2.897,5.655C-3.196,5.728 -3.595,5.764 -4.116,5.764" style="fill:white;fill-rule:nonzero;"/>
            </g>
            <g transform="matrix(1,0,0,1,153.907,338.209)">
                <path d="M0,10.526C-0.836,10.526 -1.658,10.447 -2.441,10.292C-3.23,10.135 -3.847,9.948 -4.273,9.736L-4.415,9.666L-3.748,6.828L-3.231,6.828L-3.175,6.876C-3.054,6.98 -2.899,7.095 -2.714,7.221C-2.534,7.343 -2.27,7.475 -1.929,7.611C-1.633,7.738 -1.288,7.848 -0.897,7.94C-0.512,8.029 -0.09,8.075 0.359,8.075C1.022,8.075 1.521,8.001 1.84,7.854C2.203,7.688 2.245,7.488 2.245,7.352C2.245,7.252 2.215,7.122 1.987,7.011C1.755,6.899 1.253,6.755 0.495,6.582C-0.868,6.27 -1.781,5.897 -2.296,5.443C-2.825,4.978 -3.093,4.39 -3.093,3.695C-3.093,2.545 -2.569,1.628 -1.537,0.967C-0.533,0.326 0.835,0 2.531,0C3.263,0 4.006,0.075 4.74,0.222C5.486,0.372 6.023,0.53 6.38,0.704L6.524,0.774L5.883,3.511L5.389,3.511L5.335,3.469C4.945,3.17 4.466,2.923 3.914,2.735C3.36,2.547 2.783,2.451 2.198,2.451C1.569,2.451 1.084,2.525 0.757,2.669C0.389,2.832 0.346,3.055 0.346,3.208C0.346,3.314 0.381,3.469 0.684,3.602C0.975,3.73 1.446,3.865 2.085,4.004C3.343,4.275 4.23,4.61 4.796,5.03C5.385,5.467 5.684,6.085 5.684,6.865C5.684,8.005 5.154,8.914 4.109,9.568C3.095,10.204 1.712,10.526 0,10.526" style="fill:white;fill-rule:nonzero;"/>
            </g>
            <g transform="matrix(1,0,0,1,164.49,338.209)">
                <path d="M0,10.526C-0.836,10.526 -1.658,10.447 -2.441,10.292C-3.23,10.135 -3.847,9.948 -4.273,9.736L-4.415,9.666L-3.748,6.828L-3.231,6.828L-3.175,6.876C-3.054,6.98 -2.899,7.095 -2.714,7.221C-2.534,7.343 -2.27,7.475 -1.929,7.611C-1.633,7.738 -1.288,7.848 -0.897,7.94C-0.512,8.029 -0.09,8.075 0.359,8.075C1.022,8.075 1.521,8.001 1.84,7.854C2.203,7.688 2.245,7.488 2.245,7.352C2.245,7.252 2.215,7.122 1.987,7.011C1.755,6.899 1.253,6.755 0.495,6.582C-0.868,6.27 -1.781,5.897 -2.296,5.443C-2.825,4.978 -3.093,4.39 -3.093,3.695C-3.093,2.545 -2.569,1.628 -1.537,0.967C-0.533,0.326 0.835,0 2.531,0C3.263,0 4.006,0.075 4.74,0.222C5.486,0.372 6.023,0.53 6.38,0.704L6.524,0.774L5.883,3.511L5.389,3.511L5.335,3.469C4.945,3.17 4.466,2.923 3.914,2.735C3.36,2.547 2.783,2.451 2.198,2.451C1.569,2.451 1.084,2.525 0.757,2.669C0.389,2.832 0.346,3.055 0.346,3.208C0.346,3.314 0.381,3.469 0.684,3.602C0.975,3.73 1.446,3.865 2.085,4.004C3.343,4.275 4.23,4.61 4.796,5.03C5.385,5.467 5.684,6.085 5.684,6.865C5.684,8.005 5.154,8.914 4.109,9.568C3.095,10.204 1.712,10.526 0,10.526" style="fill:white;fill-rule:nonzero;"/>
            </g>
            <g transform="matrix(1,0,0,1,177.272,345.738)">
                <path d="M0,-8.23L-3.699,-8.23L-3.063,-10.963L0.636,-10.963L0,-8.23ZM-2.648,2.733L-6.179,2.733L-3.843,-7.263L-0.312,-7.263L-2.648,2.733Z" style="fill:white;fill-rule:nonzero;"/>
            </g>
            <g transform="matrix(1,0,0,1,183.797,346.276)">
                <path d="M0,-5.607C-0.395,-5.607 -0.745,-5.511 -1.042,-5.322C-1.346,-5.128 -1.62,-4.846 -1.855,-4.484C-2.078,-4.146 -2.256,-3.717 -2.384,-3.211C-2.515,-2.701 -2.581,-2.169 -2.581,-1.628C-2.581,-1.033 -2.454,-0.608 -2.203,-0.367C-1.946,-0.12 -1.598,0 -1.136,0C-0.801,0 -0.473,-0.093 -0.161,-0.275C0.155,-0.461 0.429,-0.724 0.652,-1.056C0.902,-1.434 1.095,-1.855 1.224,-2.308C1.353,-2.76 1.418,-3.322 1.418,-3.978C1.418,-4.515 1.304,-4.928 1.077,-5.206C0.856,-5.476 0.504,-5.607 0,-5.607M-1.541,2.494C-3.025,2.494 -4.185,2.131 -4.988,1.417C-5.798,0.698 -6.209,-0.307 -6.209,-1.569C-6.209,-2.444 -6.06,-3.287 -5.766,-4.074C-5.471,-4.865 -5.027,-5.572 -4.449,-6.176C-3.887,-6.769 -3.188,-7.243 -2.371,-7.585C-1.556,-7.927 -0.631,-8.101 0.379,-8.101C1.869,-8.101 3.03,-7.743 3.83,-7.038C4.638,-6.326 5.047,-5.335 5.047,-4.089C5.047,-3.169 4.889,-2.294 4.577,-1.488C4.265,-0.68 3.818,0.024 3.251,0.605C2.661,1.208 1.966,1.679 1.188,2.004C0.41,2.329 -0.508,2.494 -1.541,2.494" style="fill:white;fill-rule:nonzero;"/>
            </g>
            <g transform="matrix(1,0,0,1,199.605,338.21)">
                <path d="M0,10.261L-3.549,10.261L-2.393,5.256C-2.314,4.907 -2.251,4.608 -2.206,4.36C-2.163,4.122 -2.141,3.898 -2.141,3.695C-2.141,3.385 -2.214,3.162 -2.359,3.032C-2.463,2.938 -2.705,2.827 -3.268,2.827C-3.492,2.827 -3.758,2.877 -4.058,2.975C-4.346,3.069 -4.673,3.21 -5.032,3.394L-6.621,10.261L-10.151,10.261L-7.825,0.265L-4.293,0.265L-4.492,1.092C-4.008,0.795 -3.554,0.553 -3.138,0.367C-2.589,0.123 -1.977,0 -1.32,0C-0.407,0 0.318,0.226 0.836,0.672C1.363,1.126 1.63,1.786 1.63,2.635C1.63,2.813 1.618,3.006 1.594,3.214C1.571,3.418 1.534,3.63 1.479,3.861L0,10.261Z" style="fill:white;fill-rule:nonzero;"/>
            </g>
            <g transform="matrix(1,0,0,1,212.049,334.689)">
                <path d="M0,13.782L-3.53,13.782L-1.759,6.211L-3.09,6.211L-2.532,3.786L-1.202,3.786L-1.179,3.691C-0.909,2.5 -0.402,1.577 0.328,0.95C1.063,0.32 2.152,0 3.566,0C4.074,0 4.523,0.016 4.9,0.048C5.282,0.08 5.613,0.123 5.885,0.175L6.09,0.214L5.5,2.742L5.045,2.731C4.923,2.689 4.742,2.644 4.508,2.597C3.654,2.428 3.059,2.554 2.755,2.814C2.553,2.986 2.379,3.313 2.239,3.786L4.609,3.786L4.054,6.211L1.771,6.211L0,13.782Z" style="fill:white;fill-rule:nonzero;"/>
            </g>
            <g transform="matrix(1,0,0,1,222.411,346.276)">
                <path d="M0,-5.607C-0.395,-5.607 -0.745,-5.511 -1.042,-5.322C-1.346,-5.128 -1.62,-4.846 -1.855,-4.484C-2.078,-4.146 -2.256,-3.717 -2.384,-3.211C-2.515,-2.701 -2.581,-2.169 -2.581,-1.628C-2.581,-1.033 -2.454,-0.608 -2.203,-0.367C-1.946,-0.12 -1.598,0 -1.136,0C-0.801,0 -0.473,-0.093 -0.161,-0.275C0.155,-0.461 0.429,-0.724 0.652,-1.056C0.902,-1.434 1.095,-1.855 1.224,-2.308C1.353,-2.76 1.418,-3.322 1.418,-3.978C1.418,-4.515 1.304,-4.928 1.077,-5.206C0.856,-5.476 0.504,-5.607 0,-5.607M-1.541,2.494C-3.025,2.494 -4.185,2.131 -4.988,1.417C-5.798,0.698 -6.209,-0.307 -6.209,-1.569C-6.209,-2.444 -6.06,-3.287 -5.766,-4.074C-5.471,-4.865 -5.027,-5.572 -4.449,-6.176C-3.887,-6.769 -3.188,-7.243 -2.371,-7.585C-1.556,-7.927 -0.631,-8.101 0.379,-8.101C1.869,-8.101 3.03,-7.743 3.83,-7.038C4.638,-6.326 5.047,-5.335 5.047,-4.089C5.047,-3.169 4.889,-2.294 4.577,-1.488C4.265,-0.68 3.818,0.024 3.251,0.605C2.661,1.208 1.966,1.679 1.188,2.004C0.41,2.329 -0.508,2.494 -1.541,2.494" style="fill:white;fill-rule:nonzero;"/>
            </g>
            <g transform="matrix(1,0,0,1,231.599,338.441)">
                <path d="M0,10.03L-3.531,10.03L-1.195,0.034L2.335,0.034L2.068,1.181C2.519,0.882 2.972,0.626 3.42,0.42C4.026,0.141 4.646,0 5.262,0C5.374,0 5.498,0.003 5.636,0.009C5.776,0.014 5.9,0.023 6.007,0.035L6.23,0.061L5.456,3.365L4.959,3.355C4.836,3.314 4.655,3.283 4.419,3.261C3.77,3.203 3.131,3.222 2.543,3.316C2.212,3.367 1.866,3.449 1.512,3.56L0,10.03Z" style="fill:white;fill-rule:nonzero;"/>
            </g>
            <g transform="matrix(1,0,0,1,247.085,338.209)">
                <path d="M0,10.526C-0.836,10.526 -1.658,10.447 -2.441,10.292C-3.23,10.135 -3.847,9.948 -4.273,9.736L-4.415,9.666L-3.748,6.828L-3.231,6.828L-3.175,6.876C-3.054,6.98 -2.899,7.095 -2.714,7.221C-2.534,7.343 -2.27,7.475 -1.929,7.611C-1.633,7.738 -1.288,7.848 -0.897,7.94C-0.512,8.029 -0.09,8.075 0.359,8.075C1.022,8.075 1.521,8.001 1.84,7.854C2.203,7.688 2.245,7.488 2.245,7.352C2.245,7.252 2.215,7.122 1.987,7.011C1.755,6.899 1.253,6.755 0.495,6.582C-0.868,6.27 -1.781,5.897 -2.296,5.443C-2.825,4.978 -3.093,4.39 -3.093,3.695C-3.093,2.545 -2.569,1.628 -1.537,0.967C-0.533,0.326 0.835,0 2.531,0C3.263,0 4.006,0.075 4.74,0.222C5.486,0.372 6.023,0.53 6.38,0.704L6.524,0.774L5.883,3.511L5.389,3.511L5.335,3.469C4.945,3.17 4.466,2.923 3.914,2.735C3.36,2.547 2.783,2.451 2.198,2.451C1.569,2.451 1.084,2.525 0.757,2.669C0.389,2.832 0.346,3.055 0.346,3.208C0.346,3.314 0.381,3.469 0.684,3.602C0.975,3.73 1.446,3.865 2.085,4.004C3.343,4.275 4.23,4.61 4.796,5.03C5.385,5.467 5.684,6.085 5.684,6.865C5.684,8.005 5.154,8.914 4.109,9.568C3.095,10.204 1.712,10.526 0,10.526" style="fill:white;fill-rule:nonzero;"/>
            </g>
            <g transform="matrix(1,0,0,1,257.798,344.25)">
                <path d="M0,1.7C0.132,1.745 0.28,1.783 0.442,1.811C0.674,1.851 0.916,1.872 1.161,1.872C1.646,1.872 2.08,1.768 2.451,1.564C2.823,1.358 3.127,1.083 3.355,0.746C3.588,0.407 3.771,0.003 3.896,-0.455C4.022,-0.916 4.086,-1.426 4.086,-1.97C4.086,-2.438 3.986,-2.796 3.789,-3.034C3.6,-3.261 3.238,-3.376 2.713,-3.376C2.435,-3.376 2.157,-3.327 1.886,-3.23C1.628,-3.137 1.352,-3.015 1.063,-2.868L0,1.7ZM-1.406,7.741L-4.936,7.741L-1.79,-5.776L1.74,-5.776L1.563,-5.017C2.001,-5.294 2.415,-5.519 2.797,-5.69C3.316,-5.923 3.898,-6.041 4.527,-6.041C5.558,-6.041 6.364,-5.72 6.924,-5.089C7.478,-4.464 7.758,-3.596 7.758,-2.508C7.758,-1.607 7.608,-0.721 7.312,0.126C7.016,0.974 6.606,1.715 6.094,2.328C5.559,2.977 4.943,3.491 4.267,3.855C3.583,4.222 2.809,4.408 1.965,4.408C1.434,4.408 0.937,4.347 0.488,4.226C0.134,4.131 -0.197,4.003 -0.5,3.846L-1.406,7.741Z" style="fill:white;fill-rule:nonzero;"/>
            </g>
            <g transform="matrix(1,0,0,1,272.694,346.276)">
                <path d="M0,-5.607C-0.395,-5.607 -0.745,-5.511 -1.042,-5.322C-1.346,-5.128 -1.62,-4.846 -1.855,-4.484C-2.078,-4.146 -2.256,-3.717 -2.384,-3.211C-2.515,-2.701 -2.581,-2.169 -2.581,-1.628C-2.581,-1.033 -2.454,-0.608 -2.203,-0.367C-1.946,-0.12 -1.598,0 -1.136,0C-0.801,0 -0.473,-0.093 -0.161,-0.275C0.155,-0.461 0.429,-0.724 0.652,-1.056C0.902,-1.434 1.095,-1.855 1.224,-2.308C1.353,-2.76 1.418,-3.322 1.418,-3.978C1.418,-4.515 1.304,-4.928 1.077,-5.206C0.856,-5.476 0.504,-5.607 0,-5.607M-1.541,2.494C-3.025,2.494 -4.185,2.131 -4.988,1.417C-5.798,0.698 -6.209,-0.307 -6.209,-1.569C-6.209,-2.444 -6.06,-3.287 -5.766,-4.074C-5.471,-4.865 -5.027,-5.572 -4.449,-6.176C-3.887,-6.769 -3.188,-7.243 -2.371,-7.585C-1.556,-7.927 -0.631,-8.101 0.379,-8.101C1.869,-8.101 3.03,-7.743 3.83,-7.038C4.638,-6.326 5.047,-5.335 5.047,-4.089C5.047,-3.169 4.889,-2.294 4.577,-1.488C4.265,-0.68 3.818,0.024 3.251,0.605C2.661,1.208 1.966,1.679 1.188,2.004C0.41,2.329 -0.508,2.494 -1.541,2.494" style="fill:white;fill-rule:nonzero;"/>
            </g>
            <g transform="matrix(1,0,0,1,281.881,338.441)">
                <path d="M0,10.03L-3.531,10.03L-1.195,0.034L2.335,0.034L2.068,1.181C2.519,0.882 2.972,0.626 3.42,0.42C4.026,0.141 4.646,0 5.262,0C5.374,0 5.498,0.003 5.636,0.009C5.776,0.014 5.9,0.023 6.007,0.035L6.23,0.061L5.456,3.365L4.959,3.355C4.836,3.314 4.655,3.283 4.419,3.261C3.77,3.203 3.13,3.222 2.543,3.316C2.212,3.367 1.866,3.449 1.512,3.56L0,10.03Z" style="fill:white;fill-rule:nonzero;"/>
            </g>
            <g transform="matrix(1,0,0,1,292.258,335.732)">
                <path d="M0,12.927C-1.129,12.927 -1.92,12.741 -2.419,12.36C-2.929,11.972 -3.187,11.393 -3.187,10.642C-3.187,10.448 -3.171,10.259 -3.141,10.079C-3.112,9.906 -3.074,9.705 -3.027,9.474L-2.027,5.168L-3.308,5.168L-2.74,2.743L-1.463,2.743L-0.825,0L2.695,0L2.06,2.743L4.961,2.743L4.397,5.168L1.499,5.168L0.726,8.474C0.667,8.714 0.613,8.953 0.561,9.194C0.512,9.418 0.487,9.612 0.487,9.77C0.487,10.041 0.555,10.226 0.689,10.32C0.846,10.429 1.107,10.484 1.465,10.484C1.609,10.484 1.807,10.456 2.053,10.4C2.298,10.344 2.494,10.281 2.634,10.214L2.721,10.194L3.23,10.194L2.665,12.618L2.545,12.648C2.186,12.735 1.806,12.804 1.416,12.852C1.021,12.902 0.545,12.927 0,12.927" style="fill:white;fill-rule:nonzero;"/>
            </g>
        </g>
    </g>
</svg>
