<svg width="100%" height="100%" viewBox="0 0 622 331" version="1.1" xmlns="http://www.w3.org/2000/svg" xmlns:xlink="http://www.w3.org/1999/xlink" xml:space="preserve" xmlns:serif="http://www.serif.com/" style="fill-rule:evenodd;clip-rule:evenodd;stroke-linejoin:round;"><path id="trk1:p465" d="M613.314,11.662L603.988,16.993L594.663,22.324L585.337,27.656L580.931,28.84L581.033,30.173L580.828,27.656L577.549,20.992L576.934,17.29L576.934,12.847L575.807,14.032L575.704,14.032L576.934,12.847L574.679,15.068L572.425,20.696L570.375,26.915L569.76,30.617L569.76,33.283L568.531,36.245L567.198,40.687L567.198,47.203L566.481,50.757L563.612,54.46L560.742,57.569L554.696,63.271L548.65,68.972L543.628,71.786L538.812,74.007L532.868,76.08L523.235,76.08L521.288,78.005L521.185,78.005L518.828,79.634L517.086,82.004L515.446,82.152L514.114,81.56L510.015,80.967L506.531,81.115L502.636,82.004L500.279,80.967L498.332,80.671L488.084,81.856L484.293,80.523L475.889,75.784L472.712,75.192L458.878,69.268L442.686,58.754L440.739,54.756L438.484,47.944L437.357,43.945L434.488,40.391L430.491,37.429L428.031,36.541L426.699,36.689L426.597,36.837L419.833,37.874L415.221,39.355L410.405,41.724L407.126,44.241L399.542,49.276L390.626,53.571L382.121,56.681L377.202,56.829L370.797,54.089L364.392,51.35L363.06,48.536L354.041,44.39L345.945,35.504L339.079,27.211L331.393,24.102L326.987,25.286L326.884,25.286L321.76,26.471L314.484,27.804L306.286,30.321L297.473,31.802L292.451,30.321L281.896,34.172L272.058,38.466L261.912,41.724L255.969,44.39L251.767,45.426L247.36,48.24L246.438,51.498L244.388,53.867L239.162,56.237L235.78,56.829L230.041,56.237L226.762,58.014L226.455,62.012L225.122,67.195L222.663,70.009L217.744,73.859L218.461,68.972L218.461,69.12L217.744,73.859L217.026,75.192L215.079,75.932L208.521,76.969L204.012,77.117L200.527,77.709L199.195,78.598L197.658,80.523L197.248,82.152L197.658,87.779L198.273,90L199.707,92.962L200.425,95.184L200.527,101.403L199.4,104.661L196.633,107.475L193.661,111.177L190.689,112.954L187.205,113.991L186.283,114.731L185.36,115.916L183.721,119.618L182.696,123.172L181.671,124.653L175.83,127.763L173.575,130.28L170.911,133.686L169.066,135.167L167.631,137.092L167.631,139.462L168.246,142.571L167.631,139.462L167.119,140.202L166.094,143.016L164.864,145.089L162.302,146.57L160.355,147.162L159.433,147.755L157.998,149.68L157.383,151.605L157.383,154.122L154.617,160.934L150.927,165.229L140.987,170.856L138.527,172.781L133.403,175.299L131.046,175.891L129.304,177.372L126.127,179.593L125.205,181.815L124.898,186.109L122.336,190.108L119.876,191.44L115.264,194.994L113.522,196.92L109.423,200.622L106.656,201.954L100.712,202.103L98.253,203.583L95.383,203.732L92.924,206.693L90.157,206.841L87.595,207.878L85.545,209.803L83.188,211.432L81.446,211.728L78.372,213.209L74.888,213.505L71.403,212.617L69.251,211.432L67.714,211.432L64.332,212.321L57.876,213.209L51.112,215.727L48.345,217.652L43.631,223.427L42.607,225.648L42.504,228.61L41.889,231.424L42.299,237.199L42.914,239.717L42.812,243.123L43.426,247.713L41.479,251.119L41.172,253.341L39.532,255.71L37.688,257.783L36.15,260.301L33.691,262.374L30.719,266.372L28.874,268.15L24.878,270.371L21.803,273.629L18.421,276.442L16.577,279.552L15.45,280.737L14.732,282.218L14.527,283.551L14.015,284.587L13.605,286.809L13.605,290.511L12.99,291.843L10.633,295.25L8.891,299.544L7.969,300.877L6.739,302.062L3.972,303.839L3.152,305.023L3.152,305.171L2.947,305.764L2.537,308.725L2.127,309.762L1,310.947L1,311.243L8.481,312.872L11.043,312.28L13.81,311.243L17.192,310.354L21.496,311.095L28.362,310.799L31.334,311.391L35.228,311.687L38.405,313.168L41.377,314.057L47.116,314.945L49.063,314.649L50.19,314.205L52.547,312.576L54.699,312.428L56.749,311.983L60.336,310.058L64.332,309.318L67.407,309.466L73.043,306.504L75.093,306.06L76.732,306.06L80.217,306.652L83.598,305.616L84.931,305.468L90.055,307.096L91.489,307.245L97.331,306.948L99.893,307.096L100.815,307.393L103.479,309.022L107.988,310.502L112.498,310.947L119.056,310.947L121.926,311.243L129.407,317.907L133.096,322.053L136.273,324.719L140.782,329.754L140.782,326.052L146.316,313.612L150.21,311.687L154.207,306.948L159.126,301.617L158.203,295.25L160.048,289.03L164.762,285.031L168.144,283.551L169.886,280.885L172.448,278.812L177.572,276.442L183.106,277.627L186.385,275.258L193.559,277.035L203.704,276.591L207.906,277.183L211.083,272L216.207,272.888L220.716,270.963L221.843,268.001L229.734,258.524L232.193,252.008L234.55,250.083L235.473,246.677L238.957,238.68L240.597,238.532L240.802,237.199L245.311,234.83L249,235.274L250.537,236.311L252.484,233.941L254.534,230.535L257.403,228.314L255.661,225.648L256.174,223.427L258.633,222.687L263.347,224.612L266.319,225.797L269.291,225.5L270.008,226.241L270.726,224.908L271.955,224.908L275.85,226.389L277.899,227.722L278.924,227.574L285.483,231.424L285.79,232.905L287.02,236.755L287.635,240.013L290.709,239.717L291.221,237.94L295.116,233.053L296.038,232.016L297.37,228.166L299.01,227.574L301.162,227.574L303.212,228.018L305.774,227.129L309.36,225.945L311.717,226.537L312.537,227.277L314.074,226.981L317.046,225.945L318.276,222.983L318.481,220.762L322.785,218.096L325.45,217.948L328.012,217.504L329.856,216.171L332.828,213.209L341.334,207.878L348.712,203.435L350.66,203.732L356.706,202.251L362.137,199.437L369.823,199.881L373.205,198.548L375.664,199.289L376.997,196.179L380.788,194.106L387.86,191.736L390.626,191.44L392.164,188.034L396.365,188.182L405.179,192.329L411.122,196.623L412.864,201.806L415.119,202.103L415.017,205.805L418.398,205.953L420.448,202.695L422.702,204.028L424.137,202.991L430.184,207.804L436.23,212.617L441.559,211.432L444.428,212.913L450.269,212.024L451.294,210.544L453.139,210.544L452.421,208.767L452.012,202.103L449.142,195.883L446.683,190.7L438.894,185.813L431.721,178.853L426.187,170.856L425.162,166.858L425.367,164.933L428.544,161.23L433.053,159.602L438.279,154.863L441.354,153.086L446.683,150.124L452.217,147.31L456.931,147.014L460.312,145.681L463.387,144.349L463.182,145.089L467.793,144.941L469.228,144.349L475.787,142.868L478.041,143.164L486.342,139.61L489.212,139.017L491.056,137.981L492.696,137.685L493.516,137.24L495.258,137.092L499.767,138.129L500.792,138.869L504.071,139.906L508.068,139.906L511.655,140.35L514.319,141.535L518.111,142.868L520.57,144.497L522.21,147.755L523.337,149.087L528.051,152.049L532.048,156.344L536.762,157.973L539.324,157.824L541.681,158.269L544.755,160.342L544.755,159.305L546.395,159.602L548.957,161.23L549.367,159.305L549.264,154.27L548.855,145.385L550.187,144.2L552.339,144.2L554.593,145.237L558.795,149.087L559.512,151.753L561.357,151.605L563.304,152.493L565.354,152.197L565.456,149.532L564.944,147.31L567.403,146.57L572.63,146.422L576.114,145.681L575.909,145.829L574.474,144.2L567.506,142.127L564.021,140.646L561.05,138.425L555.003,131.761L549.777,124.209L546.805,117.841L545.78,113.694L549.572,112.51L555.003,111.917L558.795,109.844L562.382,107.031L565.866,106.29L570.99,107.475L578.369,103.476L583.595,104.809L588.207,106.734L594.56,108.067L600.402,107.475L601.734,106.142L602.861,99.478L604.296,95.924L602.656,92.518L602.041,86.594L602.451,81.708L602.349,75.044L601.529,67.787L595.38,63.345L592.511,60.383L590.154,59.198L588.207,56.237L582.673,45.574L581.238,43.501L580.213,39.058L579.393,32.246L579.291,31.21L581.033,30.173L594.15,28.248L598.045,26.323L606.397,20.696L614.749,15.068L619.258,12.699L621,12.255L617.208,6.627L613.417,1L611.264,1L612.084,3.221L614.646,7.072" style="fill:none;fill-rule:nonzero;stroke:rgb(237,89,43);stroke-width:2px;"/></svg>