<?xml version="1.0" encoding="UTF-8" standalone="no"?><!DOCTYPE svg PUBLIC "-//W3C//DTD SVG 1.1//EN" "http://www.w3.org/Graphics/SVG/1.1/DTD/svg11.dtd"><svg width="100%" height="100%" viewBox="0 0 851 744" version="1.1" xmlns="http://www.w3.org/2000/svg" xmlns:xlink="http://www.w3.org/1999/xlink" xml:space="preserve" xmlns:serif="http://www.serif.com/" style="fill-rule:evenodd;clip-rule:evenodd;stroke-linejoin:round;stroke-miterlimit:2;"><g transform="matrix(1,0,0,1,-2267.72,-389.92)"><g transform="matrix(1,0,0,1,1086.61,-11.6547)"><path d="M1606.3,685.039C1618.53,685.039 1627.4,692.882 1642.98,717.08C1654.69,735.284 1661.83,769.344 1662.64,779.528C1664.26,799.873 1712.76,744.162 1724.41,717.378C1737.07,688.27 1714.59,634.066 1738.61,604.878C1758.78,580.358 1823.6,553.166 1876.27,511.238C1936.65,463.166 1984.25,401.575 1984.25,401.575C1984.25,401.575 1933.33,515.346 1897.9,556.42C1863.94,595.787 1795.65,616.312 1771.65,648.017C1751.5,674.654 1769.55,717.119 1753.94,746.652C1738.19,776.444 1689.96,809.481 1677.16,826.772C1672.48,833.101 1671.04,855.346 1677.16,850.394C1691.77,838.583 1749.01,779.528 1764.76,755.906C1773.59,742.664 1764.96,718.683 1771.65,708.661C1778.26,698.774 1793.77,699.919 1804.91,695.779C1830.16,686.403 1887.2,674.123 1923.11,652.404C1960.88,629.565 2031.5,558.747 2031.5,558.747C2031.5,558.747 1990.77,670.372 1960.63,697.646C1932.77,722.856 1858.54,716.618 1850.67,722.391C1842.79,728.164 1937.57,723.986 1937.57,723.986C1937.57,723.986 1904.12,782.806 1889.76,803.15C1884.61,810.455 1837.79,781.124 1829.62,789.394C1818.96,800.186 1859.22,826.772 1859.22,826.772C1859.22,826.772 1814.01,877.087 1806.08,884.329C1787.49,901.316 1765.58,918.641 1748.03,932.67C1732.59,945.012 1714.83,958.595 1700.79,968.504C1688.82,976.945 1665.38,978.239 1663.75,992.126C1662.12,1006.01 1676.83,1035.17 1691.01,1051.82C1709,1072.95 1771.65,1118.86 1771.65,1118.86C1771.65,1118.86 1727.83,1129.04 1710.35,1123.67C1692.86,1118.29 1671.12,1084.67 1666.73,1086.61C1662.34,1088.56 1690.15,1145.51 1690.15,1145.51C1690.15,1145.51 1655.86,1142.06 1645.98,1133.86C1639.31,1128.33 1620.24,1106.52 1604.85,1088.54C1598.99,1096.32 1576.83,1125.38 1566.62,1133.86C1556.74,1142.06 1522.45,1145.51 1522.45,1145.51C1522.45,1145.51 1550.26,1088.56 1545.87,1086.61C1541.47,1084.67 1519.74,1118.29 1502.25,1123.67C1484.77,1129.04 1440.94,1118.86 1440.94,1118.86C1440.94,1118.86 1503.6,1072.95 1521.59,1051.82C1535.77,1035.17 1550.48,1006.01 1548.85,992.126C1547.22,978.239 1523.78,976.945 1511.81,968.504C1497.76,958.595 1480.01,945.012 1464.57,932.67C1447.02,918.641 1425.11,901.316 1406.52,884.329C1398.59,877.087 1353.38,826.772 1353.38,826.772C1353.38,826.772 1393.64,800.186 1382.98,789.394C1374.81,781.124 1327.99,810.455 1322.84,803.15C1308.48,782.806 1275.03,723.986 1275.03,723.986C1275.03,723.986 1369.81,728.164 1361.93,722.391C1354.06,716.618 1279.83,722.856 1251.97,697.646C1221.83,670.372 1181.1,558.747 1181.1,558.747C1181.1,558.747 1251.72,629.565 1289.49,652.404C1325.4,674.123 1382.44,686.403 1407.69,695.779C1418.83,699.919 1434.34,698.774 1440.94,708.661C1447.64,718.683 1439.01,742.664 1447.84,755.906C1463.58,779.528 1520.83,838.583 1535.43,850.394C1541.56,855.346 1540.12,833.101 1535.43,826.772C1522.64,809.481 1474.41,776.444 1458.66,746.652C1443.05,717.119 1461.1,674.654 1440.94,648.017C1416.95,616.312 1348.66,595.787 1314.7,556.42C1279.27,515.346 1228.35,401.575 1228.35,401.575C1228.35,401.575 1275.95,463.166 1336.33,511.238C1389,553.166 1453.82,580.358 1473.99,604.878C1498.01,634.066 1475.53,688.27 1488.19,717.378C1499.84,744.162 1548.34,799.873 1549.96,779.528C1550.77,769.344 1557.9,735.284 1569.62,717.08C1585.2,692.882 1594.07,685.039 1606.3,685.039Z" style="fill:rgb(220,99,59);"/></g><g transform="matrix(1,0,0,1,969.07,-11.6547)"><path d="M1571.04,597.617C1571.04,601.751 1569.91,605.434 1567.64,608.667C1565.38,611.901 1562.28,614.584 1558.34,616.717C1560.88,618.451 1562.89,620.567 1564.39,623.067C1565.89,625.567 1566.64,628.317 1566.64,631.317C1566.64,634.917 1565.56,638.467 1563.39,641.967C1561.23,645.467 1558.34,648.567 1554.74,651.267C1551.14,653.967 1547.04,656.151 1542.44,657.817C1537.84,659.484 1533.14,660.317 1528.34,660.317C1523.14,660.317 1518.59,659.334 1514.69,657.367C1510.79,655.401 1507.74,652.617 1505.54,649.017C1506.21,647.017 1507.09,644.534 1508.19,641.567C1509.29,638.601 1510.51,635.467 1511.84,632.167C1513.18,628.867 1514.53,625.584 1515.89,622.317C1517.26,619.051 1518.54,616.117 1519.74,613.517C1522.28,607.851 1524.54,603.151 1526.54,599.417C1528.54,595.684 1530.38,592.717 1532.04,590.517C1528.38,591.651 1525.04,592.934 1522.04,594.367C1519.04,595.801 1516.84,597.184 1515.44,598.517C1514.84,598.117 1514.23,597.517 1513.59,596.717C1512.96,595.917 1512.36,595.034 1511.79,594.067C1511.23,593.101 1510.76,592.117 1510.39,591.117C1510.03,590.117 1509.81,589.217 1509.74,588.417C1511.48,587.217 1513.73,586.067 1516.49,584.967C1519.26,583.867 1522.28,582.917 1525.54,582.117C1528.81,581.317 1532.16,580.684 1535.59,580.217C1539.03,579.751 1542.31,579.517 1545.44,579.517C1553.44,579.517 1559.71,581.117 1564.24,584.317C1568.78,587.517 1571.04,591.951 1571.04,597.617ZM1532.94,621.517C1531.68,620.917 1530.51,620.017 1529.44,618.817C1527.91,622.217 1526.46,625.551 1525.09,628.817C1523.73,632.084 1522.51,635.117 1521.44,637.917C1520.38,640.717 1519.51,643.151 1518.84,645.217C1518.18,647.284 1517.81,648.784 1517.74,649.717C1518.68,650.251 1519.79,650.651 1521.09,650.917C1522.39,651.184 1524.01,651.317 1525.94,651.317C1530.48,651.317 1534.81,650.684 1538.94,649.417C1543.08,648.151 1546.71,646.434 1549.84,644.267C1552.98,642.101 1555.48,639.617 1557.34,636.817C1559.21,634.017 1560.14,631.084 1560.14,628.017C1560.14,623.617 1558.24,620.451 1554.44,618.517C1549.24,620.651 1543.38,621.717 1536.84,621.717L1534.69,621.717C1534.19,621.717 1533.61,621.651 1532.94,621.517ZM1552.34,586.817C1550.94,586.817 1549.46,586.901 1547.89,587.067C1546.33,587.234 1544.68,587.484 1542.94,587.817C1543.21,588.084 1543.43,588.367 1543.59,588.667C1543.76,588.967 1543.91,589.284 1544.04,589.617C1543.44,590.417 1542.71,591.584 1541.84,593.117C1540.98,594.651 1540.01,596.434 1538.94,598.467C1537.88,600.501 1536.76,602.751 1535.59,605.217C1534.43,607.684 1533.24,610.217 1532.04,612.817C1533.18,612.551 1534.56,612.334 1536.19,612.167C1537.83,612.001 1539.44,611.917 1541.04,611.917C1541.91,611.917 1542.76,611.951 1543.59,612.017C1544.43,612.084 1545.24,612.184 1546.04,612.317C1549.24,611.784 1552.13,611.001 1554.69,609.967C1557.26,608.934 1559.48,607.734 1561.34,606.367C1563.21,605.001 1564.64,603.484 1565.64,601.817C1566.64,600.151 1567.14,598.384 1567.14,596.517C1567.14,593.317 1565.88,590.901 1563.34,589.267C1560.81,587.634 1557.14,586.817 1552.34,586.817ZM1653.04,597.617C1653.04,600.817 1652.33,603.834 1650.89,606.667C1649.46,609.501 1647.48,612.034 1644.94,614.267C1642.41,616.501 1639.44,618.384 1636.04,619.917C1632.64,621.451 1628.94,622.484 1624.94,623.017C1625.94,626.017 1627.16,629.101 1628.59,632.267C1630.03,635.434 1631.58,638.484 1633.24,641.417C1634.91,644.351 1636.64,647.051 1638.44,649.517C1640.24,651.984 1642.01,654.017 1643.74,655.617C1643.41,656.284 1642.93,656.951 1642.29,657.617C1641.66,658.284 1640.93,658.901 1640.09,659.467C1639.26,660.034 1638.39,660.501 1637.49,660.867C1636.59,661.234 1635.74,661.417 1634.94,661.417C1633.48,661.417 1632.08,660.717 1630.74,659.317C1629.41,657.917 1628.06,655.701 1626.69,652.667C1625.33,649.634 1623.89,645.701 1622.39,640.867C1620.89,636.034 1619.24,630.217 1617.44,623.417L1615.24,623.417C1614.51,623.417 1613.94,623.351 1613.54,623.217C1613.08,622.951 1612.58,622.484 1612.04,621.817C1610.24,625.684 1608.64,629.317 1607.24,632.717C1605.84,636.117 1604.59,639.401 1603.49,642.567C1602.39,645.734 1601.43,648.801 1600.59,651.767C1599.76,654.734 1599.04,657.751 1598.44,660.817C1596.18,660.284 1594.21,659.317 1592.54,657.917C1590.88,656.517 1589.31,654.551 1587.84,652.017C1588.11,651.417 1588.39,650.834 1588.69,650.267C1588.99,649.701 1589.38,648.901 1589.84,647.867C1590.31,646.834 1590.89,645.517 1591.59,643.917L1594.39,637.517C1595.56,634.851 1596.96,631.584 1598.59,627.717C1600.23,623.851 1602.21,619.151 1604.54,613.617C1605.61,611.151 1606.53,608.984 1607.29,607.117C1608.06,605.251 1608.74,603.467 1609.34,601.767C1609.94,600.067 1610.49,598.367 1610.99,596.667C1611.49,594.967 1612.01,593.017 1612.54,590.817C1609.48,591.884 1606.63,593.067 1603.99,594.367C1601.36,595.667 1599.18,597.051 1597.44,598.517C1596.84,598.117 1596.23,597.517 1595.59,596.717C1594.96,595.917 1594.38,595.034 1593.84,594.067C1593.31,593.101 1592.84,592.117 1592.44,591.117C1592.04,590.117 1591.81,589.217 1591.74,588.417C1593.74,587.084 1596.19,585.851 1599.09,584.717C1601.99,583.584 1605.08,582.601 1608.34,581.767C1611.61,580.934 1614.94,580.284 1618.34,579.817C1621.74,579.351 1624.91,579.117 1627.84,579.117C1635.84,579.117 1642.04,580.767 1646.44,584.067C1650.84,587.367 1653.04,591.884 1653.04,597.617ZM1628.64,589.217C1628.18,589.817 1627.44,591.017 1626.44,592.817C1625.44,594.617 1624.29,596.767 1622.99,599.267C1621.69,601.767 1620.33,604.484 1618.89,607.417C1617.46,610.351 1616.08,613.251 1614.74,616.117C1619.74,616.117 1624.34,615.651 1628.54,614.717C1632.74,613.784 1636.38,612.467 1639.44,610.767C1642.51,609.067 1644.89,607.067 1646.59,604.767C1648.29,602.467 1649.14,599.917 1649.14,597.117C1649.14,593.784 1647.94,591.234 1645.54,589.467C1643.14,587.701 1639.44,586.817 1634.44,586.817C1633.31,586.817 1632.18,586.867 1631.04,586.967C1629.91,587.067 1628.71,587.184 1627.44,587.317L1628.64,589.217ZM1705.64,610.117C1707.84,610.117 1709.56,610.717 1710.79,611.917C1712.03,613.117 1712.64,614.784 1712.64,616.917C1712.64,617.451 1712.59,618.001 1712.49,618.567C1712.39,619.134 1712.28,619.617 1712.14,620.017C1711.28,619.884 1710.31,619.767 1709.24,619.667C1708.18,619.567 1706.91,619.517 1705.44,619.517C1702.58,619.517 1699.68,619.767 1696.74,620.267C1693.81,620.767 1691.01,621.184 1688.34,621.517C1686.81,625.051 1685.41,628.467 1684.14,631.767C1682.88,635.067 1681.79,638.084 1680.89,640.817C1679.99,643.551 1679.29,645.917 1678.79,647.917C1678.29,649.917 1678.01,651.417 1677.94,652.417C1683.34,651.284 1688.79,650.317 1694.29,649.517C1699.79,648.717 1705.58,648.117 1711.64,647.717C1712.38,648.851 1712.99,650.084 1713.49,651.417C1713.99,652.751 1714.24,654.184 1714.24,655.717L1714.24,657.017C1714.24,657.484 1714.18,657.951 1714.04,658.417C1712.18,658.351 1710.21,658.301 1708.14,658.267C1706.08,658.234 1703.38,658.217 1700.04,658.217C1697.84,658.217 1695.76,658.267 1693.79,658.367C1691.83,658.467 1689.84,658.617 1687.84,658.817C1685.84,659.017 1683.73,659.284 1681.49,659.617C1679.26,659.951 1676.74,660.351 1673.94,660.817C1670.88,659.617 1667.91,656.684 1665.04,652.017C1666.18,649.617 1667.76,645.967 1669.79,641.067C1671.83,636.167 1674.41,629.617 1677.54,621.417C1674.54,620.484 1672.58,618.817 1671.64,616.417C1671.98,616.084 1672.94,615.667 1674.54,615.167C1676.14,614.667 1678.11,614.151 1680.44,613.617C1681.44,611.017 1682.29,608.751 1682.99,606.817C1683.69,604.884 1684.31,603.067 1684.84,601.367C1685.38,599.667 1685.86,598.001 1686.29,596.367C1686.73,594.734 1687.14,592.951 1687.54,591.017C1685.21,590.884 1683.38,590.234 1682.04,589.067C1680.71,587.901 1680.04,586.384 1680.04,584.517C1680.04,583.984 1680.13,583.351 1680.29,582.617C1680.46,581.884 1680.64,581.251 1680.84,580.717C1682.18,580.917 1683.46,581.051 1684.69,581.117C1685.93,581.184 1687.54,581.217 1689.54,581.217C1693.74,581.217 1697.68,581.101 1701.34,580.867C1705.01,580.634 1708.33,580.384 1711.29,580.117C1714.26,579.851 1716.81,579.601 1718.94,579.367C1721.08,579.134 1722.71,579.017 1723.84,579.017C1725.38,579.017 1726.74,579.817 1727.94,581.417C1729.14,583.017 1730.04,585.284 1730.64,588.217C1728.58,588.017 1726.89,587.884 1725.59,587.817C1724.29,587.751 1723.14,587.717 1722.14,587.717C1718.48,587.717 1715.13,587.901 1712.09,588.267C1709.06,588.634 1706.14,589.017 1703.34,589.417C1702.94,590.017 1702.49,590.784 1701.99,591.717C1701.49,592.651 1700.84,593.951 1700.04,595.617C1699.24,597.284 1698.26,599.384 1697.09,601.917C1695.93,604.451 1694.51,607.617 1692.84,611.417C1695.38,611.017 1697.76,610.701 1699.99,610.467C1702.23,610.234 1704.11,610.117 1705.64,610.117ZM1745.14,660.317C1741.34,659.184 1738.78,658.101 1737.44,657.067C1736.11,656.034 1735.44,654.617 1735.44,652.817C1735.44,650.817 1735.91,648.001 1736.84,644.367C1737.78,640.734 1738.99,636.684 1740.49,632.217C1741.99,627.751 1743.71,623.084 1745.64,618.217C1747.58,613.351 1749.54,608.684 1751.54,604.217C1753.54,599.751 1755.49,595.667 1757.39,591.967C1759.29,588.267 1760.98,585.384 1762.44,583.317L1761.74,579.117C1762.68,579.117 1763.98,579.351 1765.64,579.817C1767.31,580.284 1768.99,580.851 1770.69,581.517C1772.39,582.184 1773.89,582.867 1775.19,583.567C1776.49,584.267 1777.21,584.851 1777.34,585.317C1777.01,586.917 1776.74,589.334 1776.54,592.567C1776.34,595.801 1776.24,599.251 1776.24,602.917C1776.24,610.184 1776.53,617.301 1777.09,624.267C1777.66,631.234 1778.98,638.317 1781.04,645.517C1782.11,640.184 1783.26,634.867 1784.49,629.567C1785.73,624.267 1787.01,619.201 1788.34,614.367C1789.68,609.534 1791.01,605.051 1792.34,600.917C1793.68,596.784 1794.96,593.167 1796.19,590.067C1797.43,586.967 1798.58,584.534 1799.64,582.767C1800.71,581.001 1801.68,580.051 1802.54,579.917C1803.28,580.051 1804.08,580.334 1804.94,580.767C1805.81,581.201 1806.64,581.717 1807.44,582.317C1808.24,582.917 1808.98,583.584 1809.64,584.317C1810.31,585.051 1810.84,585.784 1811.24,586.517C1809.11,587.384 1806.99,589.417 1804.89,592.617C1802.79,595.817 1800.79,599.701 1798.89,604.267C1796.99,608.834 1795.23,613.784 1793.59,619.117C1791.96,624.451 1790.53,629.701 1789.29,634.867C1788.06,640.034 1787.09,644.817 1786.39,649.217C1785.69,653.617 1785.31,657.151 1785.24,659.817C1785.24,659.951 1785.28,660.051 1785.34,660.117C1785.14,660.184 1784.93,660.217 1784.69,660.217L1784.04,660.217C1780.98,660.217 1778.26,659.834 1775.89,659.067C1773.53,658.301 1771.98,657.217 1771.24,655.817C1769.84,650.217 1768.68,644.817 1767.74,639.617C1766.81,634.417 1766.03,629.217 1765.39,624.017C1764.76,618.817 1764.26,613.567 1763.89,608.267C1763.53,602.967 1763.24,597.417 1763.04,591.617C1761.78,593.617 1760.44,596.234 1759.04,599.467C1757.64,602.701 1756.28,606.251 1754.94,610.117C1753.61,613.984 1752.33,618.051 1751.09,622.317C1749.86,626.584 1748.78,630.751 1747.84,634.817C1746.91,638.884 1746.18,642.734 1745.64,646.367C1745.11,650.001 1744.84,653.151 1744.84,655.817C1744.84,657.217 1744.86,658.217 1744.89,658.817C1744.93,659.417 1745.01,659.917 1745.14,660.317ZM1835.34,592.117C1832.68,592.117 1830.63,591.367 1829.19,589.867C1827.76,588.367 1827.04,586.551 1827.04,584.417C1827.04,583.884 1827.13,583.251 1827.29,582.517C1827.46,581.784 1827.68,581.151 1827.94,580.617C1828.81,581.017 1830.09,581.301 1831.79,581.467C1833.49,581.634 1835.48,581.717 1837.74,581.717C1841.14,581.717 1844.99,581.567 1849.29,581.267C1853.59,580.967 1857.71,580.651 1861.64,580.317C1865.58,579.984 1869.04,579.667 1872.04,579.367C1875.04,579.067 1876.98,578.917 1877.84,578.917C1880.31,578.917 1882.09,579.834 1883.19,581.667C1884.29,583.501 1885.11,585.951 1885.64,589.017C1883.91,588.884 1882.19,588.767 1880.49,588.667C1878.79,588.567 1877.34,588.517 1876.14,588.517C1874.01,588.517 1871.86,588.584 1869.69,588.717C1867.53,588.851 1865.34,589.051 1863.14,589.317C1862.21,591.251 1861.18,593.534 1860.04,596.167C1858.91,598.801 1857.79,601.551 1856.69,604.417C1855.59,607.284 1854.54,610.134 1853.54,612.967C1852.54,615.801 1851.68,618.351 1850.94,620.617C1849.48,625.017 1848.19,629.084 1847.09,632.817C1845.99,636.551 1845.03,640.034 1844.19,643.267C1843.36,646.501 1842.64,649.584 1842.04,652.517C1841.44,655.451 1840.91,658.317 1840.44,661.117C1835.98,660.451 1832.24,657.651 1829.24,652.717C1829.78,650.651 1830.43,648.401 1831.19,645.967C1831.96,643.534 1832.86,640.767 1833.89,637.667C1834.93,634.567 1836.14,631.051 1837.54,627.117C1838.94,623.184 1840.54,618.717 1842.34,613.717C1843.01,611.851 1843.71,609.901 1844.44,607.867C1845.18,605.834 1845.89,603.817 1846.59,601.817C1847.29,599.817 1847.93,597.884 1848.49,596.017C1849.06,594.151 1849.54,592.451 1849.94,590.917C1847.14,591.251 1844.49,591.534 1841.99,591.767C1839.49,592.001 1837.28,592.117 1835.34,592.117ZM1885.14,660.317C1881.94,659.384 1879.73,658.451 1878.49,657.517C1877.26,656.584 1876.64,655.417 1876.64,654.017C1876.64,652.951 1876.94,651.451 1877.54,649.517C1878.14,647.584 1879.03,645.301 1880.19,642.667C1881.36,640.034 1882.76,637.117 1884.39,633.917C1886.03,630.717 1887.88,627.284 1889.94,623.617C1888.21,623.551 1886.66,623.501 1885.29,623.467C1883.93,623.434 1882.81,623.417 1881.94,623.417C1882.34,622.417 1883.48,621.551 1885.34,620.817C1887.21,620.084 1889.68,619.451 1892.74,618.917C1895.34,614.584 1898.13,610.451 1901.09,606.517C1904.06,602.584 1907.04,598.967 1910.04,595.667C1913.04,592.367 1916.04,589.467 1919.04,586.967C1922.04,584.467 1924.91,582.484 1927.64,581.017C1927.71,580.551 1927.76,580.151 1927.79,579.817C1927.83,579.484 1927.84,579.251 1927.84,579.117C1928.78,579.117 1930.03,579.351 1931.59,579.817C1933.16,580.284 1934.69,580.851 1936.19,581.517C1937.69,582.184 1939.03,582.867 1940.19,583.567C1941.36,584.267 1942.01,584.851 1942.14,585.317C1939.94,589.184 1937.78,594.967 1935.64,602.667C1933.51,610.367 1931.74,619.584 1930.34,630.317C1930.01,632.984 1929.73,636.017 1929.49,639.417C1929.26,642.817 1929.14,646.617 1929.14,650.817L1929.14,655.317C1929.14,656.851 1929.21,658.451 1929.34,660.117C1929.21,660.184 1929.08,660.217 1928.94,660.217L1928.14,660.217C1927.21,660.217 1926.13,660.067 1924.89,659.767C1923.66,659.467 1922.46,659.101 1921.29,658.667C1920.13,658.234 1919.13,657.751 1918.29,657.217C1917.46,656.684 1916.94,656.217 1916.74,655.817C1916.68,654.951 1916.64,654.101 1916.64,653.267L1916.64,650.617C1916.64,646.484 1916.79,642.284 1917.09,638.017C1917.39,633.751 1917.91,629.351 1918.64,624.817C1917.71,624.751 1916.48,624.667 1914.94,624.567C1913.41,624.467 1911.69,624.384 1909.79,624.317C1907.89,624.251 1905.86,624.167 1903.69,624.067C1901.53,623.967 1899.41,623.884 1897.34,623.817C1895.74,626.817 1894.24,629.801 1892.84,632.767C1891.44,635.734 1890.24,638.717 1889.24,641.717C1888.11,644.917 1887.19,648.117 1886.49,651.317C1885.79,654.517 1885.34,657.517 1885.14,660.317ZM1923.74,600.217C1924.01,599.284 1924.33,598.001 1924.69,596.367C1925.06,594.734 1925.41,593.017 1925.74,591.217C1924.08,591.817 1922.23,592.917 1920.19,594.517C1918.16,596.117 1916.06,598.101 1913.89,600.467C1911.73,602.834 1909.53,605.501 1907.29,608.467C1905.06,611.434 1902.91,614.584 1900.84,617.917C1906.44,617.451 1912.81,617.151 1919.94,617.017C1920.48,614.217 1921.06,611.434 1921.69,608.667C1922.33,605.901 1923.01,603.084 1923.74,600.217Z" style="fill:rgb(12,8,7);stroke:black;stroke-width:6.25px;"/></g><g transform="matrix(1,0,0,1,969.07,-11.6547)"><path d="M1394.7,987.526C1394.37,984.793 1394.12,981.809 1393.95,978.576C1393.78,975.343 1393.7,972.326 1393.7,969.526C1393.7,965.059 1393.85,960.776 1394.15,956.676C1394.45,952.576 1394.82,948.276 1395.25,943.776C1395.68,939.276 1396.17,934.376 1396.7,929.076C1397.23,923.776 1397.7,917.659 1398.1,910.726C1398.97,910.726 1400.22,910.976 1401.85,911.476C1403.48,911.976 1405.13,912.559 1406.8,913.226C1408.47,913.893 1409.93,914.576 1411.2,915.276C1412.47,915.976 1413.2,916.559 1413.4,917.026C1412.27,919.626 1411.25,923.043 1410.35,927.276C1409.45,931.509 1408.7,936.126 1408.1,941.126C1407.5,946.126 1407.03,951.259 1406.7,956.526C1406.37,961.793 1406.2,966.726 1406.2,971.326C1406.2,973.459 1406.23,975.559 1406.3,977.626C1406.37,979.693 1406.47,981.593 1406.6,983.326C1408,981.259 1409.62,978.309 1411.45,974.476C1413.28,970.643 1415.18,966.359 1417.15,961.626C1419.12,956.893 1421.08,951.943 1423.05,946.776C1425.02,941.609 1426.83,936.676 1428.5,931.976C1430.17,927.276 1431.58,923.043 1432.75,919.276C1433.92,915.509 1434.73,912.659 1435.2,910.726C1436.07,910.726 1437.35,910.976 1439.05,911.476C1440.75,911.976 1442.42,912.559 1444.05,913.226C1445.68,913.893 1447.13,914.576 1448.4,915.276C1449.67,915.976 1450.37,916.559 1450.5,917.026C1449.37,919.626 1448.35,923.043 1447.45,927.276C1446.55,931.509 1445.8,936.126 1445.2,941.126C1444.6,946.126 1444.13,951.259 1443.8,956.526C1443.47,961.793 1443.3,966.726 1443.3,971.326C1443.3,973.259 1443.32,975.176 1443.35,977.076C1443.38,978.976 1443.47,980.693 1443.6,982.226C1445.73,976.693 1447.95,971.209 1450.25,965.776C1452.55,960.343 1454.83,955.143 1457.1,950.176C1459.37,945.209 1461.57,940.576 1463.7,936.276C1465.83,931.976 1467.8,928.143 1469.6,924.776C1471.4,921.409 1472.97,918.626 1474.3,916.426C1475.63,914.226 1476.67,912.759 1477.4,912.026C1478.93,912.226 1480.52,912.776 1482.15,913.676C1483.78,914.576 1485.23,915.726 1486.5,917.126C1484.57,918.659 1482.37,921.176 1479.9,924.676C1477.43,928.176 1474.9,932.226 1472.3,936.826C1469.7,941.426 1467.08,946.326 1464.45,951.526C1461.82,956.726 1459.37,961.793 1457.1,966.726C1454.83,971.659 1452.82,976.259 1451.05,980.526C1449.28,984.793 1447.93,988.226 1447,990.826C1445.27,991.626 1443.57,992.026 1441.9,992.026C1439.77,991.759 1437.75,991.226 1435.85,990.426C1433.95,989.626 1432.6,988.659 1431.8,987.526C1431.6,986.459 1431.43,985.209 1431.3,983.776C1431.17,982.343 1431.07,980.926 1431,979.526C1430.93,978.126 1430.88,976.776 1430.85,975.476C1430.82,974.176 1430.8,973.059 1430.8,972.126C1430.8,966.193 1431.03,960.143 1431.5,953.976C1431.97,947.809 1432.53,941.193 1433.2,934.126C1431.67,938.659 1429.97,943.526 1428.1,948.726C1426.23,953.926 1424.28,959.076 1422.25,964.176C1420.22,969.276 1418.15,974.143 1416.05,978.776C1413.95,983.409 1411.9,987.426 1409.9,990.826C1408.17,991.626 1406.47,992.026 1404.8,992.026C1402.67,991.759 1400.65,991.226 1398.75,990.426C1396.85,989.626 1395.5,988.659 1394.7,987.526ZM1491.2,978.726C1491.2,976.326 1491.58,973.209 1492.35,969.376C1493.12,965.543 1494.12,961.409 1495.35,956.976C1496.58,952.543 1498,948.009 1499.6,943.376C1501.2,938.743 1502.83,934.393 1504.5,930.326C1506.17,926.259 1507.8,922.693 1509.4,919.626C1511,916.559 1512.43,914.359 1513.7,913.026C1514.37,913.093 1515.25,913.343 1516.35,913.776C1517.45,914.209 1518.57,914.726 1519.7,915.326C1520.83,915.926 1521.87,916.576 1522.8,917.276C1523.73,917.976 1524.33,918.626 1524.6,919.226C1522.67,920.959 1520.75,923.576 1518.85,927.076C1516.95,930.576 1515.12,934.559 1513.35,939.026C1511.58,943.493 1509.93,948.209 1508.4,953.176C1506.87,958.143 1505.53,962.959 1504.4,967.626C1503.27,972.293 1502.38,976.626 1501.75,980.626C1501.12,984.626 1500.8,987.859 1500.8,990.326C1500.8,991.459 1500.9,992.159 1501.1,992.426C1499.63,992.359 1498.57,992.109 1497.9,991.676C1497.23,991.243 1496.72,990.776 1496.35,990.276C1495.98,989.776 1495.65,989.276 1495.35,988.776C1495.05,988.276 1494.6,987.893 1494,987.626C1493.53,987.426 1493.13,986.959 1492.8,986.226C1492.47,985.493 1492.18,984.676 1491.95,983.776C1491.72,982.876 1491.53,981.959 1491.4,981.026C1491.27,980.093 1491.2,979.326 1491.2,978.726ZM1567.9,978.726C1569.57,981.593 1570.4,984.359 1570.4,987.026C1570.4,987.626 1570.35,988.176 1570.25,988.676C1570.15,989.176 1570.03,989.693 1569.9,990.226C1568.77,990.093 1567.58,989.993 1566.35,989.926C1565.12,989.859 1563.83,989.826 1562.5,989.826C1560.9,989.826 1559.28,989.876 1557.65,989.976C1556.02,990.076 1554.2,990.226 1552.2,990.426C1550.2,990.626 1547.97,990.893 1545.5,991.226C1543.03,991.559 1540.17,991.993 1536.9,992.526C1535.37,991.993 1533.83,990.943 1532.3,989.376C1530.77,987.809 1529.33,985.926 1528,983.726C1528.67,982.259 1529.5,980.443 1530.5,978.276C1531.5,976.109 1532.67,973.476 1534,970.376C1535.33,967.276 1536.82,963.643 1538.45,959.476C1540.08,955.309 1541.83,950.493 1543.7,945.026C1544.9,941.426 1545.93,938.259 1546.8,935.526C1547.67,932.793 1548.45,930.143 1549.15,927.576C1549.85,925.009 1550.53,922.326 1551.2,919.526C1551.87,916.726 1552.6,913.493 1553.4,909.826C1556.07,910.359 1558.38,911.343 1560.35,912.776C1562.32,914.209 1564.2,916.259 1566,918.926C1565.47,919.793 1564.77,921.193 1563.9,923.126C1563.03,925.059 1562.02,927.409 1560.85,930.176C1559.68,932.943 1558.4,936.076 1557,939.576C1555.6,943.076 1554.13,946.826 1552.6,950.826C1551.13,954.759 1549.7,958.459 1548.3,961.926C1546.9,965.393 1545.65,968.526 1544.55,971.326C1543.45,974.126 1542.57,976.526 1541.9,978.526C1541.23,980.526 1540.9,982.026 1540.9,983.026C1541.97,982.959 1542.93,982.893 1543.8,982.826C1544.67,982.759 1545.57,982.643 1546.5,982.476C1547.43,982.309 1548.45,982.109 1549.55,981.876C1550.65,981.643 1551.97,981.326 1553.5,980.926C1554.83,980.593 1556.07,980.309 1557.2,980.076C1558.33,979.843 1559.45,979.643 1560.55,979.476C1561.65,979.309 1562.78,979.176 1563.95,979.076C1565.12,978.976 1566.43,978.859 1567.9,978.726ZM1595.5,979.226C1596.5,977.026 1597.7,974.193 1599.1,970.726C1600.5,967.259 1601.97,963.509 1603.5,959.476C1605.03,955.443 1606.6,951.309 1608.2,947.076C1609.8,942.843 1611.3,938.826 1612.7,935.026C1614.1,931.226 1615.32,927.826 1616.35,924.826C1617.38,921.826 1618.13,919.526 1618.6,917.926C1614.4,919.659 1610.8,922.293 1607.8,925.826C1604.8,929.359 1602.53,933.793 1601,939.126C1599.47,938.593 1598.07,937.643 1596.8,936.276C1595.53,934.909 1594.7,933.193 1594.3,931.126C1594.97,928.059 1596.22,925.259 1598.05,922.726C1599.88,920.193 1602.2,918.026 1605,916.226C1607.8,914.426 1611.03,913.043 1614.7,912.076C1618.37,911.109 1622.3,910.626 1626.5,910.626C1631.83,910.626 1636.73,911.409 1641.2,912.976C1645.67,914.543 1649.5,916.726 1652.7,919.526C1655.9,922.326 1658.4,925.693 1660.2,929.626C1662,933.559 1662.9,937.926 1662.9,942.726C1662.9,949.259 1661.7,955.493 1659.3,961.426C1656.9,967.359 1653.65,972.593 1649.55,977.126C1645.45,981.659 1640.7,985.276 1635.3,987.976C1629.9,990.676 1624.23,992.026 1618.3,992.026C1612.83,992.026 1608.15,990.943 1604.25,988.776C1600.35,986.609 1597.43,983.426 1595.5,979.226ZM1630.8,915.626C1627.47,915.626 1624.3,916.093 1621.3,917.026C1624.23,918.093 1626.67,919.209 1628.6,920.376C1630.53,921.543 1631.87,922.459 1632.6,923.126C1632.07,923.859 1631.28,925.159 1630.25,927.026C1629.22,928.893 1628.02,931.159 1626.65,933.826C1625.28,936.493 1623.83,939.409 1622.3,942.576C1620.77,945.743 1619.27,948.993 1617.8,952.326C1614,960.793 1611.25,967.459 1609.55,972.326C1607.85,977.193 1607,980.559 1607,982.426C1607.93,982.759 1609.07,982.993 1610.4,983.126C1611.73,983.259 1613.17,983.326 1614.7,983.326C1620.1,983.326 1625.22,982.076 1630.05,979.576C1634.88,977.076 1639.12,973.726 1642.75,969.526C1646.38,965.326 1649.25,960.443 1651.35,954.876C1653.45,949.309 1654.5,943.459 1654.5,937.326C1654.5,930.459 1652.37,925.126 1648.1,921.326C1643.83,917.526 1638.07,915.626 1630.8,915.626Z" style="fill:rgb(12,8,7);stroke:black;stroke-width:6.25px;"/></g><g transform="matrix(1,0,0,1,969.07,-11.6547)"><path d="M1860.48,928.326C1860.48,931.526 1859.76,934.543 1858.33,937.376C1856.89,940.209 1854.91,942.743 1852.38,944.976C1849.84,947.209 1846.88,949.093 1843.48,950.626C1840.08,952.159 1836.38,953.193 1832.38,953.726C1833.38,956.726 1834.59,959.809 1836.03,962.976C1837.46,966.143 1839.01,969.193 1840.68,972.126C1842.34,975.059 1844.08,977.759 1845.88,980.226C1847.68,982.693 1849.44,984.726 1851.18,986.326C1850.84,986.993 1850.36,987.659 1849.73,988.326C1849.09,988.993 1848.36,989.609 1847.53,990.176C1846.69,990.743 1845.83,991.209 1844.93,991.576C1844.03,991.943 1843.18,992.126 1842.38,992.126C1840.91,992.126 1839.51,991.426 1838.18,990.026C1836.84,988.626 1835.49,986.409 1834.13,983.376C1832.76,980.343 1831.33,976.409 1829.83,971.576C1828.33,966.743 1826.68,960.926 1824.88,954.126L1822.68,954.126C1821.94,954.126 1821.38,954.059 1820.98,953.926C1820.51,953.659 1820.01,953.193 1819.48,952.526C1817.68,956.393 1816.08,960.026 1814.68,963.426C1813.28,966.826 1812.03,970.109 1810.93,973.276C1809.83,976.443 1808.86,979.509 1808.03,982.476C1807.19,985.443 1806.48,988.459 1805.88,991.526C1803.61,990.993 1801.64,990.026 1799.98,988.626C1798.31,987.226 1796.74,985.259 1795.28,982.726C1795.54,982.126 1795.83,981.543 1796.13,980.976C1796.43,980.409 1796.81,979.609 1797.28,978.576C1797.74,977.543 1798.33,976.226 1799.03,974.626L1801.83,968.226C1802.99,965.559 1804.39,962.293 1806.03,958.426C1807.66,954.559 1809.64,949.859 1811.98,944.326C1813.04,941.859 1813.96,939.693 1814.73,937.826C1815.49,935.959 1816.18,934.176 1816.78,932.476C1817.38,930.776 1817.93,929.076 1818.43,927.376C1818.93,925.676 1819.44,923.726 1819.98,921.526C1816.91,922.593 1814.06,923.776 1811.43,925.076C1808.79,926.376 1806.61,927.759 1804.88,929.226C1804.28,928.826 1803.66,928.226 1803.03,927.426C1802.39,926.626 1801.81,925.743 1801.28,924.776C1800.74,923.809 1800.28,922.826 1799.88,921.826C1799.48,920.826 1799.24,919.926 1799.18,919.126C1801.18,917.793 1803.63,916.559 1806.53,915.426C1809.43,914.293 1812.51,913.309 1815.78,912.476C1819.04,911.643 1822.38,910.993 1825.78,910.526C1829.18,910.059 1832.34,909.826 1835.28,909.826C1843.28,909.826 1849.48,911.476 1853.88,914.776C1858.28,918.076 1860.48,922.593 1860.48,928.326ZM1836.08,919.926C1835.61,920.526 1834.88,921.726 1833.88,923.526C1832.88,925.326 1831.73,927.476 1830.43,929.976C1829.13,932.476 1827.76,935.193 1826.33,938.126C1824.89,941.059 1823.51,943.959 1822.18,946.826C1827.18,946.826 1831.78,946.359 1835.98,945.426C1840.18,944.493 1843.81,943.176 1846.88,941.476C1849.94,939.776 1852.33,937.776 1854.03,935.476C1855.73,933.176 1856.58,930.626 1856.58,927.826C1856.58,924.493 1855.38,921.943 1852.98,920.176C1850.58,918.409 1846.88,917.526 1841.88,917.526C1840.74,917.526 1839.61,917.576 1838.48,917.676C1837.34,917.776 1836.14,917.893 1834.88,918.026L1836.08,919.926ZM1877.08,991.026C1873.88,990.093 1871.66,989.159 1870.43,988.226C1869.19,987.293 1868.58,986.126 1868.58,984.726C1868.58,983.659 1868.88,982.159 1869.48,980.226C1870.08,978.293 1870.96,976.009 1872.13,973.376C1873.29,970.743 1874.69,967.826 1876.33,964.626C1877.96,961.426 1879.81,957.993 1881.88,954.326C1880.14,954.259 1878.59,954.209 1877.23,954.176C1875.86,954.143 1874.74,954.126 1873.88,954.126C1874.28,953.126 1875.41,952.259 1877.28,951.526C1879.14,950.793 1881.61,950.159 1884.68,949.626C1887.28,945.293 1890.06,941.159 1893.03,937.226C1895.99,933.293 1898.98,929.676 1901.98,926.376C1904.98,923.076 1907.98,920.176 1910.98,917.676C1913.98,915.176 1916.84,913.193 1919.58,911.726C1919.64,911.259 1919.69,910.859 1919.73,910.526C1919.76,910.193 1919.78,909.959 1919.78,909.826C1920.71,909.826 1921.96,910.059 1923.53,910.526C1925.09,910.993 1926.63,911.559 1928.13,912.226C1929.63,912.893 1930.96,913.576 1932.13,914.276C1933.29,914.976 1933.94,915.559 1934.08,916.026C1931.88,919.893 1929.71,925.676 1927.58,933.376C1925.44,941.076 1923.68,950.293 1922.28,961.026C1921.94,963.693 1921.66,966.726 1921.43,970.126C1921.19,973.526 1921.08,977.326 1921.08,981.526L1921.08,986.026C1921.08,987.559 1921.14,989.159 1921.28,990.826C1921.14,990.893 1921.01,990.926 1920.88,990.926L1920.08,990.926C1919.14,990.926 1918.06,990.776 1916.83,990.476C1915.59,990.176 1914.39,989.809 1913.23,989.376C1912.06,988.943 1911.06,988.459 1910.23,987.926C1909.39,987.393 1908.88,986.926 1908.68,986.526C1908.61,985.659 1908.58,984.809 1908.58,983.976L1908.58,981.326C1908.58,977.193 1908.73,972.993 1909.03,968.726C1909.33,964.459 1909.84,960.059 1910.58,955.526C1909.64,955.459 1908.41,955.376 1906.88,955.276C1905.34,955.176 1903.63,955.093 1901.73,955.026C1899.83,954.959 1897.79,954.876 1895.63,954.776C1893.46,954.676 1891.34,954.593 1889.28,954.526C1887.68,957.526 1886.18,960.509 1884.78,963.476C1883.38,966.443 1882.18,969.426 1881.18,972.426C1880.04,975.626 1879.13,978.826 1878.43,982.026C1877.73,985.226 1877.28,988.226 1877.08,991.026ZM1915.68,930.926C1915.94,929.993 1916.26,928.709 1916.63,927.076C1916.99,925.443 1917.34,923.726 1917.68,921.926C1916.01,922.526 1914.16,923.626 1912.13,925.226C1910.09,926.826 1907.99,928.809 1905.83,931.176C1903.66,933.543 1901.46,936.209 1899.23,939.176C1896.99,942.143 1894.84,945.293 1892.78,948.626C1898.38,948.159 1904.74,947.859 1911.88,947.726C1912.41,944.926 1912.99,942.143 1913.63,939.376C1914.26,936.609 1914.94,933.793 1915.68,930.926ZM1950.38,963.826C1950.38,959.159 1950.93,954.576 1952.03,950.076C1953.13,945.576 1954.68,941.309 1956.68,937.276C1958.68,933.243 1961.06,929.543 1963.83,926.176C1966.59,922.809 1969.63,919.893 1972.93,917.426C1976.23,914.959 1979.74,913.043 1983.48,911.676C1987.21,910.309 1991.04,909.626 1994.98,909.626C1999.58,909.626 2003.16,910.593 2005.73,912.526C2008.29,914.459 2009.58,917.159 2009.58,920.626C2009.58,921.959 2009.39,923.326 2009.03,924.726C2008.66,926.126 2008.13,927.509 2007.43,928.876C2006.73,930.243 2005.91,931.559 2004.98,932.826C2004.04,934.093 2003.01,935.193 2001.88,936.126C2000.14,935.859 1998.64,935.076 1997.38,933.776C1996.11,932.476 1995.31,930.959 1994.98,929.226C1997.31,927.293 1999.16,925.276 2000.53,923.176C2001.89,921.076 2002.58,919.159 2002.58,917.426C2002.58,914.493 2000.74,913.026 1997.08,913.026C1995.54,913.026 1993.96,913.343 1992.33,913.976C1990.69,914.609 1989.04,915.493 1987.38,916.626C1985.71,917.759 1984.09,919.126 1982.53,920.726C1980.96,922.326 1979.51,924.093 1978.18,926.026C1968.91,939.359 1964.28,952.993 1964.28,966.926C1964.28,971.859 1965.04,975.826 1966.58,978.826C1968.11,981.826 1970.14,983.593 1972.68,984.126C1975.54,983.459 1979.18,981.626 1983.58,978.626C1987.98,975.626 1992.78,971.726 1997.98,966.926C1998.64,967.593 1999.04,968.293 1999.18,969.026C1997.24,971.559 1995.24,973.993 1993.18,976.326C1991.11,978.659 1989.06,980.793 1987.03,982.726C1984.99,984.659 1982.99,986.359 1981.03,987.826C1979.06,989.293 1977.24,990.426 1975.58,991.226C1967.31,991.093 1961.04,988.726 1956.78,984.126C1952.51,979.526 1950.38,972.759 1950.38,963.826ZM2058.48,940.826C2060.68,940.826 2062.39,941.426 2063.63,942.626C2064.86,943.826 2065.48,945.493 2065.48,947.626C2065.48,948.159 2065.43,948.709 2065.33,949.276C2065.23,949.843 2065.11,950.326 2064.98,950.726C2064.11,950.593 2063.14,950.476 2062.08,950.376C2061.01,950.276 2059.74,950.226 2058.28,950.226C2055.41,950.226 2052.51,950.476 2049.58,950.976C2046.64,951.476 2043.84,951.893 2041.18,952.226C2039.64,955.759 2038.24,959.176 2036.98,962.476C2035.71,965.776 2034.63,968.793 2033.73,971.526C2032.83,974.259 2032.13,976.626 2031.63,978.626C2031.13,980.626 2030.84,982.126 2030.78,983.126C2036.18,981.993 2041.63,981.026 2047.13,980.226C2052.63,979.426 2058.41,978.826 2064.48,978.426C2065.21,979.559 2065.83,980.793 2066.33,982.126C2066.83,983.459 2067.08,984.893 2067.08,986.426L2067.08,987.726C2067.08,988.193 2067.01,988.659 2066.88,989.126C2065.01,989.059 2063.04,989.009 2060.98,988.976C2058.91,988.943 2056.21,988.926 2052.88,988.926C2050.68,988.926 2048.59,988.976 2046.63,989.076C2044.66,989.176 2042.68,989.326 2040.68,989.526C2038.68,989.726 2036.56,989.993 2034.33,990.326C2032.09,990.659 2029.58,991.059 2026.78,991.526C2023.71,990.326 2020.74,987.393 2017.88,982.726C2019.01,980.326 2020.59,976.676 2022.63,971.776C2024.66,966.876 2027.24,960.326 2030.38,952.126C2027.38,951.193 2025.41,949.526 2024.48,947.126C2024.81,946.793 2025.78,946.376 2027.38,945.876C2028.98,945.376 2030.94,944.859 2033.28,944.326C2034.28,941.726 2035.13,939.459 2035.83,937.526C2036.53,935.593 2037.14,933.776 2037.68,932.076C2038.21,930.376 2038.69,928.709 2039.13,927.076C2039.56,925.443 2039.98,923.659 2040.38,921.726C2038.04,921.593 2036.21,920.943 2034.88,919.776C2033.54,918.609 2032.88,917.093 2032.88,915.226C2032.88,914.693 2032.96,914.059 2033.13,913.326C2033.29,912.593 2033.48,911.959 2033.68,911.426C2035.01,911.626 2036.29,911.759 2037.53,911.826C2038.76,911.893 2040.38,911.926 2042.38,911.926C2046.58,911.926 2050.51,911.809 2054.18,911.576C2057.84,911.343 2061.16,911.093 2064.13,910.826C2067.09,910.559 2069.64,910.309 2071.78,910.076C2073.91,909.843 2075.54,909.726 2076.68,909.726C2078.21,909.726 2079.58,910.526 2080.78,912.126C2081.98,913.726 2082.88,915.993 2083.48,918.926C2081.41,918.726 2079.73,918.593 2078.43,918.526C2077.13,918.459 2075.98,918.426 2074.98,918.426C2071.31,918.426 2067.96,918.609 2064.93,918.976C2061.89,919.343 2058.98,919.726 2056.18,920.126C2055.78,920.726 2055.33,921.493 2054.83,922.426C2054.33,923.359 2053.68,924.659 2052.88,926.326C2052.08,927.993 2051.09,930.093 2049.93,932.626C2048.76,935.159 2047.34,938.326 2045.68,942.126C2048.21,941.726 2050.59,941.409 2052.83,941.176C2055.06,940.943 2056.94,940.826 2058.48,940.826Z" style="fill:rgb(12,8,7);stroke:black;stroke-width:6.25px;"/></g></g></svg>