<svg width="100%" height="100%" viewBox="0 0 623 659" version="1.1" xmlns="http://www.w3.org/2000/svg" xmlns:xlink="http://www.w3.org/1999/xlink" xml:space="preserve" xmlns:serif="http://www.serif.com/" style="fill-rule:evenodd;clip-rule:evenodd;stroke-linejoin:round;"><path id="trk1:p860" d="M616.469,1.457L619.957,5.434L618.397,5.832L614.358,7.954L606.878,12.992L599.398,18.031L595.91,19.755L584.161,21.479L583.978,19.225L581.04,13.258L580.49,9.943L580.49,5.965L578.471,7.954L576.451,12.992L574.615,18.562L574.065,21.877L574.065,24.264L572.964,26.915L571.77,30.893L571.77,36.727L571.127,39.91L568.558,43.225L565.988,46.009L560.573,51.114L555.158,56.22L550.66,58.739L546.346,60.727L541.023,62.584L532.396,62.584L530.56,64.307L528.448,65.767L526.889,67.889L525.42,68.021L524.227,67.49L520.555,66.96L517.435,67.092L513.947,67.889L511.836,66.96L510.092,66.694L500.914,67.755L497.518,66.562L489.992,62.319L487.145,61.788L480.95,59.136L474.755,56.485L467.505,51.777L460.254,47.07L458.51,43.49L456.491,37.39L455.48,33.81L452.911,30.628L449.331,27.976L447.128,27.181L443.64,27.578L439.786,28.374L435.655,29.7L431.342,31.822L428.404,34.076L421.612,38.584L413.627,42.429L406.01,45.214L401.604,45.347L395.867,42.893L390.131,40.44L388.938,37.921L380.861,34.208L373.61,26.252L367.46,18.826L360.576,16.043L351.949,18.164L345.431,19.357L338.089,21.611L330.196,22.937L325.699,21.611L316.245,25.059L307.433,28.905L298.347,31.822L293.023,34.208L289.26,35.136L285.314,37.656L284.488,40.573L282.652,42.694L277.971,44.816L274.942,45.347L269.802,44.816L268.334,45.611L266.865,46.408L266.59,49.987L265.397,54.628L263.193,57.147L258.788,60.595L258.146,61.788L256.402,62.451L250.527,63.38L246.489,63.512L243.368,64.043L242.175,64.838L241.349,65.767L240.799,66.562L240.431,68.021L240.799,73.059L241.349,75.048L242.635,77.7L243.093,79.291L243.276,79.689L243.368,85.258L242.359,88.175L239.88,90.695L237.219,94.009L234.558,95.601L231.436,96.529L230.61,97.192L229.784,98.253L228.316,101.568L227.398,104.75L226.481,106.076L221.249,108.861L219.23,111.115L216.843,114.165L215.191,115.49L213.906,117.214L213.906,119.336L213.447,119.999L213.172,120.794L213.08,120.794L212.529,122.518L211.428,124.374L209.133,125.701L207.39,126.231L206.564,126.761L205.278,128.485L204.728,130.208L204.728,132.463L202.249,138.563L198.945,142.408L190.042,147.447L187.839,149.17L183.25,151.425L181.139,151.955L179.579,153.281L176.734,155.269L175.908,157.259L175.632,161.104L173.338,164.684L171.134,165.877L167.005,169.06L165.444,170.784L161.773,174.099L159.294,175.292L153.971,175.425L151.768,176.75L149.198,176.883L146.996,179.535L144.517,179.668L142.222,180.596L140.387,182.32L138.276,183.778L136.716,184.044L133.962,185.37L130.842,185.634L127.721,184.839L125.793,183.778L124.417,183.778L121.388,184.573L118.909,184.971L118.818,184.971L115.606,185.37L109.548,187.624L107.069,189.348L102.848,194.519L101.93,196.508L101.838,199.159L101.287,201.679L101.654,206.851L102.205,209.105L102.113,212.154L102.663,216.265L100.921,219.314L100.644,221.303L99.177,223.425L97.524,225.281L96.147,227.535L93.945,229.391L91.283,232.971L89.631,234.563L86.051,236.553L83.298,239.47L80.269,241.989L78.617,244.773L77.607,245.833L76.965,247.16L76.781,248.353L76.322,249.281L75.955,251.271L75.955,254.585L75.404,255.779L73.293,258.829L71.733,262.673L70.907,263.867L69.805,264.928L67.144,266.784L65.216,268.641L61.82,268.906L58.975,268.375L54.386,271.823L54.477,273.016L54.477,273.547L53.101,274.608L53.101,275.535L53.56,276.066L54.202,276.198L59.801,275.403L64.023,273.149L64.665,273.149L71.366,274.608L73.66,274.077L76.138,273.149L86.602,278.983L88.07,281.768L96.147,285.348L99.727,285.614L102.113,289.326L103.581,289.724L106.243,292.243L111.2,292.508L111.934,293.436L114.963,294.365L118.726,298.077L120.103,297.813L122.03,299.138L127.721,298.608L131.025,300.464L131.851,300.464L134.237,301.525L135.063,301.393L137.175,302.055L139.561,302.055L142.498,304.044L143.508,305.503L143.325,307.093L144.426,309.614L143.966,311.734L144.15,314.519L143.691,315.713L141.396,318.099L141.03,322.343L140.203,324.067L138.001,326.984L139.561,327.381L141.488,329.635L144.334,335.337L144.426,337.458L145.894,339.315L146.078,342.099L146.812,342.895L147.638,346.74L149.015,348.332L152.411,358.542L151.585,360.398L151.493,363.05L151.126,364.774L149.107,367.824L149.107,367.956L146.996,371.138L146.078,373.26L144.517,375.515L143.416,375.779L142.131,375.515L141.672,376.442L140.57,376.708L139.928,377.371L139.652,378.564L139.011,379.359L136.44,379.625L135.523,380.553L133.87,380.022L131.484,380.686L129.281,382.276L127.262,382.41L126.16,383.205L123.315,383.47L122.489,383.337L122.122,383.868L122.122,385.061L121.755,386.653L122.122,389.304L121.939,391.028L122.397,392.221L122.122,392.884L122.948,395.801L122.58,396.199L122.489,396.994L123.132,397.525L122.765,399.116L122.122,400.708L122.122,401.106L122.948,402.299L123.132,404.023L122.948,404.951L124.509,407.337L124.141,408.929L124.141,410.653L124.692,410.917L124.967,412.244L125.702,412.775L125.335,414.233L124.967,414.497L123.958,414.631L123.132,416.089L123.683,416.355L123.223,417.15L123.591,417.15L123.499,417.415L123.958,417.282L123.132,418.741L123.132,419.272L122.765,420.067L123.132,420.332L122.948,420.465L123.407,420.996L123.223,421.393L123.315,421.526L124.141,421.791L123.866,422.454L124.417,422.719L124.233,423.249L124.509,423.647L123.591,423.779L123.04,424.708L121.479,426.299L120.653,427.89L117.991,431.868L117.625,432.797L116.615,432.929L115.789,433.327L114.963,434.122L114.78,436.112L113.127,437.835L113.219,438.763L112.576,439.692L113.036,439.558L112.209,442.078L112.209,442.741L111.934,443.272L112.118,444.333L111.383,446.852L111.658,447.382L111.658,451.227L110.832,453.084L110.649,454.144L110.832,454.808L109.548,465.68L112.669,471.78L111.751,477.615L111.751,482.256L112.301,485.039L113.862,487.426L115.055,491.404L116.064,497.504L115.881,501.615L116.432,503.603L115.146,504.399L111.843,505.99L109.089,506.52L107.804,507.581L107.161,509.173L107.069,512.09L106.336,515.007L106.886,516.333L108.079,517.526L109.089,520.179L110.649,525.615L113.953,531.581L114.688,533.703L113.862,535.692L114.228,539.139L112.118,540.996L111.475,542.455L111.017,544.709L111.383,546.83L113.036,550.94L113.678,553.062L113.587,554.52L112.852,555.449L110.649,556.112L109.823,556.908L108.446,557.438L105.51,557.703L103.949,559.427L103.031,560.09L100.921,559.825L99.36,560.488L97.433,561.946L95.505,564.2L95.138,565.924L92.567,570.698L91.65,576.001L91.191,577.328L89.906,577.991L86.602,579.051L83.94,579.449L80.361,579.449L78.984,580.245L78.617,581.173L77.516,581.703L74.946,581.836L65.859,587.007L63.197,589.526L60.81,592.179L59.067,596.157L57.231,601.062L56.588,601.461L55.855,606.764L55.029,609.019L54.844,609.946L54.294,610.61L54.569,613.261L54.937,613.261L54.937,614.587L55.395,615.118L55.395,616.974L54.386,618.698L52.183,620.555L49.429,622.145L45.942,622.543L40.985,622.411L40.251,622.676L36.763,622.145L34.744,622.411L32.816,622.279L31.44,622.411L29.512,623.472L28.594,623.472L28.044,622.676L27.952,621.748L26.943,621.881L26.3,622.808L25.749,624.267L25.015,624.532L21.16,624.002L19.416,624.665L18.957,625.062L18.315,626.256L16.479,633.417L16.662,636.997L15.836,639.383L13.817,642.301L11.522,647.206L12.165,650.786L15.561,655.958L15.378,657.549L12.991,657.151L12.073,656.488L7.026,650.92L4.364,646.942L4.088,644.289L3.079,642.168L2.895,640.444L3.079,639.383L2.712,634.08L1.059,630.764L1.151,630.764L1.059,630.5L2.161,623.074L3.446,620.555L5.282,613.527L5.74,612.731L5.74,612.863L7.851,609.151L7.118,604.51L7.759,603.052L7.851,600.665L9.228,599.206L9.503,596.952L10.88,596.289L10.88,591.78L9.871,589.526L10.054,587.936L10.604,587.273L9.963,584.09L11.615,582.101L11.156,580.112L11.89,578.388L11.89,575.471L13.359,572.289L13.266,571.228L13.542,570.698L13.451,570.698L14.552,568.577L18.406,564.465L19.416,562.477L19.141,558.101L18.223,556.378L18.131,554.654L18.681,549.879L18.59,547.36L19.692,542.322L18.315,539.538L19.233,536.09L19.416,528.266L20.517,525.482L20.334,523.626L23.179,518.719L23.455,516.996L22.904,516.068L23.087,514.078L21.343,510.498L20.885,500.818L23.547,498.167L24.923,495.78L23.73,492.597L29.696,490.874L32.816,488.09L34.744,485.57L38.14,483.449L40.342,481.195L42.178,481.062L44.198,477.879L46.675,476.288L49.522,474.432L52.183,473.769L54.569,472.576L56.956,471.25L61.728,469.791L65.491,469.791L68.429,468.996L72.65,465.416L74.669,465.017L75.312,462.631L77.331,459.978L77.423,460.112L78.157,457.592L79.167,455.471L79.901,453.217L79.718,450.83L77.516,449.238L73.018,447.382L70.723,446.852L68.429,445.791L66.409,444.597L64.39,443.006L62.921,440.619L61.362,438.763L60.076,433.99L59.893,431.471L60.994,426.432L61.728,424.045L61.362,421.658L61.637,419.272L62.188,416.752L63.747,414.895L64.482,412.641L66.409,408.134L66.685,404.686L66.592,403.227L68.153,401.503L69.622,400.576L70.54,400.177L72.834,399.779L74.762,398.189L77.607,394.211L79.443,392.355L81.737,387.846L81.462,387.58L80.269,385.856L78.984,381.083L80.085,378.696L80.911,376.442L81.003,373.923L81.554,371.536L81.095,366.895L81.37,361.856L81.095,359.205L79.718,357.349L79.075,354.961L77.974,352.84L77.423,350.454L77.423,348.994L76.965,347.669L76.23,343.028L76.965,335.735L78.525,333.746L79.167,331.359L78.892,326.454L78.525,323.933L79.167,319.16L79.901,316.906L80.911,314.652L81.095,312.133L78.708,311.868L77.607,312.133L73.66,311.734L72.375,306.696L71.366,304.176L70.631,299.271L70.448,296.752L72.284,295.028L69.53,293.569L68.061,292.641L68.796,290.121L68.521,287.072L68.979,284.817L68.796,284.287L78.249,283.756L85.133,279.779L86.877,275.271L88.805,272.884L88.713,272.884L91.833,273.281L95.321,273.547L98.166,274.872L100.828,275.669L105.968,276.464L107.069,276.332L106.978,276.332L108.722,275.801L110.832,274.342L112.761,274.21L114.596,273.812L117.808,272.088L121.388,271.425L124.141,271.558L129.19,268.906L131.025,268.508L132.494,268.508L135.614,269.038L138.643,268.111L139.837,267.977L144.426,269.436L145.71,269.569L150.942,269.304L153.236,269.436L154.062,269.701L156.449,271.16L160.488,272.486L164.526,272.884L171.685,272.884L172.97,273.149L179.671,279.115L182.974,282.829L185.82,285.215L189.858,289.724L190.042,285.348L191.969,281.503L198.302,282.563L198.119,279.513L200.964,276.862L203.81,275.933L205.003,273.281L207.114,271.558L207.848,272.353L214.548,266.253L217.577,264.663L218.404,263.072L222.166,263.867L223.268,263.072L229.234,263.602L230.794,258.961L233.272,259.359L236.668,257.237L237.035,255.513L241.532,252.464L242.45,247.955L247.132,243.314L249.334,243.712L251.813,240.132L253.923,239.47L256.677,239.867L261.725,238.143L262.735,238.939L265.397,236.95L266.59,237.348L267.416,235.093L268.976,233.635L268.425,230.983L270.261,229.391L270.536,223.691L272.923,220.243L273.382,220.375L273.474,217.989L272.831,217.192L272.556,215.336L274.208,214.143L274.208,213.48L276.686,212.022L278.063,209.634L281.183,207.115L284.121,206.32L286.048,207.115L289.352,202.74L293.299,198.63L292.381,196.772L294.125,195.579L299.724,195.314L302.018,196.508L306.607,195.314L311.38,197.966L317.437,201.016L320.099,205.524L320.742,207.91L322.028,209.237L323.404,208.574L323.863,207.778L323.863,206.054L327.075,203.137L329.186,199.292L328.727,197.966L329.462,197.569L330.38,197.966L332.124,197.303L334.234,198.364L335.519,197.701L336.529,197.966L339.007,195.182L340.842,194.519L342.403,195.182L343.596,194.519L344.239,194.519L345.616,195.182L349.745,192.795L352.682,189.878L355.437,189.082L358.74,188.685L365.028,184.64L371.315,180.596L375.72,176.75L377.464,176.883L379.3,174.762L390.589,171.711L394.261,172.242L397.565,171.579L400.227,172.11L401.236,169.988L405.55,167.734L413.26,165.348L415.188,162.828L419.502,163.226L423.815,165.745L430.056,171.447L431.8,174.231L433.819,174.894L434.095,177.546L437.215,178.076L440.152,175.425L448.414,174.629L452.727,172.772L453.186,168.794L457.407,169.192L457.684,167.601L460.345,166.541L462.639,164.021L457.592,159.711L452.543,155.402L448.046,148.64L444.741,143.601L445.109,140.551L450.065,136.971L456.306,133.391L464.292,129.149L469.982,125.435L474.664,126.098L479.161,125.17L482.006,124.109L482.006,124.374L482.741,124.242L484.025,123.711L489.9,122.386L491.919,122.65L499.353,119.469L501.923,118.938L503.576,118.009L504.952,117.877L504.86,117.877L505.778,117.347L507.338,117.214L511.376,118.143L512.294,118.806L515.232,119.733L518.812,119.733L522.024,120.131L524.41,121.192L527.807,122.386L530.009,123.844L531.478,126.761L532.487,127.954L536.709,130.607L540.288,134.452L544.511,135.91L546.806,135.778L548.916,136.176L551.67,138.032L551.67,138.695L551.945,138.828L553.506,138.96L554.057,138.563L554.974,137.899L555.525,137.104L555.984,134.849L555.801,132.463L555.066,131.402L554.883,129.811L554.883,128.088L554.607,126.364L555.341,124.374L559.472,124.242L563.877,127.425L564.887,130.208L568.65,130.871L570.486,130.208L570.026,126.496L572.413,125.966L579.847,125.568L579.939,125.435L578.287,123.579L572.046,121.723L568.925,120.397L566.263,118.408L560.848,112.441L556.167,105.678L553.506,99.977L552.588,96.264L555.984,95.203L560.848,94.672L564.244,92.816L567.456,90.297L570.577,89.634L575.166,90.695L581.775,87.114L586.455,88.309L590.586,90.031L596.276,91.226L601.508,90.695L602.701,89.502L603.436,85.258L603.436,85.391L603.712,83.534L604.996,80.352L603.527,77.303L602.977,71.999L603.344,67.623L603.252,61.656L602.518,55.159L597.011,51.181L594.441,48.528L592.33,47.468L590.586,44.816L585.63,35.269L584.345,33.412L583.427,29.435L582.601,22.407L584.161,21.479L595.91,19.755L599.398,18.031L606.878,12.992L614.358,7.954L618.397,5.832L621.059,5.169L617.204,1.059" style="fill:none;fill-rule:nonzero;stroke:rgb(237,89,43);stroke-width:2.12px;"/></svg>