<?xml version="1.0" encoding="UTF-8" standalone="no"?><!DOCTYPE svg PUBLIC "-//W3C//DTD SVG 1.1//EN" "http://www.w3.org/Graphics/SVG/1.1/DTD/svg11.dtd"><svg width="100%" height="100%" viewBox="0 0 5689 1768" version="1.1" xmlns="http://www.w3.org/2000/svg" xmlns:xlink="http://www.w3.org/1999/xlink" xml:space="preserve" xmlns:serif="http://www.serif.com/" style="fill-rule:evenodd;clip-rule:evenodd;stroke-miterlimit:10;"><g id="XMLID_215_"><g id="XMLID_4_"><path id="XMLID_5_" d="M2941.06,609.449L2874.16,570.849L2931.56,570.949L2960.46,525.649L2998.66,541.649C2957.76,498.549 2928.76,520.249 2928.76,520.249L2880.56,556.149C2861.16,570.549 2852.56,556.149 2852.56,556.149L2835.56,522.249C2802.46,491.549 2772.76,522.649 2772.76,522.649L2754.56,555.649C2737.06,573.749 2720.06,556.249 2720.06,556.249L2674.66,522.349C2635.16,492.949 2608.46,530.449 2608.46,530.449L2643.96,517.449L2668.76,565.649L2725.86,568.649L2657.96,606.949C2739.56,603.149 2749.06,638.749 2749.06,638.749L2803.56,804.249L2854.76,640.349C2874.86,596.749 2935.16,608.149 2941.06,609.449ZM2689.86,1014.75L2541.36,1452.25C2541.36,1452.25 2500.16,1511.65 2449.16,1512.05C2449.16,1512.05 2408.16,1478.95 2420.16,1401.95L2630.36,994.549L2420.16,1317.95C2420.16,1317.95 2398.06,1358.85 2327.96,1356.75C2327.96,1356.75 2296.16,1322.05 2324.66,1249.95L2575.36,958.849C2575.36,958.849 2505.06,849.749 2494.56,737.349L2454.06,1054.35L2379.66,1072.15L2411.96,923.349L2363.46,916.849L2297.16,1057.65L2219.66,1072.25L2405.66,711.549L2363.46,708.249L2329.56,788.749L2256.86,788.749L2185.56,1062.45L2086.96,1080.25L2201.86,788.749L2114.46,797.249L2159.86,716.349C2159.86,716.349 2161.56,707.249 2158.56,703.149C2158.56,703.149 2139.36,674.149 2117.66,713.049C2117.66,713.049 2006.46,964.849 2028.66,1036.55L1920.26,1080.25C1920.26,1080.25 1929.86,1017.45 1978.56,908.849L1923.56,776.149C1923.56,776.149 1846.86,986.349 1845.86,1044.65C1845.86,1044.65 1801.46,1067.95 1746.66,1069.55L1904.06,677.049C1904.06,677.049 1886.06,657.949 1880.26,675.949C1880.26,675.949 1870.66,734.049 1799.36,736.349L1693.66,739.649L1661.36,814.049L1792.96,817.349L1765.96,875.449L1647.26,875.449C1647.26,875.449 1598.46,972.049 1649.56,971.449C1649.56,971.449 1759.86,978.049 1776.76,953.049C1776.76,953.049 1764.46,1046.95 1659.16,1052.35C1659.16,1052.35 1494.76,1065.75 1563.26,862.549L1619.26,740.649L1589.16,738.549L1617.16,677.149C1617.16,677.149 1578.86,657.749 1541.66,660.849C1541.66,660.849 1634.86,789.049 1488.86,843.149C1488.86,843.149 1430.16,861.649 1365.96,850.649C1365.96,850.649 1374.46,993.249 1526.66,1037.25C1526.66,1037.25 1371.76,1107.65 1306.66,884.049L1218.06,1035.15L1124.26,1045.95L1347.56,696.249C1347.56,696.249 1395.56,644.649 1263.06,630.049C1263.06,630.049 1417.86,741.549 1146.96,811.649C1146.96,811.649 1263.26,848.549 1149.26,970.049C1149.26,970.049 1051.26,1072.35 871.763,1066.65C871.763,1066.65 702.163,1064.85 611.163,1036.95C611.163,1036.95 901.163,878.549 991.863,695.049C991.863,695.049 997.763,649.749 946.463,676.849C946.463,676.849 547.963,973.349 368.463,843.949L874.963,592.849C860.663,597.349 213.263,805.449 122.563,628.349C122.563,628.349 639.763,573.649 711.163,504.449C696.163,507.149 155.963,606.249 50.563,345.749C50.563,345.749 598.863,419.149 659.663,377.049C659.663,377.049 34.263,359.249 50.563,50.249C50.563,50.249 474.763,328.049 1430.46,292.549C1430.46,292.549 1602.76,461.049 2124.76,514.049C2124.76,514.049 2413.46,462.249 2503.56,505.849C2503.56,505.849 2565.26,565.249 2634.26,440.649C2634.26,440.649 2802.76,248.149 2974.06,441.249C2974.06,441.249 3010.26,562.649 3114.96,515.349C3114.96,515.349 3143.36,467.349 3480.36,526.149C3480.36,526.149 3817.46,522.049 4137.46,288.249C4137.46,288.249 5489.76,210.549 5638.46,79.449C5638.46,79.449 5675.76,338.849 4810.26,403.549C4810.26,403.549 5478.96,382.749 5571.16,326.449C5571.16,326.449 5657.26,495.949 4689.56,566.949C4689.56,566.949 5144.06,598.449 5353.86,545.449C5353.86,545.449 5340.96,676.549 4768.46,705.049L4764.06,765.449C4764.06,765.449 5033.16,786.849 5079.56,765.449C5079.56,765.449 5072.16,879.449 4768.46,855.949C4768.46,855.949 4793.36,1051.35 4966.76,989.649C4966.76,989.649 4728.96,1344.15 4660.46,722.249C4660.46,722.249 4654.66,617.949 4621.66,635.949L4626.06,719.849C4626.06,719.849 4535.66,667.549 4512.66,769.249C4512.66,769.249 4469.76,997.949 4652.46,994.049C4652.46,994.049 4669.16,1063.05 4709.16,1093.45C4709.16,1093.45 4455.66,1133.05 4431.86,843.049C4431.86,843.049 4413.76,680.349 4531.16,627.349C4531.16,627.349 4434.96,631.349 4401.96,744.049C4401.96,744.049 4352.06,955.249 4503.86,1095.05C4503.86,1095.05 4405.56,1124.85 4344.76,933.749L4242.36,921.449L4226.96,1001.05C4226.96,1001.05 4154.66,967.949 4160.76,951.549C4160.76,951.549 4271.06,712.649 4292.56,683.349C4292.56,683.349 4194.06,654.349 4160.76,688.749C4160.76,688.749 4296.56,813.649 4097.06,919.749C4097.06,919.749 4204.86,1059.05 4378.86,1080.35C4378.86,1080.35 4217.36,1129.15 4023.96,931.649L4014.46,1082.05L3936.66,1080.25L3977.16,770.449C3983.96,680.049 3901.06,679.449 3901.06,679.449C3901.06,679.449 4005.36,763.749 3904.06,911.249C3829.96,1019.15 3713.06,1050.35 3713.06,1050.35L3609.56,1084.45L3621.56,1007.95L3683.06,990.549L3726.46,713.549L3668.06,728.549L3673.96,674.549L3558.56,687.749C3558.56,687.749 3539.06,860.649 3546.56,946.049L3675.96,883.249L3660.96,972.249L3482.06,1025.85C3519.56,769.249 3487.96,705.849 3487.96,705.849C3469.96,675.849 3444.56,702.749 3444.56,702.749C3426.56,747.749 3442.96,1070.85 3442.96,1070.85L3367.96,1049.75C3397.96,955.249 3393.46,747.749 3390.46,717.749C3387.46,687.749 3377.06,704.349 3377.06,704.349L3266.06,1079.75L3185.16,873.049L3131.16,1043.75L3038.06,765.749L3055.36,908.749L3026.76,961.949L3243.46,1251.55C3243.46,1251.55 3277.86,1306.85 3249.96,1358.35C3249.96,1358.35 3216.86,1377.15 3154.66,1313.65L2978.26,992.649L3166.86,1418.15C3166.86,1418.15 3181.26,1487.35 3148.06,1515.15C3148.06,1515.15 3084.56,1524.25 3053.66,1449.95L2911.96,1015.25L3037.56,1542.65C3037.56,1542.65 3042.26,1605.85 3008.96,1638.15C3008.96,1638.15 2944.16,1628.25 2922.26,1567.45L2837.56,1034.85L2887.66,1615.55C2887.66,1615.55 2874.36,1692.55 2803.66,1717.35C2803.66,1717.35 2738.46,1695.15 2722.76,1620.35L2756.66,1037.95L2681.66,1583.65C2681.66,1583.65 2648.26,1631.15 2598.06,1641.35C2598.06,1641.35 2560.26,1597.05 2557.56,1558.85L2689.86,1014.75ZM4256.06,867.749L4336.86,873.149C4320.76,818.149 4344.96,709.349 4344.96,709.349C4309.26,760.549 4256.06,867.749 4256.06,867.749ZM4129.86,815.949C4144.26,738.849 4028.56,780.049 4028.56,780.049L4028.56,887.149C4108.86,887.149 4129.86,815.949 4129.86,815.949ZM3893.26,808.649C3908.66,689.949 3777.66,707.949 3777.66,707.949L3740.36,968.949C3740.36,968.849 3877.86,927.249 3893.26,808.649ZM3250.06,901.249L3305.96,688.249L3068.06,691.249L3125.06,874.249L3183.06,746.249L3250.06,901.249ZM2423.86,874.249L2441.16,757.849L2378.66,874.249L2423.86,874.249ZM2010.86,843.949L2068.16,701.649L1941.96,695.149L2010.86,843.949ZM1511.66,749.149C1523.26,667.949 1420.56,685.649 1420.56,685.649L1353.06,800.949C1493.36,842.249 1511.66,749.149 1511.66,749.149ZM1222.66,711.949C1226.66,631.649 1086.76,653.149 1086.76,653.149C1087.16,665.149 1022.16,770.749 1022.16,770.749C1221.36,766.749 1222.66,713.449 1222.66,711.949ZM1110.46,898.949C1154.06,827.949 987.563,836.449 987.563,836.449C973.663,862.049 849.363,987.249 849.363,987.249C1058.86,1003.65 1110.46,898.949 1110.46,898.949Z" style="fill:url(#_Radial1);fill-rule:nonzero;"/></g><g id="XMLID_8_"><path id="XMLID_49_" d="M2690.16,1013.85L2689.86,1014.65L2557.46,1558.95C2560.16,1597.15 2597.96,1641.45 2597.96,1641.45C2648.16,1631.25 2681.56,1583.75 2681.56,1583.75L2756.56,1038.05L2722.66,1620.45C2738.36,1695.25 2803.56,1717.45 2803.56,1717.45C2874.26,1692.55 2887.56,1615.65 2887.56,1615.65L2837.46,1034.95L2922.16,1567.55C2944.06,1628.35 3008.86,1638.25 3008.86,1638.25C3042.06,1605.95 3037.46,1542.75 3037.46,1542.75L2911.86,1015.35L3053.56,1450.05C3084.36,1524.35 3147.96,1515.25 3147.96,1515.25C3181.16,1487.35 3166.76,1418.25 3166.76,1418.25L2978.16,992.749L3154.56,1313.75C3216.76,1377.25 3249.86,1358.45 3249.86,1358.45C3277.76,1306.95 3243.36,1251.65 3243.36,1251.65L3026.66,962.049L3055.26,908.849L3037.96,765.849L3131.06,1043.85L3185.06,873.149L3265.96,1079.85L3376.96,704.449C3376.96,704.449 3387.46,687.849 3390.36,717.849C3393.36,747.849 3397.86,955.349 3367.86,1049.85L3442.86,1070.95C3442.86,1070.95 3426.46,747.849 3444.46,702.849C3444.46,702.849 3469.96,675.949 3487.86,705.949C3487.86,705.949 3519.36,769.349 3481.96,1025.95L3660.96,972.249L3675.96,883.249L3546.56,945.749C3539.06,860.349 3558.56,687.449 3558.56,687.449L3673.96,674.249L3668.06,728.249L3726.46,713.249L3683.06,990.249L3621.56,1007.65L3609.56,1084.15L3713.06,1050.05C3713.06,1050.05 3829.86,1018.95 3904.06,910.949C4005.36,763.449 3901.06,679.149 3901.06,679.149C3901.06,679.149 3983.96,679.749 3977.16,770.149L3936.66,1079.95L4014.46,1081.75L4023.96,931.349C4217.36,1128.85 4378.86,1080.05 4378.86,1080.05C4204.86,1058.85 4097.06,919.449 4097.06,919.449C4296.56,813.349 4160.76,688.449 4160.76,688.449C4194.16,654.049 4292.56,683.049 4292.56,683.049C4271.06,712.349 4160.76,951.249 4160.76,951.249C4154.66,967.649 4226.96,1000.75 4226.96,1000.75L4242.36,921.149L4344.76,933.449C4405.56,1124.55 4503.86,1094.75 4503.86,1094.75C4352.06,954.949 4401.96,743.749 4401.96,743.749C4434.96,631.049 4531.16,627.049 4531.16,627.049C4413.76,680.049 4431.86,842.749 4431.86,842.749C4455.66,1132.75 4709.16,1093.15 4709.16,1093.15C4669.16,1062.75 4652.46,993.749 4652.46,993.749C4469.86,997.749 4512.66,768.949 4512.66,768.949C4535.76,667.249 4626.06,719.549 4626.06,719.549L4621.66,635.649C4654.66,617.649 4660.46,721.949 4660.46,721.949C4728.96,1343.75 4966.76,989.349 4966.76,989.349C4793.36,1051.05 4768.46,855.649 4768.46,855.649C5072.16,879.149 5079.56,765.149 5079.56,765.149C5033.16,786.549 4764.06,765.149 4764.06,765.149L4768.46,704.749C5340.96,676.349 5353.86,545.149 5353.86,545.149C5144.06,598.149 4689.56,566.649 4689.56,566.649C5657.26,495.649 5571.16,326.149 5571.16,326.149C5478.96,382.449 4810.26,403.249 4810.26,403.249C5675.86,338.649 5638.46,79.149 5638.46,79.149C5489.76,210.249 4137.46,287.949 4137.46,287.949C3817.46,521.749 3480.36,525.849 3480.36,525.849C3143.36,467.149 3114.96,515.049 3114.96,515.049C3010.26,562.249 2974.06,440.949 2974.06,440.949C2802.76,247.849 2634.26,440.349 2634.26,440.349C2565.26,564.949 2503.56,505.549 2503.56,505.549C2413.46,461.949 2124.76,513.749 2124.76,513.749C1602.76,460.749 1430.46,292.249 1430.46,292.249C474.763,328.049 50.563,50.249 50.563,50.249C34.263,359.149 659.663,377.049 659.663,377.049C598.863,419.249 50.563,345.749 50.563,345.749C155.963,606.349 696.163,507.149 711.163,504.449" style="fill:none;fill-rule:nonzero;stroke:black;stroke-width:10px;"/><path id="XMLID_48_" d="M2630.26,994.649L2420.06,1402.05C2408.06,1479.05 2449.06,1512.15 2449.06,1512.15C2500.16,1511.75 2541.26,1452.35 2541.26,1452.35L2689.76,1014.85" style="fill:none;fill-rule:nonzero;stroke:black;stroke-width:10px;"/><path id="XMLID_47_" d="M875.263,592.749C875.263,592.749 875.163,592.749 874.963,592.849L368.363,843.949C547.863,973.349 946.363,676.849 946.363,676.849C997.663,649.849 991.763,695.049 991.763,695.049C901.063,878.549 611.063,1036.95 611.063,1036.95C702.063,1064.85 871.663,1066.65 871.663,1066.65C1051.16,1072.35 1149.16,970.049 1149.16,970.049C1263.16,848.549 1146.86,811.649 1146.86,811.649C1417.76,741.449 1262.96,630.049 1262.96,630.049C1395.36,644.649 1347.46,696.249 1347.46,696.249L1124.26,1045.65L1218.06,1034.85L1306.66,883.749C1371.76,1107.35 1526.66,1036.95 1526.66,1036.95C1374.46,992.949 1365.96,850.349 1365.96,850.349C1430.16,861.349 1488.86,842.849 1488.86,842.849C1634.86,788.649 1541.66,660.549 1541.66,660.549C1578.86,657.449 1617.16,676.849 1617.16,676.849L1589.16,738.249L1619.26,740.349L1563.26,862.249C1494.76,1065.55 1659.16,1052.05 1659.16,1052.05C1764.36,1046.65 1776.76,952.749 1776.76,952.749C1759.96,977.749 1649.56,971.149 1649.56,971.149C1598.46,971.749 1647.26,875.149 1647.26,875.149L1765.96,875.149L1792.96,817.049L1661.36,813.749L1693.66,739.349L1799.36,736.049C1870.66,733.749 1880.26,675.649 1880.26,675.649C1886.06,657.649 1904.06,676.749 1904.06,676.749L1746.66,1069.25C1801.36,1067.65 1845.86,1044.35 1845.86,1044.35C1846.86,986.049 1923.56,775.849 1923.56,775.849L1978.56,908.549C1929.86,1017.15 1920.26,1079.95 1920.26,1079.95L2028.66,1036.25C2006.46,964.549 2117.66,712.749 2117.66,712.749C2139.26,673.849 2158.56,702.849 2158.56,702.849C2161.56,706.949 2159.86,716.049 2159.86,716.049L2114.46,796.949L2201.86,788.449L2086.86,1080.25L2185.46,1062.45L2256.76,788.749L2329.46,788.749L2363.36,708.249L2405.56,711.549L2219.56,1072.25L2297.06,1057.65L2363.36,916.849L2411.86,923.349L2379.56,1072.15L2453.96,1054.35L2494.46,737.349C2504.96,849.849 2575.26,958.849 2575.26,958.849L2324.56,1249.95C2295.96,1322.05 2327.86,1356.75 2327.86,1356.75C2398.06,1358.85 2420.06,1317.95 2420.06,1317.95L2630.26,994.549L2630.26,994.449" style="fill:none;fill-rule:nonzero;stroke:black;stroke-width:10px;"/><path id="XMLID_46_" d="M711.463,504.349C711.363,504.449 711.363,504.449 711.163,504.449C639.763,573.649 122.563,628.349 122.563,628.349C213.263,805.449 860.663,597.349 874.963,592.849" style="fill:none;fill-rule:nonzero;stroke:black;stroke-width:10px;"/><path id="XMLID_43_" d="M2941.46,609.549C2941.46,609.549 2941.36,609.549 2941.06,609.449" style="fill:none;fill-rule:nonzero;stroke:black;stroke-width:10px;"/><path id="XMLID_42_" d="M2941.06,609.449C2935.16,608.149 2874.86,596.749 2854.66,640.249L2803.46,804.249L2748.96,638.749C2748.96,638.749 2739.46,603.149 2657.86,606.949L2725.76,568.649L2668.66,565.649L2643.86,517.449L2608.36,530.449C2608.36,530.449 2635.06,492.949 2674.56,522.349L2719.96,556.249C2719.96,556.249 2736.96,573.749 2754.46,555.649L2772.66,522.649C2772.66,522.649 2802.36,491.549 2835.46,522.249L2852.46,556.149C2852.46,556.149 2861.06,570.549 2880.46,556.149L2928.66,520.249C2928.66,520.249 2957.66,498.449 2998.56,541.649L2960.36,525.649L2931.46,570.949L2874.06,570.849L2941.06,609.449Z" style="fill:none;fill-rule:nonzero;stroke:black;stroke-width:10px;"/><path id="XMLID_41_" d="M1222.66,711.949C1226.66,631.649 1086.76,653.149 1086.76,653.149C1087.16,665.149 1022.16,770.749 1022.16,770.749C1221.36,766.749 1222.66,713.449 1222.66,711.949Z" style="fill:none;fill-rule:nonzero;stroke:black;stroke-width:10px;"/><path id="XMLID_40_" d="M1110.46,898.949C1154.06,827.949 987.563,836.449 987.563,836.449C973.663,862.049 849.363,987.249 849.363,987.249C1058.86,1003.65 1110.46,898.949 1110.46,898.949Z" style="fill:none;fill-rule:nonzero;stroke:black;stroke-width:10px;"/><path id="XMLID_39_" d="M1511.66,749.149C1523.26,667.949 1420.56,685.649 1420.56,685.649L1353.06,800.949C1493.36,842.249 1511.66,749.149 1511.66,749.149Z" style="fill:none;fill-rule:nonzero;stroke:black;stroke-width:10px;"/><path id="XMLID_38_" d="M2010.86,843.949L2068.16,701.649L1941.96,695.149L2010.86,843.949Z" style="fill:none;fill-rule:nonzero;stroke:black;stroke-width:10px;"/><path id="XMLID_37_" d="M2423.86,874.249L2441.16,757.849L2378.66,874.249L2423.86,874.249Z" style="fill:none;fill-rule:nonzero;stroke:black;stroke-width:10px;"/><path id="XMLID_36_" d="M4129.86,815.949C4144.26,738.849 4028.56,780.049 4028.56,780.049L4028.56,887.149C4108.86,887.149 4129.86,815.949 4129.86,815.949Z" style="fill:none;fill-rule:nonzero;stroke:black;stroke-width:10px;"/><path id="XMLID_35_" d="M4336.86,873.149C4320.76,818.149 4344.96,709.349 4344.96,709.349C4309.36,760.549 4256.16,867.749 4256.16,867.749L4336.86,873.149Z" style="fill:none;fill-rule:nonzero;stroke:black;stroke-width:10px;"/><path id="XMLID_25_" d="M3305.86,688.249L3250.06,901.249L3182.96,746.249L3124.96,874.249L3067.96,691.149L3305.86,688.249Z" style="fill:none;fill-rule:nonzero;stroke:black;stroke-width:10px;"/><path id="XMLID_24_" d="M3777.66,707.849L3740.36,968.849C3740.36,968.849 3877.86,927.249 3893.26,808.549C3908.66,689.849 3777.66,707.849 3777.66,707.849Z" style="fill:none;fill-rule:nonzero;stroke:black;stroke-width:10px;"/></g></g><defs><radialGradient id="_Radial1" cx="0" cy="0" r="1" gradientUnits="userSpaceOnUse" gradientTransform="matrix(2061.86,0,0,2061.86,2844.43,883.862)"><stop offset="0" style="stop-color:rgb(227,217,139);stop-opacity:1"/><stop offset="0.33" style="stop-color:rgb(169,147,87);stop-opacity:1"/><stop offset="0.79" style="stop-color:rgb(113,81,35);stop-opacity:1"/><stop offset="1" style="stop-color:rgb(95,60,21);stop-opacity:1"/></radialGradient></defs></svg>