<svg width="484" height="611" viewBox="0 0 484 611" fill="none" xmlns="http://www.w3.org/2000/svg">
<path d="M229.766 1C229.766 1 213.266 26 174.766 26C136.266 26 137.266 6.05275 104.266 8C67.1253 10.1916 43.517 37.5 28.7662 56C-7.5367 101.53 -8.96703 150.648 28.7657 195C57.2658 228.5 13.3338 265.149 41.7656 281C98.2656 312.5 95.5955 357.977 145.266 374C178.716 384.79 206.266 378.387 229.766 363C270.602 336.262 257.266 308.5 267.766 273.5C274.651 250.547 310.799 224.488 339.266 217C370.757 208.716 401.266 217 419.266 240.5C447.062 276.788 419.266 309.5 468.766 351.5C512.092 388.262 443.368 427.814 426.266 482C417.329 510.313 439.401 544.18 419.266 566C390.816 596.831 363.153 607.674 321.266 610C295.977 611.404 280.536 609.501 257.266 599.5C223.515 584.995 231.06 535.991 201.266 514.5C170.766 492.5 151.974 528.341 126.766 545C113.147 554 100.899 542.313 89.7661 554C75 569.5 79.5 599.5 79.5 599.5" stroke="#ED592B" stroke-opacity="0.6" stroke-dasharray="8 8"/>
</svg>
