<svg width="163" height="624" viewBox="0 0 163 624" fill="none" xmlns="http://www.w3.org/2000/svg">
<path d="M96.5 0.5C96.5 0.5 83.8299 32.5973 74 43.5C60.2461 58.7548 34.4998 42 18.4996 63C8.54519 76.0651 -9.50021 90.5 8.99976 111C22.215 125.644 8.19098 146.183 18.4996 163C39.5234 197.297 99.6781 169.221 113.5 207C121 227.5 149.565 220.643 160.5 241C169.814 258.34 141.759 281.318 142 301C142.258 322.026 165.189 341.521 153.5 359C141.083 377.567 106.615 352.29 86.5 362C60.4745 374.562 67.94 400.424 45 418C33.4872 426.821 14.4888 426.075 8.99976 439.5C3.23555 453.598 23.1164 468.957 25.5 484C29.3723 508.438 20.0125 516.442 34.4998 536.5C57.6817 568.596 124.243 546.908 124 586.5C123.903 602.248 83.9968 609.65 76.5 623.5" stroke="#ED592B" stroke-opacity="0.6" stroke-dasharray="8 8"/>
</svg>
