<svg width="700" height="602" viewBox="0 0 700 602" fill="none" xmlns="http://www.w3.org/2000/svg">
<path d="M1.85341 595.571L1.12144 596.032L1.29234 595.216L1.65777 596.032L2.21884 595.216L2.70682 594.684L3.12172 593.974L3.43768 593.087L3.63332 591.845L3.75475 590.603L3.85257 589.645L3.75475 588.651L3.60858 587.764L3.38933 586.806L3.24316 585.813L3.12172 585.031L3.07225 584.322L3.19481 583.612L3.56024 582.832L3.85257 582.264L4.24274 581.59L4.53508 580.88L4.90163 580.242L5.34014 579.531L5.63248 578.751L5.87648 577.934L6.43755 577.296L7.26622 576.586L7.99707 576.267L8.68071 575.806L9.41156 575.451L10.0941 575.202L10.9239 574.919L11.4838 574.563L12.0201 574.208L12.5812 573.747L13.3863 573.428L14.1666 572.86L14.8975 572.363L15.6778 572.08L16.1163 571.617L16.5559 571.015L16.9214 570.376L17.4093 569.524L17.8231 568.779L18.0188 568.069L18.1885 567.289L18.3594 566.046L18.5056 565.231L20.6273 562.96L20.9928 562.392L21.3582 561.61L21.7247 560.723L22.0418 559.66L22.4073 559.02L22.9436 558.31L23.2607 557.637L23.7486 556.926L24.7718 555.827L25.2598 555.224L25.8692 554.798L26.6743 554.088L27.5277 553.448L28.5509 552.385L28.8444 551.852L29.2098 551.142L29.6 550.362L30.0137 549.652L30.4286 549.12L30.9166 548.659L31.5261 548.02L31.8915 547.416L32.5256 546.813L33.2329 546.636L33.8423 546.175L34.5248 545.713L35.4266 545.358L36.1585 545.181L36.7927 544.932L37.4021 544.684L37.889 544.223L38.5962 543.797L39.0842 543.336L39.8893 542.874L40.547 542.626L41.1812 542.2L42.0346 541.739L42.5709 541.277L43.0589 540.745L43.4243 540.036L43.9607 539.148L44.2777 538.438L44.8872 537.906L45.6675 537.409L46.3983 537.197H47.1551L47.9837 537.551H48.6662L49.568 537.197L50.4461 536.948H51.8359L52.6893 536.77L53.4202 536.309L54.2736 536.061L54.8346 535.706L55.7859 535.457L56.4684 535.351L57.4432 535.067L58.1269 534.818L59.4671 534.216L60.0765 533.931L60.8085 533.47L61.4663 533.683L63.4902 534.216L64.1974 534.109L64.8316 533.931L65.5388 533.577L66.1719 533.329L66.7813 532.866L67.3918 532.512L68.0979 532.086L68.8547 531.625L69.5608 531.164L70.2444 530.738L70.8538 530.49L71.5116 530.383L72.1941 530.134L72.7552 529.78L73.2431 529.39L73.9504 528.679L74.706 528.254L75.2423 527.65L75.7303 527.189L76.4611 526.656L76.9975 526.195L77.5102 525.699L77.9971 525.308L78.6065 524.953L79.3385 524.706L80.1188 524.244L80.6551 523.819L81.2645 523.463L81.947 523.356L82.6295 523.002L83.3615 522.859L83.9709 522.647L84.5073 522.221L84.9953 521.76L85.4338 521.157L85.7992 520.624L86.141 519.915L86.5064 519.382L86.9449 518.672L87.4329 518.034L87.8715 517.324L88.2863 516.649L88.7013 516.082L89.0667 515.408L89.7008 514.485L90.1877 513.705L90.6509 512.995L91.0906 512.357L91.456 511.753L91.8945 511.221L92.3825 510.759L92.9919 510.262L93.6508 509.908L94.3333 509.517L95.0406 509.269L95.6005 508.807L96.2841 508.382L96.7474 507.92L97.1859 507.317L97.6739 506.785L98.1607 506.075L98.7218 505.72L99.3807 505.187L100.038 504.726L100.55 504.371L101.038 503.839L101.526 503.342L102.257 502.881L102.843 502.597L103.72 502.243L104.306 501.887L105.109 501.639L105.719 501.285L106.499 501L106.987 500.503L107.67 500.149L108.329 499.759L109.059 499.51L109.742 499.048L110.401 498.446L111.01 498.019L111.644 497.31L112.302 496.671L112.742 496.067L113.205 495.606L113.936 495.18L114.789 494.968H116.398L117.106 495.18L118.324 494.968H119.178L122.226 495.855L125.273 497.452L126.127 500.752L125.396 503.946L126.615 506.891L128.443 509.517L130.418 512.108L133.148 514.131L135.879 516.082L137.245 519.134L139.976 520.979L141.975 523.712L141.756 527.083L144.56 528.786L146.803 531.092L149.802 532.512L152.239 534.713L155.141 536.415L158.457 537.197L161.554 536.415L164.845 535.6L167.941 536.841L170.819 538.545L173.988 539.148L177.402 539.254L180.084 541.135L182.692 543.441L184.18 546.423L182.692 549.794L180.572 552.207L182.035 549.12L181.791 545.713L184.351 543.797L187.69 544.471L191.056 544.116L194.03 545.288L194.176 548.907L194.712 552.207L197.639 550.504L198.126 547.31H201.588L204.88 546.813L207.806 545.181L210.122 542.2L211.585 539.148L213.438 536.522L216.096 534.216L219.265 532.761L221.824 530.383L225.068 529.39L228.359 527.899L230.505 525.486L233.797 524.811L237.136 524.457L240.233 523.002L242.451 520.517L244.5 517.892L247.743 516.792L250.961 516.649L253.546 514.343L256.471 512.888L259.739 512.108L263.226 512.462L265.542 509.908L265.98 506.785L268.394 504.371L270.247 501.746L271.954 498.694L274.124 496.067L276.927 494.081L279.805 492.484L282 489.928L285.095 488.509L286.705 485.563L288.997 482.902L291.995 481.341L295.288 481.128L298.286 479.886L301.626 480.277L304.43 478.573L306.259 475.841L309.355 474.74L312.647 474.067L315.719 473.357L319.23 473.711L322.643 474.208L325.082 476.338L324.74 479.745L323.496 482.725L323.277 486.096L324.374 489.29L325.033 492.484L325.106 495.962L324.862 499.155L324.496 502.455L325.52 505.543L328.007 507.672L330.812 509.517H332.152L332.786 509.623L333.395 509.908L334.249 510.262L335.029 510.759L335.639 510.972L336.371 511.504L337.272 512.357L338.15 512.995L338.979 513.705L339.613 514.236L340.32 515.053L340.93 515.727L341.539 516.544L342.1 516.969L343.319 517.679L343.929 518.034L344.782 518.424L345.513 519.134L346.049 519.808L348.317 522.115L350.512 524.457L353.194 526.551L353.609 529.673L354.095 532.866L355.925 535.6L359.168 536.168L360.703 539.006L363.677 540.497L366.92 540.603L370.017 541.986L370.993 545.288L372.504 548.303L374.455 551.035L377.209 552.739L379.233 555.33L382.257 556.714L385.329 558.062L384.231 560.83L384.573 559.66L384.402 558.772L385.085 558.524L385.792 558.31L386.645 558.062L387.572 557.885L388.254 557.53L388.962 557.282L389.84 556.82L390.79 556.288L391.351 555.933L391.887 555.471L392.399 554.691L392.765 554.088L393.496 553.448L394.326 552.987L394.935 552.633L395.545 552.385L396.52 552.207L399.714 551.746L402.688 550.255L406.053 550.362L409.345 549.794L412.124 551.852L415.245 552.385L418.365 553.448L421.754 553.697L423.778 556.536L426.021 559.02L428.777 560.83L430.971 563.208L433.531 565.231L435.165 568.069L438.285 567.537L440.359 570.128H443.698L446.99 569.667L449.745 571.369L452.184 573.747L454.621 576.16L457.353 578.395L459.571 580.773L462.838 580.702L461.814 577.402L460.4 574.315L460.034 573.428L459.669 572.611L459.327 571.724L459.254 570.908L459.619 570.376L460.302 569.879L461.034 569.418L461.766 569.134L462.912 568.424L463.521 567.998L464.057 567.395L464.374 566.686L464.984 566.153L465.764 566.046L466.325 566.401L466.935 566.579L467.617 566.828L468.348 566.579L469.251 566.508L469.811 566.046L469.982 564.912L469.738 563.988L469.495 563.314V562.604L469.689 561.859L469.86 561.008L469.933 560.369L469.689 559.553L469.372 558.878L469.007 558.31L468.471 557.885L467.983 557.282L467.617 556.714L467.665 555.933L468.08 555.224L468.446 554.691L468.957 554.088L469.689 553.697L470.518 553.343L471.25 552.987L471.811 552.49L472.371 551.959L472.907 551.142L473.03 550.362L473.224 549.546L473.81 549.261L474.614 549.475L475.468 549.546L476.2 549.261L477.004 549.12L477.711 549.013L478.272 548.41L478.76 547.771L479.052 547.062L479.32 546.423L480.027 546.068H481.441L482.051 546.28L482.904 546.423L483.635 546.636L484.246 546.28L484.415 545.464L485.05 544.932L485.757 544.826L486.512 544.684L487.293 544.577L488.585 544.223L489.317 544.116L490.097 543.974H490.78L491.364 544.471L491.925 544.932L492.462 545.288L493.315 545.181L493.949 544.684L494.437 544.223L495.217 543.974L496.021 543.867H496.802L497.582 543.974L498.265 543.797L498.801 543.441L499.557 543.336L500.289 543.584L500.825 543.974H501.605L502.239 543.584L502.97 543.336L503.799 543.584L504.312 544.116L505.042 544.471H505.75L506.384 544.223L506.799 543.584L506.92 542.874L507.359 542.449L507.944 541.845L508.627 541.739L509.065 542.449L509.651 542.732L510.261 542.874L510.895 543.087L511.504 543.441L512.212 543.229L512.65 542.626L513.186 542.2L513.942 541.986L514.795 541.739L515.454 541.277L517.6 538.9L518.818 538.119L519.428 537.906L520.037 538.119L520.574 538.545L520.891 539.254L521.183 539.893L521.794 540.248H522.451L522.646 539.609L522.524 538.9L523.085 538.545H523.793L524.475 538.438L525.329 538.296L526.011 538.545L526.621 539.148L527.328 539.609L528.059 539.68L528.62 539.361L529.302 539.148L530.009 538.651L530.571 538.296L531.424 538.191H532.082L532.643 537.906L533.302 537.197L533.911 536.77L534.667 536.309L535.568 536.061L536.227 535.812L536.91 535.174L537.471 534.818L538.25 534.925L538.909 535.174L539.421 534.357L539.884 533.683L540.201 532.973L540.323 532.335L540.372 531.518V530.845L540.274 530.134L540.128 529.39L540.81 529.035L541.42 528.786L541.737 527.899L542.444 526.195L543.249 525.84L544.176 525.593H545.029L545.809 525.699L546.102 525.167L546.711 524.706L547.223 524.102L547.565 523.57L547.759 522.754L547.711 522.115V521.263L548.053 520.731L548.662 520.517L549.027 519.915L549.515 519.489L550.198 519.63L550.856 519.489L550.929 518.779L550.198 518.566L549.832 518.034L549.271 517.679L548.783 516.969L548.491 516.437L548.295 515.586L548.174 514.946L548.003 514.236L547.809 513.598L547.589 512.747L547.442 511.753V511.114L547.759 510.405L548.076 509.73L547.882 509.02L547.759 508.382L547.565 507.565L547.394 506.891L547.223 506.181L547.077 505.543L546.492 504.585L546.102 503.946L545.76 503.13L546.004 502.348L546.248 501.533L546.175 500.752L546.248 499.865L547.272 496.671L546.613 496.067L546.833 495.323L546.613 494.613L546.052 494.188L545.516 493.832L544.883 493.371L544.176 493.123H543.541L543.005 492.697L542.688 491.987L542.396 491.242L542.103 490.39L542.59 489.503H541.054L540.81 488.58L540.518 487.906L540.445 487.161L540.566 486.309L540.689 485.563L540.641 484.605L540.566 483.718L540.518 482.902L540.397 482.122L540.201 481.341L540.03 480.632L539.543 480.064L538.982 479.389L538.544 478.573L538.25 478.041L537.836 477.331L537.398 476.799L537.031 476.089L536.617 475.095L536.3 474.315L536.227 473.606V472.824L536.13 472.115V470.163L536.227 469.524L536.3 468.637L536.471 467.679L536.837 466.685L537.104 465.869L537.519 465.195L537.714 464.379L537.763 463.74L537.836 462.959L538.324 462.356L539.055 462.001L539.665 461.54L540.153 461.114L540.641 460.653L541.835 460.192L542.469 460.014L543.298 459.162L542.688 459.517L542.396 458.701L543.663 456.926L542.396 461.362L543.078 458.169L544.176 457.353L544.906 457.282L545.565 457.814L546.346 458.062L546.955 457.814L547.199 456.926L547.321 455.968L547.686 455.223L548.053 454.443L548.174 453.733L548.053 453.024L547.759 452.384L547.321 451.781L546.906 451.249L547.077 450.539L547.321 449.9L547.272 448.942L547.101 448.162L547.077 447.345L546.955 446.565V445.925L546.857 445.11V444.436L547.711 444.223L548.32 444.436L548.93 444.862L549.174 445.82L549.759 446.21L550.612 445.925L551.051 445.323L551.344 444.755L551.173 444.08L550.88 443.371L551.051 442.732L551.417 441.916L552.222 442.023L552.562 442.625L553.197 440.887L553.854 439.893L554.465 439.29L555.074 438.935L555.561 439.645L555.805 440.319L556.537 440.887L556.976 441.384L557.391 441.916L557.951 442.377H558.683L559.536 442.023H560.243L560.316 441.135L560.145 440.248L560.73 439.786L561.414 439.539H562.145L562.071 438.828L562.389 438.296L563.194 437.693L563.534 437.161L563.9 436.451L564.51 435.99L565.07 435.706L565.753 435.35L566.363 434.855L566.777 434.322L567.436 434.109L568.167 434.322L568.728 434.996L569.045 435.564L569.825 435.706H571.532L572.385 435.564L573.068 435.457L573.848 435.35H574.506L575.238 435.813L575.798 436.344L576.334 436.948L576.725 437.48L577.31 437.835L577.822 437.161L578.408 436.451L578.968 435.813L579.504 435.209L578.968 434.855L578.652 434.216V432.725L578.431 432.016L578.408 431.377L579.139 431.128L579.773 431.377L580.43 431.802L580.992 431.483L581.724 431.27L582.381 431.128L583.064 430.773L583.723 431.27L584.211 431.802L584.868 432.157L587.99 433.257L589.647 433.4H590.427L591.159 433.612L591.842 434.109L592.573 434.322L593.182 434.748L593.793 435.209H594.621L596.035 435.99L597.62 437.054L598.303 436.948L598.962 436.805L599.741 436.451L600.546 436.096L601.351 435.813L601.96 435.706L601.228 435.457L600.473 434.996L599.888 434.641L599.448 434.109L599.277 433.4L599.131 432.618L598.668 432.016L598.108 431.731L597.572 431.27L597.084 430.666L597.424 430.134L598.035 430.312L598.888 430.419L599.619 430.666L600.058 431.27L600.546 430.773V430.028L600.229 429.425L599.692 429.07L599.131 428.645L598.644 427.934L598.4 427.19L598.425 426.479L598.766 425.947L598.474 425.343L599.083 424.989L599.888 425.095H600.717L601.399 425.343L602.058 425.45L602.668 425.806L603.033 426.337L603.35 427.047L604.033 427.58L604.861 428.182L605.666 428.538H606.349L607.007 428.431L607.812 428.538L608.177 429.176L608.544 428.289L608.957 427.19L609.518 426.586L610.176 426.834L609.86 426.125L609.397 425.699L609.08 424.989L609.153 424.351L609.762 423.995L610.347 423.641L611.103 423.393L611.81 423.286L612.371 424.102L612.663 424.634L613.176 425.095L613.955 425.45L614.639 425.592L615.248 425.806H616.077L616.759 425.592L617.735 424.741L617.442 424.102L616.809 423.641L616.198 423.393L615.833 422.753L615.785 422.043L615.492 421.263L615.102 420.659L614.566 420.269L613.907 419.56L613.663 418.885L613.541 418.07V417.43L613.176 416.72L612.663 416.047L612.176 415.585L611.689 415.124L611.152 414.592L610.713 413.881L610.299 413.101L610.47 412.392H611.152L611.81 412.746L612.444 412.994L613.176 413.386L613.955 413.74L614.614 414.237L615.248 414.592L615.979 414.982L616.565 415.336L617.125 415.692L617.978 415.94L619.027 416.223L619.808 416.366L620.465 416.472L621.392 416.934L622.733 417.43L625.903 416.934L627.537 416.472L628.658 416.366H630.828L631.339 416.047L632.047 415.692L632.803 415.585L633.413 415.94L633.997 416.472L634.266 417.076L634.509 417.714L634.729 418.424L635.045 419.063L635.533 419.56L636.143 420.269L636.509 420.802L636.802 421.37L637.313 421.795L638.021 422.043L639.02 422.15H639.849L640.531 422.399L641.142 422.966L641.995 423.393L642.726 423.498L644.018 423.641L644.604 424.351L645.042 424.989L645.603 425.592L646.432 425.699L647.286 425.947L647.895 426.231L648.529 426.586L649.26 426.941L649.967 427.047L651.138 427.19L651.699 427.473H652.357L652.967 427.295L653.625 427.047H654.307L654.844 427.473L655.649 427.828L656.306 427.473L656.794 427.934L656.453 427.295L657.112 427.721L657.6 428.182L657.16 427.473L656.429 427.828L655.893 428.289L655.941 427.58L656.306 426.834L656.697 427.58L656.989 428.289L656.502 424.989L657.185 423.641L657.429 422.966L657.55 422.257L657.892 421.618L658.038 420.908L657.794 420.269L657.648 419.56L657.55 418.779L657.477 418.07L657.429 417.43L657.404 416.72L657.233 416.047L656.746 415.336L656.21 414.768L655.941 414.237L655.649 413.527L655.161 412.853L654.795 412.285L654.503 411.611L654.307 410.901L654.259 410.156L654.478 409.446L654.673 408.665L654.478 407.849L654.186 407.069L654.113 406.359L654.6 405.826L655.283 406.075L655.697 406.608L656.087 407.174L656.794 407.317L657.404 407.707L658.159 407.956H658.94L659.622 408.204L660.208 408.665L660.964 408.914L661.622 409.021H662.354L663.036 409.197L663.768 409.446L664.304 409.908L665.962 410.369L666.742 410.688L667.522 410.901L668.156 411.043L668.766 411.398L669.424 411.504L670.083 411.753L670.644 412.036L671.204 412.392L671.692 412.994L672.35 413.74L673.033 414.768L674.984 412.036L675.154 410.262L674.74 409.552L674.3 409.021L673.764 408.559L673.325 407.53L673.081 406.82L672.887 406.075L672.716 405.365L672.399 404.691L672.545 403.981L672.716 403.342L672.887 402.633L673.496 403.094L673.935 403.52L675.227 403.769L676.056 403.981H676.91L677.543 403.874H678.323L678.982 404.23L679.713 404.868L681.981 404.478L684.712 406.465L687.515 408.417L687.638 405.117L688.368 402.633L688.028 401.923L688.003 401.142L688.076 400.397L687.759 399.794L687.223 399.084L686.735 398.446L686.442 397.664L686.248 396.955L685.712 396.494L685.516 395.819L685.881 395.11L685.954 394.471L685.516 393.762L684.955 393.335L684.418 392.626L683.809 392.412L683.029 392.271L682.663 391.632L682.469 390.922L682.152 390.39L682.834 390.284L685.712 391.88L686.052 392.412L686.565 392.98H687.345L688.028 393.229L688.564 393.655L689.222 394.364L689.539 395.11L689.735 395.819L690.319 396.494L690.929 396.955L693.441 399.084L694.123 399.014L694.708 399.333L694.123 398.907L693.806 398.303L693.124 397.949H692.27L692.343 398.658L692.953 398.197L693.61 397.842L694.342 398.303L694.854 398.907L695.44 399.439L696.366 399.545L696.976 399.333L697.512 397.949L697.877 397.31L698.121 398.09L697.537 397.664L697.024 397.203L696.488 396.848L695.878 396.245L695.707 395.607L695.513 394.825L695.634 394.116L695.878 393.335L696 392.626L696.195 391.987L695.586 391.739L695.098 391.277L695.147 390.567L695.586 390.141L696.195 389.432L696.561 388.544L697.024 387.799V387.089L696.853 386.38L696.171 386.309L695.83 385.705L695.342 385.244H694.708L694.05 384.89L693.441 384.464L693.489 383.754L693.61 382.867L693.026 383.222L692.392 383.754L691.855 384.464L691.124 384.996H690.441L690.563 384.25L689.831 383.896L689.344 383.363L688.93 382.761L688.368 382.051L688.198 381.164L688.272 380.525L687.711 380.702L688.076 381.412L688.686 381.767L688.198 382.157L687.515 382.512L688.003 381.98V381.27L688.076 380.631L688.686 381.518L688.124 381.873L687.418 381.412L686.784 380.702L686.492 380.028L686.418 379.319L686.296 378.679L685.808 377.864L685.224 377.544L684.418 377.438L683.688 377.189L683.127 376.728L682.639 376.195L682.175 375.593L681.737 374.954L681.127 374.35L680.322 373.995L679.592 373.534L678.933 373.002L678.275 372.541L677.665 372.008L676.983 371.511L676.129 371.157L675.447 370.695L674.74 370.163L674.13 369.347L673.398 368.672L672.837 368.104L672.155 367.679L671.497 367.075L670.813 366.614L670.204 366.188L669.595 365.727L669.058 365.123L668.497 364.592L667.718 364.131L667.059 363.598L666.45 362.995L665.84 362.427L665.231 362.001L664.67 361.398L664.255 360.83L663.622 360.156L663.134 359.588L662.646 359.162L662.183 358.701L661.696 358.204L660.891 357.814L660.403 357.317L659.622 356.749L658.94 356.43L658.453 355.969L657.794 355.613L657.16 355.152L656.697 354.726L655.941 354.372L655.405 353.91L654.6 353.236L654.063 352.774L653.576 352.136L652.967 351.533L652.187 351.071L651.382 350.823L650.65 350.539L649.992 350.184L649.504 349.688L648.895 349.296L648.285 348.694L647.676 348.09L647.042 347.451L646.555 346.99L646.017 346.635L645.457 346.21L644.871 345.855L644.068 345.394L643.214 344.861L642.605 344.612L641.995 344.151L641.385 343.797L640.775 343.371L640.166 343.122L639.605 342.661L638.826 342.023L638.338 341.526L637.801 340.958L637.289 340.425L636.704 339.928L636.143 339.467L635.656 338.828L635.168 338.226L634.729 337.693L634.266 337.09L633.656 336.345L633.217 335.492L632.779 334.499L632.193 333.257L631.827 332.654L631.437 332.016L630.853 331.412L630.292 330.951L629.634 330.666L629.121 330.312L628.512 329.957L627.61 329.531L627 329.177L626.342 328.928H625.171L624.318 329.07L623.537 329.177L622.928 329.602L622.245 330.064L621.465 330.312L620.831 329.815L620.368 329.177L620.222 328.466L620.1 327.686L619.881 326.976L619.612 326.338L619.368 325.628L619.027 325.095L618.466 324.279L618.101 323.747L617.613 322.895L617.077 322.15L616.686 321.547L615.979 320.908L615.492 320.411L614.98 319.843L614.493 319.418L613.907 319.063L613.395 318.602L612.492 318.353L610.835 318.459H609.86L608.909 318.707L607.86 319.063L606.958 319.311L606.227 319.418L605.544 319.701L604.813 319.843L604.033 319.95L603.277 320.198L602.253 321.192L601.643 321.441H600.473L601.326 321.086L602.131 320.908L602.935 320.766L603.715 320.659L604.398 320.554L605.057 320.198L605.617 319.843L606.105 319.311L606.593 318.707L607.177 318.353L607.69 317.927L608.153 317.359L608.713 317.004L610.372 317.572L610.981 317.218L611.762 316.685L612.25 316.224L612.542 315.621L612.786 314.734L612.809 314.023L612.786 313.385L612.688 312.675L612.615 311.681L612.566 310.794V307.956L612.542 307.104L612.419 306.465L612.25 305.756L612.079 305.117L611.956 304.407L611.81 303.733L611.591 302.917L611.444 302.136L611.152 301.426L610.737 300.681L610.42 299.723L610.249 299.083L609.982 298.196L609.689 297.594L609.201 296.884L608.786 296.246L608.471 295.464L608.348 294.755L608.3 293.974L608.348 293.158L608.519 292.378L608.592 291.667L608.64 291.028L608.592 290.07L608.519 289.076L608.471 288.189L608.519 287.374L608.592 286.593L608.64 285.528L608.592 284.748L608.471 283.86L608.396 282.796L608.348 281.908L608.421 280.916L608.592 279.78L608.763 278.502L608.957 277.473L609.201 276.479L609.397 275.592L609.567 274.776L609.64 273.995V273.179L609.738 272.505L609.933 271.796L610.226 271.263L610.543 270.553L610.713 269.915L610.737 268.957L610.664 267.963V267.075L610.787 265.904L611.03 264.875L611.347 263.988L611.689 262.817L611.956 261.93L612.25 260.936L612.566 260.085L612.932 259.445L613.395 258.843L613.882 258.204L614.151 257.6L614.249 256.713L614.395 254.655L614.736 252.952L615.004 252.172L615.346 251.39L615.589 250.681L615.735 249.935L615.712 249.226V248.551L615.833 247.487L616.029 246.742L616.223 246.033L616.565 245.358L617.004 244.79L617.442 244.01L617.857 243.193L618.149 242.412L618.466 241.809L618.832 241.277L619.125 240.461L619.247 239.68L619.368 238.97L619.564 238.225L619.685 237.374L619.735 236.486L619.758 235.493L619.808 234.535L619.758 233.789L619.808 233.08L620.052 232.299L620.465 231.412L620.905 230.703L621.221 230.17L621.392 229.46V228.751L621.588 227.864L621.807 227.225L622.001 226.373L622.172 225.627L622.318 224.776L622.489 224.03L622.733 223.179L622.977 222.434L623.172 221.547V220.056L623.221 219.098L623.464 217.324L623.781 216.402L623.952 215.727L624.148 214.911L624.318 214.023L624.44 213.207L624.562 212.32L624.635 211.54L624.684 210.582L624.757 209.481L624.927 208.594L625.05 207.743L625.001 207.104L624.879 206.288L624.757 205.507L624.684 204.797L624.733 203.91L624.977 203.022L625.294 202.42L625.78 201.781L626.391 201.32L627.049 200.965L627.731 200.823L628.414 200.609L629 200.184L629.486 199.474L629.804 198.693L629.974 197.877L630.097 196.883L630.121 195.996L630.243 195.038L630.365 194.258L630.462 193.335V192.554L630.487 191.774L630.657 190.851L630.853 190.071L631.072 189.254L631.316 188.58L631.583 187.87L632.071 187.231L632.681 186.522L633.413 186.096L634.071 185.528L634.632 185.031L635.168 184.392L635.777 183.79L636.314 183.257L636.825 182.796L637.436 181.979L638.021 181.199L638.338 180.595L638.826 179.85L639.191 178.963L639.435 178.253L639.63 177.473L639.8 176.763L639.63 175.982L638.995 176.125L638.386 175.628L637.899 174.918L637.411 174.527L637.363 173.818L637.655 173.286L638.142 172.789L638.874 172.221L639.239 172.789L639.142 173.569L638.532 174.173L639.142 174.634L638.826 175.167L638.094 175.414H636.436V176.125L635.777 176.408L635.045 176.125H634.266L633.754 175.521L633.413 174.918L633.096 174.279L632.413 174.173L632.12 174.918L628.536 175.272L628.707 178.112L628.097 178.467L627.439 178.36L627.804 177.651V177.012L627.17 176.657L626.707 176.125L626.634 175.414V176.125L626.561 175.414L625.903 175.272H625.244L624.513 175.167L624.196 175.769L624.075 176.657H624.757L624.269 176.23L623.587 175.982L622.733 175.272L622.318 174.634V173.924L623.27 173.463H622.441L621.709 173.924L620.978 174.527L620.465 174.918L619.612 176.763L619.247 177.366L618.71 178.005L618.222 178.715L617.662 179.14L616.93 179.07L615.224 179.957L614.493 180.205L613.786 179.708H614.443L613.273 179.85L611.932 181.092L611.225 180.312L610.47 180.595L610.249 179.957L609.518 179.85L609.25 180.595L608.713 180.312L607.787 180.418L607.251 180.844L607.69 183.151L608.056 184.038L608.396 184.641L604.763 184.038L602.497 181.802L600.375 184.144V187.48L599.375 188.722L598.912 189.254L598.351 190.071L597.572 190.425L596.938 190.497L595.962 190.851L595.621 190.958L594.865 191.065L594.206 190.709L593.889 190.071L593.67 189.361L593.109 189.822L592.573 190.319L591.89 190.497L591.354 190.958H590.5L589.574 191.419L588.355 191.774H589.697L588.16 191.419H587.258L586.331 191.667L585.6 192.306L585.234 193.015L585.112 193.797L584.698 194.399H584.015L583.235 194.506L582.26 194.613L581.333 194.258L580.87 194.399L581.601 194.684L582.21 195.145L582.625 195.749L582.698 196.387L582.381 197.097L581.82 197.984L580.968 198.942L580.48 199.474L579.529 200.184L578.773 200.716L578.187 201.072L577.749 201.533L577.188 201.959L576.457 202.313L575.628 202.668L574.896 202.775H574.092L572.799 202.42H571.971L571.361 202.775L571.044 203.449L570.556 203.91L569.996 204.372L569.216 204.62L568.167 204.797L567.069 204.903L566.119 205.045L565.314 205.259L564.461 205.613L563.559 205.861L562.681 205.968H560.73L559.828 206.288L559.048 206.643L558.853 207.352L557.829 207.458H557.147L556.464 207.636L555.732 207.743L555.074 207.991L554.05 208.452L553.294 208.701L552.562 208.985H551.222L550.442 209.127L549.71 209.481L549.174 209.836L548.539 209.943L547.809 209.836L547.077 209.481L546.296 209.339H544.639L543.81 209.232L543.127 208.985L542.517 208.594L542.03 207.991L541.469 207.636L540.933 207.352L540.201 207.743L539.518 208.345L538.934 208.985L538.567 209.836L538.446 210.475L538.202 211.291L537.836 212.178L537.275 213.029L536.617 213.562L535.886 214.13L535.251 214.484L534.521 214.911L534.106 215.514L533.74 216.046L533.302 216.614L532.96 217.324L532.35 217.856L531.595 218.566L530.522 219.241L529.912 218.992L529.4 218.353L528.571 217.998L526.011 217.643L525.45 218.211L524.67 218.459L523.743 218.211L523.207 217.643L522.89 217.111L522.28 216.402L521.719 215.869L521.062 215.514L520.33 215.017L519.526 214.484L517.819 213.562L517.039 213.207L516.381 212.782L515.77 212.534L515.161 212.071L514.551 211.54L513.917 211.184L513.186 210.475L512.358 209.836L511.553 209.127L510.699 208.594L509.773 208.098L508.919 207.743L508.091 207.352L507.335 207.104L506.555 206.749L505.774 206.5L505.019 206.288L504.287 205.968L503.262 205.613L502.653 205.152L502.044 204.797L501.361 204.513L500.508 204.372L499.557 204.513L498.63 204.903L497.777 205.045L496.973 205.152L496.144 204.903L495.291 204.513L494.412 203.91L493.559 203.662L492.462 204.158L491.998 204.797L491.804 205.507L492.34 206.146M492.34 206.146L492.364 205.507M492.34 206.146L493.071 206.288L494.071 205.613L493.096 204.903L492.852 204.158L493.315 204.62L492.657 205.045L492.121 205.507L492.048 206.146L492.608 205.861L493.315 205.756L492.364 205.507M492.34 206.146L492.535 205.507H491.852L492.364 205.152L491.243 205.756V205.045L491.731 204.513H492.462L491.512 204.797L491.975 204.372L492.657 204.158L492.584 203.449L491.512 203.022L491.145 203.662L491.487 204.265H492.169L491.56 204.62L491.145 203.91L491.268 203.2L490.828 202.42L490.048 202.313H489.317L488.463 202.42L487.61 202.313L486.878 202.207L486.026 201.674L485.465 200.965L485.05 200.361L484.246 199.936H483.514L482.709 200.184L481.855 200.361H481.149L480.54 199.936L480.173 199.368L479.662 198.942L478.833 198.587L478.32 197.984L477.613 197.097L477.248 196.529L476.857 195.996L476.492 195.393L475.833 194.613L475.297 194.045L474.737 193.335L474.078 192.91L472.957 192.448L472.127 192.306H471.689L470.347 192.554L469.982 192.661L469.007 193.548L468.471 194.045L468.275 194.399L467.715 195.038L467.373 195.642L466.862 196.103L466.251 196.387H465.472L464.911 196.883L464.423 197.451L463.886 197.77L463.204 197.984L462.302 198.232L460.912 198.587H460.059H460.79L461.497 198.232L461.936 198.693L462.716 198.587L462.106 199.368L460.278 200.078L459.498 200.184H460.278L460.765 199.722L461.278 199.368H461.936L462.594 199.225L461.862 198.693L461.399 197.984L461.009 197.097L460.644 196.529L460.107 195.996H459.498L458.571 196.387L458.035 196.742L457.597 197.239L456.816 197.451H455.963L455.28 197.345L454.377 197.239L453.524 196.883L452.915 196.636L452.598 196.103L452.549 195.287L452.378 194.613L452.061 194.045L451.573 193.548L450.915 193.015L450.281 192.661L449.624 192.306L449.087 191.845L448.697 191.206L448.574 190.497L447.844 190.425L447.112 190.319L446.575 189.822L445.771 189.715L445.161 189.467L444.309 188.935L443.967 189.61L443.333 189.715L442.602 189.61L441.894 189.715L441.406 190.319L440.968 190.709L440.309 190.319L439.627 190.425L438.896 190.319L437.993 190.071L437.262 189.715L436.579 189.467L435.969 189.077L435.774 188.225L435.603 187.587L434.823 187.48L434.312 187.87L433.775 188.722L433.458 189.361L432.873 189.715L432.239 189.254L432.068 188.225L431.947 187.338L431.776 186.629L431.63 185.883L431.58 185.031V183.931L431.459 182.796L431.142 181.909L430.533 181.092L429.801 180.49L428.972 180.205L428.167 179.602L427.557 179.07L427.192 178.467L426.704 177.756L425.851 177.651L425.193 178.112L424.315 178.467L424.876 177.756L425.681 177.366L426.265 176.657L426.631 176.125L426.9 175.272L426.534 174.634L426.021 174.279L425.412 173.924L424.876 173.463L424.339 172.789L423.73 171.085L423.974 168.601L424.145 167.785L424.559 166.401V165.762L423.828 165.514L422.877 165.301L422.145 164.946L421.414 164.627L420.609 164.059L419.755 163.704L419.024 163.384L418.463 162.816L418 162.214L417.635 161.575L417.122 160.723L416.343 160.617L415.782 161.078L415.245 161.788L415.855 161.433L416.172 160.866L416.391 159.979L416.464 159.091L416.512 158.381V157.707L416.586 156.891L416.512 156.004L415.805 155.755L415.001 155.543L414.392 155.294L414.1 154.513L414.44 153.803L413.952 154.3H413.221L412.929 153.413L413.343 152.704L413.587 151.817L413.465 150.859L413.343 150.22V149.368L413.709 148.729L414.392 148.268L414.196 147.487L414.392 146.777L414.319 146.138L414.148 145.429L414.026 144.542L414.221 143.69L414.636 143.051L414.392 142.341L413.612 141.915L412.856 142.164L412.197 142.448L411.539 142.945L410.905 143.051L410.296 143.299L409.467 143.584L408.833 143.938L408.589 144.649L408.101 145.18L407.492 145.641L406.761 145.997L406.053 145.89L405.736 145.287L404.835 145.429L404.2 145.783L403.591 145.997L402.98 146.423L402.396 146.67L401.762 147.026L401.152 147.238L400.324 147.487L399.518 147.238L398.959 146.529L398.544 145.89V145.18L398.617 144.4L398.544 143.584V142.945L399.08 142.341L399.592 141.703L400.006 140.852L400.445 140.319L401.177 139.609L401.835 138.97L402.03 138.261L401.957 137.374L401.591 136.77L401.152 136.238L400.25 135.883H399.568L398.715 136.025L397.983 135.883L397.373 135.422L396.715 135.173L395.935 135.137L395.13 134.889L394.35 134.783H392.765L390.741 134.642H388.84L387.864 134.535L386.913 134.286L386.109 134.074L385.329 133.931H384.646L383.793 134.074L383.183 134.428L382.647 134.783L382.134 135.315L381.72 136.025L381.306 136.558L380.989 137.125L380.867 137.835L381.233 138.615L380.94 139.325L380.501 140.106L380.135 140.674L379.404 140.993L378.551 141.347H377.819L377.136 141.454L376.552 141.81L376.6 142.59L376.064 143.299L375.308 143.584L374.601 143.832L374.04 144.186L373.382 144.293L372.529 144.186L371.675 143.938L370.749 143.69H369.846M492.364 205.507L492.462 206.146L491.852 205.968L492.364 205.507ZM369.846 143.69L369.407 144.186L368.798 144.649L368.31 145.074L367.53 145.18L367.287 145.997L367.823 145.429L368.506 145.89L368.115 146.423H368.75L369.042 145.641L369.286 145.003L369.578 144.4L369.846 143.69ZM369.846 143.69L369.286 144.293L368.798 145.003L368.481 145.641L367.774 145.783L367.579 145.074L368.018 144.542L367.213 144.4H366.433L365.701 144.542L365.067 144.649L364.287 145.003L363.556 144.649L362.995 143.938L362.215 143.69L361.361 143.584L360.923 143.158L360.508 142.341L360.337 141.561L360.094 140.745L359.533 140.46H358.728L357.997 140.106L357.411 139.397L356.924 138.97L356.558 138.367L356.071 137.835L355.51 137.267L354.949 136.558L354.852 135.776L355.437 134.642L355.681 134.286L356.046 133.399V132.583L355.461 130.808L355.437 129.637L355.583 128.857L355.827 127.863L356.071 127.011L356.168 126.266L356.071 125.308L355.754 124.669L355.218 124.067L354.486 123.818H353.851L353.072 124.067L352.34 124.528L351.535 124.776H350.829L349.853 125.025L349.097 125.663L348.244 126.55L347.464 127.367L346.781 127.721L346.001 127.615L345.635 127.011L345.44 126.373L345.562 125.415L346.001 124.528L346.537 123.711L346.781 122.824L346.562 121.937L346.245 121.121L345.879 120.34L345.757 119.63V118.849L346.001 117.962L346.366 116.898L346.416 116.259L346.123 115.549L345.562 114.662L344.903 113.668L344.294 112.817L343.856 112.178L343.563 111.469L343.27 110.829L342.637 109.871L342.051 109.339L341.417 108.63L340.638 107.743L340.198 107.139L338.687 105.791L337.882 105.436H337.174L336.444 105.258L335.761 105.152L334.858 105.011L333.762 105.152L332.713 105.436L331.738 105.791L330.762 105.898L329.787 105.791L328.934 105.542L328.251 105.152L327.642 104.443L326.862 103.661L326.008 103.059L325.082 102.596L324.13 102.313L323.253 102.171H322.302L321.424 102.313L320.571 102.703L319.79 102.952L318.937 103.059L318.498 102.313L318.523 101.462L318.864 100.716L319.303 99.8642L319.84 99.3323L320.4 98.6228L320.937 98.0899L321.326 97.5221L321.424 96.8126L320.937 96.0323L320.4 95.3228L320.327 94.683L322.156 92.1992L322.18 91.4897L321.693 91.0636L320.717 90.8151L321.303 90.4609L320.693 90.2473L319.863 89.8931L319.132 89.4669L318.889 88.509L319.132 87.6218L319.498 86.7347L319.62 86.1669L319.79 85.4574L319.913 84.6759L320.084 83.9664L319.913 83.3278L319.303 82.8308H318.621L316.621 81.0565L315.767 80.5955H313.939L313.208 80.9508L312.598 81.7312L313.159 82.1921L313.451 81.4827L313.012 81.0565L312.184 80.9508L311.55 81.4827L311.013 82.1921L310.233 82.299H309.233L308.259 82.4406L307.405 82.5475L306.698 82.4406L305.966 81.9437L305.283 81.7312L304.626 81.4827L304.138 81.0565L303.894 80.347L303.943 79.4599L304.016 78.7504L304.43 77.5079L304.918 76.6208L305.479 75.8045L306.088 74.9173L306.673 74.101L306.99 73.2139L307.112 72.4336L306.99 71.6173L306.673 70.7301L306.21 70.2331L305.722 69.7721L305.333 69.2403L304.918 68.424L304.795 67.5369L304.991 66.8622L305.356 66.1527L305.698 65.4073L305.82 64.5561L305.698 63.669L305.406 62.9583L305.039 62.0712L304.918 61.3617L304.991 60.7231L305.21 60.0136L305.6 59.4817L306.429 59.1264L306.942 58.6654L307.673 57.9908L308.259 57.5298L308.868 56.9968L309.502 56.3942L310.208 55.8263L311.013 55.507L311.794 55.046L312.403 54.6907L312.768 53.8036L312.793 52.9873V51.9584L312.768 50.9645V50.1482L312.842 49.4747L312.891 48.6584L312.915 48.0197V47.3091L312.964 46.5288L313.135 45.7125L313.281 45.0378L313.647 44.2227L314.256 43.6897L315.085 43.4412L315.963 43.087L316.67 42.9802H317.474L318.45 42.8734L319.303 42.8025H320.278L321.059 42.8734H322.4L323.033 42.8025L323.765 42.4484L324.496 42.0931L325.228 41.6321L325.96 41.3127L326.666 40.8506L327.35 40.2479L327.959 39.5025L328.519 38.6513L329.007 37.9058L329.422 37.1244L329.787 36.4149L330.104 35.7762L330.445 35.0667L330.835 34.0379L331.177 33.2216L331.494 32.4413L331.786 31.5182L331.933 30.7378V29.8507L331.738 29.0344L331.542 28.2529L331.323 27.5435L331.25 26.5495V25.415L331.129 24.7044L330.933 23.924L330.445 22.6816L330.275 22.3274L329.787 21.6179L329.372 20.8725L329.055 19.9853L328.69 19.2758L328.397 18.4944L328.129 17.6781L327.886 16.8977L327.544 16.0814L327.179 15.4079L326.739 14.8401L326.179 14.3071L325.57 13.953L325.033 13.456L324.35 13.1007L323.619 12.8173L322.79 12.462L322.302 12.001L321.789 11.5749L321.253 11.1139L320.595 10.4044L319.863 9.72976L319.059 9.26876L318.158 8.91345L317.304 8.38161L316.451 8.02631L315.524 7.671L314.598 7.24598L313.573 6.89067L312.549 6.32286L311.501 6.07437L310.452 5.79102L309.428 5.54253L308.501 5.43572L307.307 5.08041L306.625 4.83304L305.966 4.47773H305.089L304.259 4.72623H303.577L302.894 4.47773H302.041L301.089 4.83304L300.285 5.18722L299.31 5.79102L298.286 6.32286L297.433 6.78386H296.677L295.97 6.53537L295.288 6.07437L294.629 5.43572L293.946 4.83304L293.214 4.4069L292.361 4.30008L291.434 4.19327L290.533 4.05159L289.752 3.48378L288.997 2.81027L288.022 2.09965L286.827 1.63865L286.192 1.56782L285.583 1.35531L284.559 1H283.755L282.974 1.35531L281.706 2.09965L281.024 2.59663L280.049 2.81027L279.146 3.05876L278.586 3.3421L277.415 3.69741L276.879 4.05159L275.903 4.30008L275.124 4.47773L274.44 4.83304L273.758 5.08041L273.1 5.54253L272.539 5.89671L272.051 6.32286L271.466 7.03235L270.857 7.56531L270.174 8.2748L269.491 8.91345L269.004 9.37445L268.638 9.97825L268.028 10.6169L267.322 11.1139L266.565 11.5749L265.785 12.001L264.981 12.462L264.152 12.923L263.153 13.456L262.615 13.953L261.592 14.6973L260.836 15.5496L260.299 16.1882L259.689 16.4367L258.836 16.7909L257.861 17.1462L256.959 17.5364L256.325 18.1402L255.716 18.7788L255.228 19.4883L254.862 20.163L254.521 20.8725L254.253 21.6179L253.911 22.4691L253.546 23.2146L253.058 23.924L252.546 24.4559L252.058 25.1665L251.644 25.84L251.278 26.5495L250.864 27.1893L250.424 27.8988L249.767 28.7859L249.206 29.4954L248.523 30.0272L247.816 30.7378L247.182 31.4473L246.572 31.9792L246.109 32.8663L245.792 33.5758L245.548 34.3573L245.305 35.2793L244.939 36.0607L244.452 36.877L243.891 37.5505L243.183 38.1183L242.428 38.4736L241.599 38.5445L240.915 38.793L240.135 39.3608L239.648 39.9635L239.014 40.6021L238.185 41.3836L237.38 42.1999L236.332 43.6897L235.747 44.3283L235.187 44.9321L234.576 45.5348L234.138 45.925L233.797 46.5288L233.553 47.1674L233.236 48.3739L233.113 48.6584L232.992 49.3679L232.944 50.0065L232.87 50.716L232.748 51.6031L232.7 52.1001L232.577 52.7388L232.212 53.8036L232.017 54.1578L231.529 54.7975L230.92 55.4002L230.261 55.9332L229.895 56.5358L229.505 57.1745L228.969 57.6355L228.359 57.9908L227.701 58.3461L227.067 58.5226L226.409 59.0196L225.848 59.3749L225.434 59.9068L225.117 60.4746L224.702 61.0784L224.044 61.3617L223.483 61.717L222.874 62.0712L222.191 62.675L221.215 63.5621L220.923 63.9175L220.386 64.3425L219.777 64.8046L219.168 65.2656L218.606 65.5849L218.07 66.1527L217.461 67.1816L217.071 67.6425L216.534 68.2463L215.876 68.7782L215.315 69.1335L214.754 69.7721L214.462 70.3759L214.047 71.1911L213.779 71.8309L213.243 72.5404L212.511 72.718L211.658 72.8597L210.975 73.3207L210.56 74.0302L209.951 74.5632L209.39 74.9173L208.853 75.3795L208.294 75.8045L207.806 76.2666L207.318 76.8693L206.708 77.4022L205.977 78.0049L205.148 78.2894L204.417 78.8921L203.612 79.1046L202.808 79.4599L201.856 79.6016L201.003 79.7792L200.028 79.886L199.419 80.2402L198.808 80.4887L198.126 80.844L197.395 81.0565L196.541 81.2342L195.736 81.4827L194.225 84.5702L193.981 87.4093L193.737 88.1188L193.372 88.8643L193.055 89.6446L192.762 90.3541L192.274 91.1344L192.08 91.4897L191.713 92.0575L191.3 92.9447L190.933 93.6542L190.616 94.683L190.202 93.9735L189.666 93.4417L189.032 92.4837L188.495 91.845L187.934 91.0636L187.106 90.8151L186.837 90.2473L186.862 89.5738L186.252 89.2185L185.57 89.0059L184.887 88.8643H183.936L183.302 89.0059H181.717L181.059 88.509L180.498 87.9771L179.84 87.6218L179.108 87.1608L178.571 86.7347L177.645 86.1669L177.036 85.9184L176.378 85.6699L175.695 85.2797L174.963 84.7827L174.281 84.5702L173.671 84.3217L172.599 83.9664L172.209 83.8956L171.599 83.4346L169.283 85.4574L168.673 85.6699L167.966 85.4574L165.089 87.1608L161.919 87.6218L159.238 85.8116L158.871 82.5475L159.359 79.1046L158.433 76.053L156.555 73.4275L155.628 73.0722L154.8 73.2139L153.946 73.0722L153.215 72.718L152.532 72.3268L151.874 71.6173L151.435 70.9438L151.118 69.879L150.777 69.1335L150.29 68.3532L149.656 67.6425L148.948 66.9331L148.022 65.5849L147.656 64.5561L147.534 64.094L147.168 63.2068L146.851 62.4265L146.803 61.1841L146.876 60.7231L146.973 59.9068L147.363 56.6427L146.803 53.3426L146.267 51.3906L145.779 50.1482L143.828 48.1254L143.194 48.4807L142.536 48.9069L141.853 49.4747L141.146 50.255L140.877 50.8577L140.512 51.4963L140.097 52.1001L139.537 52.4554L138.391 52.9873L137.781 53.4483L137.171 53.8036L136.879 54.1578L136.148 54.9392L135.709 55.507L135.295 55.9332L135.051 56.1805L134.197 56.8911L133.563 57.1745L133.221 57.5298L132.247 58.3461L131.881 58.6654L130.832 59.4817L130.467 59.7291L129.736 60.1204L128.712 60.7231L128.394 61.0784L126.98 62.5682L126.615 63.3137L126.2 64.0231L125.761 64.8046L125.176 65.4073L124.493 66.0459L123.762 66.8622L123.03 67.6425L122.47 68.424L121.934 69.2403L121.446 69.879L120.885 70.5885L120.275 71.1911L119.617 71.8309L118.837 72.3268L118.032 72.6112L117.252 73.0722L116.569 73.5692L115.887 74.101L115.228 74.6689L114.57 75.3795L113.961 75.9113L113.351 76.4083L112.668 76.9401L112.01 77.4022L111.327 77.6496L110.668 78.0049L109.986 78.2174L109.303 78.3951L108.596 78.7504L107.865 78.8921L107.183 78.9989L106.451 79.1046L105.719 79.4599L104.915 79.7084L104.013 80.1345L103.16 80.4887L102.355 80.844L101.501 81.0565L100.673 81.4827L99.6967 83.0793L99.673 83.7888L99.5505 84.6759L99.4538 85.3865L99.3312 86.0252L99.1851 86.8055L99.0636 87.6218L98.9658 88.6506L98.8432 89.4669L98.6487 90.3541L97.9898 91.5965L97.747 92.1992L97.3568 93.0864L96.9419 93.9735L96.5765 94.8966L96.1616 95.677L95.7231 96.4933L95.3576 97.2736L95.0406 97.9842L94.7966 98.7645L94.5042 99.5808L94.0162 100.113L93.4068 100.716L92.5534 100.929L90.7735 101.462L90.6509 102.313L89.9448 102.065L89.5052 101.462L89.0667 100.929L88.4573 100.575L87.9693 100.007L87.7984 99.3323L88.0918 98.7645L89.9448 97.2736L90.3586 98.516L91.1389 97.2736L91.456 96.6349M91.456 96.6349L89.9932 95.5701L89.3838 94.8966L89.1398 96.7417L89.7492 97.3804H90.4081L89.9932 95.3228L89.9201 96.0323L90.3103 97.1679L90.7735 96.6349H91.456ZM91.456 96.6349L92.0171 97.2736L92.4309 97.9842L92.8705 98.516L93.5283 98.1607L93.9432 97.5221L96.527 95.5701L94.8697 98.516L94.2602 99.5808L93.1145 100.716H94.2108L94.8213 100.822L95.5522 100.929H96.2594L97.4782 100.822L98.4047 100.716L99.0872 100.575H99.7945L99.917 104.087L98.2102 100.929L97.3568 101H96.6248L96.0154 100.822L94.7966 100.716H93.9679L93.0414 100.822H91.2615L90.5295 100.929M90.5295 100.929L89.7492 100.822L90.5295 100.361L91.1389 99.7585L90.8466 98.8713L90.4081 97.9842L90.1877 97.2736L89.9201 96.2807L89.8717 95.3228L90.4812 96.4933L90.1641 98.1607L90.2372 97.3804L90.5542 96.0323L90.1146 96.6349L89.6277 97.8774L89.3354 97.1679L89.9932 96.8126L89.7492 97.7357L92.3094 96.4933L94.918 94.1871L92.8705 97.2736L90.3586 99.3323L89.6761 99.5808L89.7492 98.6228L90.4081 97.8774L91.8214 97.5221L92.0171 98.516L92.7243 98.0899L89.8717 94.1871L90.8466 96.3864V97.1679L91.0175 98.1607L91.3346 99.2255L91.4077 100.007L91.1637 100.716L90.5295 100.929ZM90.5295 100.929L89.8717 101.355L89.6277 102.171L89.2612 102.845L88.7249 103.661L88.1649 104.3L87.6038 105.152L87.0675 105.791L86.5064 106.393L86.0185 107.033L85.653 107.743L85.2393 108.275L84.7996 108.736L84.2149 109.446L84.3364 110.333H85.2876L86.0432 109.871L86.7752 109.446H87.4824L88.0424 109.871L88.2863 110.688L87.994 111.469L87.4329 112.284L86.7752 112.817L86.0927 113.42L85.4821 113.953L84.7029 114.414L84.0688 114.911L83.4593 115.656L83.239 116.259L82.2641 117.146L81.2893 118.282L80.9227 118.991L80.6068 119.524L80.3133 120.234L80.1919 121.121L80.4359 121.83L80.6068 122.469L80.2897 123.073L80.1919 123.818L80.2897 124.669L80.3133 125.415L80.2897 126.266L80.1671 127.26L80.1188 128.04L80.0457 128.857L79.9962 129.637L79.8017 130.808L79.5094 131.34L79.1428 132.69L80.4111 135.529L80.5573 137.835V138.722L80.4842 139.077L80.4359 139.751L80.3628 140.993L80.4359 141.915L80.4842 142.341L80.6068 143.584L80.6551 144.293L80.6799 145.003V145.783L80.4842 146.67L80.1188 147.735L79.7039 148.622L79.4363 149.509L79.0945 150.22L78.485 150.752L78.0465 151.461L77.7295 152.207L77.5102 152.916L76.9975 153.803L76.5837 154.3L76.2172 154.868L75.7786 155.294L75.2423 155.755L74.7543 156.358L74.2675 156.891L73.9504 157.6L73.7795 158.239L73.5838 159.091L73.2184 160.723L73.1206 161.22L73.0475 164.875L72.9991 166.118L72.365 168.601L72.1941 169.382L71.9996 170.091L71.9017 170.553L71.7556 171.192L71.6341 172.221L71.5847 172.682L71.4632 173.463L71.2192 174.634L71.0247 175.414L70.9022 176.125L70.8538 176.869L70.9269 177.651L71.0483 178.467L71.0978 179.496L70.9022 180.418L70.6582 181.66L70.4884 182.547L70.5615 183.434L70.8538 184.499L71.2676 185.386L71.7556 186.167L72.3166 186.983L73.2915 188.119L73.9504 188.828L75.3154 189.254L76.0474 189.077L76.8266 188.935H78.3389L78.973 189.254L79.8264 189.61L80.6799 189.822L81.7761 190.319L82.2394 190.709L83.6539 191.845H84.3858L85.2876 188.828L88.1649 190.177L90.6509 192.554L93.6013 194.258L97.0633 193.797L99.9901 193.335L101.77 192.91V192.093L102.233 191.56L102.964 191.419L103.647 191.56L104.256 192.199L104.744 192.661L105.353 193.335L106.134 194.258L107.012 195.038L107.987 195.749L110.839 197.77L114.545 199.225L117.301 200.361L118.153 200.823L118.934 201.426L119.543 201.959L120.031 202.668L123.079 203.804L124.42 204.513L125.225 205.259L127.541 207.743L129.613 210.723L131.199 213.207L132.344 216.259L133.271 219.346L135.343 221.83L137.781 224.244L138.634 225.273L139.244 225.912L139.561 226.266L140.17 227.082L140.781 228.112L141.756 229.212L142.413 230.24L142.974 231.057L143.511 231.944L143.926 233.009L144.243 233.789L144.487 234.535L144.852 235.387L145.291 235.919L146.242 236.735L148.46 238.97L149.192 239.574L149.9 240.106L150.655 240.461L151.386 240.922L152.118 241.277L152.825 241.809L153.508 242.306L154.165 242.874L154.775 243.299L155.336 243.903L157.969 245.89L158.384 246.033L159.115 246.494L159.847 246.849L160.822 247.629L161.114 247.983L161.724 248.623L162.358 249.333L163.017 250.042L165.283 252.277L166.673 255.72L167.088 256.359L167.893 257.956L168.307 258.736L168.697 259.552L169.185 260.439L170.014 261.468L171.477 263.278L171.965 263.988L172.647 265.124L172.891 265.585L173.452 266.366L174.11 267.075L174.769 267.714L175.524 268.318L176.182 268.743L176.743 269.311L177.28 269.808L177.841 270.341L178.45 270.553L179.182 271.05L179.913 271.263L180.572 271.44L181.254 272.043L181.741 272.754L182.229 273.995L182.4 274.882L182.473 275.344L182.717 276.373L182.839 276.727L183.18 277.366L183.57 278.077L184.057 278.857L184.472 279.566L184.911 280.312L185.374 281.021L185.643 281.554L186.227 282.157L186.618 282.69L187.106 283.293L187.569 283.86L188.178 284.748L188.544 285.457L188.983 286.132L189.226 286.593L190.446 288.474L191.104 289.183L191.786 290.07L192.445 290.78L194.03 293.974L195.127 297.238L195.029 298.942L194.883 299.723L194.712 300.681L194.591 301.426L194.712 302.917L194.908 303.733L195.2 304.513L195.444 305.507L195.688 306.465L196.005 307.459L196.419 308.488L196.785 309.304L197.151 310.191L197.322 310.652L197.687 311.895L197.882 312.782L198.248 314.379L198.492 315.23L198.808 315.869L199.271 316.685L199.784 317.359L200.369 318.069L200.978 318.707L201.491 319.418L202.027 320.057L202.514 320.766L202.808 321.086L203.319 321.795L203.978 322.434L204.661 322.895L205.441 323.498L206.245 324.03L207.074 324.634L207.879 325.273L208.659 325.734L209.39 326.444L210 327.118L210.633 327.827L211.292 328.573L211.975 329.177L212.755 329.708L213.486 330.312L214.218 330.773L214.949 331.199L215.681 331.767L216.413 332.37L217.144 332.796L217.876 333.364L218.606 334.037L219.387 334.605L220.192 335.209L221.849 336.203L222.752 336.628L223.166 336.876L224.458 337.587L226.774 339.041L228.237 340.887L228.774 341.526L229.213 342.377L229.701 343.016L230.139 343.797L230.627 344.612L231.164 345.394L231.773 346.21L232.431 346.849L233.553 347.913L234.284 348.587L235.064 349.403L235.747 350.042L236.454 350.823L237.063 351.426L237.697 351.887L238.307 352.42L238.893 353.236L239.502 354.017L239.819 354.62L240.356 355.365L240.915 356.323L241.403 357.104L241.842 357.814L242.209 358.559L242.501 359.446L242.745 360.653L242.866 361.646L242.989 362.888L243.037 363.882L243.11 365.123L243.159 366.33L243.183 366.614L243.232 368.318V370.624L243.183 371.654L243.11 372.753L242.989 373.641V375.734L243.183 377.792L243.281 378.325L243.476 379.566L243.793 382.405L243.841 383.222V384.464L243.793 385.244L243.671 385.954L243.525 386.735L243.403 387.089L242.915 388.439L242.549 389.432L242.135 390.39L241.769 391.277L241.477 392.271L241.209 393.335L240.989 394.364L240.915 394.72L240.721 395.607L240.55 396.494L240.356 397.31L240.185 398.197L239.989 399.014L239.746 400.042L238.722 403.52L238.478 404.478L238.161 405.365L237.917 406.359L237.795 406.713L237.624 408.062V409.021L237.673 410.013L237.868 410.901L238.161 411.859L238.551 412.746L239.087 413.386L239.697 413.881L240.379 414.237L241.086 414.449L241.769 414.592L242.501 414.768L243.281 414.875L244.037 414.982L244.89 415.124H248.181L249.767 415.336L250.791 415.585L252.668 416.223L255.106 417.43L258.422 418.672L260.129 420.127L260.299 421.511L260.494 422.257L260.665 422.611L261.225 423.498L261.567 424.208L261.884 424.741L262.201 425.343L263.908 425.947H264.688L265.175 426.479L265.006 427.295L264.931 427.934L265.834 428.289L266.2 427.19L266.638 426.337L267.126 425.806L267.687 425.343L268.028 424.989L268.785 425.095L269.857 425.45L270.369 425.343L269.613 423.747L269.881 423.108L270.711 423.393L271.271 424.102L271.929 424.741L272.539 425.343L273.294 425.592L274.026 425.806L274.684 426.231L275.416 426.834L276.147 427.473L279.512 428.892L282.365 429.425H285.827L289.265 430.561L292.312 430.666L295.58 430.134L298.652 429.07L301.26 431.022L303.138 433.967L304.966 436.7L308.453 437.054L312.061 438.048L315.036 437.161L318.694 436.451H322.229L325.326 436.805L327.788 438.828L329.787 441.384L330.47 444.755L331.25 448.055L332.957 449.758L333.445 450.185L333.81 450.787V451.497L333.615 452.136L333.201 452.952L332.835 453.733L332.591 454.62L332.396 455.437L332.177 456.324L331.933 457.175L331.615 457.92L331.177 458.63L330.689 459.41L330.202 460.192L329.616 461.54L329.349 462.356L329.105 463.243L328.861 464.201L328.69 464.981L328.568 465.798L328.495 466.579L328.324 467.466L327.959 468.53L327.544 469.276L327.154 469.985L326.739 470.66L326.252 471.227L325.716 471.547L325.203 472.008L324.594 472.256L323.886 472.363L321.205 474.386L319.84 477.331L318.986 478.928L318.377 479.177L317.791 479.638L317.06 479.886H315.84L313.378 479.389L312.111 479.034L310.94 478.573H310.038L309.306 479.034L308.868 479.745L308.405 480.525L307.965 481.235L307.405 481.766L306.819 482.122L306.185 482.725L305.479 483.116L304.845 483.364L304.113 483.613L303.406 483.967L301.821 484.357L300.943 484.712L298.042 484.961L294.556 485.67L294.117 485.741L291.386 487.445L288.216 489.29L286.071 491.987L284.876 494.826L282.73 497.31L280.17 500.291L278.39 501.994L277.562 502.881L276.026 505.543L276.343 508.559L273.148 509.623L270.491 512.462L267.931 514.592L265.127 515.833L261.763 517.679L259.203 519.276L256.203 520.624L253.034 521.76L249.767 523.002L247.743 525.947L245.012 527.65L241.721 529.035L238.649 530.029L235.112 530.631L231.821 531.092L228.359 532.619L226.092 534.925L225.311 538.119L222.093 540.603L219.752 542.2L217.753 544.932L214.218 545.288L211.414 547.31L208.611 548.907L205.074 548.765L201.71 549.261L198.565 549.12L195.444 550.255L192.201 550.61L188.422 549.652L185.009 549.12L182.277 548.198L179.182 547.062L176.792 549.261L175.012 546.28L177.694 543.867L180.328 542.093L179.182 545.181L175.573 544.932L172.695 543.336L168.916 542.449L166.113 541.845L162.944 540.958L160.334 543.229L156.677 543.336L153.752 541.277L151.605 538.545L149.606 536.061L146.876 534.002L144.316 531.518L141.56 529.78L139.122 527.544L136.977 525.167L136.001 521.76L134.563 518.566L134.051 515.301L130.882 513.101L132.125 510.156L130.759 507.069L127.906 504.726L126.078 501.994L124.688 499.048L122.47 496.778L121.763 496.564L121.129 496.316L120.544 496.564H120.056L119.178 496.316L118.691 496.067L117.667 495.429L117.13 495.323L116.252 495.429L115.277 496.067L114.789 496.92L114.424 497.558L114.058 498.268L113.595 498.907L113.034 499.51L112.352 499.759L110.912 497.665L110.23 498.019L109.572 498.375L108.767 498.694L107.743 499.155L106.768 499.865L106.329 500.397L105.549 501.214L104.988 501.994L104.452 502.881L104.062 503.698L103.696 504.371L103.208 505.082L102.623 505.543L101.891 506.075L101.038 506.678L100.233 507.21L99.5505 507.92L98.8196 508.382L97.9898 509.02L97.1375 509.623L96.2594 510.156L95.3576 510.759L94.5042 511.221L93.7239 511.753L92.9919 512.462L92.3094 513.101L91.8214 513.953L91.2615 514.699L90.6026 515.301L89.9448 515.586L89.6277 514.946L90.0415 514.131L90.7982 513.598L90.2855 513.953L89.1881 514.343L88.9689 515.053V515.833L88.8958 516.649L88.7743 517.324L88.6518 518.034L88.5787 518.672L88.2863 519.63L87.9209 520.27L87.2384 521.263L86.7752 521.972L86.2141 522.469L85.5316 523.002L84.7996 523.463L84.0688 523.819L83.4099 524.457L82.8005 525.06L82.191 525.593L81.63 526.195L81.0936 526.551L80.5573 526.941L79.9479 527.295L79.1923 527.792L78.2905 528.431L77.4371 529.247L76.2902 530.631L75.9732 531.164L75.3637 531.625L74.7543 532.228L73.9504 532.761L73.2915 533.329L72.5606 534.002L71.7556 534.713L70.9022 535.351L70.0488 535.706L69.0975 536.168L68.1227 536.522L67.1478 536.841L66.1482 536.948H64.0265L62.9786 537.055L61.8328 537.197L60.5645 537.551L58.0043 538.191L56.7855 538.296L55.6633 538.438L54.5907 538.296H50.7385L50.0076 538.438L46.7885 539.893L46.1791 540.603L43.8381 543.087L41.1081 544.684L40.3278 544.826L39.5227 544.932L38.6693 545.181H37.889L37.1581 545.288L35.8167 545.713L35.2568 546.068L34.0863 547.062L33.5499 548.126L33.0136 548.907L32.33 549.546L31.3068 550.255L30.7457 550.61L30.0868 550.965L29.4774 551.142L28.2586 551.852L27.0397 552.739L24.7718 554.584L24.1141 555.33L23.8701 556.182V556.926L23.9679 557.885L24.1141 558.524V559.375L23.8701 560.121L22.2611 563.314L21.1153 566.686L19.4569 569.879L18.482 571.015L17.8231 571.724L17.2137 572.611L16.5312 573.215L15.9218 573.854L15.3124 574.563L14.7029 575.202L13.8495 576.16L13.3132 576.586L12.7769 577.154L12.2158 577.757L11.6795 578.29L11.1667 578.644L10.8744 578.999L7.94873 580.242L7.46074 580.702L7.02223 581.377L6.55898 582.264L6.19355 583.079L5.87648 583.967L5.51105 585.102L5.38849 586.167L5.34014 587.054L5.21758 587.87L4.97472 588.864L4.58455 589.752L4.12131 590.71L3.73114 591.845L3.24316 592.732L2.99916 593.193L2.41448 593.832L1.78033 594.542L1.60942 595.216L1.80506 596.032L2.09741 596.671L2.38975 597.381L2.29192 598.411L1.73198 598.765L2.3414 598.411L2.02432 597.807L1.73198 598.516L1.17091 599.403L1 601" stroke="#ED592B" stroke-width="2" stroke-linejoin="round"/>
</svg>
